G04*
G04 #@! TF.GenerationSoftware,Altium Limited,Altium Designer,23.3.1 (30)*
G04*
G04 Layer_Color=65535*
%FSLAX44Y44*%
%MOMM*%
G71*
G04*
G04 #@! TF.SameCoordinates,9B24EA63-C825-4E2D-BC30-5D40CB4EF2F0*
G04*
G04*
G04 #@! TF.FilePolarity,Positive*
G04*
G01*
G75*
%ADD10C,0.2000*%
%ADD11C,0.2500*%
%ADD12C,0.5000*%
%ADD13C,0.6000*%
%ADD14C,0.1500*%
%ADD15C,0.4000*%
%ADD16C,0.2540*%
G36*
X642910Y791418D02*
X643284D01*
Y791045D01*
X641791D01*
Y791791D01*
X642910D01*
Y791418D01*
D02*
G37*
G36*
X637313Y791045D02*
X636194D01*
Y791791D01*
X637313D01*
Y791045D01*
D02*
G37*
G36*
X629851Y790298D02*
X629478D01*
Y789925D01*
X628358D01*
Y790298D01*
X628731D01*
Y790672D01*
X629851D01*
Y790298D01*
D02*
G37*
G36*
X650746D02*
X651866D01*
Y789552D01*
X651119D01*
Y789925D01*
X650746D01*
Y790298D01*
X650373D01*
Y790672D01*
X650746D01*
Y790298D01*
D02*
G37*
G36*
X639179Y791418D02*
X639552D01*
Y791045D01*
X641045D01*
Y790672D01*
X641418D01*
Y790298D01*
X642537D01*
Y790672D01*
X644403D01*
Y791045D01*
X645522D01*
Y789552D01*
X644030D01*
Y789925D01*
X643657D01*
Y790298D01*
X643284D01*
Y789179D01*
X642537D01*
Y789552D01*
X641418D01*
Y789925D01*
X640672D01*
Y790298D01*
X640298D01*
Y789925D01*
X639552D01*
Y790298D01*
X639179D01*
Y790672D01*
X638806D01*
Y791045D01*
X638060D01*
Y791418D01*
X637687D01*
Y791791D01*
X639179D01*
Y791418D01*
D02*
G37*
G36*
X653731Y788806D02*
X652612D01*
Y789179D01*
X653731D01*
Y788806D01*
D02*
G37*
G36*
X637687Y789925D02*
X638060D01*
Y789552D01*
X638433D01*
Y789179D01*
X638806D01*
Y788806D01*
X637313D01*
Y789179D01*
X636567D01*
Y789925D01*
X636940D01*
Y790298D01*
X637687D01*
Y789925D01*
D02*
G37*
G36*
X641418Y789179D02*
X641791D01*
Y788433D01*
X640672D01*
Y788806D01*
Y789179D01*
X641045D01*
Y789552D01*
X641418D01*
Y789179D01*
D02*
G37*
G36*
X632463Y791045D02*
X632090D01*
Y789925D01*
X632463D01*
Y789179D01*
X633209D01*
Y788806D01*
X632836D01*
Y788433D01*
X630597D01*
Y788806D01*
X628731D01*
Y789552D01*
X631343D01*
Y790672D01*
X631716D01*
Y791045D01*
X631343D01*
Y791418D01*
X632463D01*
Y791045D01*
D02*
G37*
G36*
X654851Y789179D02*
X655970D01*
Y788806D01*
X657089D01*
Y788060D01*
X656716D01*
Y787687D01*
X658582D01*
Y787313D01*
X659328D01*
Y786940D01*
X661567D01*
Y786567D01*
X660448D01*
Y786194D01*
X660821D01*
Y785448D01*
X661567D01*
Y784702D01*
X660821D01*
Y785448D01*
X660448D01*
Y784702D01*
X659702D01*
Y785075D01*
X658955D01*
Y785448D01*
X658209D01*
Y785075D01*
X655970D01*
Y784702D01*
X655597D01*
Y784328D01*
X654851D01*
Y784702D01*
X654478D01*
Y785075D01*
X654851D01*
Y785448D01*
X655224D01*
Y785821D01*
X655597D01*
Y786567D01*
X655224D01*
Y786940D01*
X654478D01*
Y787313D01*
X654105D01*
Y787687D01*
X653358D01*
Y788433D01*
X654105D01*
Y788060D01*
X654478D01*
Y789552D01*
X654851D01*
Y789179D01*
D02*
G37*
G36*
X650373Y788060D02*
X649627D01*
Y788806D01*
X650000D01*
Y789179D01*
X649627D01*
Y789552D01*
X650373D01*
Y788060D01*
D02*
G37*
G36*
X633955Y791418D02*
X634701D01*
Y791045D01*
X635075D01*
Y790672D01*
X635821D01*
Y791045D01*
X636194D01*
Y789925D01*
X635448D01*
Y789552D01*
X635075D01*
Y789179D01*
X635448D01*
Y788806D01*
X635821D01*
Y788433D01*
X636194D01*
Y788060D01*
X635075D01*
Y788806D01*
X634328D01*
Y789179D01*
X633209D01*
Y789925D01*
X633955D01*
Y790298D01*
X634701D01*
Y790672D01*
X633955D01*
Y791045D01*
X633582D01*
Y791791D01*
X633955D01*
Y791418D01*
D02*
G37*
G36*
X648881Y789552D02*
X648508D01*
Y789179D01*
X648881D01*
Y788806D01*
X648508D01*
Y788060D01*
X648881D01*
Y787687D01*
X647761D01*
Y788433D01*
X646642D01*
Y788806D01*
X645895D01*
Y789179D01*
X647761D01*
Y789552D01*
X648134D01*
Y790298D01*
X646642D01*
Y789925D01*
X646269D01*
Y790298D01*
X645895D01*
Y790672D01*
X646269D01*
Y791045D01*
X648881D01*
Y789552D01*
D02*
G37*
G36*
X634328Y787687D02*
X633582D01*
Y788060D01*
X634328D01*
Y787687D01*
D02*
G37*
G36*
X627239Y789552D02*
X627612D01*
Y789179D01*
X627985D01*
Y788806D01*
X627612D01*
Y788433D01*
X629478D01*
Y788060D01*
X629104D01*
Y787687D01*
X627612D01*
Y788433D01*
X626493D01*
Y789925D01*
X626866D01*
Y790298D01*
X627239D01*
Y789552D01*
D02*
G37*
G36*
X621269Y788433D02*
X621642D01*
Y787687D01*
X619403D01*
Y788433D01*
X620522D01*
Y788806D01*
X621269D01*
Y788433D01*
D02*
G37*
G36*
X651492Y788806D02*
X651866D01*
Y788433D01*
X652239D01*
Y788060D01*
X652985D01*
Y787313D01*
X652239D01*
Y787687D01*
X651492D01*
Y788060D01*
X650746D01*
Y789179D01*
X651492D01*
Y788806D01*
D02*
G37*
G36*
X644403Y788060D02*
X644776D01*
Y787313D01*
X643657D01*
Y787687D01*
X642910D01*
Y788433D01*
X644403D01*
Y788060D01*
D02*
G37*
G36*
X639179D02*
X638806D01*
Y787687D01*
X638433D01*
Y787313D01*
X637313D01*
Y788060D01*
X638060D01*
Y788433D01*
X639179D01*
Y788060D01*
D02*
G37*
G36*
X652239Y786940D02*
X651866D01*
Y787313D01*
X652239D01*
Y786940D01*
D02*
G37*
G36*
X650000Y787313D02*
X650746D01*
Y786940D01*
Y786567D01*
X649254D01*
Y786940D01*
X648881D01*
Y787313D01*
X649254D01*
Y787687D01*
X650000D01*
Y787313D01*
D02*
G37*
G36*
X647015D02*
X647388D01*
Y786940D01*
Y786567D01*
X646642D01*
Y786940D01*
X646269D01*
Y787313D01*
X645895D01*
Y787687D01*
X647015D01*
Y787313D01*
D02*
G37*
G36*
X641045Y787687D02*
X640672D01*
Y786940D01*
X640298D01*
Y786567D01*
X639552D01*
Y787313D01*
X639925D01*
Y788060D01*
X641045D01*
Y787687D01*
D02*
G37*
G36*
X633209Y786940D02*
X633582D01*
Y786567D01*
X632463D01*
Y787313D01*
X633209D01*
Y786940D01*
D02*
G37*
G36*
X625000Y789179D02*
X625373D01*
Y788806D01*
X625000D01*
Y788433D01*
X626119D01*
Y788060D01*
X625746D01*
Y787687D01*
X626119D01*
Y787313D01*
X627612D01*
Y786567D01*
X626866D01*
Y786940D01*
X625746D01*
Y786567D01*
X625000D01*
Y787313D01*
X625373D01*
Y787687D01*
X624254D01*
Y788060D01*
X624627D01*
Y788433D01*
X624254D01*
Y788806D01*
X623881D01*
Y789179D01*
X623507D01*
Y789552D01*
X625000D01*
Y789179D01*
D02*
G37*
G36*
X623134Y787313D02*
X623507D01*
Y786940D01*
X623134D01*
Y786567D01*
X621642D01*
Y787313D01*
X622388D01*
Y787687D01*
X622761D01*
Y788433D01*
X623134D01*
Y787313D01*
D02*
G37*
G36*
X620149Y786194D02*
X620522D01*
Y785821D01*
X621269D01*
Y785448D01*
X620896D01*
Y785075D01*
X623134D01*
Y784328D01*
X620522D01*
Y784702D01*
X620896D01*
Y785075D01*
X620149D01*
Y784328D01*
X619030D01*
Y785075D01*
X619776D01*
Y785821D01*
X620149D01*
Y786194D01*
X618657D01*
Y785821D01*
X617910D01*
Y785448D01*
X617537D01*
Y785075D01*
X616791D01*
Y784702D01*
X616045D01*
Y785448D01*
X616791D01*
Y786567D01*
X616418D01*
Y786194D01*
X616045D01*
Y785821D01*
X614925D01*
Y785448D01*
X614552D01*
Y784702D01*
X614179D01*
Y784328D01*
X612687D01*
Y783955D01*
X613060D01*
Y783582D01*
X613433D01*
Y783209D01*
X614179D01*
Y783582D01*
X614552D01*
Y783955D01*
X614925D01*
Y784328D01*
X615672D01*
Y784702D01*
X616045D01*
Y783955D01*
X615672D01*
Y783209D01*
X614925D01*
Y782836D01*
X613806D01*
Y781716D01*
X614552D01*
Y781343D01*
Y780970D01*
X615299D01*
Y780224D01*
X614179D01*
Y781343D01*
X613806D01*
Y781716D01*
X613433D01*
Y781343D01*
X612687D01*
Y780970D01*
X612313D01*
Y780224D01*
X611940D01*
Y779851D01*
X610821D01*
Y780224D01*
X611194D01*
Y780597D01*
X611567D01*
Y780970D01*
X611940D01*
Y781343D01*
X612313D01*
Y781716D01*
X612687D01*
Y782089D01*
X613060D01*
Y782836D01*
X611194D01*
Y782463D01*
X610821D01*
Y783209D01*
X611194D01*
Y783582D01*
X610821D01*
Y784328D01*
X611567D01*
Y784702D01*
X613060D01*
Y785075D01*
X613806D01*
Y785821D01*
X614552D01*
Y786194D01*
X614925D01*
Y786567D01*
X615672D01*
Y786940D01*
X616791D01*
Y786567D01*
X617164D01*
Y786940D01*
X617910D01*
Y786567D01*
X618284D01*
Y786940D01*
X619030D01*
Y787313D01*
X620149D01*
Y786194D01*
D02*
G37*
G36*
X632090Y787313D02*
X631716D01*
Y786940D01*
X630970D01*
Y786567D01*
X630597D01*
Y786194D01*
X629851D01*
Y787313D01*
X630224D01*
Y787687D01*
X632090D01*
Y787313D01*
D02*
G37*
G36*
X646642Y786194D02*
X647015D01*
Y785821D01*
X645522D01*
Y786567D01*
X646642D01*
Y786194D01*
D02*
G37*
G36*
X644030Y786567D02*
X644403D01*
Y786194D01*
X644030D01*
Y785821D01*
X642910D01*
Y786567D01*
X643284D01*
Y786940D01*
X644030D01*
Y786567D01*
D02*
G37*
G36*
X641791Y785821D02*
X641418D01*
Y786194D01*
X641791D01*
Y785821D01*
D02*
G37*
G36*
X637313Y786194D02*
X636940D01*
Y785821D01*
X636194D01*
Y786567D01*
X636567D01*
Y786940D01*
X636940D01*
Y787313D01*
X637313D01*
Y786194D01*
D02*
G37*
G36*
X653731Y785821D02*
X652612D01*
Y785448D01*
X651492D01*
Y785821D01*
Y786194D01*
X653731D01*
Y785821D01*
D02*
G37*
G36*
X634328Y785448D02*
X633582D01*
Y785821D01*
X633955D01*
Y786194D01*
X634328D01*
Y785448D01*
D02*
G37*
G36*
X629104Y786194D02*
X629478D01*
Y785448D01*
X628358D01*
Y785821D01*
X627985D01*
Y786567D01*
X629104D01*
Y786194D01*
D02*
G37*
G36*
X638806Y785075D02*
X638060D01*
Y785448D01*
X638806D01*
Y785075D01*
D02*
G37*
G36*
X626493D02*
X625746D01*
Y785821D01*
X626493D01*
Y785075D01*
D02*
G37*
G36*
X624254Y786194D02*
X624627D01*
Y785448D01*
X624254D01*
Y785075D01*
X623507D01*
Y786194D01*
X623881D01*
Y786567D01*
X624254D01*
Y786194D01*
D02*
G37*
G36*
X663433Y785821D02*
X664179D01*
Y785448D01*
X664552D01*
Y785075D01*
X665298D01*
Y784702D01*
X663806D01*
Y785075D01*
X663433D01*
Y785448D01*
X663060D01*
Y785821D01*
Y786194D01*
X663433D01*
Y785821D01*
D02*
G37*
G36*
X648508Y784702D02*
X647761D01*
Y785448D01*
X648508D01*
Y784702D01*
D02*
G37*
G36*
X644776Y785075D02*
Y784702D01*
X644030D01*
Y785075D01*
X644403D01*
Y785448D01*
X644776D01*
Y785075D01*
D02*
G37*
G36*
X640672D02*
X641045D01*
Y784702D01*
X639925D01*
Y785075D01*
X640298D01*
Y785448D01*
X640672D01*
Y785075D01*
D02*
G37*
G36*
X635075Y784702D02*
X634328D01*
Y785075D01*
X634701D01*
Y785448D01*
X635075D01*
Y784702D01*
D02*
G37*
G36*
X666045Y784328D02*
X666791D01*
Y783955D01*
X665672D01*
Y784702D01*
X666045D01*
Y784328D01*
D02*
G37*
G36*
X663060D02*
Y783955D01*
X662687D01*
Y784702D01*
X663060D01*
Y784328D01*
D02*
G37*
G36*
X646642Y783955D02*
X645895D01*
Y784328D01*
X645522D01*
Y784702D01*
X646642D01*
Y783955D01*
D02*
G37*
G36*
X638433Y784328D02*
X639179D01*
Y783955D01*
X638060D01*
Y784702D01*
X638433D01*
Y784328D01*
D02*
G37*
G36*
X636567Y783955D02*
X635821D01*
Y784328D01*
X636567D01*
Y783955D01*
D02*
G37*
G36*
X632463Y784702D02*
X632090D01*
Y783955D01*
X631343D01*
Y784702D01*
X631716D01*
Y785075D01*
X631343D01*
Y785448D01*
X632463D01*
Y784702D01*
D02*
G37*
G36*
X664925Y783582D02*
X664179D01*
Y783955D01*
Y784328D01*
X664925D01*
Y783582D01*
D02*
G37*
G36*
X653731D02*
X652985D01*
Y783955D01*
X653731D01*
Y783582D01*
D02*
G37*
G36*
X627239Y783955D02*
X626866D01*
Y783209D01*
X626493D01*
Y782836D01*
X624627D01*
Y783209D01*
Y783582D01*
X625000D01*
Y783955D01*
X625373D01*
Y783582D01*
X626493D01*
Y784328D01*
X627239D01*
Y783955D01*
D02*
G37*
G36*
X655224Y783582D02*
X655597D01*
Y783209D01*
X654478D01*
Y783955D01*
X655224D01*
Y783582D01*
D02*
G37*
G36*
X652612D02*
X652985D01*
Y783209D01*
X652239D01*
Y783955D01*
X652612D01*
Y783582D01*
D02*
G37*
G36*
X650000Y785448D02*
X650373D01*
Y785075D01*
X650746D01*
Y784702D01*
X651119D01*
Y783209D01*
X650373D01*
Y783582D01*
Y783955D01*
Y785075D01*
X649627D01*
Y785821D01*
X650000D01*
Y785448D01*
D02*
G37*
G36*
X623507Y783582D02*
X623134D01*
Y783209D01*
X622388D01*
Y783582D01*
Y783955D01*
X623507D01*
Y783582D01*
D02*
G37*
G36*
X629478Y782836D02*
X628358D01*
Y783209D01*
X628731D01*
Y783582D01*
X629478D01*
Y782836D01*
D02*
G37*
G36*
X669030Y782463D02*
X668657D01*
Y782836D01*
X669030D01*
Y782463D01*
D02*
G37*
G36*
X662313Y783582D02*
X662687D01*
Y782463D01*
X661567D01*
Y782836D01*
X660821D01*
Y783209D01*
X661194D01*
Y783582D01*
X661940D01*
Y783955D01*
X662313D01*
Y783582D01*
D02*
G37*
G36*
X655597Y782463D02*
X654478D01*
Y782836D01*
X655597D01*
Y782463D01*
D02*
G37*
G36*
X646642D02*
X645522D01*
Y782836D01*
X646642D01*
Y782463D01*
D02*
G37*
G36*
X640672D02*
X639925D01*
Y782836D01*
X640672D01*
Y782463D01*
D02*
G37*
G36*
X635448D02*
X634328D01*
Y782836D01*
X635448D01*
Y782463D01*
D02*
G37*
G36*
X632463D02*
X631343D01*
Y782836D01*
X632463D01*
Y782463D01*
D02*
G37*
G36*
X619403D02*
X618657D01*
Y782836D01*
X617910D01*
Y783209D01*
X618284D01*
Y783582D01*
X619403D01*
Y782463D01*
D02*
G37*
G36*
X610075D02*
X609328D01*
Y783209D01*
X610075D01*
Y782463D01*
D02*
G37*
G36*
X665672Y782836D02*
X665298D01*
Y782463D01*
Y782089D01*
X664552D01*
Y782463D01*
X664179D01*
Y783209D01*
X665672D01*
Y782836D01*
D02*
G37*
G36*
X649254D02*
X649627D01*
Y782089D01*
X648881D01*
Y782463D01*
X648508D01*
Y783209D01*
X649254D01*
Y782836D01*
D02*
G37*
G36*
X644403Y782089D02*
X644030D01*
Y782463D01*
X643657D01*
Y782836D01*
X644403D01*
Y782089D01*
D02*
G37*
G36*
X622388Y782463D02*
X621642D01*
Y782089D01*
X620896D01*
Y782836D01*
X622388D01*
Y782463D01*
D02*
G37*
G36*
X658582Y784328D02*
X658955D01*
Y783955D01*
X658582D01*
Y783582D01*
X658955D01*
Y783209D01*
X659702D01*
Y782463D01*
X660075D01*
Y781716D01*
X659702D01*
Y782089D01*
X658955D01*
Y782463D01*
X658582D01*
Y783209D01*
X658209D01*
Y783582D01*
X657463D01*
Y783209D01*
X656343D01*
Y783955D01*
X657836D01*
Y784328D01*
X658209D01*
Y784702D01*
X658582D01*
Y784328D01*
D02*
G37*
G36*
X617164Y783582D02*
X617537D01*
Y782836D01*
X617164D01*
Y781716D01*
X616418D01*
Y782463D01*
X616791D01*
Y783209D01*
X616418D01*
Y783955D01*
X617164D01*
Y783582D01*
D02*
G37*
G36*
X640298Y781716D02*
X639925D01*
Y781343D01*
X639552D01*
Y782089D01*
X640298D01*
Y781716D01*
D02*
G37*
G36*
X611194Y781343D02*
X610821D01*
Y780597D01*
X610448D01*
Y780970D01*
X610075D01*
Y781343D01*
X609701D01*
Y780970D01*
X607463D01*
Y780597D01*
X606716D01*
Y781343D01*
X607090D01*
Y781716D01*
X607463D01*
Y781343D01*
X607836D01*
Y781716D01*
X609328D01*
Y782089D01*
X611194D01*
Y781343D01*
D02*
G37*
G36*
X667537Y782836D02*
X667910D01*
Y781716D01*
X667537D01*
Y780970D01*
X666791D01*
Y781716D01*
X667164D01*
Y782463D01*
X666791D01*
Y783209D01*
X667537D01*
Y782836D01*
D02*
G37*
G36*
X632090Y781716D02*
X632463D01*
Y781343D01*
X632836D01*
Y780970D01*
X632090D01*
Y781343D01*
X631343D01*
Y781716D01*
X631716D01*
Y782089D01*
X632090D01*
Y781716D01*
D02*
G37*
G36*
X663060Y780597D02*
X662687D01*
Y780970D01*
Y781343D01*
X663060D01*
Y780597D01*
D02*
G37*
G36*
X657463Y780970D02*
Y780597D01*
X657089D01*
Y780970D01*
X656716D01*
Y781343D01*
X657463D01*
Y780970D01*
D02*
G37*
G36*
X627239Y780597D02*
X626493D01*
Y781343D01*
X627239D01*
Y780597D01*
D02*
G37*
G36*
X620896Y780970D02*
Y780597D01*
X620149D01*
Y781343D01*
X620896D01*
Y780970D01*
D02*
G37*
G36*
X654478Y780597D02*
X654851D01*
Y780224D01*
X654105D01*
Y780970D01*
X654478D01*
Y780597D01*
D02*
G37*
G36*
X647761D02*
Y780224D01*
X647015D01*
Y780597D01*
X646642D01*
Y780970D01*
X647761D01*
Y780597D01*
D02*
G37*
G36*
X670522Y781343D02*
X670149D01*
Y780970D01*
X669776D01*
Y780224D01*
X669403D01*
Y779851D01*
X669030D01*
Y780224D01*
X668657D01*
Y780970D01*
X669030D01*
Y781343D01*
X669776D01*
Y781716D01*
X670522D01*
Y781343D01*
D02*
G37*
G36*
X665298Y780970D02*
Y780597D01*
X664925D01*
Y780224D01*
X664552D01*
Y779851D01*
X664179D01*
Y780224D01*
X663806D01*
Y780970D01*
X664552D01*
Y781343D01*
X665298D01*
Y780970D01*
D02*
G37*
G36*
X660821Y780597D02*
Y780224D01*
X660448D01*
Y779851D01*
X660075D01*
Y780597D01*
X660448D01*
Y780970D01*
X660821D01*
Y780597D01*
D02*
G37*
G36*
X650373Y780224D02*
X650746D01*
Y779851D01*
X650000D01*
Y780597D01*
X650373D01*
Y780224D01*
D02*
G37*
G36*
X606716D02*
X606343D01*
Y779851D01*
X605597D01*
Y780224D01*
Y780597D01*
X606716D01*
Y780224D01*
D02*
G37*
G36*
X672015D02*
X672388D01*
Y779478D01*
X671269D01*
Y779851D01*
X670895D01*
Y780224D01*
X671269D01*
Y780597D01*
X672015D01*
Y780224D01*
D02*
G37*
G36*
X663060Y779851D02*
Y779478D01*
X662313D01*
Y779851D01*
X661940D01*
Y780224D01*
X663060D01*
Y779851D01*
D02*
G37*
G36*
X658955D02*
X659328D01*
Y779478D01*
X658209D01*
Y779851D01*
X658582D01*
Y780224D01*
X658955D01*
Y779851D01*
D02*
G37*
G36*
X635075Y779478D02*
X633955D01*
Y779851D01*
X633582D01*
Y780224D01*
X635075D01*
Y779478D01*
D02*
G37*
G36*
X624254Y779851D02*
X624627D01*
Y779478D01*
X623507D01*
Y779851D01*
X623881D01*
Y780224D01*
X624254D01*
Y779851D01*
D02*
G37*
G36*
X616418D02*
X616045D01*
Y779478D01*
X615299D01*
Y779851D01*
X615672D01*
Y780224D01*
X616418D01*
Y779851D01*
D02*
G37*
G36*
X614179Y779478D02*
X613433D01*
Y779851D01*
X614179D01*
Y779478D01*
D02*
G37*
G36*
X667164Y779851D02*
X667537D01*
Y779478D01*
X667910D01*
Y779105D01*
X667164D01*
Y779478D01*
X666791D01*
Y779851D01*
X666418D01*
Y780224D01*
X667164D01*
Y779851D01*
D02*
G37*
G36*
X655597Y778731D02*
X654851D01*
Y779105D01*
Y779478D01*
X655597D01*
Y778731D01*
D02*
G37*
G36*
X608582Y779851D02*
X610075D01*
Y779105D01*
X609701D01*
Y778731D01*
X608209D01*
Y779105D01*
Y779478D01*
X608582D01*
Y779851D01*
X607463D01*
Y780224D01*
X607836D01*
Y780597D01*
X608582D01*
Y779851D01*
D02*
G37*
G36*
X604851Y779105D02*
X605224D01*
Y778731D01*
X603731D01*
Y779105D01*
X604104D01*
Y779478D01*
X604478D01*
Y779851D01*
X604851D01*
Y779105D01*
D02*
G37*
G36*
X666418Y778358D02*
X666045D01*
Y778731D01*
X665298D01*
Y779105D01*
X666418D01*
Y778358D01*
D02*
G37*
G36*
X647388Y778731D02*
X647015D01*
Y778358D01*
X646642D01*
Y779105D01*
X647388D01*
Y778731D01*
D02*
G37*
G36*
X614179D02*
X613806D01*
Y778358D01*
X613433D01*
Y779105D01*
X614179D01*
Y778731D01*
D02*
G37*
G36*
X669776Y779105D02*
X670149D01*
Y778731D01*
X670522D01*
Y778358D01*
X670149D01*
Y777985D01*
X669776D01*
Y778358D01*
X669030D01*
Y778731D01*
X668657D01*
Y779478D01*
X669776D01*
Y779105D01*
D02*
G37*
G36*
X656716Y777985D02*
X655970D01*
Y778358D01*
X656716D01*
Y777985D01*
D02*
G37*
G36*
X620149Y778358D02*
X620522D01*
Y777612D01*
X619776D01*
Y777985D01*
X619403D01*
Y779105D01*
X620149D01*
Y778358D01*
D02*
G37*
G36*
X619030Y777612D02*
X617910D01*
Y777985D01*
X618284D01*
Y778358D01*
X619030D01*
Y777612D01*
D02*
G37*
G36*
X617164Y778358D02*
X617537D01*
Y777985D01*
X617164D01*
Y777612D01*
X616418D01*
Y778358D01*
X616791D01*
Y778731D01*
X617164D01*
Y778358D01*
D02*
G37*
G36*
X627239Y777612D02*
X626866D01*
Y777239D01*
X626493D01*
Y777985D01*
X626119D01*
Y778358D01*
X626493D01*
Y778731D01*
X627239D01*
Y777612D01*
D02*
G37*
G36*
X611940Y777985D02*
X613060D01*
Y777612D01*
X612687D01*
Y777239D01*
X611940D01*
Y777985D01*
X610075D01*
Y778358D01*
X611194D01*
Y778731D01*
X611940D01*
Y777985D01*
D02*
G37*
G36*
X668284Y776866D02*
X667910D01*
Y777239D01*
X667537D01*
Y777612D01*
X668284D01*
Y776866D01*
D02*
G37*
G36*
X663806Y777985D02*
X664179D01*
Y777612D01*
X665672D01*
Y776866D01*
X665298D01*
Y777239D01*
X664925D01*
Y776866D01*
X663806D01*
Y777239D01*
X663433D01*
Y777612D01*
X663060D01*
Y778358D01*
X663806D01*
Y777985D01*
D02*
G37*
G36*
X607090Y779105D02*
X607836D01*
Y778358D01*
X607463D01*
Y777612D01*
X607836D01*
Y777239D01*
X607463D01*
Y776866D01*
X605970D01*
Y777239D01*
X606343D01*
Y777612D01*
X607090D01*
Y778358D01*
X605970D01*
Y777985D01*
X605597D01*
Y777612D01*
X604851D01*
Y777985D01*
X605224D01*
Y778358D01*
X605597D01*
Y778731D01*
Y779105D01*
X605970D01*
Y779478D01*
X607090D01*
Y779105D01*
D02*
G37*
G36*
X603358Y777985D02*
X604104D01*
Y777239D01*
X603731D01*
Y776866D01*
X602612D01*
Y777239D01*
X602239D01*
Y777612D01*
X602612D01*
Y777985D01*
Y778358D01*
X603358D01*
Y777985D01*
D02*
G37*
G36*
X649627Y776866D02*
X650000D01*
Y776492D01*
X649254D01*
Y777239D01*
X649627D01*
Y776866D01*
D02*
G37*
G36*
X628358Y776492D02*
X627612D01*
Y776866D01*
X627985D01*
Y777239D01*
X628358D01*
Y776492D01*
D02*
G37*
G36*
X675000Y777985D02*
X675373D01*
Y777612D01*
X675746D01*
Y777239D01*
X676119D01*
Y776866D01*
Y776492D01*
Y776119D01*
X675000D01*
Y776866D01*
X675373D01*
Y777612D01*
X675000D01*
Y777985D01*
X674627D01*
Y778358D01*
X675000D01*
Y777985D01*
D02*
G37*
G36*
X609701Y776119D02*
X608955D01*
Y776866D01*
X609701D01*
Y776119D01*
D02*
G37*
G36*
X670895Y779478D02*
X671269D01*
Y778731D01*
X671642D01*
Y778358D01*
X672015D01*
Y777985D01*
X672388D01*
Y778358D01*
X672761D01*
Y778731D01*
X674254D01*
Y777985D01*
X673881D01*
Y777612D01*
X673134D01*
Y776119D01*
X673508D01*
Y775746D01*
X672761D01*
Y776119D01*
X672388D01*
Y776866D01*
X672015D01*
Y777239D01*
X671269D01*
Y778731D01*
X670522D01*
Y779105D01*
X670149D01*
Y779478D01*
X670522D01*
Y779851D01*
X670895D01*
Y779478D01*
D02*
G37*
G36*
X669776Y776866D02*
X670522D01*
Y776492D01*
X670895D01*
Y776119D01*
X671269D01*
Y775746D01*
X670149D01*
Y776119D01*
X669403D01*
Y776492D01*
X669030D01*
Y776866D01*
X669403D01*
Y777239D01*
X669776D01*
Y776866D01*
D02*
G37*
G36*
X660821Y775746D02*
X660075D01*
Y776492D01*
X660821D01*
Y775746D01*
D02*
G37*
G36*
X607463D02*
X607090D01*
Y776119D01*
X607463D01*
Y775746D01*
D02*
G37*
G36*
X612313D02*
X611940D01*
Y775373D01*
X611194D01*
Y776119D01*
X611940D01*
Y776492D01*
X612313D01*
Y775746D01*
D02*
G37*
G36*
X674254Y776119D02*
X675000D01*
Y775746D01*
X676119D01*
Y775373D01*
X676492D01*
Y775000D01*
X675000D01*
Y775373D01*
X674627D01*
Y775746D01*
X673881D01*
Y776119D01*
X673508D01*
Y776492D01*
X674254D01*
Y776119D01*
D02*
G37*
G36*
X663060Y775373D02*
X663433D01*
Y775000D01*
X662687D01*
Y775746D01*
X663060D01*
Y775373D01*
D02*
G37*
G36*
X674627Y775000D02*
Y774627D01*
X673881D01*
Y775373D01*
X674627D01*
Y775000D01*
D02*
G37*
G36*
X672015Y774627D02*
X671269D01*
Y775000D01*
X672015D01*
Y774627D01*
D02*
G37*
G36*
X653731D02*
X652612D01*
Y775000D01*
X653731D01*
Y774627D01*
D02*
G37*
G36*
X614925Y775000D02*
Y774627D01*
X613806D01*
Y775373D01*
X614925D01*
Y775000D01*
D02*
G37*
G36*
X604851Y776119D02*
Y775746D01*
X604478D01*
Y775373D01*
X605597D01*
Y775000D01*
X605224D01*
Y774627D01*
X604478D01*
Y775000D01*
X603731D01*
Y774627D01*
X602612D01*
Y775373D01*
X603358D01*
Y775746D01*
X603731D01*
Y776119D01*
X604104D01*
Y776492D01*
X604851D01*
Y776119D01*
D02*
G37*
G36*
X673134Y775000D02*
Y774254D01*
X672761D01*
Y774627D01*
X672388D01*
Y775000D01*
X672761D01*
Y775373D01*
X673134D01*
Y775000D01*
D02*
G37*
G36*
X602239Y776119D02*
X601866D01*
Y775746D01*
X601493D01*
Y775373D01*
X601866D01*
Y774627D01*
X601119D01*
Y774254D01*
X600746D01*
Y773881D01*
X600000D01*
Y774627D01*
X600373D01*
Y775000D01*
X600746D01*
Y775373D01*
X600373D01*
Y776119D01*
X600746D01*
Y776492D01*
X601493D01*
Y776866D01*
X602239D01*
Y776119D01*
D02*
G37*
G36*
X669776Y773881D02*
X669403D01*
Y773508D01*
X668657D01*
Y774627D01*
X669776D01*
Y773881D01*
D02*
G37*
G36*
X607090Y773508D02*
X606343D01*
Y774254D01*
X607090D01*
Y773508D01*
D02*
G37*
G36*
X674627Y773881D02*
X675000D01*
Y773508D01*
X674627D01*
Y773134D01*
X674254D01*
Y773508D01*
X673881D01*
Y773881D01*
X674254D01*
Y774254D01*
X674627D01*
Y773881D01*
D02*
G37*
G36*
X620522Y773134D02*
X620149D01*
Y773881D01*
X620522D01*
Y773134D01*
D02*
G37*
G36*
X610075Y773508D02*
Y773134D01*
X609328D01*
Y773881D01*
X610075D01*
Y773508D01*
D02*
G37*
G36*
X671642Y773134D02*
X672015D01*
Y772761D01*
X671269D01*
Y773508D01*
X671642D01*
Y773134D01*
D02*
G37*
G36*
X600000Y773508D02*
X599627D01*
Y773134D01*
X599254D01*
Y772761D01*
X597761D01*
Y773508D01*
X598881D01*
Y773881D01*
X600000D01*
Y773508D01*
D02*
G37*
G36*
X667910Y772761D02*
X668284D01*
Y772388D01*
X667537D01*
Y773134D01*
X667910D01*
Y772761D01*
D02*
G37*
G36*
X661194Y773134D02*
X660821D01*
Y772761D01*
X660448D01*
Y772388D01*
X660075D01*
Y772761D01*
Y773508D01*
X660448D01*
Y773881D01*
X661194D01*
Y773134D01*
D02*
G37*
G36*
X612313D02*
X612687D01*
Y772761D01*
X612313D01*
Y772388D01*
X611940D01*
Y772761D01*
X611567D01*
Y773134D01*
X611940D01*
Y773508D01*
X612313D01*
Y773134D01*
D02*
G37*
G36*
X611194Y772388D02*
X610448D01*
Y772761D01*
X611194D01*
Y772388D01*
D02*
G37*
G36*
X607463Y772761D02*
X607090D01*
Y772388D01*
X606343D01*
Y773134D01*
X607463D01*
Y772761D01*
D02*
G37*
G36*
X604104Y772388D02*
X603358D01*
Y772761D01*
Y773134D01*
X604104D01*
Y772388D01*
D02*
G37*
G36*
X602612Y772761D02*
X601866D01*
Y772388D01*
X601119D01*
Y772015D01*
X600373D01*
Y772388D01*
X600000D01*
Y772761D01*
X600373D01*
Y773134D01*
X602612D01*
Y772761D01*
D02*
G37*
G36*
X678358Y771642D02*
X677985D01*
Y772015D01*
X678358D01*
Y771642D01*
D02*
G37*
G36*
X667164D02*
X666418D01*
Y772388D01*
X667164D01*
Y771642D01*
D02*
G37*
G36*
X605224Y772388D02*
Y772015D01*
X604851D01*
Y771642D01*
X604478D01*
Y772761D01*
X605224D01*
Y772388D01*
D02*
G37*
G36*
X676866Y773881D02*
X677239D01*
Y772388D01*
X677612D01*
Y772015D01*
X677239D01*
Y771642D01*
X676866D01*
Y771269D01*
X675746D01*
Y771642D01*
X675373D01*
Y772015D01*
X676492D01*
Y773134D01*
X676119D01*
Y773508D01*
X675746D01*
Y774254D01*
X676866D01*
Y773881D01*
D02*
G37*
G36*
X674627Y772015D02*
X675000D01*
Y771642D01*
X674627D01*
Y771269D01*
X673508D01*
Y772015D01*
X673881D01*
Y772388D01*
X674627D01*
Y772015D01*
D02*
G37*
G36*
X660821Y771642D02*
X661194D01*
Y771269D01*
X660448D01*
Y772015D01*
X660821D01*
Y771642D01*
D02*
G37*
G36*
X677612Y775373D02*
X677985D01*
Y775000D01*
X678358D01*
Y774627D01*
X678731D01*
Y774254D01*
X679105D01*
Y772761D01*
X679478D01*
Y772388D01*
Y771642D01*
X679851D01*
Y770895D01*
X679478D01*
Y771269D01*
X679105D01*
Y772015D01*
X678731D01*
Y772761D01*
X678358D01*
Y774627D01*
X677239D01*
Y775000D01*
X677612D01*
Y775373D01*
X677239D01*
Y775746D01*
X677612D01*
Y775373D01*
D02*
G37*
G36*
X667164Y770895D02*
X666791D01*
Y771269D01*
X667164D01*
Y770895D01*
D02*
G37*
G36*
X670149Y770149D02*
X669403D01*
Y770895D01*
X670149D01*
Y770149D01*
D02*
G37*
G36*
X601119Y770522D02*
X600746D01*
Y770149D01*
X600373D01*
Y770895D01*
X600746D01*
Y771269D01*
X601119D01*
Y770522D01*
D02*
G37*
G36*
X597015Y771269D02*
Y770522D01*
X596642D01*
Y770149D01*
X596269D01*
Y770895D01*
X595896D01*
Y771269D01*
X596269D01*
Y771642D01*
X597015D01*
Y771269D01*
D02*
G37*
G36*
X680970Y771642D02*
X681343D01*
Y770895D01*
X682089D01*
Y770522D01*
X682463D01*
Y769776D01*
X682089D01*
Y770149D01*
X681343D01*
Y770522D01*
X680970D01*
Y771269D01*
X680597D01*
Y772015D01*
X680224D01*
Y772388D01*
X680970D01*
Y771642D01*
D02*
G37*
G36*
X681343Y769776D02*
X680597D01*
Y770149D01*
X681343D01*
Y769776D01*
D02*
G37*
G36*
X678731Y770522D02*
X679105D01*
Y769776D01*
X677985D01*
Y770149D01*
X677612D01*
Y770522D01*
X677985D01*
Y770895D01*
X678731D01*
Y770522D01*
D02*
G37*
G36*
X677239Y769776D02*
X676866D01*
Y770149D01*
X677239D01*
Y769776D01*
D02*
G37*
G36*
X605597Y770149D02*
X605224D01*
Y769776D01*
X604478D01*
Y770149D01*
X604851D01*
Y770522D01*
X605597D01*
Y770149D01*
D02*
G37*
G36*
X680224Y769403D02*
X679851D01*
Y769776D01*
X680224D01*
Y769403D01*
D02*
G37*
G36*
X676119Y770149D02*
X676492D01*
Y769776D01*
X676866D01*
Y769403D01*
X676119D01*
Y769776D01*
X675746D01*
Y770522D01*
X676119D01*
Y770149D01*
D02*
G37*
G36*
X674254Y769776D02*
X674627D01*
Y769403D01*
X673881D01*
Y770149D01*
X674254D01*
Y769776D01*
D02*
G37*
G36*
X598507Y770522D02*
X598881D01*
Y770895D01*
X599627D01*
Y770149D01*
Y769776D01*
X599254D01*
Y769403D01*
X598507D01*
Y770522D01*
X597761D01*
Y770895D01*
Y771269D01*
X598507D01*
Y770522D01*
D02*
G37*
G36*
X596269Y768657D02*
X595149D01*
Y769030D01*
X594403D01*
Y769403D01*
X594776D01*
Y769776D01*
X595149D01*
Y769403D01*
X595522D01*
Y769776D01*
X596269D01*
Y768657D01*
D02*
G37*
G36*
X673508Y769030D02*
X673881D01*
Y768657D01*
X672761D01*
Y769403D01*
X673508D01*
Y769030D01*
D02*
G37*
G36*
X610448Y768657D02*
X609701D01*
Y769030D01*
X610448D01*
Y768657D01*
D02*
G37*
G36*
X601866Y769403D02*
X602239D01*
Y769776D01*
X602985D01*
Y769030D01*
X602612D01*
Y768657D01*
X601866D01*
Y769403D01*
X601493D01*
Y769776D01*
X601119D01*
Y770149D01*
X601493D01*
Y770522D01*
X601866D01*
Y769403D01*
D02*
G37*
G36*
X667537D02*
Y769030D01*
X667910D01*
Y768657D01*
X667537D01*
Y768284D01*
X667164D01*
Y768657D01*
X666791D01*
Y769776D01*
X667537D01*
Y769403D01*
D02*
G37*
G36*
X676866Y767537D02*
X675746D01*
Y767911D01*
X676866D01*
Y767537D01*
D02*
G37*
G36*
X602612D02*
X601866D01*
Y767911D01*
X602239D01*
Y768284D01*
X602612D01*
Y767537D01*
D02*
G37*
G36*
X680970Y768657D02*
X681716D01*
Y768284D01*
Y767911D01*
X680224D01*
Y767164D01*
X679851D01*
Y767537D01*
X679478D01*
Y767911D01*
X679105D01*
Y768284D01*
X680224D01*
Y769030D01*
X680970D01*
Y768657D01*
D02*
G37*
G36*
X605970D02*
X606343D01*
Y767911D01*
X607090D01*
Y767537D01*
X606716D01*
Y767164D01*
X606343D01*
Y767537D01*
X605970D01*
Y767911D01*
X605224D01*
Y768657D01*
X605597D01*
Y769030D01*
X605970D01*
Y768657D01*
D02*
G37*
G36*
X684328Y767164D02*
X684702D01*
Y766791D01*
X684328D01*
Y767164D01*
X683955D01*
Y767537D01*
X684328D01*
Y767164D01*
D02*
G37*
G36*
X673508Y766791D02*
X673134D01*
Y767164D01*
X673508D01*
Y766791D01*
D02*
G37*
G36*
X599254Y767911D02*
Y767537D01*
Y767164D01*
X598881D01*
Y766791D01*
X598507D01*
Y767537D01*
X598134D01*
Y768284D01*
X598507D01*
Y768657D01*
X599254D01*
Y767911D01*
D02*
G37*
G36*
X595896Y767164D02*
X595522D01*
Y766791D01*
X594776D01*
Y767911D01*
X595896D01*
Y767164D01*
D02*
G37*
G36*
X601866Y766791D02*
X601493D01*
Y766418D01*
X601119D01*
Y766791D01*
X600746D01*
Y767164D01*
X601119D01*
Y767537D01*
X601866D01*
Y766791D01*
D02*
G37*
G36*
X597388D02*
X597015D01*
Y766418D01*
X596642D01*
Y766791D01*
X596269D01*
Y767164D01*
X596642D01*
Y767537D01*
X597388D01*
Y766791D01*
D02*
G37*
G36*
X593657D02*
Y766418D01*
X593284D01*
Y766791D01*
X592910D01*
Y767164D01*
X593284D01*
Y767537D01*
X593657D01*
Y766791D01*
D02*
G37*
G36*
X682089Y766418D02*
Y766045D01*
X681343D01*
Y766791D01*
X682089D01*
Y766418D01*
D02*
G37*
G36*
X678731Y766791D02*
X677985D01*
Y766045D01*
X676866D01*
Y766791D01*
X677612D01*
Y767537D01*
X678731D01*
Y766791D01*
D02*
G37*
G36*
X598507Y766045D02*
X597761D01*
Y766791D01*
X598507D01*
Y766045D01*
D02*
G37*
G36*
X679851Y765672D02*
X680224D01*
Y765298D01*
X679478D01*
Y765672D01*
X679105D01*
Y766045D01*
X679851D01*
Y765672D01*
D02*
G37*
G36*
X673881Y764925D02*
X673508D01*
Y765298D01*
X673134D01*
Y765672D01*
X673881D01*
Y764925D01*
D02*
G37*
G36*
X597388Y764552D02*
X597015D01*
Y765298D01*
X597388D01*
Y764552D01*
D02*
G37*
G36*
X595522Y765298D02*
X595896D01*
Y765672D01*
X596642D01*
Y765298D01*
X596269D01*
Y764925D01*
X595896D01*
Y764552D01*
X595522D01*
Y764925D01*
Y765298D01*
X595149D01*
Y764552D01*
X594403D01*
Y765298D01*
X594776D01*
Y765672D01*
Y766045D01*
X595149D01*
Y766418D01*
X595522D01*
Y765298D01*
D02*
G37*
G36*
X681716Y764552D02*
X682089D01*
Y763433D01*
X681343D01*
Y764179D01*
X680970D01*
Y765298D01*
X681716D01*
Y764552D01*
D02*
G37*
G36*
X678731Y763433D02*
X678358D01*
Y764179D01*
X678731D01*
Y763433D01*
D02*
G37*
G36*
X602612D02*
X601866D01*
Y764179D01*
X602612D01*
Y763433D01*
D02*
G37*
G36*
X598134Y763806D02*
Y763433D01*
X597388D01*
Y764179D01*
X598134D01*
Y763806D01*
D02*
G37*
G36*
X682836Y768657D02*
X683209D01*
Y767911D01*
X683582D01*
Y767537D01*
X683209D01*
Y766791D01*
X683582D01*
Y766418D01*
X683955D01*
Y764552D01*
X685075D01*
Y764925D01*
X685448D01*
Y765298D01*
X685075D01*
Y765672D01*
X685821D01*
Y764552D01*
X686194D01*
Y763806D01*
X686567D01*
Y763060D01*
X686194D01*
Y763433D01*
X685075D01*
Y763806D01*
X684702D01*
Y763433D01*
X683955D01*
Y763806D01*
X683582D01*
Y764552D01*
X683209D01*
Y766045D01*
X682836D01*
Y767164D01*
X682463D01*
Y767537D01*
X682089D01*
Y768284D01*
X682463D01*
Y769030D01*
X682836D01*
Y768657D01*
D02*
G37*
G36*
X679851Y763433D02*
Y763060D01*
X679478D01*
Y763433D01*
X679105D01*
Y763806D01*
X679851D01*
Y763433D01*
D02*
G37*
G36*
X593284Y764925D02*
X593657D01*
Y765298D01*
X594030D01*
Y764179D01*
X594403D01*
Y763806D01*
X594776D01*
Y763433D01*
X594403D01*
Y763060D01*
X594030D01*
Y762687D01*
X593657D01*
Y763060D01*
X593284D01*
Y764925D01*
X592537D01*
Y764552D01*
X592164D01*
Y764179D01*
X591791D01*
Y763806D01*
X591418D01*
Y764552D01*
X591791D01*
Y765298D01*
X592164D01*
Y766045D01*
X593284D01*
Y764925D01*
D02*
G37*
G36*
X591045Y762687D02*
X590672D01*
Y763433D01*
X591045D01*
Y762687D01*
D02*
G37*
G36*
X680970Y762313D02*
X680224D01*
Y763060D01*
X680970D01*
Y762313D01*
D02*
G37*
G36*
X592164D02*
X591418D01*
Y762687D01*
Y763060D01*
X591791D01*
Y763433D01*
X592164D01*
Y762313D01*
D02*
G37*
G36*
X590672D02*
X590299D01*
Y762687D01*
X590672D01*
Y762313D01*
D02*
G37*
G36*
X687313Y761940D02*
X686567D01*
Y762687D01*
X687313D01*
Y761940D01*
D02*
G37*
G36*
X677985D02*
X677612D01*
Y762313D01*
X677239D01*
Y762687D01*
X677985D01*
Y761940D01*
D02*
G37*
G36*
X672388D02*
X672015D01*
Y762313D01*
X671642D01*
Y762687D01*
X672388D01*
Y761940D01*
D02*
G37*
G36*
X598881Y763433D02*
X599254D01*
Y763060D01*
X600000D01*
Y761940D01*
X599254D01*
Y762313D01*
X598881D01*
Y762687D01*
X599254D01*
Y763060D01*
X598507D01*
Y763806D01*
X598881D01*
Y763433D01*
D02*
G37*
G36*
X595896Y761940D02*
X595522D01*
Y761567D01*
X595149D01*
Y763060D01*
X595896D01*
Y761940D01*
D02*
G37*
G36*
X683582Y761567D02*
Y761194D01*
X682836D01*
Y761940D01*
X683582D01*
Y761567D01*
D02*
G37*
G36*
X674627Y761194D02*
X674254D01*
Y761567D01*
X673881D01*
Y762313D01*
X674627D01*
Y761194D01*
D02*
G37*
G36*
X681716Y760821D02*
X682089D01*
Y760075D01*
X680970D01*
Y760448D01*
X680597D01*
Y760821D01*
X680970D01*
Y761194D01*
X681716D01*
Y760821D01*
D02*
G37*
G36*
X684702Y761567D02*
Y761194D01*
Y760448D01*
X685075D01*
Y759702D01*
X684328D01*
Y760448D01*
X683955D01*
Y761940D01*
X683582D01*
Y762313D01*
X684702D01*
Y761567D01*
D02*
G37*
G36*
X683955Y759702D02*
X683209D01*
Y760448D01*
X683955D01*
Y759702D01*
D02*
G37*
G36*
X595149Y760821D02*
X595522D01*
Y760075D01*
X595149D01*
Y759702D01*
X594776D01*
Y760075D01*
X594403D01*
Y761194D01*
X595149D01*
Y760821D01*
D02*
G37*
G36*
X597761Y760075D02*
Y759702D01*
X597388D01*
Y759328D01*
X597015D01*
Y760075D01*
X597388D01*
Y760448D01*
X597761D01*
Y760075D01*
D02*
G37*
G36*
X592910Y762313D02*
X593284D01*
Y760075D01*
X592910D01*
Y759328D01*
X592537D01*
Y760075D01*
X592164D01*
Y760821D01*
X592537D01*
Y762687D01*
X592910D01*
Y762313D01*
D02*
G37*
G36*
X590672Y760448D02*
X591791D01*
Y759702D01*
X591418D01*
Y759328D01*
X591045D01*
Y759702D01*
X590672D01*
Y760075D01*
X589552D01*
Y759702D01*
X589179D01*
Y760448D01*
X589552D01*
Y761194D01*
X589925D01*
Y761567D01*
X590672D01*
Y760448D01*
D02*
G37*
G36*
X679478Y758955D02*
X678731D01*
Y759702D01*
X679478D01*
Y758955D01*
D02*
G37*
G36*
X686194Y761940D02*
Y761567D01*
Y761194D01*
X686567D01*
Y761567D01*
X686940D01*
Y761194D01*
X687313D01*
Y760448D01*
X688433D01*
Y759702D01*
X688806D01*
Y758955D01*
X688433D01*
Y758582D01*
X687687D01*
Y758955D01*
X687313D01*
Y760448D01*
X686940D01*
Y760075D01*
X686567D01*
Y759328D01*
X686940D01*
Y757836D01*
X686194D01*
Y757463D01*
X685821D01*
Y757089D01*
X685448D01*
Y756716D01*
X684702D01*
Y757089D01*
X684328D01*
Y757836D01*
X684702D01*
Y757463D01*
X685075D01*
Y757836D01*
X685448D01*
Y758209D01*
X686194D01*
Y759328D01*
X685821D01*
Y760821D01*
X686194D01*
Y761194D01*
X685448D01*
Y762687D01*
X686194D01*
Y761940D01*
D02*
G37*
G36*
X600373Y758582D02*
X599627D01*
Y759328D01*
X600373D01*
Y758582D01*
D02*
G37*
G36*
X683209D02*
X683582D01*
Y757836D01*
X683209D01*
Y758209D01*
X682836D01*
Y758955D01*
X683209D01*
Y758582D01*
D02*
G37*
G36*
X680597Y757836D02*
X679851D01*
Y758209D01*
X680224D01*
Y758582D01*
X680597D01*
Y757836D01*
D02*
G37*
G36*
X677612Y758582D02*
X677985D01*
Y758209D01*
X677612D01*
Y757836D01*
X677239D01*
Y758955D01*
X677612D01*
Y758582D01*
D02*
G37*
G36*
X688433Y757836D02*
X688806D01*
Y757463D01*
X688060D01*
Y757836D01*
X687687D01*
Y758209D01*
X688433D01*
Y757836D01*
D02*
G37*
G36*
X595149Y757463D02*
X594403D01*
Y757836D01*
Y758209D01*
X595149D01*
Y757463D01*
D02*
G37*
G36*
X589925Y758209D02*
X590299D01*
Y757463D01*
X588806D01*
Y757089D01*
X588433D01*
Y756716D01*
X588060D01*
Y757463D01*
Y757836D01*
X588806D01*
Y758582D01*
X589179D01*
Y758955D01*
X589925D01*
Y758209D01*
D02*
G37*
G36*
X682836Y756343D02*
X682089D01*
Y756716D01*
Y757089D01*
X682836D01*
Y756343D01*
D02*
G37*
G36*
X677612Y755970D02*
X676866D01*
Y756716D01*
X677612D01*
Y755970D01*
D02*
G37*
G36*
X689552Y757089D02*
X689925D01*
Y755597D01*
X689179D01*
Y755970D01*
X688806D01*
Y756716D01*
X689179D01*
Y757836D01*
X688806D01*
Y758209D01*
X689552D01*
Y757089D01*
D02*
G37*
G36*
X685448Y755597D02*
X684702D01*
Y756343D01*
X685448D01*
Y755597D01*
D02*
G37*
G36*
X679105D02*
X678731D01*
Y755970D01*
X679105D01*
Y755597D01*
D02*
G37*
G36*
X598134Y755970D02*
Y755597D01*
X597388D01*
Y755970D01*
X597761D01*
Y756343D01*
X598134D01*
Y755970D01*
D02*
G37*
G36*
X688060Y755597D02*
X687687D01*
Y755224D01*
X687313D01*
Y755597D01*
X686940D01*
Y756716D01*
X688060D01*
Y755597D01*
D02*
G37*
G36*
X597015Y755224D02*
X596269D01*
Y755597D01*
Y755970D01*
X597015D01*
Y755224D01*
D02*
G37*
G36*
X594030Y755597D02*
Y755224D01*
X593657D01*
Y755970D01*
X594030D01*
Y755597D01*
D02*
G37*
G36*
X592164Y758955D02*
X592537D01*
Y758582D01*
X592910D01*
Y757836D01*
X592537D01*
Y757463D01*
X592164D01*
Y755224D01*
X591791D01*
Y754851D01*
X590672D01*
Y755597D01*
X591045D01*
Y755970D01*
X591418D01*
Y757836D01*
X592164D01*
Y758209D01*
X591791D01*
Y759328D01*
X592164D01*
Y758955D01*
D02*
G37*
G36*
X685821Y754478D02*
X685448D01*
Y754851D01*
X685821D01*
Y754478D01*
D02*
G37*
G36*
X680224Y755224D02*
X680597D01*
Y754478D01*
X679851D01*
Y754851D01*
X679478D01*
Y755224D01*
X679851D01*
Y755597D01*
X680224D01*
Y755224D01*
D02*
G37*
G36*
X587313Y754851D02*
Y754478D01*
X586940D01*
Y755224D01*
X587313D01*
Y754851D01*
D02*
G37*
G36*
X684702Y754105D02*
X684328D01*
Y754478D01*
X683955D01*
Y754851D01*
X684328D01*
Y755224D01*
X684702D01*
Y754105D01*
D02*
G37*
G36*
X589925Y754851D02*
Y754478D01*
Y754105D01*
X589552D01*
Y754478D01*
X589179D01*
Y754851D01*
X589552D01*
Y755224D01*
X589925D01*
Y754851D01*
D02*
G37*
G36*
X588806Y755597D02*
X589179D01*
Y755224D01*
X588806D01*
Y754478D01*
X588060D01*
Y754105D01*
X587687D01*
Y754851D01*
X588060D01*
Y755597D01*
X588433D01*
Y755970D01*
X588806D01*
Y755597D01*
D02*
G37*
G36*
X686567Y754478D02*
X686940D01*
Y753731D01*
X686567D01*
Y754105D01*
X686194D01*
Y754851D01*
X686567D01*
Y754478D01*
D02*
G37*
G36*
X683955Y753358D02*
X683582D01*
Y753731D01*
X683209D01*
Y754478D01*
X683955D01*
Y753358D01*
D02*
G37*
G36*
X682836D02*
X682089D01*
Y754105D01*
X682836D01*
Y753358D01*
D02*
G37*
G36*
X593284Y754105D02*
X594030D01*
Y753358D01*
X593284D01*
Y753731D01*
Y754105D01*
X592910D01*
Y754478D01*
X592537D01*
Y754851D01*
X592910D01*
Y755224D01*
X593284D01*
Y754105D01*
D02*
G37*
G36*
X587687Y753731D02*
X587313D01*
Y753358D01*
X586567D01*
Y753731D01*
X586940D01*
Y754105D01*
X587687D01*
Y753731D01*
D02*
G37*
G36*
X688060Y752985D02*
Y752612D01*
X687313D01*
Y752985D01*
X687687D01*
Y753358D01*
X688060D01*
Y752985D01*
D02*
G37*
G36*
X598881Y751866D02*
X598507D01*
Y752239D01*
X598134D01*
Y752612D01*
X598507D01*
Y752985D01*
X598881D01*
Y751866D01*
D02*
G37*
G36*
X592164Y752239D02*
X591791D01*
Y751866D01*
X591418D01*
Y752239D01*
Y752612D01*
X592164D01*
Y752239D01*
D02*
G37*
G36*
X591045Y753358D02*
X590672D01*
Y752985D01*
X590299D01*
Y752239D01*
X589925D01*
Y751866D01*
X589552D01*
Y752239D01*
X588806D01*
Y751492D01*
X588433D01*
Y751119D01*
X588060D01*
Y750746D01*
X587687D01*
Y750373D01*
X587313D01*
Y749627D01*
X587687D01*
Y748881D01*
X587313D01*
Y748508D01*
X586940D01*
Y751119D01*
X587313D01*
Y752239D01*
X587687D01*
Y752612D01*
X588433D01*
Y752985D01*
X589925D01*
Y753358D01*
X590299D01*
Y754105D01*
X591045D01*
Y753358D01*
D02*
G37*
G36*
X686940Y752239D02*
X687313D01*
Y751866D01*
X687687D01*
Y751119D01*
X687313D01*
Y751492D01*
X686940D01*
Y751866D01*
X686567D01*
Y752612D01*
X686194D01*
Y752985D01*
X686940D01*
Y752239D01*
D02*
G37*
G36*
X685448Y751119D02*
X685075D01*
Y751866D01*
X685448D01*
Y751119D01*
D02*
G37*
G36*
X691418Y752239D02*
Y750746D01*
X690672D01*
Y752239D01*
X691045D01*
Y752612D01*
X691418D01*
Y752239D01*
D02*
G37*
G36*
X682836Y751119D02*
Y750746D01*
X681343D01*
Y751492D01*
X682836D01*
Y751119D01*
D02*
G37*
G36*
X591418D02*
Y750746D01*
X591045D01*
Y751492D01*
X591418D01*
Y751119D01*
D02*
G37*
G36*
X679851Y750373D02*
X679105D01*
Y751119D01*
X679851D01*
Y750373D01*
D02*
G37*
G36*
X598134D02*
X597761D01*
Y750746D01*
Y751119D01*
X598134D01*
Y750373D01*
D02*
G37*
G36*
X592537Y750746D02*
Y750373D01*
X592164D01*
Y751119D01*
X592537D01*
Y750746D01*
D02*
G37*
G36*
X586940Y751492D02*
X586567D01*
Y750746D01*
X586194D01*
Y750373D01*
X585821D01*
Y751492D01*
X586194D01*
Y751866D01*
X586940D01*
Y751492D01*
D02*
G37*
G36*
X684702Y750373D02*
X685075D01*
Y749627D01*
X684702D01*
Y750000D01*
X683955D01*
Y750746D01*
Y751119D01*
X684702D01*
Y750373D01*
D02*
G37*
G36*
X590299D02*
X590672D01*
Y750000D01*
Y749627D01*
X589925D01*
Y749254D01*
X589552D01*
Y748508D01*
X589179D01*
Y748881D01*
X588806D01*
Y749254D01*
X588433D01*
Y750000D01*
X589179D01*
Y749627D01*
X589552D01*
Y750373D01*
X589925D01*
Y750746D01*
X590299D01*
Y750373D01*
D02*
G37*
G36*
X591791Y749254D02*
X591045D01*
Y749627D01*
X591418D01*
Y750000D01*
X591791D01*
Y749254D01*
D02*
G37*
G36*
X686194Y748881D02*
Y748508D01*
X685821D01*
Y748881D01*
X685448D01*
Y749254D01*
X686194D01*
Y748881D01*
D02*
G37*
G36*
X679851Y748508D02*
X679478D01*
Y748881D01*
Y749254D01*
X679851D01*
Y748508D01*
D02*
G37*
G36*
X597761Y748134D02*
X597388D01*
Y748508D01*
X597015D01*
Y748881D01*
X597761D01*
Y748134D01*
D02*
G37*
G36*
X688806Y747761D02*
X689179D01*
Y746642D01*
X688806D01*
Y747015D01*
X688433D01*
Y747388D01*
X688060D01*
Y747015D01*
X686567D01*
Y747388D01*
X686194D01*
Y748134D01*
X686940D01*
Y747761D01*
X687313D01*
Y748134D01*
X687687D01*
Y748508D01*
X688806D01*
Y747761D01*
D02*
G37*
G36*
X586567Y748134D02*
Y747761D01*
X585821D01*
Y749254D01*
X586567D01*
Y748134D01*
D02*
G37*
G36*
X594403Y747388D02*
X593657D01*
Y747761D01*
X594030D01*
Y748134D01*
X594403D01*
Y747388D01*
D02*
G37*
G36*
X683582D02*
X683955D01*
Y747015D01*
X683209D01*
Y747761D01*
X683582D01*
Y747388D01*
D02*
G37*
G36*
Y745895D02*
X682836D01*
Y746642D01*
X683582D01*
Y745895D01*
D02*
G37*
G36*
X591791D02*
X591418D01*
Y746269D01*
Y746642D01*
X591791D01*
Y745895D01*
D02*
G37*
G36*
X585448Y747388D02*
X585821D01*
Y746642D01*
X585448D01*
Y745895D01*
X584701D01*
Y747015D01*
X585075D01*
Y747761D01*
X585448D01*
Y747388D01*
D02*
G37*
G36*
X588806Y748134D02*
X589179D01*
Y746269D01*
X589552D01*
Y745522D01*
X589179D01*
Y745895D01*
X588433D01*
Y746269D01*
Y747015D01*
X588060D01*
Y748508D01*
X588806D01*
Y748134D01*
D02*
G37*
G36*
X587687Y747015D02*
Y746269D01*
X587313D01*
Y745522D01*
X586567D01*
Y746642D01*
X586940D01*
Y747015D01*
X587313D01*
Y747388D01*
X587687D01*
Y747015D01*
D02*
G37*
G36*
X688806Y754478D02*
X689179D01*
Y754105D01*
X690298D01*
Y753731D01*
X690672D01*
Y752612D01*
X689925D01*
Y751866D01*
X690298D01*
Y750746D01*
X690672D01*
Y750000D01*
X691045D01*
Y749627D01*
X691418D01*
Y750000D01*
X692164D01*
Y748134D01*
X692537D01*
Y747388D01*
X692164D01*
Y747015D01*
X691791D01*
Y744403D01*
X692164D01*
Y745149D01*
X692537D01*
Y745895D01*
X692911D01*
Y744403D01*
X693284D01*
Y743657D01*
X692164D01*
Y744030D01*
X691791D01*
Y743284D01*
X691418D01*
Y743657D01*
X691045D01*
Y744403D01*
X690672D01*
Y745149D01*
X689925D01*
Y744776D01*
X689179D01*
Y744403D01*
X688806D01*
Y744776D01*
X688433D01*
Y744030D01*
X688060D01*
Y744403D01*
X687687D01*
Y745149D01*
X688060D01*
Y745522D01*
X688433D01*
Y745149D01*
X688806D01*
Y745522D01*
X690298D01*
Y745895D01*
X689925D01*
Y746642D01*
X689552D01*
Y748508D01*
X689179D01*
Y749254D01*
X688806D01*
Y749627D01*
X688433D01*
Y749254D01*
X687687D01*
Y750000D01*
X688433D01*
Y750373D01*
X689179D01*
Y749627D01*
X689552D01*
Y749254D01*
X689925D01*
Y748508D01*
X690298D01*
Y746642D01*
X690672D01*
Y745149D01*
X691045D01*
Y747761D01*
X691418D01*
Y748508D01*
X691045D01*
Y748881D01*
X690672D01*
Y749254D01*
X690298D01*
Y749627D01*
X689925D01*
Y750000D01*
X689552D01*
Y751119D01*
X689179D01*
Y753731D01*
X688806D01*
Y753358D01*
X688060D01*
Y754478D01*
X688433D01*
Y754851D01*
X688806D01*
Y754478D01*
D02*
G37*
G36*
X686567Y745149D02*
X686940D01*
Y744776D01*
X686567D01*
Y744403D01*
X685821D01*
Y744776D01*
X685075D01*
Y745149D01*
X684702D01*
Y745522D01*
X685448D01*
Y745149D01*
X686194D01*
Y745522D01*
X686567D01*
Y745149D01*
D02*
G37*
G36*
X595149D02*
X594403D01*
Y745522D01*
Y745895D01*
X594776D01*
Y746269D01*
X595149D01*
Y745149D01*
D02*
G37*
G36*
X590672D02*
X589925D01*
Y745895D01*
X590672D01*
Y745149D01*
D02*
G37*
G36*
X587313Y743657D02*
X586940D01*
Y743284D01*
X585821D01*
Y743657D01*
X585075D01*
Y744030D01*
Y744776D01*
X586567D01*
Y744403D01*
X586940D01*
Y744776D01*
X587313D01*
Y743657D01*
D02*
G37*
G36*
X682836D02*
X682463D01*
Y744030D01*
X682836D01*
Y743657D01*
D02*
G37*
G36*
X592164Y744403D02*
Y743657D01*
X591418D01*
Y744403D01*
X591791D01*
Y744776D01*
X592164D01*
Y744403D01*
D02*
G37*
G36*
X682089Y743284D02*
X681343D01*
Y744030D01*
X682089D01*
Y743284D01*
D02*
G37*
G36*
X690672Y743657D02*
X691045D01*
Y743284D01*
X690672D01*
Y742911D01*
X690298D01*
Y744403D01*
X690672D01*
Y743657D01*
D02*
G37*
G36*
X679105Y743284D02*
X679478D01*
Y742911D01*
X678731D01*
Y743657D01*
X679105D01*
Y743284D01*
D02*
G37*
G36*
X589925D02*
X590299D01*
Y742911D01*
X589925D01*
Y742537D01*
X590672D01*
Y742164D01*
X589925D01*
Y742537D01*
X589552D01*
Y742911D01*
X589179D01*
Y743284D01*
X589552D01*
Y743657D01*
X589925D01*
Y743284D01*
D02*
G37*
G36*
X588433Y742164D02*
X587687D01*
Y742911D01*
Y743284D01*
X588433D01*
Y742164D01*
D02*
G37*
G36*
X681716Y741791D02*
X681343D01*
Y742164D01*
X681716D01*
Y741791D01*
D02*
G37*
G36*
X692537Y742537D02*
X693284D01*
Y741418D01*
X691791D01*
Y742911D01*
X692537D01*
Y742537D01*
D02*
G37*
G36*
X689179D02*
Y742164D01*
Y741418D01*
X688806D01*
Y741791D01*
X688433D01*
Y742911D01*
X689179D01*
Y742537D01*
D02*
G37*
G36*
X687687Y741045D02*
X686940D01*
Y741418D01*
X686567D01*
Y742164D01*
X687687D01*
Y741045D01*
D02*
G37*
G36*
X585448Y742164D02*
X585075D01*
Y740672D01*
X584328D01*
Y742164D01*
X584701D01*
Y743284D01*
X585448D01*
Y742164D01*
D02*
G37*
G36*
X588433Y740672D02*
X588806D01*
Y739925D01*
X588060D01*
Y740298D01*
X587687D01*
Y741045D01*
X588433D01*
Y740672D01*
D02*
G37*
G36*
X586194Y741418D02*
X586567D01*
Y741045D01*
X586940D01*
Y739925D01*
X586194D01*
Y740298D01*
X585821D01*
Y740672D01*
X585448D01*
Y741791D01*
X585821D01*
Y742164D01*
X586194D01*
Y741418D01*
D02*
G37*
G36*
X690298Y740672D02*
X690672D01*
Y739925D01*
X690298D01*
Y739552D01*
X689925D01*
Y741045D01*
X690298D01*
Y740672D01*
D02*
G37*
G36*
X685448Y739552D02*
X685075D01*
Y739925D01*
X685448D01*
Y739552D01*
D02*
G37*
G36*
X683955Y740298D02*
X684328D01*
Y739925D01*
X683955D01*
Y739552D01*
X683582D01*
Y740672D01*
X683955D01*
Y740298D01*
D02*
G37*
G36*
X594776D02*
Y739925D01*
Y739552D01*
X594030D01*
Y740298D01*
X594403D01*
Y740672D01*
X594776D01*
Y740298D01*
D02*
G37*
G36*
X590299Y740672D02*
X590672D01*
Y739925D01*
X590299D01*
Y739552D01*
X589552D01*
Y739925D01*
X589179D01*
Y740298D01*
X589552D01*
Y740672D01*
X589925D01*
Y741045D01*
X590299D01*
Y740672D01*
D02*
G37*
G36*
X691418Y741418D02*
X691791D01*
Y740672D01*
X692164D01*
Y740298D01*
X692537D01*
Y739552D01*
X693657D01*
Y739179D01*
X693284D01*
Y738433D01*
X692911D01*
Y738060D01*
X692537D01*
Y738433D01*
X692164D01*
Y738060D01*
X691791D01*
Y738433D01*
X691418D01*
Y738060D01*
X690672D01*
Y739552D01*
X691418D01*
Y739179D01*
X691791D01*
Y739925D01*
X691418D01*
Y740298D01*
X691045D01*
Y741418D01*
X690672D01*
Y742164D01*
X691418D01*
Y741418D01*
D02*
G37*
G36*
X686567Y738806D02*
X685821D01*
Y739552D01*
X686567D01*
Y738806D01*
D02*
G37*
G36*
X592910Y739552D02*
X593284D01*
Y738806D01*
X592910D01*
Y739179D01*
X592537D01*
Y739552D01*
Y739925D01*
X592164D01*
Y740672D01*
X592537D01*
Y741045D01*
X592910D01*
Y739552D01*
D02*
G37*
G36*
X689552Y738806D02*
X689179D01*
Y738433D01*
X688806D01*
Y738060D01*
X688433D01*
Y739552D01*
X688806D01*
Y739925D01*
X689552D01*
Y738806D01*
D02*
G37*
G36*
X684702Y738060D02*
X683955D01*
Y738806D01*
Y739179D01*
X684702D01*
Y738060D01*
D02*
G37*
G36*
X586194D02*
X585448D01*
Y739179D01*
X585821D01*
Y739552D01*
X586194D01*
Y738060D01*
D02*
G37*
G36*
X584701Y739179D02*
X585075D01*
Y738060D01*
X584328D01*
Y738433D01*
X583955D01*
Y738806D01*
X584328D01*
Y739552D01*
X584701D01*
Y739179D01*
D02*
G37*
G36*
X682089Y737687D02*
Y737313D01*
X681343D01*
Y738060D01*
X682089D01*
Y737687D01*
D02*
G37*
G36*
X592537Y738060D02*
Y737687D01*
Y737313D01*
X591791D01*
Y738060D01*
X592164D01*
Y738433D01*
X592537D01*
Y738060D01*
D02*
G37*
G36*
X588806D02*
X589179D01*
Y737313D01*
X588806D01*
Y736940D01*
X588433D01*
Y738433D01*
X588060D01*
Y738806D01*
X588433D01*
Y739179D01*
X588806D01*
Y738060D01*
D02*
G37*
G36*
X587687Y738433D02*
X587313D01*
Y737313D01*
X586940D01*
Y736940D01*
X586194D01*
Y737313D01*
Y737687D01*
X586567D01*
Y738060D01*
X586940D01*
Y739552D01*
X587687D01*
Y738433D01*
D02*
G37*
G36*
X641045Y765298D02*
X645522D01*
Y764925D01*
X647388D01*
Y764552D01*
X648881D01*
Y764179D01*
X650000D01*
Y763806D01*
X650373D01*
Y763433D01*
X650746D01*
Y762313D01*
X651119D01*
Y761940D01*
X651492D01*
Y761567D01*
X651866D01*
Y761194D01*
X652239D01*
Y760448D01*
X652612D01*
Y760075D01*
X652985D01*
Y759328D01*
X653358D01*
Y758582D01*
X653731D01*
Y757836D01*
X654105D01*
Y757089D01*
X654478D01*
Y756343D01*
X654851D01*
Y754851D01*
X655224D01*
Y752985D01*
X655597D01*
Y748881D01*
X655224D01*
Y747015D01*
X654851D01*
Y745895D01*
X654478D01*
Y744776D01*
X654105D01*
Y744030D01*
X653731D01*
Y743657D01*
X653358D01*
Y742911D01*
X652985D01*
Y742164D01*
X652612D01*
Y741791D01*
X652239D01*
Y741418D01*
X651866D01*
Y741045D01*
X651492D01*
Y740672D01*
X651119D01*
Y740298D01*
X650746D01*
Y739925D01*
X650000D01*
Y739552D01*
X649627D01*
Y739179D01*
X648881D01*
Y738806D01*
X648508D01*
Y738433D01*
X647388D01*
Y738060D01*
X646642D01*
Y737687D01*
X645895D01*
Y737313D01*
X644030D01*
Y736940D01*
X642537D01*
Y736567D01*
X635448D01*
Y736940D01*
X633582D01*
Y737313D01*
X632090D01*
Y737687D01*
X631343D01*
Y738060D01*
X630224D01*
Y738433D01*
X629478D01*
Y738806D01*
X628731D01*
Y739179D01*
X628358D01*
Y739552D01*
X627985D01*
Y739925D01*
X627239D01*
Y740298D01*
X626866D01*
Y740672D01*
X626493D01*
Y741045D01*
X626119D01*
Y741418D01*
X625746D01*
Y741791D01*
X625373D01*
Y742164D01*
X625000D01*
Y742537D01*
X624627D01*
Y743284D01*
X624254D01*
Y744030D01*
X623881D01*
Y744403D01*
X623507D01*
Y745149D01*
X623134D01*
Y746642D01*
X622761D01*
Y747761D01*
X622388D01*
Y754105D01*
X622761D01*
Y755224D01*
X623134D01*
Y756343D01*
X623507D01*
Y757463D01*
X623881D01*
Y758209D01*
X624254D01*
Y758955D01*
X624627D01*
Y759702D01*
X625000D01*
Y760075D01*
X625373D01*
Y760821D01*
X625746D01*
Y761194D01*
X626119D01*
Y761567D01*
X626493D01*
Y761940D01*
X626866D01*
Y762687D01*
X627239D01*
Y763433D01*
X627612D01*
Y763806D01*
X627985D01*
Y764179D01*
X629104D01*
Y764552D01*
X630224D01*
Y764925D01*
X632463D01*
Y765298D01*
X636940D01*
Y765672D01*
X641045D01*
Y765298D01*
D02*
G37*
G36*
X584701Y736567D02*
Y736194D01*
X584328D01*
Y736567D01*
X583955D01*
Y736940D01*
X584328D01*
Y737313D01*
X584701D01*
Y736567D01*
D02*
G37*
G36*
X692537Y737313D02*
X692911D01*
Y736940D01*
X693284D01*
Y736194D01*
X692911D01*
Y735821D01*
X692164D01*
Y734328D01*
X692537D01*
Y733955D01*
X692911D01*
Y734328D01*
X693657D01*
Y733582D01*
X693284D01*
Y733209D01*
X692911D01*
Y732836D01*
X693284D01*
Y730224D01*
X692911D01*
Y730597D01*
X692537D01*
Y731343D01*
X692911D01*
Y732463D01*
X692537D01*
Y731716D01*
X692164D01*
Y731343D01*
X691791D01*
Y730597D01*
X691418D01*
Y729851D01*
X691045D01*
Y729105D01*
X690672D01*
Y728731D01*
X690298D01*
Y729105D01*
X689925D01*
Y729851D01*
X690298D01*
Y730224D01*
X690672D01*
Y730597D01*
X691045D01*
Y731716D01*
X691418D01*
Y732089D01*
X691791D01*
Y733582D01*
X690672D01*
Y734328D01*
X691045D01*
Y734702D01*
X691418D01*
Y735821D01*
X690298D01*
Y736194D01*
X689925D01*
Y736567D01*
Y736940D01*
Y737687D01*
X690672D01*
Y737313D01*
X691045D01*
Y736567D01*
X691418D01*
Y735821D01*
X691791D01*
Y737313D01*
X692164D01*
Y737687D01*
X692537D01*
Y737313D01*
D02*
G37*
G36*
X686567Y735821D02*
X686194D01*
Y736194D01*
Y736567D01*
X686567D01*
Y735821D01*
D02*
G37*
G36*
X685821D02*
X685075D01*
Y736194D01*
Y736567D01*
X685821D01*
Y735821D01*
D02*
G37*
G36*
X588433Y735448D02*
Y735075D01*
X587687D01*
Y735821D01*
X588433D01*
Y735448D01*
D02*
G37*
G36*
X688433Y736940D02*
X688806D01*
Y736194D01*
X689552D01*
Y735448D01*
X689925D01*
Y734702D01*
X689179D01*
Y735075D01*
X688806D01*
Y736194D01*
X688060D01*
Y737687D01*
X687687D01*
Y738060D01*
X688433D01*
Y736940D01*
D02*
G37*
G36*
X594403Y735448D02*
X594776D01*
Y735075D01*
X594403D01*
Y734702D01*
X594030D01*
Y735821D01*
X594403D01*
Y735448D01*
D02*
G37*
G36*
X589925Y736194D02*
X590299D01*
Y734702D01*
X589552D01*
Y735821D01*
X589179D01*
Y736194D01*
X589552D01*
Y736567D01*
X589925D01*
Y736194D01*
D02*
G37*
G36*
X585821D02*
X586194D01*
Y734702D01*
X585448D01*
Y735821D01*
X585075D01*
Y736940D01*
X585821D01*
Y736194D01*
D02*
G37*
G36*
X687687Y734328D02*
X687313D01*
Y735075D01*
X687687D01*
Y734328D01*
D02*
G37*
G36*
X594030Y733955D02*
X593657D01*
Y733582D01*
X593284D01*
Y733955D01*
Y734328D01*
X594030D01*
Y733955D01*
D02*
G37*
G36*
X687687Y733209D02*
X686940D01*
Y733582D01*
X687687D01*
Y733209D01*
D02*
G37*
G36*
X683209D02*
X682836D01*
Y733955D01*
X683209D01*
Y733209D01*
D02*
G37*
G36*
X597015D02*
X596269D01*
Y733582D01*
Y733955D01*
X597015D01*
Y733209D01*
D02*
G37*
G36*
X591045Y732836D02*
X590672D01*
Y733209D01*
X591045D01*
Y732836D01*
D02*
G37*
G36*
X587687Y733955D02*
X587313D01*
Y733209D01*
X587687D01*
Y732463D01*
X586940D01*
Y733209D01*
X586567D01*
Y733955D01*
Y734328D01*
X586940D01*
Y734702D01*
X587313D01*
Y735075D01*
X587687D01*
Y733955D01*
D02*
G37*
G36*
X690298Y733209D02*
X691418D01*
Y732463D01*
X691045D01*
Y732089D01*
X690672D01*
Y732463D01*
X690298D01*
Y732836D01*
X689552D01*
Y733582D01*
X690298D01*
Y733209D01*
D02*
G37*
G36*
X686940Y732089D02*
X686567D01*
Y731716D01*
X686194D01*
Y732463D01*
X686940D01*
Y732089D01*
D02*
G37*
G36*
X589552Y731716D02*
X589179D01*
Y732089D01*
X588806D01*
Y733209D01*
X589552D01*
Y731716D01*
D02*
G37*
G36*
X591418Y732089D02*
X591791D01*
Y731343D01*
X591045D01*
Y732463D01*
X591418D01*
Y732089D01*
D02*
G37*
G36*
X586940Y731343D02*
X586567D01*
Y731716D01*
Y732089D01*
X586940D01*
Y731343D01*
D02*
G37*
G36*
X688806Y733209D02*
X689179D01*
Y732463D01*
X688806D01*
Y731716D01*
X689179D01*
Y732089D01*
X689552D01*
Y730970D01*
X689179D01*
Y731343D01*
X688806D01*
Y731716D01*
X688060D01*
Y732463D01*
X688433D01*
Y733582D01*
X688806D01*
Y733209D01*
D02*
G37*
G36*
X594030Y731716D02*
X594403D01*
Y731343D01*
X594030D01*
Y730970D01*
X593657D01*
Y732089D01*
X594030D01*
Y731716D01*
D02*
G37*
G36*
X684328Y730597D02*
X683955D01*
Y730970D01*
Y731343D01*
X684328D01*
Y730597D01*
D02*
G37*
G36*
X678731D02*
X677985D01*
Y730970D01*
X678731D01*
Y730597D01*
D02*
G37*
G36*
X588433Y730970D02*
X589179D01*
Y730224D01*
X588806D01*
Y730597D01*
X588060D01*
Y731343D01*
X588433D01*
Y730970D01*
D02*
G37*
G36*
X585075Y734702D02*
X585448D01*
Y733209D01*
X586194D01*
Y731343D01*
X586567D01*
Y730224D01*
X586194D01*
Y730597D01*
X585821D01*
Y729478D01*
X585448D01*
Y729105D01*
X584701D01*
Y730970D01*
X585448D01*
Y732836D01*
X585075D01*
Y733209D01*
X584701D01*
Y732836D01*
X584328D01*
Y734328D01*
X584701D01*
Y735075D01*
X585075D01*
Y734702D01*
D02*
G37*
G36*
X590672Y730224D02*
X591045D01*
Y729851D01*
X589925D01*
Y730597D01*
X590672D01*
Y730224D01*
D02*
G37*
G36*
X692911Y728358D02*
X692537D01*
Y727985D01*
X692164D01*
Y727612D01*
X692537D01*
Y726119D01*
X691418D01*
Y724627D01*
X690672D01*
Y726119D01*
X690298D01*
Y726492D01*
X689925D01*
Y726866D01*
X689552D01*
Y727239D01*
X688806D01*
Y727985D01*
X690298D01*
Y727239D01*
X691418D01*
Y727612D01*
X691045D01*
Y727985D01*
X690672D01*
Y728358D01*
X691045D01*
Y728731D01*
X691418D01*
Y729105D01*
X691791D01*
Y728358D01*
X692164D01*
Y728731D01*
X692537D01*
Y729105D01*
X692911D01*
Y728358D01*
D02*
G37*
G36*
X689179Y729478D02*
X688806D01*
Y728731D01*
X688433D01*
Y728358D01*
X688060D01*
Y730224D01*
X688433D01*
Y730597D01*
X689179D01*
Y729478D01*
D02*
G37*
G36*
X682836Y728731D02*
X683582D01*
Y728358D01*
X683209D01*
Y727985D01*
X682836D01*
Y728358D01*
X682089D01*
Y729105D01*
X682836D01*
Y728731D01*
D02*
G37*
G36*
X684328Y727612D02*
X683955D01*
Y727985D01*
Y728358D01*
X684328D01*
Y727612D01*
D02*
G37*
G36*
X672761Y729105D02*
X673508D01*
Y727985D01*
X673134D01*
Y727612D01*
X672388D01*
Y727985D01*
X670149D01*
Y727612D01*
X669776D01*
Y727239D01*
X669403D01*
Y726866D01*
X669030D01*
Y723881D01*
X669403D01*
Y723508D01*
X669776D01*
Y723134D01*
X670149D01*
Y722761D01*
X672761D01*
Y723134D01*
X673508D01*
Y721642D01*
X673134D01*
Y721269D01*
X669030D01*
Y721642D01*
X668657D01*
Y722015D01*
X667910D01*
Y722761D01*
X667537D01*
Y723134D01*
X667164D01*
Y725000D01*
X666791D01*
Y725373D01*
X667164D01*
Y727239D01*
X667537D01*
Y727612D01*
Y727985D01*
X667910D01*
Y728358D01*
X668284D01*
Y728731D01*
X668657D01*
Y729105D01*
X669403D01*
Y729478D01*
X672761D01*
Y729105D01*
D02*
G37*
G36*
X592537Y727612D02*
X592164D01*
Y728358D01*
X592537D01*
Y727612D01*
D02*
G37*
G36*
X589552Y728731D02*
X589925D01*
Y728358D01*
Y727985D01*
X589552D01*
Y727612D01*
X589179D01*
Y729105D01*
X589552D01*
Y728731D01*
D02*
G37*
G36*
X686940D02*
X686567D01*
Y727985D01*
X686194D01*
Y727239D01*
X685821D01*
Y726866D01*
X685448D01*
Y727985D01*
X685821D01*
Y728358D01*
Y728731D01*
X686194D01*
Y729105D01*
X686940D01*
Y728731D01*
D02*
G37*
G36*
X594403Y726866D02*
X593657D01*
Y727612D01*
X594403D01*
Y726866D01*
D02*
G37*
G36*
X595522Y726492D02*
X594776D01*
Y726866D01*
Y727239D01*
X595522D01*
Y726492D01*
D02*
G37*
G36*
X688060Y726866D02*
Y726119D01*
X687687D01*
Y727239D01*
X688060D01*
Y726866D01*
D02*
G37*
G36*
X587687Y729851D02*
X587313D01*
Y729105D01*
X587687D01*
Y729478D01*
X588060D01*
Y727612D01*
X588433D01*
Y726119D01*
X588060D01*
Y726492D01*
X587687D01*
Y727612D01*
X587313D01*
Y728731D01*
X586940D01*
Y730970D01*
X587687D01*
Y729851D01*
D02*
G37*
G36*
X595149Y725746D02*
Y725373D01*
X594776D01*
Y726119D01*
X595149D01*
Y725746D01*
D02*
G37*
G36*
X591791Y726866D02*
Y726492D01*
X592164D01*
Y725746D01*
X592537D01*
Y725373D01*
X591791D01*
Y725746D01*
X591418D01*
Y726492D01*
X591045D01*
Y727239D01*
X591791D01*
Y726866D01*
D02*
G37*
G36*
X686194Y725000D02*
X685821D01*
Y725746D01*
X686194D01*
Y725000D01*
D02*
G37*
G36*
X645895Y727239D02*
X646269D01*
Y721642D01*
X646642D01*
Y721269D01*
X644776D01*
Y722015D01*
X644403D01*
Y726119D01*
X644030D01*
Y725373D01*
X643657D01*
Y724627D01*
X643284D01*
Y723508D01*
X642910D01*
Y722761D01*
X642537D01*
Y722388D01*
X641045D01*
Y723134D01*
X640672D01*
Y724254D01*
X640298D01*
Y725000D01*
X639925D01*
Y725746D01*
X639179D01*
Y721269D01*
X637313D01*
Y724627D01*
X637687D01*
Y728731D01*
X638060D01*
Y729478D01*
X639925D01*
Y728731D01*
X640298D01*
Y727985D01*
X640672D01*
Y727239D01*
X641045D01*
Y726119D01*
X641418D01*
Y725373D01*
X641791D01*
Y725000D01*
X642164D01*
Y725746D01*
X642537D01*
Y726492D01*
X642910D01*
Y727239D01*
X643284D01*
Y727985D01*
X643657D01*
Y728731D01*
X644030D01*
Y729478D01*
X645895D01*
Y727239D01*
D02*
G37*
G36*
X589925Y726866D02*
X590299D01*
Y726492D01*
X589925D01*
Y726119D01*
X589552D01*
Y725000D01*
X589179D01*
Y725373D01*
X588806D01*
Y726119D01*
X589179D01*
Y726866D01*
Y727239D01*
X589925D01*
Y726866D01*
D02*
G37*
G36*
X586194Y728731D02*
Y728358D01*
Y727239D01*
X586567D01*
Y727612D01*
X586940D01*
Y726866D01*
X587313D01*
Y726119D01*
X587687D01*
Y725000D01*
X587313D01*
Y725373D01*
X586567D01*
Y726866D01*
X586194D01*
Y726492D01*
X585075D01*
Y727612D01*
X585448D01*
Y727985D01*
X585821D01*
Y729105D01*
X586194D01*
Y728731D01*
D02*
G37*
G36*
X688060Y724627D02*
X687687D01*
Y725000D01*
X687313D01*
Y725373D01*
X688060D01*
Y724627D01*
D02*
G37*
G36*
X681716Y724254D02*
X680970D01*
Y725000D01*
X681343D01*
Y725373D01*
X681716D01*
Y724254D01*
D02*
G37*
G36*
X689179Y725373D02*
X689552D01*
Y725000D01*
X689179D01*
Y724254D01*
X688806D01*
Y723881D01*
X688433D01*
Y725373D01*
X688806D01*
Y725746D01*
X689179D01*
Y725373D01*
D02*
G37*
G36*
X691791Y723134D02*
X691418D01*
Y722761D01*
X689179D01*
Y723134D01*
Y723881D01*
X689925D01*
Y723508D01*
X691045D01*
Y723881D01*
X691791D01*
Y723134D01*
D02*
G37*
G36*
X686940Y723881D02*
X686567D01*
Y723508D01*
X685821D01*
Y724254D01*
Y724627D01*
X686940D01*
Y723881D01*
D02*
G37*
G36*
X595149Y723134D02*
X594776D01*
Y723508D01*
Y723881D01*
X595149D01*
Y723134D01*
D02*
G37*
G36*
X590299Y723881D02*
X590672D01*
Y723508D01*
Y723134D01*
X589552D01*
Y723881D01*
X589925D01*
Y724254D01*
X590299D01*
Y723881D01*
D02*
G37*
G36*
X619403Y723134D02*
X619030D01*
Y722761D01*
Y722388D01*
X618657D01*
Y722015D01*
X618284D01*
Y721642D01*
X617910D01*
Y721269D01*
X614552D01*
Y721642D01*
X613806D01*
Y722015D01*
X613433D01*
Y722388D01*
X613060D01*
Y723508D01*
X612687D01*
Y729478D01*
X614552D01*
Y723881D01*
X614925D01*
Y723134D01*
X615299D01*
Y722761D01*
X616791D01*
Y723134D01*
X617164D01*
Y723508D01*
X617537D01*
Y729478D01*
X619403D01*
Y723134D01*
D02*
G37*
G36*
X684328Y722388D02*
X683582D01*
Y723134D01*
X684328D01*
Y722388D01*
D02*
G37*
G36*
X679478D02*
X678731D01*
Y723134D01*
X679105D01*
Y723508D01*
X679478D01*
Y722388D01*
D02*
G37*
G36*
X597761D02*
X597015D01*
Y722761D01*
Y723134D01*
X597761D01*
Y722388D01*
D02*
G37*
G36*
X593284D02*
X592910D01*
Y721642D01*
X592164D01*
Y721269D01*
X591791D01*
Y721642D01*
X591418D01*
Y722015D01*
Y722761D01*
X591791D01*
Y722388D01*
X592164D01*
Y722015D01*
X592537D01*
Y722761D01*
X593284D01*
Y722388D01*
D02*
G37*
G36*
X665298Y729105D02*
X665672D01*
Y721269D01*
X663433D01*
Y729105D01*
X663806D01*
Y729478D01*
X665298D01*
Y729105D01*
D02*
G37*
G36*
X662313D02*
X662687D01*
Y727985D01*
X662313D01*
Y727612D01*
X660075D01*
Y725000D01*
Y724627D01*
Y721269D01*
X658209D01*
Y727612D01*
X655970D01*
Y727985D01*
X655597D01*
Y729105D01*
X655970D01*
Y729478D01*
X662313D01*
Y729105D01*
D02*
G37*
G36*
X652239D02*
X652612D01*
Y727985D01*
X652985D01*
Y727239D01*
X653358D01*
Y726492D01*
X653731D01*
Y725373D01*
X654105D01*
Y724627D01*
X654478D01*
Y723508D01*
X654851D01*
Y722388D01*
X655224D01*
Y721269D01*
X653358D01*
Y722015D01*
Y722388D01*
X652985D01*
Y723134D01*
X649627D01*
Y722388D01*
X649254D01*
Y721269D01*
X647388D01*
Y722388D01*
X647761D01*
Y723134D01*
X648134D01*
Y724254D01*
X648508D01*
Y725373D01*
X648881D01*
Y726119D01*
X649254D01*
Y727239D01*
X649627D01*
Y727985D01*
X650000D01*
Y728731D01*
X650373D01*
Y729478D01*
X652239D01*
Y729105D01*
D02*
G37*
G36*
X633582D02*
X634328D01*
Y728731D01*
X634701D01*
Y728358D01*
X635075D01*
Y727985D01*
X635448D01*
Y727612D01*
X635821D01*
Y726119D01*
X636194D01*
Y724254D01*
X635821D01*
Y723134D01*
X635448D01*
Y722761D01*
X635075D01*
Y722015D01*
X634328D01*
Y721642D01*
X633582D01*
Y721269D01*
X630224D01*
Y721642D01*
X629478D01*
Y722015D01*
X629104D01*
Y722388D01*
X628731D01*
Y723134D01*
X628358D01*
Y723881D01*
X627985D01*
Y726492D01*
X628358D01*
Y727612D01*
X628731D01*
Y727985D01*
X629104D01*
Y728731D01*
X629851D01*
Y729105D01*
X630597D01*
Y729478D01*
X633582D01*
Y729105D01*
D02*
G37*
G36*
X627239Y727985D02*
X626866D01*
Y727612D01*
X624627D01*
Y721269D01*
X622761D01*
Y723881D01*
Y724254D01*
Y727612D01*
X620522D01*
Y729478D01*
X627239D01*
Y727985D01*
D02*
G37*
G36*
X608582Y729105D02*
X608955D01*
Y728358D01*
X609328D01*
Y727612D01*
X609701D01*
Y726492D01*
X610075D01*
Y725746D01*
X610448D01*
Y724627D01*
X610821D01*
Y723881D01*
X611194D01*
Y722761D01*
X611567D01*
Y721642D01*
X611940D01*
Y721269D01*
X609701D01*
Y722388D01*
X609328D01*
Y723134D01*
X606343D01*
Y722761D01*
X605970D01*
Y722015D01*
X605597D01*
Y721269D01*
X603731D01*
Y722015D01*
X604104D01*
Y723134D01*
X604478D01*
Y723881D01*
X604851D01*
Y725000D01*
X605224D01*
Y726119D01*
X605597D01*
Y726866D01*
X605970D01*
Y727612D01*
X606343D01*
Y728731D01*
X606716D01*
Y729478D01*
X608582D01*
Y729105D01*
D02*
G37*
G36*
X686194Y721269D02*
X685821D01*
Y720895D01*
X685075D01*
Y721269D01*
X685448D01*
Y721642D01*
X686194D01*
Y721269D01*
D02*
G37*
G36*
X676492D02*
X676866D01*
Y720895D01*
X676119D01*
Y721642D01*
X676492D01*
Y721269D01*
D02*
G37*
G36*
X586194Y725373D02*
X586567D01*
Y724627D01*
X587313D01*
Y724254D01*
X587687D01*
Y723508D01*
X588433D01*
Y723134D01*
X588806D01*
Y722761D01*
X589179D01*
Y722015D01*
X589925D01*
Y720895D01*
X589552D01*
Y721269D01*
X589179D01*
Y722015D01*
X588433D01*
Y722388D01*
X587313D01*
Y722015D01*
X586940D01*
Y720522D01*
X586567D01*
Y721642D01*
X586194D01*
Y723134D01*
X586567D01*
Y723881D01*
X585821D01*
Y724254D01*
X585448D01*
Y725746D01*
X586194D01*
Y725373D01*
D02*
G37*
G36*
X683582Y720522D02*
X683955D01*
Y720149D01*
X682836D01*
Y720895D01*
X683582D01*
Y720522D01*
D02*
G37*
G36*
X680970Y719776D02*
X680224D01*
Y720149D01*
X679851D01*
Y720895D01*
X680970D01*
Y719776D01*
D02*
G37*
G36*
X591418D02*
X590672D01*
Y720149D01*
Y720522D01*
X590299D01*
Y720895D01*
X591418D01*
Y719776D01*
D02*
G37*
G36*
X594403Y719030D02*
X594030D01*
Y719403D01*
X593657D01*
Y719776D01*
X594403D01*
Y719030D01*
D02*
G37*
G36*
X690672Y721269D02*
X690298D01*
Y719776D01*
X690672D01*
Y719403D01*
X690298D01*
Y718284D01*
X689552D01*
Y719776D01*
X688433D01*
Y720149D01*
X688806D01*
Y721269D01*
X689179D01*
Y721642D01*
X689925D01*
Y722015D01*
X690672D01*
Y721269D01*
D02*
G37*
G36*
X588433D02*
X588806D01*
Y720895D01*
X589179D01*
Y720149D01*
X589552D01*
Y719403D01*
X589925D01*
Y719030D01*
X590299D01*
Y718284D01*
X589552D01*
Y719030D01*
X589179D01*
Y719403D01*
X588806D01*
Y719776D01*
X588433D01*
Y717164D01*
X588060D01*
Y717537D01*
X587687D01*
Y720895D01*
Y721269D01*
X588060D01*
Y721642D01*
X588433D01*
Y721269D01*
D02*
G37*
G36*
X686194Y719403D02*
X685821D01*
Y719030D01*
Y718657D01*
X685448D01*
Y717911D01*
X685075D01*
Y719030D01*
X685448D01*
Y719776D01*
X686194D01*
Y719403D01*
D02*
G37*
G36*
X598507Y718284D02*
X598881D01*
Y717911D01*
X598134D01*
Y718657D01*
X598507D01*
Y718284D01*
D02*
G37*
G36*
X595522Y719030D02*
X595896D01*
Y718284D01*
X595522D01*
Y717911D01*
X595149D01*
Y718284D01*
X594776D01*
Y719403D01*
X595522D01*
Y719030D01*
D02*
G37*
G36*
X684702Y719403D02*
Y719030D01*
Y718657D01*
X684328D01*
Y718284D01*
X683955D01*
Y717911D01*
X683582D01*
Y717537D01*
X683209D01*
Y718284D01*
X683582D01*
Y718657D01*
X683955D01*
Y719403D01*
X684328D01*
Y719776D01*
X684702D01*
Y719403D01*
D02*
G37*
G36*
X688433Y721642D02*
X688060D01*
Y721269D01*
X687687D01*
Y720895D01*
X688060D01*
Y719403D01*
X687313D01*
Y718657D01*
X686940D01*
Y718284D01*
X686567D01*
Y717537D01*
X686940D01*
Y717164D01*
X686194D01*
Y717537D01*
X685821D01*
Y718284D01*
X686194D01*
Y718657D01*
X686567D01*
Y719403D01*
X686940D01*
Y719776D01*
X687313D01*
Y720522D01*
X686567D01*
Y721269D01*
X686940D01*
Y721642D01*
X687313D01*
Y722388D01*
X687687D01*
Y722761D01*
X688433D01*
Y721642D01*
D02*
G37*
G36*
X598507Y716791D02*
X598134D01*
Y717164D01*
X597761D01*
Y717537D01*
X598507D01*
Y716791D01*
D02*
G37*
G36*
X591418Y719030D02*
X591791D01*
Y718657D01*
X592537D01*
Y718284D01*
X592910D01*
Y717911D01*
X593284D01*
Y717164D01*
X593657D01*
Y716418D01*
X593284D01*
Y716791D01*
X592910D01*
Y717164D01*
X592537D01*
Y717537D01*
X592164D01*
Y718284D01*
X591791D01*
Y718657D01*
X591045D01*
Y719403D01*
X591418D01*
Y719030D01*
D02*
G37*
G36*
X685075Y716791D02*
X685448D01*
Y716045D01*
X684328D01*
Y716418D01*
Y716791D01*
Y717164D01*
X685075D01*
Y716791D01*
D02*
G37*
G36*
X683955Y715672D02*
X683209D01*
Y716045D01*
Y716418D01*
X683955D01*
Y715672D01*
D02*
G37*
G36*
X678731Y716045D02*
X678358D01*
Y715672D01*
X677985D01*
Y716418D01*
X678731D01*
Y716045D01*
D02*
G37*
G36*
X618284Y717164D02*
X618657D01*
Y716418D01*
X618284D01*
Y715672D01*
X617910D01*
Y716045D01*
X615299D01*
Y714925D01*
X616045D01*
Y714552D01*
X616791D01*
Y714179D01*
X617537D01*
Y713806D01*
X618284D01*
Y713433D01*
X618657D01*
Y713060D01*
X619030D01*
Y711194D01*
Y710821D01*
X618657D01*
Y710075D01*
X617910D01*
Y709702D01*
X616791D01*
Y709328D01*
X614925D01*
Y709702D01*
X613806D01*
Y710075D01*
X613433D01*
Y710821D01*
X613806D01*
Y711567D01*
X614179D01*
Y711194D01*
X617164D01*
Y712313D01*
X616791D01*
Y712687D01*
X616045D01*
Y713060D01*
X614925D01*
Y713433D01*
X614179D01*
Y713806D01*
X613806D01*
Y714552D01*
X613433D01*
Y716045D01*
X613806D01*
Y716791D01*
X614179D01*
Y717164D01*
X614925D01*
Y717537D01*
X618284D01*
Y717164D01*
D02*
G37*
G36*
X591791Y716418D02*
X592164D01*
Y715672D01*
X591418D01*
Y716045D01*
X591045D01*
Y717164D01*
X591791D01*
Y716418D01*
D02*
G37*
G36*
X679851Y715298D02*
X679105D01*
Y715672D01*
Y716045D01*
X679851D01*
Y715298D01*
D02*
G37*
G36*
X688806Y718284D02*
X689179D01*
Y717911D01*
X688806D01*
Y717537D01*
X688433D01*
Y716045D01*
X687313D01*
Y715298D01*
X686940D01*
Y714925D01*
X685075D01*
Y715672D01*
X686194D01*
Y716045D01*
X686567D01*
Y716418D01*
X686940D01*
Y716791D01*
X687313D01*
Y717164D01*
X687687D01*
Y717911D01*
X688060D01*
Y718284D01*
X688433D01*
Y718657D01*
X688060D01*
Y719030D01*
X688806D01*
Y718284D01*
D02*
G37*
G36*
X676492Y715298D02*
X676119D01*
Y714925D01*
X675746D01*
Y715298D01*
X675373D01*
Y715672D01*
X675746D01*
Y716045D01*
X676492D01*
Y715298D01*
D02*
G37*
G36*
X627239Y709702D02*
X625373D01*
Y713060D01*
X622388D01*
Y710821D01*
Y710448D01*
Y709702D01*
X620522D01*
Y717537D01*
X622388D01*
Y714552D01*
X625373D01*
Y717537D01*
X627239D01*
Y709702D01*
D02*
G37*
G36*
X589925Y717537D02*
X590299D01*
Y717164D01*
X590672D01*
Y716418D01*
X589925D01*
Y714925D01*
X589552D01*
Y714179D01*
X589179D01*
Y714925D01*
X588806D01*
Y717537D01*
X589179D01*
Y717911D01*
X589925D01*
Y717537D01*
D02*
G37*
G36*
X602985Y713433D02*
X602239D01*
Y714179D01*
X602985D01*
Y713433D01*
D02*
G37*
G36*
X591418Y714552D02*
Y714179D01*
X591791D01*
Y713433D01*
X591045D01*
Y713806D01*
X590672D01*
Y714925D01*
X591418D01*
Y714552D01*
D02*
G37*
G36*
X688806Y714925D02*
X688433D01*
Y714179D01*
X688060D01*
Y713060D01*
X687313D01*
Y713433D01*
X687687D01*
Y713806D01*
X686940D01*
Y714552D01*
X687687D01*
Y714925D01*
X688060D01*
Y715672D01*
X688806D01*
Y714925D01*
D02*
G37*
G36*
X686567Y713433D02*
X686194D01*
Y712687D01*
X686940D01*
Y712313D01*
X687313D01*
Y711940D01*
X686940D01*
Y711194D01*
X686194D01*
Y711940D01*
X685448D01*
Y711567D01*
X685075D01*
Y711940D01*
X684328D01*
Y712687D01*
X684702D01*
Y713060D01*
X685075D01*
Y713433D01*
X685448D01*
Y713060D01*
X685821D01*
Y713806D01*
X686567D01*
Y713433D01*
D02*
G37*
G36*
X597388D02*
Y713060D01*
X596642D01*
Y713806D01*
X597388D01*
Y713433D01*
D02*
G37*
G36*
X682463Y714552D02*
X682836D01*
Y714179D01*
X683582D01*
Y713806D01*
X684328D01*
Y713060D01*
X683955D01*
Y712687D01*
X683582D01*
Y713433D01*
X683209D01*
Y713060D01*
X682463D01*
Y713433D01*
Y713806D01*
X682089D01*
Y713433D01*
X681716D01*
Y713806D01*
X681343D01*
Y714552D01*
X681716D01*
Y714925D01*
X682463D01*
Y714552D01*
D02*
G37*
G36*
X601493Y713060D02*
Y712687D01*
X600746D01*
Y713433D01*
X601493D01*
Y713060D01*
D02*
G37*
G36*
X596269D02*
Y712687D01*
X595522D01*
Y713433D01*
X596269D01*
Y713060D01*
D02*
G37*
G36*
X680970Y711940D02*
X680224D01*
Y712313D01*
X680597D01*
Y712687D01*
X680970D01*
Y711940D01*
D02*
G37*
G36*
X595522D02*
X594776D01*
Y712687D01*
X595522D01*
Y711940D01*
D02*
G37*
G36*
X683209Y711567D02*
X682836D01*
Y711194D01*
X682463D01*
Y711940D01*
X683209D01*
Y711567D01*
D02*
G37*
G36*
X678731Y712313D02*
X678358D01*
Y711940D01*
X679105D01*
Y711194D01*
X678358D01*
Y711567D01*
Y711940D01*
X677985D01*
Y712687D01*
X678731D01*
Y712313D01*
D02*
G37*
G36*
X675373Y711194D02*
X674627D01*
Y711567D01*
X675000D01*
Y711940D01*
X675373D01*
Y711194D01*
D02*
G37*
G36*
X599627Y710821D02*
X598881D01*
Y711194D01*
Y711567D01*
X599627D01*
Y710821D01*
D02*
G37*
G36*
X594403Y711194D02*
X594776D01*
Y710821D01*
X594030D01*
Y711567D01*
X594403D01*
Y711194D01*
D02*
G37*
G36*
Y714552D02*
X594030D01*
Y714179D01*
X593657D01*
Y713806D01*
X592910D01*
Y713060D01*
X593284D01*
Y711567D01*
X593657D01*
Y710821D01*
X592910D01*
Y711194D01*
X592537D01*
Y713806D01*
X592164D01*
Y714925D01*
X593657D01*
Y715298D01*
X594030D01*
Y715672D01*
X594403D01*
Y714552D01*
D02*
G37*
G36*
X602239Y711194D02*
X602612D01*
Y710448D01*
X601866D01*
Y710821D01*
X601493D01*
Y711194D01*
X601119D01*
Y711567D01*
X602239D01*
Y711194D01*
D02*
G37*
G36*
X685821Y710448D02*
X685448D01*
Y710075D01*
X685075D01*
Y711194D01*
X685821D01*
Y710448D01*
D02*
G37*
G36*
X677612Y710075D02*
X677239D01*
Y710448D01*
X677612D01*
Y710075D01*
D02*
G37*
G36*
X597761Y710448D02*
Y710075D01*
X597015D01*
Y710448D01*
X596642D01*
Y710821D01*
X597015D01*
Y711194D01*
X597388D01*
Y711567D01*
X597761D01*
Y710448D01*
D02*
G37*
G36*
X665672Y716045D02*
X662313D01*
Y714552D01*
X665298D01*
Y713060D01*
X662313D01*
Y711194D01*
X666045D01*
Y709702D01*
X660448D01*
Y715672D01*
Y716045D01*
Y717537D01*
X665672D01*
Y716045D01*
D02*
G37*
G36*
X650373D02*
X647015D01*
Y714552D01*
X650000D01*
Y713060D01*
X647015D01*
Y711194D01*
X650746D01*
Y709702D01*
X645149D01*
Y717537D01*
X650373D01*
Y716045D01*
D02*
G37*
G36*
X643657D02*
X639925D01*
Y714552D01*
X642910D01*
Y714179D01*
X643284D01*
Y713060D01*
X639925D01*
Y711194D01*
X643657D01*
Y709702D01*
X638060D01*
Y717537D01*
X643657D01*
Y716045D01*
D02*
G37*
G36*
X636940D02*
X633582D01*
Y714552D01*
X636194D01*
Y714179D01*
X636567D01*
Y713060D01*
X636194D01*
Y712687D01*
X633582D01*
Y709702D01*
X631716D01*
Y716045D01*
Y716418D01*
Y717537D01*
X636940D01*
Y716045D01*
D02*
G37*
G36*
X611940Y709702D02*
X610075D01*
Y713433D01*
Y713806D01*
Y717537D01*
X611940D01*
Y709702D01*
D02*
G37*
G36*
X608955Y716045D02*
X605597D01*
Y714552D01*
X608582D01*
Y712687D01*
X605597D01*
Y709702D01*
X603731D01*
Y716418D01*
Y716791D01*
Y717537D01*
X608955D01*
Y716045D01*
D02*
G37*
G36*
X679478Y709328D02*
X679105D01*
Y709702D01*
X678731D01*
Y710075D01*
X679105D01*
Y710448D01*
X679478D01*
Y709328D01*
D02*
G37*
G36*
X671269Y717164D02*
X672388D01*
Y716791D01*
X672761D01*
Y716418D01*
X673134D01*
Y713806D01*
X672761D01*
Y713433D01*
X672388D01*
Y713060D01*
X672015D01*
Y712313D01*
X672388D01*
Y711940D01*
X672761D01*
Y711194D01*
X673134D01*
Y710448D01*
X673508D01*
Y709702D01*
X671269D01*
Y709328D01*
X670522D01*
Y710075D01*
X670895D01*
Y710448D01*
X671269D01*
Y710821D01*
X670895D01*
Y711567D01*
X670522D01*
Y711940D01*
X670149D01*
Y712313D01*
X669030D01*
Y709702D01*
X667164D01*
Y710075D01*
Y710448D01*
Y717537D01*
X671269D01*
Y717164D01*
D02*
G37*
G36*
X656343D02*
X657089D01*
Y716791D01*
X657836D01*
Y716418D01*
X658209D01*
Y715672D01*
X658582D01*
Y714552D01*
X658955D01*
Y712313D01*
X658582D01*
Y711567D01*
X658209D01*
Y710821D01*
X657836D01*
Y710448D01*
X657463D01*
Y710075D01*
X656716D01*
Y709702D01*
X654851D01*
Y709328D01*
X653358D01*
Y709702D01*
X651866D01*
Y711940D01*
Y712313D01*
Y717537D01*
X656343D01*
Y717164D01*
D02*
G37*
G36*
X591418Y712687D02*
X591791D01*
Y711940D01*
X591418D01*
Y711194D01*
X592164D01*
Y710821D01*
X592537D01*
Y710448D01*
X592910D01*
Y710075D01*
X593284D01*
Y710448D01*
X594030D01*
Y710075D01*
X594403D01*
Y709702D01*
X594030D01*
Y709328D01*
X593284D01*
Y709702D01*
X591418D01*
Y710448D01*
X591045D01*
Y711194D01*
X590672D01*
Y711940D01*
X590299D01*
Y712313D01*
X590672D01*
Y712687D01*
X591045D01*
Y713060D01*
X591418D01*
Y712687D01*
D02*
G37*
G36*
X602239Y708955D02*
X601493D01*
Y709702D01*
X602239D01*
Y708955D01*
D02*
G37*
G36*
X681343Y709328D02*
X680970D01*
Y708582D01*
X680224D01*
Y709328D01*
X680597D01*
Y710075D01*
X680224D01*
Y710821D01*
X681343D01*
Y709328D01*
D02*
G37*
G36*
X676866D02*
X676492D01*
Y708955D01*
X675746D01*
Y708582D01*
X675000D01*
Y709328D01*
X675746D01*
Y709702D01*
X676119D01*
Y710075D01*
X676866D01*
Y709328D01*
D02*
G37*
G36*
X595896Y709702D02*
X596269D01*
Y708582D01*
X595522D01*
Y708955D01*
X595149D01*
Y709702D01*
Y710075D01*
X595896D01*
Y709702D01*
D02*
G37*
G36*
X683209Y710075D02*
X684328D01*
Y709328D01*
X684702D01*
Y709702D01*
X685075D01*
Y709328D01*
X685448D01*
Y708955D01*
X685075D01*
Y708209D01*
X684328D01*
Y707836D01*
X683582D01*
Y708582D01*
X683955D01*
Y708955D01*
X683582D01*
Y709328D01*
X683209D01*
Y709702D01*
X682836D01*
Y709328D01*
X682089D01*
Y710075D01*
X682463D01*
Y710448D01*
X683209D01*
Y710075D01*
D02*
G37*
G36*
X594776Y707836D02*
X595149D01*
Y707463D01*
X595522D01*
Y706716D01*
X595896D01*
Y707089D01*
X596269D01*
Y707836D01*
X596642D01*
Y706343D01*
X597015D01*
Y705597D01*
X597388D01*
Y705224D01*
Y704105D01*
X597761D01*
Y703731D01*
X598134D01*
Y702239D01*
X598507D01*
Y700746D01*
X598134D01*
Y701119D01*
X597761D01*
Y701492D01*
X597388D01*
Y701866D01*
X597015D01*
Y702239D01*
X596642D01*
Y702985D01*
X597015D01*
Y702612D01*
X597388D01*
Y702239D01*
X597761D01*
Y702612D01*
X597388D01*
Y702985D01*
X597015D01*
Y703358D01*
X596642D01*
Y703731D01*
X596269D01*
Y704478D01*
X595896D01*
Y704105D01*
X595149D01*
Y704851D01*
X594776D01*
Y705224D01*
X595149D01*
Y706343D01*
X594776D01*
Y707089D01*
X593284D01*
Y707463D01*
X592910D01*
Y707836D01*
X592537D01*
Y708582D01*
X592910D01*
Y708209D01*
X593657D01*
Y707836D01*
X594403D01*
Y708209D01*
X594030D01*
Y708582D01*
X594776D01*
Y707836D01*
D02*
G37*
G36*
X677985Y707463D02*
X677239D01*
Y707836D01*
X677612D01*
Y708209D01*
X677985D01*
Y707463D01*
D02*
G37*
G36*
X598134Y707836D02*
X598507D01*
Y707089D01*
X597388D01*
Y708209D01*
X598134D01*
Y707836D01*
D02*
G37*
G36*
X680597Y707089D02*
X680224D01*
Y706716D01*
X679851D01*
Y707089D01*
X679105D01*
Y706716D01*
X678731D01*
Y707463D01*
X679851D01*
Y707836D01*
X680597D01*
Y707089D01*
D02*
G37*
G36*
X677612Y706343D02*
X677239D01*
Y705970D01*
X676866D01*
Y706343D01*
X676492D01*
Y706716D01*
X677612D01*
Y706343D01*
D02*
G37*
G36*
X675373Y705597D02*
X674627D01*
Y705970D01*
X675000D01*
Y706343D01*
X675373D01*
Y705597D01*
D02*
G37*
G36*
X602985Y706343D02*
X603358D01*
Y705597D01*
X602985D01*
Y705970D01*
X602612D01*
Y706343D01*
Y706716D01*
X602985D01*
Y706343D01*
D02*
G37*
G36*
X684328Y706716D02*
X683955D01*
Y706343D01*
X683582D01*
Y705597D01*
X683209D01*
Y705224D01*
X682463D01*
Y705597D01*
X682836D01*
Y706343D01*
X683209D01*
Y706716D01*
X683582D01*
Y707089D01*
X684328D01*
Y706716D01*
D02*
G37*
G36*
X676119Y705224D02*
X675746D01*
Y705597D01*
X676119D01*
Y705224D01*
D02*
G37*
G36*
X672761Y705597D02*
X672388D01*
Y705224D01*
X672015D01*
Y705970D01*
X672761D01*
Y705597D01*
D02*
G37*
G36*
X682836Y707463D02*
X682463D01*
Y705970D01*
X682089D01*
Y704851D01*
X681716D01*
Y704478D01*
X681343D01*
Y704105D01*
X681716D01*
Y703358D01*
X681343D01*
Y702985D01*
X680970D01*
Y704105D01*
X680597D01*
Y703731D01*
X680224D01*
Y703358D01*
X680597D01*
Y702612D01*
X680224D01*
Y702239D01*
X679851D01*
Y701866D01*
X679105D01*
Y703358D01*
X679478D01*
Y704478D01*
Y704851D01*
X679105D01*
Y705224D01*
X678731D01*
Y705597D01*
X677985D01*
Y705224D01*
X677612D01*
Y705970D01*
X678731D01*
Y706343D01*
X679851D01*
Y705970D01*
X680224D01*
Y704851D01*
X680970D01*
Y705224D01*
X681343D01*
Y705970D01*
X681716D01*
Y708209D01*
X682089D01*
Y708582D01*
X682463D01*
Y708955D01*
X682836D01*
Y707463D01*
D02*
G37*
G36*
X600000D02*
X600373D01*
Y707089D01*
X600746D01*
Y705970D01*
X601119D01*
Y704851D01*
X600746D01*
Y705224D01*
X600373D01*
Y705597D01*
X600000D01*
Y705970D01*
X600373D01*
Y706343D01*
X600000D01*
Y707463D01*
X598881D01*
Y708582D01*
X600000D01*
Y707463D01*
D02*
G37*
G36*
X598134Y705597D02*
X598881D01*
Y705224D01*
Y704851D01*
X598134D01*
Y705224D01*
X597761D01*
Y705970D01*
X598134D01*
Y705597D01*
D02*
G37*
G36*
X605970Y704478D02*
X606343D01*
Y703731D01*
X605597D01*
Y704105D01*
X605224D01*
Y704478D01*
X605597D01*
Y704851D01*
X605970D01*
Y704478D01*
D02*
G37*
G36*
X668284Y703358D02*
X667910D01*
Y703731D01*
X668284D01*
Y703358D01*
D02*
G37*
G36*
X601493Y704105D02*
X601866D01*
Y702985D01*
X601493D01*
Y703358D01*
X601119D01*
Y703731D01*
X600746D01*
Y704105D01*
X600373D01*
Y704478D01*
X601493D01*
Y704105D01*
D02*
G37*
G36*
X600000D02*
X600373D01*
Y703358D01*
X600000D01*
Y702985D01*
X599627D01*
Y703358D01*
X599254D01*
Y704478D01*
X600000D01*
Y704105D01*
D02*
G37*
G36*
X669776Y702612D02*
X669030D01*
Y703358D01*
X669776D01*
Y702612D01*
D02*
G37*
G36*
X678358Y703358D02*
X678731D01*
Y702612D01*
X677985D01*
Y702239D01*
X677612D01*
Y702612D01*
X677239D01*
Y703731D01*
X678358D01*
Y703358D01*
D02*
G37*
G36*
X676866Y702612D02*
X676492D01*
Y702239D01*
X675746D01*
Y702985D01*
X676119D01*
Y703358D01*
X676866D01*
Y702612D01*
D02*
G37*
G36*
X673881Y703731D02*
Y702985D01*
X673508D01*
Y702239D01*
X673134D01*
Y702612D01*
X672761D01*
Y703731D01*
X673134D01*
Y704105D01*
X673881D01*
Y703731D01*
D02*
G37*
G36*
X604478D02*
X604851D01*
Y702239D01*
X604104D01*
Y702612D01*
Y703358D01*
X603731D01*
Y703731D01*
X604104D01*
Y704105D01*
X604478D01*
Y703731D01*
D02*
G37*
G36*
X599254Y702239D02*
X598881D01*
Y702612D01*
X599254D01*
Y702239D01*
D02*
G37*
G36*
X664552D02*
X664179D01*
Y701866D01*
X663806D01*
Y702612D01*
X664552D01*
Y702239D01*
D02*
G37*
G36*
X612313Y701119D02*
X611567D01*
Y701492D01*
X611194D01*
Y701866D01*
X612313D01*
Y701119D01*
D02*
G37*
G36*
X665672Y701492D02*
X666045D01*
Y701119D01*
X665672D01*
Y700746D01*
X664925D01*
Y701492D01*
X665298D01*
Y701866D01*
X665672D01*
Y701492D01*
D02*
G37*
G36*
X679478Y700746D02*
X679105D01*
Y700373D01*
X678731D01*
Y701119D01*
X679478D01*
Y700746D01*
D02*
G37*
G36*
X667537Y700000D02*
X666791D01*
Y700373D01*
X667164D01*
Y700746D01*
X667537D01*
Y700000D01*
D02*
G37*
G36*
X616791Y700373D02*
X617164D01*
Y700000D01*
X616418D01*
Y700746D01*
X616791D01*
Y700373D01*
D02*
G37*
G36*
X675746Y700746D02*
X675373D01*
Y700373D01*
X673881D01*
Y700000D01*
X673508D01*
Y699627D01*
X673134D01*
Y700373D01*
X673508D01*
Y700746D01*
X673881D01*
Y701119D01*
X675000D01*
Y701492D01*
X675746D01*
Y700746D01*
D02*
G37*
G36*
X611194D02*
X611567D01*
Y700373D01*
X612313D01*
Y699627D01*
X611940D01*
Y700000D01*
X611567D01*
Y700373D01*
X610821D01*
Y701119D01*
X611194D01*
Y700746D01*
D02*
G37*
G36*
X608582Y700000D02*
X608955D01*
Y699627D01*
X608209D01*
Y700000D01*
X607836D01*
Y700373D01*
X608582D01*
Y700000D01*
D02*
G37*
G36*
X602239Y700373D02*
X602612D01*
Y699627D01*
X601866D01*
Y700000D01*
X601493D01*
Y700373D01*
X601866D01*
Y700746D01*
X602239D01*
Y700373D01*
D02*
G37*
G36*
X600746Y701492D02*
X600373D01*
Y701119D01*
X600746D01*
Y700746D01*
Y700373D01*
X600373D01*
Y699627D01*
X600000D01*
Y700000D01*
X599627D01*
Y700373D01*
X599254D01*
Y701119D01*
X599627D01*
Y701492D01*
X600000D01*
Y702239D01*
X600746D01*
Y701492D01*
D02*
G37*
G36*
X677612Y700373D02*
X678731D01*
Y700000D01*
X678358D01*
Y699627D01*
X677985D01*
Y699254D01*
X676492D01*
Y699627D01*
X677239D01*
Y700000D01*
X676492D01*
Y700373D01*
X676866D01*
Y700746D01*
X677612D01*
Y700373D01*
D02*
G37*
G36*
X602239Y701866D02*
X602612D01*
Y701492D01*
X603731D01*
Y701119D01*
X604104D01*
Y700746D01*
X604478D01*
Y700373D01*
X605597D01*
Y700000D01*
X605970D01*
Y699627D01*
X605597D01*
Y699254D01*
X605224D01*
Y699627D01*
X604851D01*
Y700000D01*
X604478D01*
Y700373D01*
X603358D01*
Y700746D01*
X602612D01*
Y701119D01*
X602239D01*
Y701492D01*
X601866D01*
Y701866D01*
X601493D01*
Y702239D01*
X602239D01*
Y701866D01*
D02*
G37*
G36*
X670895Y700746D02*
X671269D01*
Y700373D01*
X671642D01*
Y700000D01*
X671269D01*
Y699627D01*
X672015D01*
Y698881D01*
X671269D01*
Y699627D01*
X670149D01*
Y701119D01*
X669776D01*
Y701492D01*
X670895D01*
Y700746D01*
D02*
G37*
G36*
X601493Y699254D02*
X601866D01*
Y698508D01*
X601493D01*
Y698134D01*
X601119D01*
Y698508D01*
X600746D01*
Y699627D01*
X601493D01*
Y699254D01*
D02*
G37*
G36*
X673881Y697761D02*
X672761D01*
Y698134D01*
X673134D01*
Y698508D01*
X673881D01*
Y697761D01*
D02*
G37*
G36*
X669403Y698134D02*
X669030D01*
Y697761D01*
X668657D01*
Y698508D01*
X669403D01*
Y698134D01*
D02*
G37*
G36*
X664552Y697761D02*
X663433D01*
Y698134D01*
X664552D01*
Y697761D01*
D02*
G37*
G36*
X609328Y698134D02*
X609701D01*
Y697761D01*
X608955D01*
Y698134D01*
X608582D01*
Y698508D01*
X609328D01*
Y698134D01*
D02*
G37*
G36*
X607836D02*
X607463D01*
Y697761D01*
X607090D01*
Y698508D01*
X607836D01*
Y698134D01*
D02*
G37*
G36*
X661567D02*
X661940D01*
Y697761D01*
X661567D01*
Y697388D01*
X660821D01*
Y698134D01*
X661194D01*
Y698508D01*
X661567D01*
Y698134D01*
D02*
G37*
G36*
X659702Y697388D02*
X658955D01*
Y698134D01*
X659702D01*
Y697388D01*
D02*
G37*
G36*
X604478Y698881D02*
X604851D01*
Y697761D01*
X605224D01*
Y697015D01*
X604851D01*
Y697388D01*
X604478D01*
Y697761D01*
X604104D01*
Y698134D01*
X603731D01*
Y698508D01*
X603358D01*
Y699254D01*
X603731D01*
Y699627D01*
X604478D01*
Y698881D01*
D02*
G37*
G36*
X676119D02*
Y698134D01*
X675746D01*
Y697015D01*
X675373D01*
Y696642D01*
X675000D01*
Y697761D01*
X674627D01*
Y698134D01*
X674254D01*
Y698508D01*
X674627D01*
Y698881D01*
X675000D01*
Y699254D01*
X676119D01*
Y698881D01*
D02*
G37*
G36*
X611567Y696642D02*
X610821D01*
Y697015D01*
X610448D01*
Y697388D01*
X611567D01*
Y696642D01*
D02*
G37*
G36*
X675000Y696269D02*
X674627D01*
Y696642D01*
X675000D01*
Y696269D01*
D02*
G37*
G36*
X672388Y697015D02*
X671269D01*
Y696642D01*
X670895D01*
Y696269D01*
X670149D01*
Y697015D01*
X670522D01*
Y697388D01*
X670895D01*
Y697761D01*
X672388D01*
Y697015D01*
D02*
G37*
G36*
X606716Y697388D02*
X607090D01*
Y696642D01*
X606716D01*
Y696269D01*
X605970D01*
Y696642D01*
X605597D01*
Y697388D01*
X605970D01*
Y697761D01*
X606716D01*
Y697388D01*
D02*
G37*
G36*
X665672Y695895D02*
X664552D01*
Y696269D01*
X664179D01*
Y697015D01*
X665672D01*
Y695895D01*
D02*
G37*
G36*
X652612D02*
X651866D01*
Y696269D01*
X652612D01*
Y695895D01*
D02*
G37*
G36*
X607836Y696269D02*
X608209D01*
Y695895D01*
X607463D01*
Y696642D01*
X607836D01*
Y696269D01*
D02*
G37*
G36*
X603358Y698134D02*
X603731D01*
Y697761D01*
X603358D01*
Y697015D01*
X604851D01*
Y696642D01*
X605224D01*
Y695895D01*
X604478D01*
Y696269D01*
X603731D01*
Y696642D01*
X602239D01*
Y697015D01*
X601866D01*
Y697388D01*
X601493D01*
Y697761D01*
X602612D01*
Y698508D01*
X603358D01*
Y698134D01*
D02*
G37*
G36*
X673881Y695895D02*
X673508D01*
Y695522D01*
X672761D01*
Y696269D01*
X673134D01*
Y696642D01*
X673881D01*
Y695895D01*
D02*
G37*
G36*
X658582Y695522D02*
X658209D01*
Y695895D01*
X658582D01*
Y695522D01*
D02*
G37*
G36*
X655224D02*
X654478D01*
Y695895D01*
X655224D01*
Y695522D01*
D02*
G37*
G36*
X626119Y696269D02*
X626493D01*
Y695895D01*
Y695522D01*
X625746D01*
Y695895D01*
X625373D01*
Y696269D01*
X625746D01*
Y696642D01*
X626119D01*
Y696269D01*
D02*
G37*
G36*
X604104Y695522D02*
X603358D01*
Y695895D01*
X604104D01*
Y695522D01*
D02*
G37*
G36*
X656343Y695149D02*
X655597D01*
Y695522D01*
Y695895D01*
X656343D01*
Y695149D01*
D02*
G37*
G36*
X662687D02*
X662313D01*
Y694776D01*
X661567D01*
Y695522D01*
X662687D01*
Y695149D01*
D02*
G37*
G36*
X610075D02*
X610821D01*
Y694776D01*
X611567D01*
Y694403D01*
X609701D01*
Y694776D01*
X609328D01*
Y695149D01*
X609701D01*
Y695522D01*
X610075D01*
Y695149D01*
D02*
G37*
G36*
X668657Y696642D02*
X669030D01*
Y696269D01*
X669403D01*
Y695149D01*
X670895D01*
Y695522D01*
X671269D01*
Y695149D01*
X672388D01*
Y694776D01*
X672761D01*
Y694403D01*
X672388D01*
Y694030D01*
X671269D01*
Y694776D01*
X670895D01*
Y694403D01*
X669776D01*
Y693657D01*
X670149D01*
Y693284D01*
X669776D01*
Y692911D01*
X668657D01*
Y693284D01*
X669030D01*
Y693657D01*
X669403D01*
Y694030D01*
X669030D01*
Y694776D01*
X667910D01*
Y695149D01*
X668284D01*
Y695522D01*
X668657D01*
Y695895D01*
X667164D01*
Y695522D01*
X666418D01*
Y695895D01*
X666791D01*
Y696269D01*
X667164D01*
Y696642D01*
X667910D01*
Y697015D01*
X668657D01*
Y696642D01*
D02*
G37*
G36*
X666791Y694776D02*
X667164D01*
Y694403D01*
X666791D01*
Y694030D01*
X666418D01*
Y694403D01*
X666045D01*
Y694030D01*
X665298D01*
Y694403D01*
X664925D01*
Y694776D01*
X665298D01*
Y695149D01*
X666791D01*
Y694776D01*
D02*
G37*
G36*
X659702Y694030D02*
X658955D01*
Y695149D01*
X659702D01*
Y694030D01*
D02*
G37*
G36*
X633955D02*
X633209D01*
Y694403D01*
X633955D01*
Y694030D01*
D02*
G37*
G36*
X648881D02*
X649254D01*
Y693657D01*
X648134D01*
Y694030D01*
X648508D01*
Y694403D01*
X648881D01*
Y694030D01*
D02*
G37*
G36*
X661567Y693657D02*
X661194D01*
Y693284D01*
X660448D01*
Y694403D01*
X660821D01*
Y694776D01*
X661567D01*
Y693657D01*
D02*
G37*
G36*
X615672Y693284D02*
X614925D01*
Y693657D01*
X614552D01*
Y694030D01*
X614925D01*
Y694403D01*
X615672D01*
Y693284D01*
D02*
G37*
G36*
X652612Y693657D02*
Y693284D01*
Y692911D01*
X651866D01*
Y693657D01*
X652239D01*
Y694030D01*
X652612D01*
Y693657D01*
D02*
G37*
G36*
X613433Y692911D02*
X612687D01*
Y694403D01*
X612313D01*
Y694776D01*
X613433D01*
Y692911D01*
D02*
G37*
G36*
X609701Y693284D02*
X610075D01*
Y692911D01*
X609328D01*
Y693657D01*
X609701D01*
Y693284D01*
D02*
G37*
G36*
X605970Y695895D02*
X606343D01*
Y694776D01*
X606716D01*
Y694403D01*
X607836D01*
Y694030D01*
X608582D01*
Y693657D01*
X608955D01*
Y692911D01*
X607836D01*
Y693284D01*
X607463D01*
Y693657D01*
X605970D01*
Y694030D01*
X605224D01*
Y694403D01*
X604851D01*
Y694776D01*
X604478D01*
Y695149D01*
X605970D01*
Y695522D01*
X605597D01*
Y696269D01*
X605970D01*
Y695895D01*
D02*
G37*
G36*
X667537Y693657D02*
X667910D01*
Y692911D01*
X667537D01*
Y692537D01*
X666791D01*
Y692911D01*
X666418D01*
Y693284D01*
X666791D01*
Y693657D01*
X667164D01*
Y694030D01*
X667537D01*
Y693657D01*
D02*
G37*
G36*
X657089Y692911D02*
X656716D01*
Y692537D01*
X656343D01*
Y693284D01*
X657089D01*
Y692911D01*
D02*
G37*
G36*
X627239Y692537D02*
X626493D01*
Y692911D01*
X627239D01*
Y692537D01*
D02*
G37*
G36*
X620896Y692911D02*
X620522D01*
Y692537D01*
X620149D01*
Y692911D01*
X619776D01*
Y693657D01*
X620896D01*
Y692911D01*
D02*
G37*
G36*
X632463Y692537D02*
X632836D01*
Y692164D01*
X631716D01*
Y692537D01*
X632090D01*
Y692911D01*
X632463D01*
Y692537D01*
D02*
G37*
G36*
X646642Y692164D02*
X646269D01*
Y691791D01*
X645895D01*
Y692164D01*
Y692537D01*
X646642D01*
Y692164D01*
D02*
G37*
G36*
X640672Y692537D02*
X641045D01*
Y692164D01*
X641418D01*
Y691791D01*
X640298D01*
Y692164D01*
X640672D01*
Y692537D01*
X639925D01*
Y692911D01*
X640672D01*
Y692537D01*
D02*
G37*
G36*
X621269Y691791D02*
X620522D01*
Y692164D01*
X621269D01*
Y691791D01*
D02*
G37*
G36*
X616791D02*
X616418D01*
Y692164D01*
X616045D01*
Y692537D01*
X616791D01*
Y691791D01*
D02*
G37*
G36*
X666418Y692164D02*
X669030D01*
Y691791D01*
X668657D01*
Y691418D01*
X665298D01*
Y691791D01*
X665672D01*
Y692164D01*
X666045D01*
Y692537D01*
X666418D01*
Y692164D01*
D02*
G37*
G36*
X651119Y691418D02*
X650000D01*
Y691791D01*
X650373D01*
Y692164D01*
X651119D01*
Y691418D01*
D02*
G37*
G36*
X645149Y691791D02*
Y691418D01*
X644403D01*
Y692164D01*
X645149D01*
Y691791D01*
D02*
G37*
G36*
X639925Y691418D02*
X639179D01*
Y692164D01*
X639925D01*
Y691418D01*
D02*
G37*
G36*
X656343D02*
X655597D01*
Y691045D01*
X655224D01*
Y691791D01*
X656343D01*
Y691418D01*
D02*
G37*
G36*
X617910D02*
X618284D01*
Y691045D01*
X617164D01*
Y691791D01*
X617910D01*
Y691418D01*
D02*
G37*
G36*
X614179Y691791D02*
Y691418D01*
X613433D01*
Y691045D01*
X613060D01*
Y691418D01*
X612687D01*
Y692164D01*
X614179D01*
Y691791D01*
D02*
G37*
G36*
X611567Y692164D02*
Y691791D01*
X611940D01*
Y691418D01*
X612313D01*
Y691045D01*
X611194D01*
Y691418D01*
X610821D01*
Y692537D01*
X611567D01*
Y692164D01*
D02*
G37*
G36*
X609701D02*
X610075D01*
Y691791D01*
X610448D01*
Y691418D01*
X610075D01*
Y691045D01*
X609701D01*
Y691418D01*
X608955D01*
Y691791D01*
X608582D01*
Y692164D01*
X608955D01*
Y692537D01*
X609701D01*
Y692164D01*
D02*
G37*
G36*
X623881Y691045D02*
X624254D01*
Y690672D01*
X623134D01*
Y691045D01*
X623507D01*
Y691418D01*
X623881D01*
Y691045D01*
D02*
G37*
G36*
X651119Y690298D02*
X650746D01*
Y690672D01*
X650373D01*
Y691045D01*
X651119D01*
Y690298D01*
D02*
G37*
G36*
X621269Y690672D02*
X621642D01*
Y690298D01*
X620522D01*
Y690672D01*
X620149D01*
Y691045D01*
X621269D01*
Y690672D01*
D02*
G37*
G36*
X616791D02*
X616418D01*
Y690298D01*
X616045D01*
Y690672D01*
X615672D01*
Y691045D01*
X616791D01*
Y690672D01*
D02*
G37*
G36*
X611194D02*
X611567D01*
Y690298D01*
X610821D01*
Y690672D01*
Y691045D01*
X611194D01*
Y690672D01*
D02*
G37*
G36*
X663060Y692911D02*
X665298D01*
Y692164D01*
X664925D01*
Y691791D01*
X663806D01*
Y691045D01*
X664552D01*
Y690298D01*
X664925D01*
Y690672D01*
X666045D01*
Y690298D01*
Y689925D01*
X665672D01*
Y689552D01*
X664552D01*
Y690298D01*
X664179D01*
Y689552D01*
X664552D01*
Y689179D01*
X664179D01*
Y688806D01*
X663433D01*
Y689179D01*
X661194D01*
Y688433D01*
X660821D01*
Y687313D01*
X660075D01*
Y686940D01*
X657463D01*
Y686567D01*
X656716D01*
Y687687D01*
X655970D01*
Y687313D01*
X655224D01*
Y687687D01*
X654851D01*
Y688060D01*
X654478D01*
Y688806D01*
X655597D01*
Y688433D01*
X655970D01*
Y688060D01*
X657463D01*
Y687687D01*
X659702D01*
Y688060D01*
X660075D01*
Y688806D01*
X659702D01*
Y688433D01*
X658955D01*
Y689179D01*
X659328D01*
Y689552D01*
X658209D01*
Y689925D01*
X659328D01*
Y689552D01*
X659702D01*
Y689925D01*
X660075D01*
Y690298D01*
X659328D01*
Y690672D01*
X659702D01*
Y691045D01*
X658955D01*
Y691791D01*
X658582D01*
Y692164D01*
X658955D01*
Y692537D01*
X659702D01*
Y691045D01*
X660448D01*
Y690672D01*
X660075D01*
Y690298D01*
X660821D01*
Y691045D01*
X661194D01*
Y691418D01*
X661940D01*
Y690672D01*
X661567D01*
Y690298D01*
X662313D01*
Y689925D01*
X663806D01*
Y690298D01*
X663433D01*
Y690672D01*
X663060D01*
Y691791D01*
X662687D01*
Y692537D01*
X662313D01*
Y693657D01*
X663060D01*
Y692911D01*
D02*
G37*
G36*
X641791Y689925D02*
X641045D01*
Y690298D01*
X641791D01*
Y689925D01*
D02*
G37*
G36*
X629104D02*
X628731D01*
Y690298D01*
X628358D01*
Y690672D01*
X629104D01*
Y689925D01*
D02*
G37*
G36*
X626493Y690672D02*
X626866D01*
Y689925D01*
X625373D01*
Y690298D01*
Y690672D01*
X626119D01*
Y691045D01*
X626493D01*
Y690672D01*
D02*
G37*
G36*
X619403Y689925D02*
X619030D01*
Y690298D01*
X618657D01*
Y690672D01*
X619403D01*
Y689925D01*
D02*
G37*
G36*
X657463Y689552D02*
X656343D01*
Y690672D01*
X657463D01*
Y689552D01*
D02*
G37*
G36*
X653731D02*
X652985D01*
Y689925D01*
X652612D01*
Y690672D01*
X652985D01*
Y691045D01*
X653731D01*
Y689552D01*
D02*
G37*
G36*
X647015D02*
X646269D01*
Y690298D01*
X647015D01*
Y689552D01*
D02*
G37*
G36*
X638433D02*
X637687D01*
Y689925D01*
Y690298D01*
X638433D01*
Y689552D01*
D02*
G37*
G36*
X635075D02*
X634701D01*
Y689925D01*
X634328D01*
Y690298D01*
X635075D01*
Y689552D01*
D02*
G37*
G36*
X644776Y689179D02*
X644030D01*
Y689552D01*
X644403D01*
Y689925D01*
X644776D01*
Y689179D01*
D02*
G37*
G36*
X633582Y689552D02*
X633209D01*
Y689179D01*
X631343D01*
Y689552D01*
X632090D01*
Y689925D01*
X633582D01*
Y689552D01*
D02*
G37*
G36*
X630224Y689179D02*
X629478D01*
Y689552D01*
X630224D01*
Y689179D01*
D02*
G37*
G36*
X616045Y689925D02*
X616418D01*
Y689179D01*
X615672D01*
Y689552D01*
X614552D01*
Y690298D01*
X616045D01*
Y689925D01*
D02*
G37*
G36*
X650373Y688806D02*
X650746D01*
Y688433D01*
X648134D01*
Y689179D01*
X649254D01*
Y688806D01*
X649627D01*
Y689179D01*
X650373D01*
Y688806D01*
D02*
G37*
G36*
X613806Y689552D02*
X614179D01*
Y689179D01*
Y688806D01*
X613433D01*
Y689179D01*
X613060D01*
Y689925D01*
X613806D01*
Y689552D01*
D02*
G37*
G36*
X630970Y688433D02*
X630224D01*
Y688806D01*
X630970D01*
Y688433D01*
D02*
G37*
G36*
X627239D02*
X626493D01*
Y688806D01*
X627239D01*
Y688433D01*
D02*
G37*
G36*
X624627D02*
X622761D01*
Y688806D01*
X622388D01*
Y689179D01*
X624627D01*
Y688433D01*
D02*
G37*
G36*
X620149Y688806D02*
Y688433D01*
X617910D01*
Y688806D01*
X617537D01*
Y689179D01*
X620149D01*
Y688806D01*
D02*
G37*
G36*
X645895Y688060D02*
X645149D01*
Y688433D01*
X644776D01*
Y688806D01*
X645895D01*
Y688060D01*
D02*
G37*
G36*
X621269Y688806D02*
X621642D01*
Y688433D01*
Y688060D01*
X621269D01*
Y688433D01*
X620522D01*
Y688806D01*
X620896D01*
Y689179D01*
X621269D01*
Y688806D01*
D02*
G37*
G36*
X616791Y688433D02*
X617164D01*
Y688060D01*
X616045D01*
Y688806D01*
X616791D01*
Y688433D01*
D02*
G37*
G36*
X615299Y688060D02*
X614925D01*
Y688433D01*
X615299D01*
Y688060D01*
D02*
G37*
G36*
X651866Y687687D02*
X651119D01*
Y688433D01*
X651866D01*
Y687687D01*
D02*
G37*
G36*
X643657D02*
X642910D01*
Y688060D01*
Y688433D01*
X643657D01*
Y687687D01*
D02*
G37*
G36*
X636940Y688433D02*
X637313D01*
Y687687D01*
X636567D01*
Y688060D01*
X636194D01*
Y688433D01*
X636567D01*
Y688806D01*
X636940D01*
Y688433D01*
D02*
G37*
G36*
X617910Y687313D02*
X616791D01*
Y687687D01*
X617910D01*
Y687313D01*
D02*
G37*
G36*
X647015Y686940D02*
X646269D01*
Y687313D01*
X647015D01*
Y686940D01*
D02*
G37*
G36*
X635075D02*
X634328D01*
Y687687D01*
X635075D01*
Y686940D01*
D02*
G37*
G36*
X628731Y688060D02*
X629104D01*
Y686940D01*
X628731D01*
Y687313D01*
X628358D01*
Y686940D01*
X627239D01*
Y687313D01*
X627985D01*
Y687687D01*
X627612D01*
Y688060D01*
X627985D01*
Y688433D01*
X628731D01*
Y688060D01*
D02*
G37*
G36*
X653358Y687687D02*
X653731D01*
Y687313D01*
X654105D01*
Y686940D01*
X652239D01*
Y686567D01*
X651866D01*
Y687313D01*
X652239D01*
Y687687D01*
X652612D01*
Y688060D01*
X653358D01*
Y687687D01*
D02*
G37*
G36*
X641791Y686567D02*
X641045D01*
Y687313D01*
X641791D01*
Y686567D01*
D02*
G37*
G36*
X639925Y686940D02*
X639552D01*
Y686567D01*
X638806D01*
Y686940D01*
X638433D01*
Y687313D01*
X639925D01*
Y686940D01*
D02*
G37*
G36*
X631343Y686567D02*
X632090D01*
Y686194D01*
X630597D01*
Y686940D01*
X631343D01*
Y686567D01*
D02*
G37*
G36*
X622015Y687313D02*
X625373D01*
Y686940D01*
X625746D01*
Y686567D01*
X623881D01*
Y686194D01*
X622761D01*
Y686567D01*
X621269D01*
Y686940D01*
X620896D01*
Y687313D01*
X620522D01*
Y687687D01*
X622015D01*
Y687313D01*
D02*
G37*
G36*
X649254Y686940D02*
X649627D01*
Y686567D01*
X649254D01*
Y686194D01*
Y685821D01*
X648508D01*
Y686194D01*
X648134D01*
Y686940D01*
X648881D01*
Y687313D01*
X649254D01*
Y686940D01*
D02*
G37*
G36*
X619403Y687313D02*
X620149D01*
Y686940D01*
X620522D01*
Y686567D01*
X620896D01*
Y685821D01*
X620522D01*
Y686194D01*
X619776D01*
Y686567D01*
X619403D01*
Y686940D01*
X619030D01*
Y687313D01*
X618284D01*
Y687687D01*
X619403D01*
Y687313D01*
D02*
G37*
G36*
X652239Y685821D02*
X651866D01*
Y685448D01*
X651119D01*
Y685821D01*
Y686194D01*
X652239D01*
Y685821D01*
D02*
G37*
G36*
X627985Y686194D02*
X628358D01*
Y685821D01*
X629478D01*
Y683955D01*
Y683582D01*
X628731D01*
Y683955D01*
X628358D01*
Y684328D01*
X628731D01*
Y685448D01*
X628358D01*
Y685821D01*
X626866D01*
Y685075D01*
X627239D01*
Y684328D01*
X627985D01*
Y683955D01*
X626493D01*
Y684702D01*
X625746D01*
Y685075D01*
X625000D01*
Y684702D01*
X623881D01*
Y685075D01*
X622761D01*
Y685448D01*
X622388D01*
Y686194D01*
X622761D01*
Y685821D01*
X623134D01*
Y685448D01*
X623881D01*
Y685821D01*
X624627D01*
Y685448D01*
X625373D01*
Y685821D01*
X625746D01*
Y685448D01*
X626493D01*
Y685821D01*
X626119D01*
Y686567D01*
X627985D01*
Y686194D01*
D02*
G37*
G36*
X655224Y686567D02*
X655597D01*
Y686194D01*
X655970D01*
Y685448D01*
X654478D01*
Y685075D01*
X653731D01*
Y684702D01*
X652239D01*
Y684328D01*
X650746D01*
Y683955D01*
X649627D01*
Y684328D01*
X649254D01*
Y684702D01*
X648881D01*
Y685075D01*
X649254D01*
Y685448D01*
X650000D01*
Y685075D01*
X650746D01*
Y684702D01*
X651119D01*
Y685075D01*
X652239D01*
Y685448D01*
X653358D01*
Y685821D01*
X654105D01*
Y686567D01*
X654478D01*
Y686940D01*
X655224D01*
Y686567D01*
D02*
G37*
G36*
X640672Y684328D02*
X640298D01*
Y683955D01*
X639925D01*
Y684328D01*
X639552D01*
Y684702D01*
X640672D01*
Y684328D01*
D02*
G37*
G36*
X646642Y685075D02*
X647761D01*
Y685448D01*
X648508D01*
Y685075D01*
X648134D01*
Y684702D01*
X648881D01*
Y683955D01*
X648508D01*
Y683582D01*
X647761D01*
Y683955D01*
X647015D01*
Y683582D01*
X646269D01*
Y683955D01*
X645895D01*
Y684702D01*
X646269D01*
Y685075D01*
X645522D01*
Y684702D01*
X645149D01*
Y683955D01*
X645522D01*
Y683209D01*
X644030D01*
Y683955D01*
X644403D01*
Y684328D01*
X644030D01*
Y684702D01*
X644403D01*
Y685075D01*
X645149D01*
Y686194D01*
X646642D01*
Y685075D01*
D02*
G37*
G36*
X633582Y683209D02*
X630970D01*
Y683582D01*
X632836D01*
Y683955D01*
X633582D01*
Y683209D01*
D02*
G37*
G36*
X643657Y685821D02*
Y685448D01*
X643284D01*
Y685075D01*
X642537D01*
Y684328D01*
X643284D01*
Y683955D01*
X642910D01*
Y683209D01*
X642537D01*
Y682836D01*
X641418D01*
Y683209D01*
X641791D01*
Y683582D01*
X641418D01*
Y684702D01*
X640672D01*
Y685448D01*
X642537D01*
Y685821D01*
X642910D01*
Y686194D01*
X643657D01*
Y685821D01*
D02*
G37*
G36*
X633209Y686940D02*
X633582D01*
Y686194D01*
X635448D01*
Y685821D01*
X635075D01*
Y685448D01*
X634328D01*
Y685821D01*
X633955D01*
Y685448D01*
X633582D01*
Y684702D01*
X635075D01*
Y683955D01*
X635448D01*
Y683582D01*
X637687D01*
Y683955D01*
X637313D01*
Y685448D01*
X636567D01*
Y685821D01*
X635821D01*
Y686194D01*
X636567D01*
Y685821D01*
X638433D01*
Y686194D01*
X639179D01*
Y685448D01*
X638060D01*
Y685075D01*
X637687D01*
Y684702D01*
X638433D01*
Y683582D01*
X639552D01*
Y683209D01*
X639925D01*
Y682836D01*
X638433D01*
Y683209D01*
X637313D01*
Y682836D01*
X635821D01*
Y683209D01*
X635075D01*
Y683582D01*
X633955D01*
Y683955D01*
X633582D01*
Y684328D01*
X632836D01*
Y684702D01*
X631343D01*
Y683955D01*
X630597D01*
Y683582D01*
X629851D01*
Y684702D01*
X630224D01*
Y685075D01*
X631343D01*
Y685448D01*
X632463D01*
Y685821D01*
X632836D01*
Y686567D01*
X632463D01*
Y686940D01*
X632836D01*
Y687313D01*
X633209D01*
Y686940D01*
D02*
G37*
%LPC*%
G36*
X656343Y788060D02*
X655597D01*
Y786940D01*
X656343D01*
Y786567D01*
Y786194D01*
X656716D01*
Y785821D01*
X657836D01*
Y786194D01*
X658955D01*
Y785821D01*
X660075D01*
Y786194D01*
X659328D01*
Y786567D01*
X658955D01*
Y786940D01*
X656716D01*
Y787313D01*
X656343D01*
Y788060D01*
D02*
G37*
G36*
X642910Y763433D02*
X634701D01*
Y763060D01*
X631716D01*
Y762687D01*
X630224D01*
Y762313D01*
X630970D01*
Y761940D01*
X633209D01*
Y761567D01*
X644776D01*
Y761940D01*
X647015D01*
Y762313D01*
X647761D01*
Y762687D01*
X645895D01*
Y763060D01*
X642910D01*
Y763433D01*
D02*
G37*
G36*
X649627Y760821D02*
X649254D01*
Y760448D01*
X648508D01*
Y760075D01*
X647015D01*
Y759702D01*
X644030D01*
Y759328D01*
X633955D01*
Y759702D01*
X630970D01*
Y760075D01*
X629478D01*
Y760448D01*
X628731D01*
Y760821D01*
X628358D01*
Y760448D01*
X627985D01*
Y760075D01*
X627612D01*
Y759702D01*
X627239D01*
Y758955D01*
X626866D01*
Y758582D01*
X626493D01*
Y757836D01*
X626119D01*
Y757089D01*
X625746D01*
Y756343D01*
X625373D01*
Y755224D01*
X625000D01*
Y753731D01*
X624627D01*
Y747761D01*
X625000D01*
Y746642D01*
X625373D01*
Y745522D01*
X625746D01*
Y745149D01*
X626119D01*
Y744403D01*
X626493D01*
Y743657D01*
X626866D01*
Y743284D01*
X627239D01*
Y742911D01*
X627612D01*
Y742537D01*
X627985D01*
Y742164D01*
X628358D01*
Y741791D01*
X629104D01*
Y741418D01*
X629478D01*
Y741045D01*
X630224D01*
Y740672D01*
X630597D01*
Y740298D01*
X631716D01*
Y739925D01*
X632463D01*
Y739552D01*
X633955D01*
Y739179D01*
X635448D01*
Y738806D01*
X642537D01*
Y739179D01*
X644030D01*
Y739552D01*
X645522D01*
Y739925D01*
X646269D01*
Y740298D01*
X647015D01*
Y740672D01*
X647761D01*
Y741045D01*
X648508D01*
Y741418D01*
X648881D01*
Y741791D01*
X649627D01*
Y742164D01*
X650000D01*
Y742537D01*
X650373D01*
Y742911D01*
X650746D01*
Y743284D01*
X651119D01*
Y744030D01*
X651492D01*
Y744403D01*
X651866D01*
Y745149D01*
X652239D01*
Y745895D01*
X652612D01*
Y747015D01*
X652985D01*
Y748134D01*
X653358D01*
Y753358D01*
X652985D01*
Y754851D01*
X652612D01*
Y755970D01*
X652239D01*
Y756716D01*
X651866D01*
Y757463D01*
X651492D01*
Y758209D01*
X651119D01*
Y758955D01*
X650746D01*
Y759328D01*
X650373D01*
Y760075D01*
X650000D01*
Y760448D01*
X649627D01*
Y760821D01*
D02*
G37*
%LPD*%
G36*
X639925Y756343D02*
X640672D01*
Y755970D01*
X641045D01*
Y755597D01*
X641418D01*
Y755224D01*
X641791D01*
Y754851D01*
X642164D01*
Y754105D01*
X642537D01*
Y753731D01*
X643284D01*
Y753358D01*
X644403D01*
Y752985D01*
X645522D01*
Y752612D01*
X646642D01*
Y752239D01*
X647015D01*
Y751866D01*
X647388D01*
Y749627D01*
X647015D01*
Y749254D01*
X646269D01*
Y748881D01*
X645522D01*
Y748508D01*
X644403D01*
Y748134D01*
X642910D01*
Y747761D01*
X642537D01*
Y747388D01*
X642164D01*
Y746642D01*
X641791D01*
Y745895D01*
X641418D01*
Y745149D01*
X641045D01*
Y744776D01*
X640672D01*
Y744030D01*
X639552D01*
Y744403D01*
X639179D01*
Y747388D01*
X639552D01*
Y747761D01*
X639925D01*
Y748134D01*
X639552D01*
Y748508D01*
X637687D01*
Y748134D01*
X637313D01*
Y747761D01*
X636940D01*
Y747388D01*
X636567D01*
Y747015D01*
X636194D01*
Y746269D01*
X635821D01*
Y745895D01*
X635448D01*
Y745149D01*
X635075D01*
Y744776D01*
X634701D01*
Y744403D01*
X633955D01*
Y744030D01*
X632090D01*
Y744403D01*
X632463D01*
Y744776D01*
X632836D01*
Y745522D01*
X633209D01*
Y746269D01*
X633582D01*
Y748134D01*
X633209D01*
Y748508D01*
X632836D01*
Y748881D01*
X632463D01*
Y749254D01*
X632090D01*
Y749627D01*
X631716D01*
Y750000D01*
X631343D01*
Y750373D01*
X630970D01*
Y750746D01*
X630597D01*
Y751119D01*
X630224D01*
Y752239D01*
X629851D01*
Y752612D01*
X630224D01*
Y752985D01*
X630597D01*
Y753358D01*
X632090D01*
Y752985D01*
X633582D01*
Y752612D01*
X634328D01*
Y752239D01*
X635075D01*
Y751866D01*
X635821D01*
Y751492D01*
X636567D01*
Y751866D01*
X636940D01*
Y752239D01*
X637687D01*
Y752612D01*
X638060D01*
Y752985D01*
X638806D01*
Y753358D01*
X639179D01*
Y754105D01*
X638806D01*
Y756716D01*
X639925D01*
Y756343D01*
D02*
G37*
%LPC*%
G36*
X692164Y727612D02*
X691791D01*
Y727239D01*
X692164D01*
Y727612D01*
D02*
G37*
G36*
X651492Y727239D02*
X651119D01*
Y726492D01*
X650746D01*
Y725746D01*
X650373D01*
Y724627D01*
X652239D01*
Y725746D01*
X651866D01*
Y726492D01*
X651492D01*
Y726866D01*
Y727239D01*
D02*
G37*
G36*
X632836Y727985D02*
X631343D01*
Y727612D01*
X630597D01*
Y727239D01*
X630224D01*
Y726492D01*
X629851D01*
Y724254D01*
X630224D01*
Y723508D01*
X630597D01*
Y723134D01*
X630970D01*
Y722761D01*
X632836D01*
Y723134D01*
X633582D01*
Y723881D01*
X633955D01*
Y726866D01*
X633582D01*
Y727612D01*
X632836D01*
Y727985D01*
D02*
G37*
G36*
X607836Y727239D02*
X607463D01*
Y726492D01*
X607090D01*
Y725373D01*
X606716D01*
Y724627D01*
X608955D01*
Y725000D01*
X608582D01*
Y725746D01*
X608209D01*
Y726866D01*
X607836D01*
Y727239D01*
D02*
G37*
G36*
X587687Y723508D02*
X586940D01*
Y722761D01*
X587313D01*
Y723134D01*
X587687D01*
Y723508D01*
D02*
G37*
G36*
X682836Y714179D02*
X682463D01*
Y713806D01*
X682836D01*
Y714179D01*
D02*
G37*
G36*
X670895Y716045D02*
X669030D01*
Y713806D01*
X670149D01*
Y714179D01*
X671269D01*
Y715672D01*
X670895D01*
Y716045D01*
D02*
G37*
G36*
X655597D02*
X653731D01*
Y711940D01*
Y711567D01*
Y711194D01*
X655970D01*
Y711567D01*
X656343D01*
Y711940D01*
X656716D01*
Y712687D01*
X657089D01*
Y714552D01*
X656716D01*
Y715298D01*
X656343D01*
Y715672D01*
X655597D01*
Y716045D01*
D02*
G37*
G36*
X596269Y706343D02*
X595896D01*
Y705597D01*
X596269D01*
Y705970D01*
Y706343D01*
D02*
G37*
G36*
X660821Y689552D02*
X660075D01*
Y688806D01*
X660448D01*
Y689179D01*
X660821D01*
Y689552D01*
D02*
G37*
G36*
X648134Y684328D02*
X647761D01*
Y683955D01*
X648134D01*
Y684328D01*
D02*
G37*
%LPD*%
D10*
X407500Y635000D02*
G03*
X432500Y660000I0J25000D01*
G01*
D02*
G03*
X407500Y685000I-25000J0D01*
G01*
X342500D02*
G03*
X317500Y660000I0J-25000D01*
G01*
D02*
G03*
X342500Y635000I25000J0D01*
G01*
X368650Y577000D02*
G03*
X381350Y577000I6350J0D01*
G01*
X660000Y485000D02*
X674750D01*
X695250D02*
X710000D01*
Y605000D01*
X660000D02*
X674750D01*
X695250D02*
X710000D01*
X660000Y485000D02*
Y605000D01*
X342500Y635000D02*
X407500D01*
X342500Y685000D02*
X407500D01*
X124500Y578000D02*
X134500D01*
X134502Y502003D02*
Y578003D01*
X75500Y502000D02*
X134500D01*
X75500Y578000D02*
X85500D01*
X75500Y502000D02*
Y578000D01*
X620500Y307000D02*
Y352000D01*
Y307000D02*
X699500D01*
Y307000D02*
Y352000D01*
X620500D02*
X699500D01*
X480500Y307000D02*
Y352000D01*
Y307000D02*
X559500D01*
Y307000D02*
Y352000D01*
X480500D02*
X559500D01*
X472000Y151000D02*
Y219000D01*
X498000D01*
Y151000D02*
Y219000D01*
X472000Y151000D02*
X498000D01*
X485000Y145250D02*
Y151000D01*
Y219000D02*
Y224750D01*
X542000Y151000D02*
Y219000D01*
X568000D01*
Y151000D02*
Y219000D01*
X542000Y151000D02*
X568000D01*
X555000Y145250D02*
Y151000D01*
Y219000D02*
Y224750D01*
X612000Y151000D02*
Y219000D01*
X638000D01*
Y151000D02*
Y219000D01*
X612000Y151000D02*
X638000D01*
X625000Y145250D02*
Y151000D01*
Y219000D02*
Y224750D01*
X682000Y151000D02*
Y219000D01*
X708000D01*
Y151000D02*
Y219000D01*
X682000Y151000D02*
X708000D01*
X695000Y145250D02*
Y151000D01*
Y219000D02*
Y224750D01*
X620500Y402500D02*
Y447500D01*
Y402500D02*
X699500D01*
Y402500D02*
Y447500D01*
X620500D02*
X699500D01*
X480500Y402000D02*
Y447000D01*
Y402000D02*
X559500D01*
Y402000D02*
Y447000D01*
X480500D02*
X559500D01*
X553285Y92712D02*
X626715D01*
Y67288D02*
Y92712D01*
X553285Y67288D02*
X626715D01*
X553285D02*
Y92712D01*
X237000Y151000D02*
Y219000D01*
X263000D01*
Y151000D02*
Y219000D01*
X237000Y151000D02*
X263000D01*
X250000Y145250D02*
Y151000D01*
Y219000D02*
Y224750D01*
X177000Y151000D02*
Y219000D01*
X203000D01*
Y151000D02*
Y219000D01*
X177000Y151000D02*
X203000D01*
X190000Y145250D02*
Y151000D01*
Y219000D02*
Y224750D01*
X117000Y151000D02*
Y219000D01*
X143000D01*
Y151000D02*
Y219000D01*
X117000Y151000D02*
X143000D01*
X130000Y145250D02*
Y151000D01*
Y219000D02*
Y224750D01*
X57000Y151000D02*
Y219000D01*
X83000D01*
Y151000D02*
Y219000D01*
X57000Y151000D02*
X83000D01*
X70000Y145250D02*
Y151000D01*
Y219000D02*
Y224750D01*
X60500Y307000D02*
Y352000D01*
Y307000D02*
X139500D01*
Y307000D02*
Y352000D01*
X60500D02*
X139500D01*
X180500Y307000D02*
Y352000D01*
Y307000D02*
X259500D01*
Y307000D02*
Y352000D01*
X180500D02*
X259500D01*
X348500Y223000D02*
Y577000D01*
X401500Y223000D02*
Y577000D01*
X348500D02*
X368650D01*
X381350D02*
X401500D01*
X348500Y223000D02*
X401500D01*
X640800Y518200D02*
Y575400D01*
X539200D02*
X640800D01*
X539200Y518200D02*
Y575400D01*
Y518200D02*
X640800D01*
X505000Y635000D02*
Y755000D01*
X540250D02*
X555000D01*
X505000D02*
X519750D01*
X555000Y635000D02*
Y755000D01*
X540250Y635000D02*
X555000D01*
X505000D02*
X519750D01*
X341000Y763000D02*
X409000D01*
Y737000D02*
Y763000D01*
X341000Y737000D02*
X409000D01*
X341000D02*
Y763000D01*
X335250Y750000D02*
X341000D01*
X409000D02*
X414750D01*
X195000Y635000D02*
Y755000D01*
X230250D02*
X245000D01*
X195000D02*
X209750D01*
X245000Y635000D02*
Y755000D01*
X230250Y635000D02*
X245000D01*
X195000D02*
X209750D01*
X124500Y758000D02*
X134500D01*
X134502Y682003D02*
Y758003D01*
X75500Y682000D02*
X134500D01*
X75500Y758000D02*
X85500D01*
X75500Y682000D02*
Y758000D01*
X229500Y578000D02*
X239500D01*
X239502Y502003D02*
Y578003D01*
X180499Y502000D02*
X239500D01*
X180499Y578000D02*
X190500D01*
X180499Y502000D02*
Y578000D01*
X196000Y422000D02*
X264000D01*
X196000D02*
Y448000D01*
X264000D01*
Y422000D02*
Y448000D01*
Y435000D02*
X269750D01*
X190250D02*
X196000D01*
X56000Y422000D02*
X124000D01*
X56000D02*
Y448000D01*
X124000D01*
Y422000D02*
Y448000D01*
Y435000D02*
X129750D01*
X50250D02*
X56000D01*
X682000Y582000D02*
X688664D01*
X693000Y517000D02*
Y520999D01*
Y518999D01*
X681004D01*
X683003Y517000D01*
Y526997D02*
X681004Y528996D01*
Y532995D01*
X683003Y534994D01*
X691001D01*
X693000Y532995D01*
Y528996D01*
X691001Y526997D01*
X683003D01*
Y538993D02*
X681004Y540992D01*
Y544991D01*
X683003Y546990D01*
X691001D01*
X693000Y544991D01*
Y540992D01*
X691001Y538993D01*
X683003D01*
X693000Y550989D02*
X685003D01*
Y556987D01*
X687002Y558986D01*
X693000D01*
X681004Y570983D02*
Y562985D01*
X687002D01*
Y566984D01*
Y562985D01*
X693000D01*
X672000Y312000D02*
X675332D01*
X673666D01*
Y321997D01*
X672000Y320331D01*
X680331D02*
X681997Y321997D01*
X685329D01*
X686995Y320331D01*
Y318664D01*
X685329Y316998D01*
X683663D01*
X685329D01*
X686995Y315332D01*
Y313666D01*
X685329Y312000D01*
X681997D01*
X680331Y313666D01*
X632000Y312000D02*
X635332D01*
X633666D01*
Y321997D01*
X632000Y320331D01*
X646995Y312000D02*
X640331D01*
X646995Y318664D01*
Y320331D01*
X645329Y321997D01*
X641997D01*
X640331Y320331D01*
X532000Y312000D02*
X535332D01*
X533666D01*
Y321997D01*
X532000Y320331D01*
X540331Y312000D02*
X543663D01*
X541997D01*
Y321997D01*
X540331Y320331D01*
X492000Y312000D02*
X495332D01*
X493666D01*
Y321997D01*
X492000Y320331D01*
X500331D02*
X501997Y321997D01*
X505329D01*
X506995Y320331D01*
Y313666D01*
X505329Y312000D01*
X501997D01*
X500331Y313666D01*
Y320331D01*
X675664Y359166D02*
Y367830D01*
X673498Y369996D01*
X669166D01*
X667000Y367830D01*
Y359166D01*
X669166Y357000D01*
X673498D01*
X671332Y361332D02*
X675664Y357000D01*
X673498D02*
X675664Y359166D01*
X679996Y369996D02*
X688660D01*
X684328D01*
Y357000D01*
X692992Y369996D02*
Y367830D01*
X697324Y363498D01*
X701656Y367830D01*
Y369996D01*
X697324Y363498D02*
Y357000D01*
X527000Y369996D02*
X535664D01*
X531332D01*
Y357000D01*
X539996D02*
Y369996D01*
X544328Y365664D01*
X548660Y369996D01*
Y357000D01*
X552992D02*
Y369996D01*
X559490D01*
X561656Y367830D01*
Y363498D01*
X559490Y361332D01*
X552992D01*
X557323D02*
X561656Y357000D01*
X657000Y469996D02*
X665664D01*
X661332D01*
Y457000D01*
X678660Y467830D02*
X676494Y469996D01*
X672162D01*
X669996Y467830D01*
Y459166D01*
X672162Y457000D01*
X676494D01*
X678660Y459166D01*
X682992Y469996D02*
Y457000D01*
Y463498D01*
X691656D01*
Y469996D01*
Y457000D01*
X704651D02*
X695987D01*
X704651Y465664D01*
Y467830D01*
X702485Y469996D01*
X698153D01*
X695987Y467830D01*
X522000Y469996D02*
X530664D01*
X526332D01*
Y457000D01*
X543660Y467830D02*
X541494Y469996D01*
X537162D01*
X534996Y467830D01*
Y459166D01*
X537162Y457000D01*
X541494D01*
X543660Y459166D01*
X547992Y469996D02*
Y457000D01*
Y463498D01*
X556656D01*
Y469996D01*
Y457000D01*
X560987D02*
X565319D01*
X563153D01*
Y469996D01*
X560987Y467830D01*
X677000Y416997D02*
Y410332D01*
X680332Y407000D01*
X683664Y410332D01*
Y416997D01*
X663664Y415331D02*
X661998Y416997D01*
X658666D01*
X657000Y415331D01*
Y408666D01*
X658666Y407000D01*
X661998D01*
X663664Y408666D01*
Y411998D01*
X660332D01*
X643664Y415331D02*
X641998Y416997D01*
X638666D01*
X637000Y415331D01*
Y413665D01*
X638666Y411998D01*
X641998D01*
X643664Y410332D01*
Y408666D01*
X641998Y407000D01*
X638666D01*
X637000Y408666D01*
X537000Y416997D02*
Y410332D01*
X540332Y407000D01*
X543665Y410332D01*
Y416997D01*
X523665Y415331D02*
X521998Y416997D01*
X518666D01*
X517000Y415331D01*
Y408666D01*
X518666Y407000D01*
X521998D01*
X523665Y408666D01*
Y411998D01*
X520332D01*
X503665Y415331D02*
X501998Y416997D01*
X498666D01*
X497000Y415331D01*
Y413665D01*
X498666Y411998D01*
X501998D01*
X503665Y410332D01*
Y408666D01*
X501998Y407000D01*
X498666D01*
X497000Y408666D01*
X658664Y320331D02*
X656998Y321997D01*
X653666D01*
X652000Y320331D01*
Y313666D01*
X653666Y312000D01*
X656998D01*
X658664Y313666D01*
Y316998D01*
X655332D01*
X661997Y312000D02*
Y321997D01*
X668661Y312000D01*
Y321997D01*
X518665Y320331D02*
X516998Y321997D01*
X513666D01*
X512000Y320331D01*
Y313666D01*
X513666Y312000D01*
X516998D01*
X518665Y313666D01*
Y316998D01*
X515332D01*
X521997Y312000D02*
Y321997D01*
X528661Y312000D01*
Y321997D01*
X568665Y60331D02*
X566998Y61997D01*
X563666D01*
X562000Y60331D01*
Y58664D01*
X563666Y56998D01*
X566998D01*
X568665Y55332D01*
Y53666D01*
X566998Y52000D01*
X563666D01*
X562000Y53666D01*
X618665Y60331D02*
X616998Y61997D01*
X613666D01*
X612000Y60331D01*
Y53666D01*
X613666Y52000D01*
X616998D01*
X618665Y53666D01*
Y56998D01*
X615332D01*
X587000Y61997D02*
Y55332D01*
X590332Y52000D01*
X593665Y55332D01*
Y61997D01*
X566997Y109496D02*
X564498Y111995D01*
X559499D01*
X557000Y109496D01*
Y106997D01*
X559499Y104498D01*
X564498D01*
X566997Y101998D01*
Y99499D01*
X564498Y97000D01*
X559499D01*
X557000Y99499D01*
X581992Y111995D02*
X571995D01*
Y97000D01*
X581992D01*
X571995Y104498D02*
X576993D01*
X586990Y97000D02*
Y111995D01*
X594488D01*
X596987Y109496D01*
Y104498D01*
X594488Y101998D01*
X586990D01*
X591989D02*
X596987Y97000D01*
X601985Y111995D02*
Y101998D01*
X606984Y97000D01*
X611982Y101998D01*
Y111995D01*
X624478D02*
X619480D01*
X616981Y109496D01*
Y99499D01*
X619480Y97000D01*
X624478D01*
X626977Y99499D01*
Y109496D01*
X624478Y111995D01*
X382000Y582000D02*
Y596995D01*
X386998Y591997D01*
X391997Y596995D01*
Y582000D01*
X406992Y594496D02*
X404493Y596995D01*
X399494D01*
X396995Y594496D01*
Y584499D01*
X399494Y582000D01*
X404493D01*
X406992Y584499D01*
X411990Y596995D02*
Y584499D01*
X414490Y582000D01*
X419488D01*
X421987Y584499D01*
Y596995D01*
X433665Y562000D02*
X427000D01*
X433665Y568665D01*
Y570331D01*
X431998Y571997D01*
X428666D01*
X427000Y570331D01*
X436997D02*
X438663Y571997D01*
X441995D01*
X443661Y570331D01*
Y568665D01*
X441995Y566998D01*
X443661Y565332D01*
Y563666D01*
X441995Y562000D01*
X438663D01*
X436997Y563666D01*
Y565332D01*
X438663Y566998D01*
X436997Y568665D01*
Y570331D01*
X438663Y566998D02*
X441995D01*
X317000Y562000D02*
X320332D01*
X318666D01*
Y571997D01*
X317000Y570331D01*
X602000Y596995D02*
Y584499D01*
X604499Y582000D01*
X609498D01*
X611997Y584499D01*
Y596995D01*
X626992Y594496D02*
X624493Y596995D01*
X619494D01*
X616995Y594496D01*
Y591997D01*
X619494Y589498D01*
X624493D01*
X626992Y586998D01*
Y584499D01*
X624493Y582000D01*
X619494D01*
X616995Y584499D01*
X641987Y594496D02*
X639488Y596995D01*
X634490D01*
X631990Y594496D01*
Y591997D01*
X634490Y589498D01*
X639488D01*
X641987Y586998D01*
Y584499D01*
X639488Y582000D01*
X634490D01*
X631990Y584499D01*
X547000Y531997D02*
Y525332D01*
X550332Y522000D01*
X553665Y525332D01*
Y531997D01*
X628665Y530331D02*
X626998Y531997D01*
X623666D01*
X622000Y530331D01*
Y523666D01*
X623666Y522000D01*
X626998D01*
X628665Y523666D01*
Y526998D01*
X625332D01*
X603665Y531997D02*
X597000D01*
Y522000D01*
X603665D01*
X597000Y526998D02*
X600332D01*
X572000Y531997D02*
X578665D01*
X575332D01*
Y522000D01*
X243664Y320331D02*
X241998Y321997D01*
X238666D01*
X237000Y320331D01*
Y313666D01*
X238666Y312000D01*
X241998D01*
X243664Y313666D01*
Y316998D01*
X240332D01*
X217000Y315332D02*
X223664D01*
X220332Y318664D02*
Y312000D01*
X197000D02*
Y321997D01*
X201998D01*
X203664Y320331D01*
Y316998D01*
X201998Y315332D01*
X197000D01*
X200332D02*
X203664Y312000D01*
X123665Y320331D02*
X121998Y321997D01*
X118666D01*
X117000Y320331D01*
Y313666D01*
X118666Y312000D01*
X121998D01*
X123665Y313666D01*
Y316998D01*
X120332D01*
X97000Y315332D02*
X103665D01*
X100332Y318664D02*
Y312000D01*
X77000D02*
Y321997D01*
X81998D01*
X83665Y320331D01*
Y316998D01*
X81998Y315332D01*
X77000D01*
X80332D02*
X83665Y312000D01*
X207000Y292000D02*
Y301997D01*
X211998D01*
X213664Y300331D01*
Y296998D01*
X211998Y295332D01*
X207000D01*
X210332D02*
X213664Y292000D01*
X223661Y300331D02*
X221995Y301997D01*
X218663D01*
X216997Y300331D01*
Y293666D01*
X218663Y292000D01*
X221995D01*
X223661Y293666D01*
Y296998D01*
X220329D01*
X226994Y301997D02*
Y292000D01*
X231992D01*
X233658Y293666D01*
Y295332D01*
X231992Y296998D01*
X226994D01*
X231992D01*
X233658Y298664D01*
Y300331D01*
X231992Y301997D01*
X226994D01*
X87000Y292000D02*
Y301997D01*
X91998D01*
X93665Y300331D01*
Y296998D01*
X91998Y295332D01*
X87000D01*
X90332D02*
X93665Y292000D01*
X103661Y300331D02*
X101995Y301997D01*
X98663D01*
X96997Y300331D01*
Y293666D01*
X98663Y292000D01*
X101995D01*
X103661Y293666D01*
Y296998D01*
X100329D01*
X106994Y301997D02*
Y292000D01*
X111992D01*
X113658Y293666D01*
Y295332D01*
X111992Y296998D01*
X106994D01*
X111992D01*
X113658Y298664D01*
Y300331D01*
X111992Y301997D01*
X106994D01*
X527000Y662000D02*
X533665D01*
X217000D02*
X223664D01*
X217000Y552000D02*
X223664D01*
X197000Y550332D02*
X203664D01*
X200332Y553665D02*
Y547000D01*
X92000Y550332D02*
X98665D01*
X95332Y553665D02*
Y547000D01*
X342000Y151997D02*
Y142000D01*
X346998D01*
X348665Y143666D01*
Y145332D01*
X346998Y146998D01*
X342000D01*
X346998D01*
X348665Y148665D01*
Y150331D01*
X346998Y151997D01*
X342000D01*
X351997D02*
Y143666D01*
X353663Y142000D01*
X356995D01*
X358661Y143666D01*
Y151997D01*
X361994D02*
X368658D01*
Y150331D01*
X361994Y143666D01*
Y142000D01*
X368658D01*
X371990Y151997D02*
X378655D01*
Y150331D01*
X371990Y143666D01*
Y142000D01*
X378655D01*
X388652Y151997D02*
X381987D01*
Y142000D01*
X388652D01*
X381987Y146998D02*
X385319D01*
X391984Y142000D02*
Y151997D01*
X396982D01*
X398648Y150331D01*
Y146998D01*
X396982Y145332D01*
X391984D01*
X395316D02*
X398648Y142000D01*
X253000Y167000D02*
X243003D01*
Y171998D01*
X244669Y173664D01*
X248002D01*
X249668Y171998D01*
Y167000D01*
Y170332D02*
X253000Y173664D01*
Y183661D02*
Y176997D01*
X246336Y183661D01*
X244669D01*
X243003Y181995D01*
Y178663D01*
X244669Y176997D01*
X253000Y193658D02*
Y186994D01*
X246336Y193658D01*
X244669D01*
X243003Y191992D01*
Y188660D01*
X244669Y186994D01*
Y196990D02*
X243003Y198657D01*
Y201989D01*
X244669Y203655D01*
X251334D01*
X253000Y201989D01*
Y198657D01*
X251334Y196990D01*
X244669D01*
X193000Y167000D02*
X183003D01*
Y171998D01*
X184669Y173664D01*
X188002D01*
X189668Y171998D01*
Y167000D01*
Y170332D02*
X193000Y173664D01*
Y183661D02*
Y176997D01*
X186335Y183661D01*
X184669D01*
X183003Y181995D01*
Y178663D01*
X184669Y176997D01*
X193000Y193658D02*
Y186994D01*
X186335Y193658D01*
X184669D01*
X183003Y191992D01*
Y188660D01*
X184669Y186994D01*
Y196990D02*
X183003Y198657D01*
Y201989D01*
X184669Y203655D01*
X191334D01*
X193000Y201989D01*
Y198657D01*
X191334Y196990D01*
X184669D01*
X133000Y167000D02*
X123003D01*
Y171998D01*
X124669Y173664D01*
X128002D01*
X129668Y171998D01*
Y167000D01*
Y170332D02*
X133000Y173664D01*
Y183661D02*
Y176997D01*
X126335Y183661D01*
X124669D01*
X123003Y181995D01*
Y178663D01*
X124669Y176997D01*
X133000Y193658D02*
Y186994D01*
X126335Y193658D01*
X124669D01*
X123003Y191992D01*
Y188660D01*
X124669Y186994D01*
Y196990D02*
X123003Y198657D01*
Y201989D01*
X124669Y203655D01*
X131334D01*
X133000Y201989D01*
Y198657D01*
X131334Y196990D01*
X124669D01*
X73000Y167000D02*
X63003D01*
Y171998D01*
X64669Y173664D01*
X68002D01*
X69668Y171998D01*
Y167000D01*
Y170332D02*
X73000Y173664D01*
Y183661D02*
Y176997D01*
X66336Y183661D01*
X64669D01*
X63003Y181995D01*
Y178663D01*
X64669Y176997D01*
X73000Y193658D02*
Y186994D01*
X66336Y193658D01*
X64669D01*
X63003Y191992D01*
Y188660D01*
X64669Y186994D01*
Y196990D02*
X63003Y198657D01*
Y201989D01*
X64669Y203655D01*
X71334D01*
X73000Y201989D01*
Y198657D01*
X71334Y196990D01*
X64669D01*
X703000Y167000D02*
X693003D01*
Y171998D01*
X694669Y173664D01*
X698002D01*
X699668Y171998D01*
Y167000D01*
Y170332D02*
X703000Y173664D01*
Y176997D02*
Y180329D01*
Y178663D01*
X693003D01*
X694669Y176997D01*
Y185327D02*
X693003Y186994D01*
Y190326D01*
X694669Y191992D01*
X701334D01*
X703000Y190326D01*
Y186994D01*
X701334Y185327D01*
X694669D01*
X693003Y195324D02*
X703000D01*
X699668D01*
X693003Y201989D01*
X698002Y196990D01*
X703000Y201989D01*
X633000Y167000D02*
X623003D01*
Y171998D01*
X624669Y173664D01*
X628002D01*
X629668Y171998D01*
Y167000D01*
Y170332D02*
X633000Y173664D01*
Y176997D02*
Y180329D01*
Y178663D01*
X623003D01*
X624669Y176997D01*
Y185327D02*
X623003Y186994D01*
Y190326D01*
X624669Y191992D01*
X631334D01*
X633000Y190326D01*
Y186994D01*
X631334Y185327D01*
X624669D01*
X623003Y195324D02*
X633000D01*
X629668D01*
X623003Y201989D01*
X628002Y196990D01*
X633000Y201989D01*
X563000Y167000D02*
X553003D01*
Y171998D01*
X554669Y173664D01*
X558002D01*
X559668Y171998D01*
Y167000D01*
Y170332D02*
X563000Y173664D01*
Y176997D02*
Y180329D01*
Y178663D01*
X553003D01*
X554669Y176997D01*
Y185327D02*
X553003Y186994D01*
Y190326D01*
X554669Y191992D01*
X561334D01*
X563000Y190326D01*
Y186994D01*
X561334Y185327D01*
X554669D01*
X553003Y195324D02*
X563000D01*
X559668D01*
X553003Y201989D01*
X558002Y196990D01*
X563000Y201989D01*
X493000Y167000D02*
X483003D01*
Y171998D01*
X484669Y173664D01*
X488002D01*
X489668Y171998D01*
Y167000D01*
Y170332D02*
X493000Y173664D01*
Y176997D02*
Y180329D01*
Y178663D01*
X483003D01*
X484669Y176997D01*
Y185327D02*
X483003Y186994D01*
Y190326D01*
X484669Y191992D01*
X491334D01*
X493000Y190326D01*
Y186994D01*
X491334Y185327D01*
X484669D01*
X483003Y195324D02*
X493000D01*
X489668D01*
X483003Y201989D01*
X488002Y196990D01*
X493000Y201989D01*
X212000Y427000D02*
Y436997D01*
X216998D01*
X218664Y435331D01*
Y431998D01*
X216998Y430332D01*
X212000D01*
X215332D02*
X218664Y427000D01*
X228661D02*
X221997D01*
X228661Y433665D01*
Y435331D01*
X226995Y436997D01*
X223663D01*
X221997Y435331D01*
X238658Y427000D02*
X231994D01*
X238658Y433665D01*
Y435331D01*
X236992Y436997D01*
X233660D01*
X231994Y435331D01*
X241990D02*
X243657Y436997D01*
X246989D01*
X248655Y435331D01*
Y428666D01*
X246989Y427000D01*
X243657D01*
X241990Y428666D01*
Y435331D01*
X72000Y427000D02*
Y436997D01*
X76998D01*
X78664Y435331D01*
Y431998D01*
X76998Y430332D01*
X72000D01*
X75332D02*
X78664Y427000D01*
X88661D02*
X81997D01*
X88661Y433665D01*
Y435331D01*
X86995Y436997D01*
X83663D01*
X81997Y435331D01*
X98658Y427000D02*
X91994D01*
X98658Y433665D01*
Y435331D01*
X96992Y436997D01*
X93660D01*
X91994Y435331D01*
X101990D02*
X103657Y436997D01*
X106989D01*
X108655Y435331D01*
Y428666D01*
X106989Y427000D01*
X103657D01*
X101990Y428666D01*
Y435331D01*
X192000Y536997D02*
Y527000D01*
X196998D01*
X198664Y528666D01*
Y530332D01*
X196998Y531998D01*
X192000D01*
X196998D01*
X198664Y533665D01*
Y535331D01*
X196998Y536997D01*
X192000D01*
X201997D02*
Y527000D01*
X208661D01*
X211994Y536997D02*
Y528666D01*
X213660Y527000D01*
X216992D01*
X218658Y528666D01*
Y536997D01*
X228655D02*
X221990D01*
Y527000D01*
X228655D01*
X221990Y531998D02*
X225323D01*
X87000Y536997D02*
Y527000D01*
X91998D01*
X93665Y528666D01*
Y530332D01*
X91998Y531998D01*
X87000D01*
X91998D01*
X93665Y533665D01*
Y535331D01*
X91998Y536997D01*
X87000D01*
X96997D02*
Y527000D01*
X103661D01*
X106994Y536997D02*
Y528666D01*
X108660Y527000D01*
X111992D01*
X113658Y528666D01*
Y536997D01*
X123655D02*
X116990D01*
Y527000D01*
X123655D01*
X116990Y531998D02*
X120323D01*
X82000Y707000D02*
Y716997D01*
X86998D01*
X88665Y715331D01*
Y711998D01*
X86998Y710332D01*
X82000D01*
X96995Y716997D02*
X93663D01*
X91997Y715331D01*
Y708666D01*
X93663Y707000D01*
X96995D01*
X98661Y708666D01*
Y715331D01*
X96995Y716997D01*
X101994D02*
Y707000D01*
X105326Y710332D01*
X108658Y707000D01*
Y716997D01*
X118655D02*
X111990D01*
Y707000D01*
X118655D01*
X111990Y711998D02*
X115323D01*
X121987Y707000D02*
Y716997D01*
X126986D01*
X128652Y715331D01*
Y711998D01*
X126986Y710332D01*
X121987D01*
X125319D02*
X128652Y707000D01*
X362000Y692000D02*
X366998D01*
X364499D01*
Y706995D01*
X362000Y704496D01*
X384493Y706995D02*
X379494Y704496D01*
X374496Y699498D01*
Y694499D01*
X376995Y692000D01*
X381993D01*
X384493Y694499D01*
Y696998D01*
X381993Y699498D01*
X374496D01*
X389491Y692000D02*
Y706995D01*
X394490Y701997D01*
X399488Y706995D01*
Y692000D01*
X404486Y706995D02*
Y692000D01*
Y699498D01*
X414483D01*
Y706995D01*
Y692000D01*
X419481Y701997D02*
X429478D01*
X419481Y692000D01*
X429478D01*
X518665Y695332D02*
X512000D01*
X518665Y701997D01*
Y703663D01*
X516998Y705329D01*
X513666D01*
X512000Y703663D01*
X528661Y695332D02*
X521997D01*
X528661Y701997D01*
Y703663D01*
X526995Y705329D01*
X523663D01*
X521997Y703663D01*
X531994Y692000D02*
Y701997D01*
X536992D01*
X538658Y700331D01*
Y696998D01*
X536992Y695332D01*
X531994D01*
X548655Y705329D02*
X541990D01*
Y700331D01*
X545323D01*
X541990D01*
Y695332D01*
X208664D02*
X202000D01*
X208664Y701997D01*
Y703663D01*
X206998Y705329D01*
X203666D01*
X202000Y703663D01*
X218661Y695332D02*
X211997D01*
X218661Y701997D01*
Y703663D01*
X216995Y705329D01*
X213663D01*
X211997Y703663D01*
X221994Y692000D02*
Y701997D01*
X226992D01*
X228658Y700331D01*
Y696998D01*
X226992Y695332D01*
X221994D01*
X238655Y705329D02*
X231990D01*
Y700331D01*
X235323D01*
X231990D01*
Y695332D01*
X357000Y742000D02*
Y753996D01*
X362998D01*
X364997Y751997D01*
Y747998D01*
X362998Y745999D01*
X357000D01*
X360999D02*
X364997Y742000D01*
X368996D02*
X372995D01*
X370995D01*
Y753996D01*
X368996Y751997D01*
X378993D02*
X380992Y753996D01*
X384991D01*
X386990Y751997D01*
Y743999D01*
X384991Y742000D01*
X380992D01*
X378993Y743999D01*
Y751997D01*
X390989Y753996D02*
Y742000D01*
Y745999D01*
X398986Y753996D01*
X392988Y747998D01*
X398986Y742000D01*
X112000Y731997D02*
Y725332D01*
X115332Y722000D01*
X118665Y725332D01*
Y731997D01*
X121997Y726998D02*
X128661D01*
X125329Y730331D02*
Y723666D01*
X82000Y731997D02*
Y725332D01*
X85332Y722000D01*
X88665Y725332D01*
Y731997D01*
X91997Y726998D02*
X98661D01*
X112000Y552000D02*
X118665D01*
X188337Y593002D02*
Y606998D01*
X195335D01*
X197667Y604665D01*
Y600000D01*
X195335Y597667D01*
X188337D01*
X211663Y593002D02*
X202333D01*
X211663Y602333D01*
Y604665D01*
X209330Y606998D01*
X204665D01*
X202333Y604665D01*
X80670Y593002D02*
Y606998D01*
X87667D01*
X90000Y604665D01*
Y600000D01*
X87667Y597667D01*
X80670D01*
X94665Y593002D02*
X99330D01*
X96998D01*
Y606998D01*
X94665Y604665D01*
D11*
X96090Y582280D02*
G03*
X96090Y582280I-1250J0D01*
G01*
X549750Y80000D02*
G03*
X549750Y80000I-1250J0D01*
G01*
X338150Y578100D02*
G03*
X338150Y578100I-1250J0D01*
G01*
X533950Y550000D02*
G03*
X533950Y550000I-1270J0D01*
G01*
X96090Y762280D02*
G03*
X96090Y762280I-1250J0D01*
G01*
X201090Y582280D02*
G03*
X201090Y582280I-1250J0D01*
G01*
X387500Y107500D02*
X400829D01*
X337500Y104164D02*
X350829D01*
X344165Y110829D02*
Y97500D01*
D12*
X642500Y361000D02*
G03*
X642500Y361000I-2500J0D01*
G01*
X502500D02*
G03*
X502500Y361000I-2500J0D01*
G01*
X642500Y456500D02*
G03*
X642500Y456500I-2500J0D01*
G01*
X502500Y456000D02*
G03*
X502500Y456000I-2500J0D01*
G01*
X82500Y361000D02*
G03*
X82500Y361000I-2500J0D01*
G01*
X202500D02*
G03*
X202500Y361000I-2500J0D01*
G01*
D13*
X361500Y567000D02*
G03*
X361500Y567000I-3000J0D01*
G01*
D14*
X442500Y125000D02*
G03*
X442500Y125000I-72500J0D01*
G01*
D15*
X5000Y845000D02*
X745000D01*
X5000Y5000D02*
Y845000D01*
Y5000D02*
X745000D01*
Y845000D01*
D16*
X682461Y625078D02*
X679922Y627617D01*
X674843D01*
X672304Y625078D01*
Y614922D01*
X674843Y612383D01*
X679922D01*
X682461Y614922D01*
X687539Y625078D02*
X690078Y627617D01*
X695157D01*
X697696Y625078D01*
Y622539D01*
X695157Y620000D01*
X692617D01*
X695157D01*
X697696Y617461D01*
Y614922D01*
X695157Y612383D01*
X690078D01*
X687539Y614922D01*
X319843Y707617D02*
Y705078D01*
X324922Y700000D01*
X330000Y705078D01*
Y707617D01*
X324922Y700000D02*
Y692383D01*
X335078D02*
X340157D01*
X337618D01*
Y707617D01*
X335078Y705078D01*
X327304Y602617D02*
Y589922D01*
X329843Y587383D01*
X334922D01*
X337461Y589922D01*
Y602617D01*
X352696Y587383D02*
X342539D01*
X352696Y597539D01*
Y600078D01*
X350157Y602617D01*
X345078D01*
X342539Y600078D01*
X358495Y767383D02*
Y782617D01*
X366113D01*
X368652Y780078D01*
Y775000D01*
X366113Y772461D01*
X358495D01*
X363574D02*
X368652Y767383D01*
X373730D02*
X378809D01*
X376270D01*
Y782617D01*
X373730Y780078D01*
X386426Y767383D02*
X391505D01*
X388965D01*
Y782617D01*
X386426Y780078D01*
X675956Y247383D02*
Y262617D01*
X683574D01*
X686113Y260078D01*
Y255000D01*
X683574Y252461D01*
X675956D01*
X681034D02*
X686113Y247383D01*
X691191D02*
X696270D01*
X693730D01*
Y262617D01*
X691191Y260078D01*
X703887D02*
X706426Y262617D01*
X711505D01*
X714044Y260078D01*
Y249922D01*
X711505Y247383D01*
X706426D01*
X703887Y249922D01*
Y260078D01*
X612304Y247383D02*
Y262617D01*
X619922D01*
X622461Y260078D01*
Y255000D01*
X619922Y252461D01*
X612304D01*
X617383D02*
X622461Y247383D01*
X627539Y249922D02*
X630078Y247383D01*
X635157D01*
X637696Y249922D01*
Y260078D01*
X635157Y262617D01*
X630078D01*
X627539Y260078D01*
Y257539D01*
X630078Y255000D01*
X637696D01*
X542304Y247383D02*
Y262617D01*
X549922D01*
X552461Y260078D01*
Y255000D01*
X549922Y252461D01*
X542304D01*
X547383D02*
X552461Y247383D01*
X557539Y260078D02*
X560078Y262617D01*
X565157D01*
X567696Y260078D01*
Y257539D01*
X565157Y255000D01*
X567696Y252461D01*
Y249922D01*
X565157Y247383D01*
X560078D01*
X557539Y249922D01*
Y252461D01*
X560078Y255000D01*
X557539Y257539D01*
Y260078D01*
X560078Y255000D02*
X565157D01*
X472304Y247383D02*
Y262617D01*
X479922D01*
X482461Y260078D01*
Y255000D01*
X479922Y252461D01*
X472304D01*
X477383D02*
X482461Y247383D01*
X487539Y262617D02*
X497696D01*
Y260078D01*
X487539Y249922D01*
Y247383D01*
X237304Y107382D02*
Y122618D01*
X244922D01*
X247461Y120078D01*
Y115000D01*
X244922Y112461D01*
X237304D01*
X242383D02*
X247461Y107382D01*
X262696Y122618D02*
X257617Y120078D01*
X252539Y115000D01*
Y109922D01*
X255078Y107382D01*
X260157D01*
X262696Y109922D01*
Y112461D01*
X260157Y115000D01*
X252539D01*
X177304Y107382D02*
Y122618D01*
X184922D01*
X187461Y120078D01*
Y115000D01*
X184922Y112461D01*
X177304D01*
X182383D02*
X187461Y107382D01*
X202696Y122618D02*
X192539D01*
Y115000D01*
X197617Y117539D01*
X200157D01*
X202696Y115000D01*
Y109922D01*
X200157Y107382D01*
X195078D01*
X192539Y109922D01*
X117304Y107382D02*
Y122618D01*
X124922D01*
X127461Y120078D01*
Y115000D01*
X124922Y112461D01*
X117304D01*
X122382D02*
X127461Y107382D01*
X140157D02*
Y122618D01*
X132539Y115000D01*
X142696D01*
X57304Y107382D02*
Y122618D01*
X64922D01*
X67461Y120078D01*
Y115000D01*
X64922Y112461D01*
X57304D01*
X62382D02*
X67461Y107382D01*
X72539Y120078D02*
X75078Y122618D01*
X80157D01*
X82696Y120078D01*
Y117539D01*
X80157Y115000D01*
X77618D01*
X80157D01*
X82696Y112461D01*
Y109922D01*
X80157Y107382D01*
X75078D01*
X72539Y109922D01*
X217304Y452383D02*
Y467617D01*
X224922D01*
X227461Y465078D01*
Y460000D01*
X224922Y457461D01*
X217304D01*
X222383D02*
X227461Y452383D01*
X242696D02*
X232539D01*
X242696Y462539D01*
Y465078D01*
X240157Y467617D01*
X235078D01*
X232539Y465078D01*
X79843Y452383D02*
Y467617D01*
X87461D01*
X90000Y465078D01*
Y460000D01*
X87461Y457461D01*
X79843D01*
X84922D02*
X90000Y452383D01*
X95078D02*
X100157D01*
X97618D01*
Y467617D01*
X95078Y465078D01*
X540956Y582383D02*
Y597617D01*
X548574D01*
X551113Y595078D01*
Y590000D01*
X548574Y587461D01*
X540956D01*
X556191Y582383D02*
X561270D01*
X558730D01*
Y597617D01*
X556191Y595078D01*
X568887D02*
X571426Y597617D01*
X576505D01*
X579044Y595078D01*
Y584922D01*
X576505Y582383D01*
X571426D01*
X568887Y584922D01*
Y595078D01*
X617304Y372383D02*
Y387617D01*
X624922D01*
X627461Y385078D01*
Y380000D01*
X624922Y377461D01*
X617304D01*
X632539Y374922D02*
X635078Y372383D01*
X640157D01*
X642696Y374922D01*
Y385078D01*
X640157Y387617D01*
X635078D01*
X632539Y385078D01*
Y382539D01*
X635078Y380000D01*
X642696D01*
X482304Y372383D02*
Y387617D01*
X489922D01*
X492461Y385078D01*
Y380000D01*
X489922Y377461D01*
X482304D01*
X497539Y385078D02*
X500078Y387617D01*
X505157D01*
X507696Y385078D01*
Y382539D01*
X505157Y380000D01*
X507696Y377461D01*
Y374922D01*
X505157Y372383D01*
X500078D01*
X497539Y374922D01*
Y377461D01*
X500078Y380000D01*
X497539Y382539D01*
Y385078D01*
X500078Y380000D02*
X505157D01*
X622304Y467383D02*
Y482617D01*
X629922D01*
X632461Y480078D01*
Y475000D01*
X629922Y472461D01*
X622304D01*
X637539Y482617D02*
X647696D01*
Y480078D01*
X637539Y469922D01*
Y467383D01*
X482304D02*
Y482617D01*
X489922D01*
X492461Y480078D01*
Y475000D01*
X489922Y472461D01*
X482304D01*
X507696Y482617D02*
X502617Y480078D01*
X497539Y475000D01*
Y469922D01*
X500078Y467383D01*
X505157D01*
X507696Y469922D01*
Y472461D01*
X505157Y475000D01*
X497539D01*
X212304Y357383D02*
Y372617D01*
X219922D01*
X222461Y370078D01*
Y365000D01*
X219922Y362461D01*
X212304D01*
X237696Y372617D02*
X227539D01*
Y365000D01*
X232617Y367539D01*
X235157D01*
X237696Y365000D01*
Y359922D01*
X235157Y357383D01*
X230078D01*
X227539Y359922D01*
X92304Y357383D02*
Y372617D01*
X99922D01*
X102461Y370078D01*
Y365000D01*
X99922Y362461D01*
X92304D01*
X115157Y357383D02*
Y372617D01*
X107539Y365000D01*
X117696D01*
X92304Y767383D02*
Y782617D01*
X99922D01*
X102461Y780078D01*
Y775000D01*
X99922Y772461D01*
X92304D01*
X107539Y780078D02*
X110078Y782617D01*
X115157D01*
X117696Y780078D01*
Y777539D01*
X115157Y775000D01*
X112618D01*
X115157D01*
X117696Y772461D01*
Y769922D01*
X115157Y767383D01*
X110078D01*
X107539Y769922D01*
X359843Y172617D02*
Y157382D01*
X370000D01*
X375078D02*
X380157D01*
X377618D01*
Y172617D01*
X375078Y170078D01*
X535000Y87618D02*
X529922D01*
X532461D01*
Y74922D01*
X529922Y72382D01*
X527383D01*
X524843Y74922D01*
X540078Y72382D02*
X545157D01*
X542618D01*
Y87618D01*
X540078Y85078D01*
X527461Y775078D02*
X524922Y777617D01*
X519843D01*
X517304Y775078D01*
Y764922D01*
X519843Y762383D01*
X524922D01*
X527461Y764922D01*
X542696Y762383D02*
X532539D01*
X542696Y772539D01*
Y775078D01*
X540157Y777617D01*
X535078D01*
X532539Y775078D01*
X220000D02*
X217461Y777617D01*
X212383D01*
X209843Y775078D01*
Y764922D01*
X212383Y762383D01*
X217461D01*
X220000Y764922D01*
X225078Y762383D02*
X230157D01*
X227618D01*
Y777617D01*
X225078Y775078D01*
M02*
