G04*
G04 #@! TF.GenerationSoftware,Altium Limited,Altium Designer,23.3.1 (30)*
G04*
G04 Layer_Color=16711935*
%FSLAX44Y44*%
%MOMM*%
G71*
G04*
G04 #@! TF.SameCoordinates,9B24EA63-C825-4E2D-BC30-5D40CB4EF2F0*
G04*
G04*
G04 #@! TF.FilePolarity,Positive*
G04*
G01*
G75*
%ADD10C,0.2000*%
%ADD14C,0.1500*%
%ADD49C,0.1000*%
D10*
X660000Y485000D02*
X710000D01*
Y605000D01*
X660000D02*
X710000D01*
X660000Y485000D02*
Y605000D01*
X317500Y635000D02*
Y685000D01*
Y635000D02*
X432500D01*
Y685000D01*
X317500D02*
X432500D01*
X472000Y151000D02*
Y219000D01*
X498000D01*
Y151000D02*
Y219000D01*
X472000Y151000D02*
X498000D01*
X542000D02*
Y219000D01*
X568000D01*
Y151000D02*
Y219000D01*
X542000Y151000D02*
X568000D01*
X612000D02*
Y219000D01*
X638000D01*
Y151000D02*
Y219000D01*
X612000Y151000D02*
X638000D01*
X682000D02*
Y219000D01*
X708000D01*
Y151000D02*
Y219000D01*
X682000Y151000D02*
X708000D01*
X553297Y92700D02*
X626703D01*
Y67300D02*
Y92700D01*
X553297Y67300D02*
X626703D01*
X553297D02*
Y92700D01*
X237000Y151000D02*
Y219000D01*
X263000D01*
Y151000D02*
Y219000D01*
X237000Y151000D02*
X263000D01*
X177000D02*
Y219000D01*
X203000D01*
Y151000D02*
Y219000D01*
X177000Y151000D02*
X203000D01*
X117000D02*
Y219000D01*
X143000D01*
Y151000D02*
Y219000D01*
X117000Y151000D02*
X143000D01*
X57000D02*
Y219000D01*
X83000D01*
Y151000D02*
Y219000D01*
X57000Y151000D02*
X83000D01*
X505000Y635000D02*
Y755000D01*
X555000D01*
Y635000D02*
Y755000D01*
X505000Y635000D02*
X555000D01*
X341000Y763000D02*
X409000D01*
Y737000D02*
Y763000D01*
X341000Y737000D02*
X409000D01*
X341000D02*
Y763000D01*
X195000Y635000D02*
Y755000D01*
X245000D01*
Y635000D02*
Y755000D01*
X195000Y635000D02*
X245000D01*
X196000Y422000D02*
X264000D01*
X196000D02*
Y448000D01*
X264000D01*
Y422000D02*
Y448000D01*
X56000Y422000D02*
X124000D01*
X56000D02*
Y448000D01*
X124000D01*
Y422000D02*
Y448000D01*
D14*
X442500Y125000D02*
G03*
X442500Y125000I-72500J0D01*
G01*
D49*
X353000Y567500D02*
G03*
X353000Y567500I-5000J0D01*
G01*
X134502Y502003D02*
Y578003D01*
X75502Y502003D02*
X134502D01*
X75500Y502000D02*
Y578003D01*
X75502D02*
X85497D01*
X85499Y578000D01*
Y562001D02*
Y578000D01*
X124500D02*
X134500D01*
X124500Y562001D02*
Y578000D01*
X85499Y562001D02*
X124500D01*
X627000Y346000D02*
X652000D01*
X668000D02*
X693000D01*
X668000D02*
Y352000D01*
X627000Y311000D02*
Y346000D01*
X620500Y337500D02*
X627000D01*
X693000Y329500D02*
X699500D01*
X693000Y337500D02*
X699500D01*
X693000Y311000D02*
Y346000D01*
X620500Y329500D02*
X627000D01*
X652000Y346000D02*
Y352000D01*
X627000Y311000D02*
X693000D01*
X620500Y307000D02*
Y352000D01*
Y307000D02*
X699500D01*
Y307000D02*
Y352000D01*
X620500D02*
X699500D01*
X487000Y346000D02*
X512000D01*
X528000D02*
X553000D01*
X528000D02*
Y352000D01*
X487000Y311000D02*
Y346000D01*
X480500Y337500D02*
X487000D01*
X553000Y329500D02*
X559500D01*
X553000Y337500D02*
X559500D01*
X553000Y311000D02*
Y346000D01*
X480500Y329500D02*
X487000D01*
X512000Y346000D02*
Y352000D01*
X487000Y311000D02*
X553000D01*
X480500Y307000D02*
Y352000D01*
Y307000D02*
X559500D01*
Y307000D02*
Y352000D01*
X480500D02*
X559500D01*
X627000Y441500D02*
X652000D01*
X668000D02*
X693000D01*
X668000D02*
Y447500D01*
X627000Y406500D02*
Y441500D01*
X620500Y433000D02*
X627000D01*
X693000Y425000D02*
X699500D01*
X693000Y433000D02*
X699500D01*
X693000Y406500D02*
Y441500D01*
X620500Y425000D02*
X627000D01*
X652000Y441500D02*
Y447500D01*
X627000Y406500D02*
X693000D01*
X620500Y402500D02*
Y447500D01*
Y402500D02*
X699500D01*
Y402500D02*
Y447500D01*
X620500D02*
X699500D01*
X487000Y441000D02*
X512000D01*
X528000D02*
X553000D01*
X528000D02*
Y447000D01*
X487000Y406000D02*
Y441000D01*
X480500Y432500D02*
X487000D01*
X553000Y424500D02*
X559500D01*
X553000Y432500D02*
X559500D01*
X553000Y406000D02*
Y441000D01*
X480500Y424500D02*
X487000D01*
X512000Y441000D02*
Y447000D01*
X487000Y406000D02*
X553000D01*
X480500Y402000D02*
Y447000D01*
Y402000D02*
X559500D01*
Y402000D02*
Y447000D01*
X480500D02*
X559500D01*
X67000Y346000D02*
X92000D01*
X108000D02*
X133000D01*
X108000D02*
Y352000D01*
X67000Y311000D02*
Y346000D01*
X60500Y337500D02*
X67000D01*
X133000Y329500D02*
X139500D01*
X133000Y337500D02*
X139500D01*
X133000Y311000D02*
Y346000D01*
X60500Y329500D02*
X67000D01*
X92000Y346000D02*
Y352000D01*
X67000Y311000D02*
X133000D01*
X60500Y307000D02*
Y352000D01*
Y307000D02*
X139500D01*
Y307000D02*
Y352000D01*
X60500D02*
X139500D01*
X187000Y346000D02*
X212000D01*
X228000D02*
X253000D01*
X228000D02*
Y352000D01*
X187000Y311000D02*
Y346000D01*
X180500Y337500D02*
X187000D01*
X253000Y329500D02*
X259500D01*
X253000Y337500D02*
X259500D01*
X253000Y311000D02*
Y346000D01*
X180500Y329500D02*
X187000D01*
X212000Y346000D02*
Y352000D01*
X187000Y311000D02*
X253000D01*
X180500Y307000D02*
Y352000D01*
Y307000D02*
X259500D01*
Y307000D02*
Y352000D01*
X180500D02*
X259500D01*
X339000Y223500D02*
Y576500D01*
X411000Y223500D02*
Y576500D01*
X339000D02*
X411000D01*
X339000Y223500D02*
X411000D01*
X539200Y518200D02*
X640800D01*
X539200D02*
Y575400D01*
X640800D01*
Y518200D02*
Y575400D01*
X134502Y682003D02*
Y758003D01*
X75502Y682003D02*
X134502D01*
X75500Y682000D02*
Y758003D01*
X75502D02*
X85497D01*
X85499Y758000D01*
Y742001D02*
Y758000D01*
X124500D02*
X134500D01*
X124500Y742001D02*
Y758000D01*
X85499Y742001D02*
X124500D01*
X239502Y502003D02*
Y578003D01*
X180502Y502003D02*
X239502D01*
X180499Y502000D02*
Y578003D01*
X180502D02*
X190497D01*
X190499Y578000D01*
Y562001D02*
Y578000D01*
X229500D02*
X239500D01*
X229500Y562001D02*
Y578000D01*
X190499Y562001D02*
X229500D01*
M02*
