G04*
G04 #@! TF.GenerationSoftware,Altium Limited,Altium Designer,23.3.1 (30)*
G04*
G04 Layer_Physical_Order=2*
G04 Layer_Color=16711680*
%FSLAX44Y44*%
%MOMM*%
G71*
G04*
G04 #@! TF.SameCoordinates,9B24EA63-C825-4E2D-BC30-5D40CB4EF2F0*
G04*
G04*
G04 #@! TF.FilePolarity,Positive*
G04*
G01*
G75*
%ADD17C,1.3000*%
%ADD18R,1.3000X1.3000*%
%ADD19C,1.1500*%
%ADD20R,1.1500X1.1500*%
%ADD25R,1.2500X1.2500*%
%ADD26C,1.2500*%
%ADD27R,1.3890X1.3890*%
%ADD28C,1.3890*%
%ADD33R,1.2500X1.2500*%
%ADD34R,1.4500X1.4500*%
%ADD35C,1.4500*%
%ADD38C,0.3200*%
%ADD39C,0.3000*%
%ADD40R,1.2000X1.2000*%
%ADD41C,1.2000*%
%ADD42R,1.3000X1.3000*%
%ADD43R,1.5000X1.5000*%
%ADD44C,1.5000*%
%ADD45R,1.8000X1.8000*%
%ADD46C,1.8000*%
%ADD47C,4.0000*%
%ADD48C,0.5000*%
G36*
X700000Y775000D02*
Y337427D01*
X698827Y336941D01*
X697884Y337884D01*
X696561Y338768D01*
X695000Y339078D01*
X695000Y339078D01*
X688038D01*
X687202Y340526D01*
X685526Y342202D01*
X683474Y343387D01*
X681185Y344000D01*
X678815D01*
X676526Y343387D01*
X674474Y342202D01*
X672798Y340526D01*
X671613Y338474D01*
X671000Y336185D01*
Y333815D01*
X671613Y331526D01*
X672798Y329474D01*
X674474Y327798D01*
X676526Y326613D01*
X678815Y326000D01*
X681185D01*
X683474Y326613D01*
X685526Y327798D01*
X687202Y329474D01*
X688038Y330922D01*
X693311D01*
X700000Y324232D01*
Y243487D01*
X698900Y242852D01*
X698377Y243154D01*
X696152Y243750D01*
X693848D01*
X691623Y243154D01*
X689627Y242002D01*
X687998Y240373D01*
X686846Y238377D01*
X686250Y236152D01*
Y233848D01*
X686846Y231623D01*
X687998Y229627D01*
X689627Y227998D01*
X691623Y226846D01*
X693848Y226250D01*
X696152D01*
X698377Y226846D01*
X698900Y227148D01*
X700000Y226513D01*
Y143750D01*
X686250D01*
Y126250D01*
X700000D01*
Y75000D01*
X675000Y50000D01*
X592409D01*
X592263Y50406D01*
X592197Y51270D01*
X593356Y52044D01*
X612318Y71006D01*
X614130Y70521D01*
Y78730D01*
X605921D01*
X606406Y76918D01*
X588668Y59180D01*
X421731D01*
X399180Y81732D01*
Y116109D01*
X401011Y117166D01*
X402834Y118989D01*
X404123Y121221D01*
X404790Y123711D01*
Y123730D01*
X385210D01*
Y123711D01*
X385877Y121221D01*
X387166Y118989D01*
X388989Y117166D01*
X390820Y116109D01*
Y80000D01*
X391138Y78400D01*
X392044Y77044D01*
X417044Y52044D01*
X418203Y51270D01*
X418137Y50406D01*
X417991Y50000D01*
X75000D01*
X50000Y75000D01*
Y549232D01*
X61189Y560422D01*
X86500D01*
Y556000D01*
X103500D01*
Y573000D01*
X86500D01*
Y568578D01*
X59500D01*
X59500Y568578D01*
X57939Y568268D01*
X56616Y567384D01*
X56616Y567384D01*
X51173Y561941D01*
X50000Y562427D01*
Y775000D01*
X75000Y800000D01*
X675000D01*
X700000Y775000D01*
D02*
G37*
%LPC*%
G36*
X103540Y753040D02*
X96270D01*
Y745770D01*
X103540D01*
Y753040D01*
D02*
G37*
G36*
X93730D02*
X86460D01*
Y745770D01*
X93730D01*
Y753040D01*
D02*
G37*
G36*
X426152Y758750D02*
X423848D01*
X421623Y758154D01*
X419627Y757002D01*
X417998Y755373D01*
X416846Y753377D01*
X416250Y751152D01*
Y748848D01*
X416846Y746623D01*
X417998Y744627D01*
X419627Y742998D01*
X421623Y741846D01*
X423848Y741250D01*
X426152D01*
X428377Y741846D01*
X430373Y742998D01*
X432002Y744627D01*
X433154Y746623D01*
X433750Y748848D01*
Y751152D01*
X433154Y753377D01*
X432002Y755373D01*
X430373Y757002D01*
X428377Y758154D01*
X426152Y758750D01*
D02*
G37*
G36*
X116119Y753000D02*
X113881D01*
X111719Y752421D01*
X109781Y751302D01*
X108198Y749719D01*
X107079Y747781D01*
X106500Y745619D01*
Y743381D01*
X107079Y741219D01*
X108198Y739281D01*
X109781Y737698D01*
X111719Y736579D01*
X113881Y736000D01*
X116119D01*
X118281Y736579D01*
X120219Y737698D01*
X121802Y739281D01*
X122921Y741219D01*
X123500Y743381D01*
Y745619D01*
X122921Y747781D01*
X121802Y749719D01*
X120219Y751302D01*
X118281Y752421D01*
X116119Y753000D01*
D02*
G37*
G36*
X221185Y754000D02*
X218815D01*
X216526Y753387D01*
X214474Y752202D01*
X212798Y750526D01*
X211613Y748474D01*
X211000Y746185D01*
Y743815D01*
X211613Y741526D01*
X212798Y739474D01*
X214474Y737798D01*
X216526Y736613D01*
X218815Y736000D01*
X221185D01*
X223474Y736613D01*
X225526Y737798D01*
X227202Y739474D01*
X228387Y741526D01*
X229000Y743815D01*
Y746185D01*
X228387Y748474D01*
X227202Y750526D01*
X225526Y752202D01*
X223474Y753387D01*
X221185Y754000D01*
D02*
G37*
G36*
X531185D02*
X528815D01*
X526526Y753387D01*
X524474Y752202D01*
X522798Y750526D01*
X521613Y748474D01*
X521000Y746185D01*
Y743815D01*
X521613Y741526D01*
X522798Y739474D01*
X524474Y737798D01*
X525922Y736962D01*
Y696689D01*
X493311Y664078D01*
X406572D01*
X406002Y665066D01*
X404466Y666602D01*
X402584Y667688D01*
X400486Y668250D01*
X398314D01*
X396216Y667688D01*
X394334Y666602D01*
X392798Y665066D01*
X391712Y663184D01*
X391150Y661086D01*
Y658914D01*
X391712Y656816D01*
X392798Y654934D01*
X394334Y653398D01*
X395322Y652828D01*
Y616089D01*
X382116Y602884D01*
X381232Y601561D01*
X380922Y600000D01*
X380922Y600000D01*
Y422993D01*
X380761Y422832D01*
X380000Y420995D01*
Y419005D01*
X380761Y417168D01*
X382168Y415761D01*
X382794Y415502D01*
X383092Y414004D01*
X360568Y391480D01*
X346080D01*
X344934Y393465D01*
X343065Y395334D01*
X340775Y396656D01*
X338222Y397340D01*
X338170D01*
Y387300D01*
Y377260D01*
X338222D01*
X340775Y377944D01*
X343065Y379266D01*
X344934Y381135D01*
X346080Y383120D01*
X362300D01*
X363900Y383438D01*
X365256Y384344D01*
X389431Y408520D01*
X394789D01*
X395520Y407250D01*
X395000Y405994D01*
Y405768D01*
X347629Y358396D01*
X346490Y359054D01*
X346900Y360583D01*
Y363217D01*
X346218Y365760D01*
X344902Y368040D01*
X343040Y369902D01*
X340760Y371218D01*
X338217Y371900D01*
X335583D01*
X333040Y371218D01*
X330760Y369902D01*
X328898Y368040D01*
X327581Y365760D01*
X326900Y363217D01*
Y360583D01*
X327581Y358040D01*
X328898Y355760D01*
X330760Y353898D01*
X333040Y352581D01*
X335583Y351900D01*
X338217D01*
X339746Y352310D01*
X340404Y351171D01*
X336312Y347080D01*
X335925Y346500D01*
X335583D01*
X333040Y345818D01*
X330760Y344502D01*
X328898Y342640D01*
X327581Y340360D01*
X326900Y337817D01*
Y335183D01*
X327581Y332640D01*
X328898Y330360D01*
X330760Y328498D01*
X333040Y327182D01*
X335583Y326500D01*
X338217D01*
X340760Y327182D01*
X343040Y328498D01*
X344902Y330360D01*
X346218Y332640D01*
X346900Y335183D01*
Y337817D01*
X346218Y340360D01*
X344902Y342640D01*
X344155Y343387D01*
X400768Y400000D01*
X400994D01*
X402832Y400761D01*
X403563Y399794D01*
X397116Y393347D01*
X396232Y392024D01*
X395922Y390463D01*
X395922Y390463D01*
Y386689D01*
X357116Y347884D01*
X356232Y346561D01*
X355922Y345000D01*
X355922Y345000D01*
Y335889D01*
X340516Y320484D01*
X338217Y321100D01*
X335583D01*
X333040Y320419D01*
X330760Y319102D01*
X328898Y317240D01*
X327581Y314960D01*
X326900Y312416D01*
Y309783D01*
X327581Y307240D01*
X328898Y304960D01*
X330760Y303098D01*
X333040Y301782D01*
X335583Y301100D01*
X338217D01*
X340760Y301782D01*
X343040Y303098D01*
X344902Y304960D01*
X346218Y307240D01*
X346900Y309783D01*
Y312416D01*
X346284Y314716D01*
X362884Y331316D01*
X363768Y332639D01*
X364078Y334200D01*
Y343311D01*
X402884Y382116D01*
X402884Y382116D01*
X402989Y382273D01*
X404483Y382224D01*
X405098Y381160D01*
X406960Y379298D01*
X406986Y377817D01*
X367116Y337947D01*
X366232Y336624D01*
X365922Y335063D01*
X365922Y335063D01*
Y320489D01*
X340516Y295084D01*
X338217Y295700D01*
X335583D01*
X333040Y295019D01*
X330760Y293702D01*
X328898Y291840D01*
X327581Y289560D01*
X326900Y287017D01*
Y284384D01*
X327581Y281840D01*
X328898Y279560D01*
X330760Y277698D01*
X333040Y276381D01*
X335583Y275700D01*
X338217D01*
X340760Y276381D01*
X343040Y277698D01*
X344902Y279560D01*
X346218Y281840D01*
X346900Y284384D01*
Y287017D01*
X346284Y289316D01*
X372884Y315916D01*
X372884Y315916D01*
X373768Y317239D01*
X374078Y318800D01*
Y333374D01*
X401927Y361222D01*
X403100Y360736D01*
Y360583D01*
X403782Y358040D01*
X405098Y355760D01*
X406960Y353898D01*
X406986Y352417D01*
X382116Y327547D01*
X381232Y326224D01*
X380922Y324663D01*
X380922Y324663D01*
Y306689D01*
X342719Y268487D01*
X340760Y269618D01*
X338217Y270300D01*
X335583D01*
X333040Y269618D01*
X330760Y268302D01*
X328898Y266440D01*
X327581Y264160D01*
X326900Y261616D01*
Y258983D01*
X327581Y256440D01*
X328898Y254160D01*
X330760Y252298D01*
X333040Y250982D01*
X335583Y250300D01*
X338217D01*
X340760Y250982D01*
X343040Y252298D01*
X344902Y254160D01*
X346218Y256440D01*
X346900Y258983D01*
Y261155D01*
X346969Y261201D01*
X387884Y302116D01*
X387884Y302116D01*
X388768Y303439D01*
X389078Y305000D01*
X389078Y305000D01*
Y322974D01*
X401927Y335822D01*
X403100Y335336D01*
Y335183D01*
X403782Y332640D01*
X405098Y330360D01*
X406815Y328643D01*
X406963Y328307D01*
X406986Y327017D01*
X397116Y317147D01*
X396232Y315824D01*
X395922Y314263D01*
X395922Y314263D01*
Y299689D01*
X340516Y244284D01*
X338217Y244900D01*
X335583D01*
X333040Y244219D01*
X330760Y242902D01*
X328898Y241040D01*
X327581Y238760D01*
X326900Y236217D01*
Y233584D01*
X327581Y231040D01*
X328898Y228760D01*
X330760Y226898D01*
X333040Y225581D01*
X335583Y224900D01*
X338217D01*
X340760Y225581D01*
X343040Y226898D01*
X344902Y228760D01*
X346218Y231040D01*
X346900Y233584D01*
Y236217D01*
X346284Y238516D01*
X402884Y295116D01*
X403768Y296439D01*
X404078Y298000D01*
X404078Y298000D01*
Y304356D01*
X405348Y304710D01*
X406960Y303098D01*
X409240Y301782D01*
X411783Y301100D01*
X414417D01*
X416960Y301782D01*
X419240Y303098D01*
X421102Y304960D01*
X422292Y307022D01*
X451100D01*
X451100Y307022D01*
X452661Y307332D01*
X453984Y308216D01*
X489730Y343962D01*
X491000Y343436D01*
X491000Y342963D01*
Y326000D01*
X509000D01*
Y344000D01*
X492096D01*
X491564Y344000D01*
X491038Y345270D01*
X510768Y365000D01*
X510995D01*
X512832Y365761D01*
X514239Y367168D01*
X514550Y367918D01*
X515820Y367666D01*
Y343025D01*
X514449Y342234D01*
X512766Y340551D01*
X511576Y338489D01*
X510981Y336270D01*
X529019D01*
X528630Y337719D01*
X531187Y340275D01*
X532203Y339495D01*
X531613Y338474D01*
X531000Y336185D01*
Y333815D01*
X531613Y331526D01*
X532798Y329474D01*
X534474Y327798D01*
X535922Y326962D01*
Y306689D01*
X519011Y289778D01*
X422292D01*
X421102Y291840D01*
X419240Y293702D01*
X416960Y295019D01*
X414417Y295700D01*
X411783D01*
X409240Y295019D01*
X406960Y293702D01*
X405098Y291840D01*
X403782Y289560D01*
X403100Y287017D01*
Y284384D01*
X403782Y281840D01*
X405098Y279560D01*
X406960Y277698D01*
X409240Y276381D01*
X411783Y275700D01*
X414417D01*
X416960Y276381D01*
X419240Y277698D01*
X421102Y279560D01*
X422292Y281622D01*
X520700D01*
X520700Y281622D01*
X522261Y281932D01*
X523584Y282816D01*
X542884Y302116D01*
X542884Y302116D01*
X543768Y303439D01*
X544078Y305000D01*
Y326962D01*
X545526Y327798D01*
X547202Y329474D01*
X548387Y331526D01*
X549000Y333815D01*
Y336185D01*
X548387Y338474D01*
X547202Y340526D01*
X545526Y342202D01*
X543474Y343387D01*
X541185Y344000D01*
X538815D01*
X536526Y343387D01*
X535505Y342797D01*
X534725Y343813D01*
X546731Y355820D01*
X633268D01*
X643915Y345173D01*
X643429Y344000D01*
X631000D01*
Y326000D01*
X649000D01*
Y338429D01*
X650173Y338915D01*
X651369Y337719D01*
X650981Y336270D01*
X669019D01*
X668424Y338489D01*
X667234Y340551D01*
X665551Y342234D01*
X664180Y343025D01*
Y422475D01*
X665551Y423266D01*
X667234Y424949D01*
X668424Y427011D01*
X669019Y429230D01*
X650981D01*
X651576Y427011D01*
X652766Y424949D01*
X654449Y423266D01*
X655820Y422475D01*
Y346752D01*
X654646Y346265D01*
X637956Y362956D01*
X636600Y363862D01*
X635000Y364180D01*
X545000D01*
X543400Y363862D01*
X542044Y362956D01*
X525354Y346265D01*
X524180Y346752D01*
Y421975D01*
X525551Y422766D01*
X527234Y424449D01*
X528424Y426511D01*
X529019Y428730D01*
X510981D01*
X511576Y426511D01*
X512766Y424449D01*
X514449Y422766D01*
X515820Y421975D01*
Y387334D01*
X514550Y387082D01*
X514239Y387832D01*
X512832Y389239D01*
X510995Y390000D01*
X509005D01*
X507168Y389239D01*
X507007Y389078D01*
X500000D01*
X498439Y388768D01*
X497116Y387884D01*
X497116Y387884D01*
X438311Y329078D01*
X421480D01*
X420994Y330252D01*
X421102Y330360D01*
X422419Y332640D01*
X423100Y335183D01*
Y337817D01*
X422419Y340360D01*
X421102Y342640D01*
X419240Y344502D01*
X418288Y345052D01*
X418628Y346322D01*
X420400D01*
X420400Y346322D01*
X421961Y346632D01*
X423284Y347516D01*
X496768Y421000D01*
X509000D01*
Y439000D01*
X497770D01*
X497284Y440173D01*
X597078Y539967D01*
X598261Y539284D01*
X601186Y538500D01*
X604214D01*
X607139Y539284D01*
X609761Y540798D01*
X611902Y542939D01*
X613416Y545561D01*
X614200Y548486D01*
Y551514D01*
X613416Y554439D01*
X611902Y557061D01*
X609761Y559202D01*
X607139Y560716D01*
X604214Y561500D01*
X601186D01*
X598261Y560716D01*
X595639Y559202D01*
X593498Y557061D01*
X591984Y554439D01*
X591200Y551514D01*
Y548486D01*
X591805Y546229D01*
X425454Y379878D01*
X421480D01*
X420994Y381052D01*
X421102Y381160D01*
X422419Y383440D01*
X423100Y385984D01*
Y388616D01*
X422419Y391160D01*
X421102Y393440D01*
X419890Y394652D01*
X420416Y395922D01*
X427300D01*
X427300Y395922D01*
X428861Y396232D01*
X430184Y397116D01*
X572538Y539470D01*
X572861Y539284D01*
X575786Y538500D01*
X578814D01*
X581739Y539284D01*
X584361Y540798D01*
X586502Y542939D01*
X588016Y545561D01*
X588800Y548486D01*
Y551514D01*
X588016Y554439D01*
X586502Y557061D01*
X584361Y559202D01*
X581739Y560716D01*
X578814Y561500D01*
X575786D01*
X572861Y560716D01*
X570239Y559202D01*
X568098Y557061D01*
X566584Y554439D01*
X565800Y551514D01*
Y548486D01*
X566584Y545561D01*
X566770Y545238D01*
X564573Y543041D01*
X563400Y543527D01*
Y561500D01*
X540400D01*
Y538500D01*
X558373D01*
X558859Y537327D01*
X425611Y404078D01*
X420473D01*
X419947Y405348D01*
X421134Y406535D01*
X422456Y408825D01*
X423140Y411378D01*
Y411430D01*
X413100D01*
Y412700D01*
X411830D01*
Y422740D01*
X411778D01*
X409225Y422056D01*
X406935Y420734D01*
X405066Y418865D01*
X403920Y416880D01*
X390494D01*
X389646Y418150D01*
X390000Y419005D01*
Y420995D01*
X389239Y422832D01*
X389078Y422993D01*
Y598311D01*
X402284Y611516D01*
X402284Y611516D01*
X403168Y612839D01*
X403478Y614400D01*
X403478Y614400D01*
Y652828D01*
X404466Y653398D01*
X406002Y654934D01*
X406572Y655922D01*
X495000D01*
X495000Y655922D01*
X496561Y656232D01*
X497884Y657116D01*
X532884Y692116D01*
X532884Y692116D01*
X533768Y693439D01*
X534078Y695000D01*
X534078Y695000D01*
Y736962D01*
X535526Y737798D01*
X537202Y739474D01*
X538387Y741526D01*
X539000Y743815D01*
Y746185D01*
X538387Y748474D01*
X537202Y750526D01*
X535526Y752202D01*
X533474Y753387D01*
X531185Y754000D01*
D02*
G37*
G36*
X229040Y654040D02*
X221270D01*
Y646270D01*
X229040D01*
Y654040D01*
D02*
G37*
G36*
X218730D02*
X210960D01*
Y646270D01*
X218730D01*
Y654040D01*
D02*
G37*
G36*
X528730D02*
X520960D01*
Y646270D01*
X528730D01*
Y654040D01*
D02*
G37*
G36*
Y643730D02*
X520960D01*
Y635960D01*
X528730D01*
Y643730D01*
D02*
G37*
G36*
X539040Y654040D02*
X531270D01*
Y645000D01*
Y635960D01*
X539040D01*
Y640820D01*
X608269D01*
X623920Y625168D01*
Y560827D01*
X623646Y560754D01*
X621014Y559234D01*
X618866Y557086D01*
X617346Y554454D01*
X616560Y551519D01*
Y551270D01*
X639640D01*
Y551519D01*
X638853Y554454D01*
X637334Y557086D01*
X635186Y559234D01*
X632554Y560754D01*
X632280Y560827D01*
Y626900D01*
X631962Y628500D01*
X631056Y629856D01*
X621265Y639646D01*
X621752Y640820D01*
X668269D01*
X680820Y628269D01*
Y603025D01*
X679449Y602234D01*
X677766Y600551D01*
X676576Y598489D01*
X675981Y596270D01*
X685000D01*
X694019D01*
X693424Y598489D01*
X692234Y600551D01*
X690551Y602234D01*
X689180Y603025D01*
Y630000D01*
X688862Y631600D01*
X687956Y632956D01*
X672956Y647956D01*
X671600Y648862D01*
X670000Y649180D01*
X539040D01*
Y654040D01*
D02*
G37*
G36*
X683730Y593730D02*
X675981D01*
X676576Y591511D01*
X677766Y589449D01*
X679449Y587766D01*
X681511Y586576D01*
X683730Y585981D01*
Y593730D01*
D02*
G37*
G36*
X694019D02*
X686270D01*
Y585981D01*
X688489Y586576D01*
X690551Y587766D01*
X692234Y589449D01*
X693424Y591511D01*
X694019Y593730D01*
D02*
G37*
G36*
X218730Y563230D02*
X211499D01*
X212042Y561204D01*
X213166Y559256D01*
X214756Y557666D01*
X216704Y556542D01*
X218730Y555999D01*
Y563230D01*
D02*
G37*
G36*
X123501D02*
X116270D01*
Y555999D01*
X118296Y556542D01*
X120244Y557666D01*
X121834Y559256D01*
X122958Y561204D01*
X123501Y563230D01*
D02*
G37*
G36*
X113730D02*
X106499D01*
X107042Y561204D01*
X108166Y559256D01*
X109756Y557666D01*
X111704Y556542D01*
X113730Y555999D01*
Y563230D01*
D02*
G37*
G36*
X414417Y575100D02*
X411783D01*
X409240Y574418D01*
X406960Y573102D01*
X405098Y571240D01*
X403782Y568960D01*
X403100Y566417D01*
Y563783D01*
X403782Y561240D01*
X405098Y558960D01*
X406960Y557098D01*
X409240Y555782D01*
X411783Y555100D01*
X414417D01*
X416960Y555782D01*
X419240Y557098D01*
X421102Y558960D01*
X422419Y561240D01*
X423100Y563783D01*
Y566417D01*
X422419Y568960D01*
X421102Y571240D01*
X419240Y573102D01*
X416960Y574418D01*
X414417Y575100D01*
D02*
G37*
G36*
X333750Y758750D02*
X316250D01*
Y747018D01*
X297116Y727884D01*
X296232Y726561D01*
X295922Y725000D01*
X295922Y725000D01*
Y635000D01*
X295922Y635000D01*
X296232Y633439D01*
X297116Y632116D01*
X332822Y596411D01*
Y575100D01*
X326900D01*
Y555100D01*
X346900D01*
Y575100D01*
X340978D01*
Y598100D01*
X340668Y599661D01*
X339784Y600984D01*
X339784Y600984D01*
X304078Y636689D01*
Y723311D01*
X322018Y741250D01*
X333750D01*
Y758750D01*
D02*
G37*
G36*
X626830Y548730D02*
X616560D01*
Y548481D01*
X617346Y545546D01*
X618866Y542914D01*
X621014Y540766D01*
X623646Y539246D01*
X626581Y538460D01*
X626830D01*
Y548730D01*
D02*
G37*
G36*
X414417Y549700D02*
X411783D01*
X409240Y549019D01*
X406960Y547702D01*
X405098Y545840D01*
X403782Y543560D01*
X403100Y541017D01*
Y538383D01*
X403782Y535840D01*
X405098Y533560D01*
X406960Y531698D01*
X409240Y530382D01*
X411783Y529700D01*
X414417D01*
X416960Y530382D01*
X419240Y531698D01*
X421102Y533560D01*
X422419Y535840D01*
X423100Y538383D01*
Y541017D01*
X422419Y543560D01*
X421102Y545840D01*
X419240Y547702D01*
X416960Y549019D01*
X414417Y549700D01*
D02*
G37*
G36*
X338217D02*
X335583D01*
X333040Y549019D01*
X330760Y547702D01*
X328898Y545840D01*
X327581Y543560D01*
X326900Y541017D01*
Y538383D01*
X327581Y535840D01*
X328898Y533560D01*
X330760Y531698D01*
X333040Y530382D01*
X335583Y529700D01*
X338217D01*
X340760Y530382D01*
X343040Y531698D01*
X344902Y533560D01*
X346218Y535840D01*
X346900Y538383D01*
Y541017D01*
X346218Y543560D01*
X344902Y545840D01*
X343040Y547702D01*
X340760Y549019D01*
X338217Y549700D01*
D02*
G37*
G36*
X414417Y524300D02*
X411783D01*
X409240Y523619D01*
X406960Y522302D01*
X405098Y520440D01*
X403782Y518160D01*
X403100Y515616D01*
Y512984D01*
X403782Y510440D01*
X405098Y508160D01*
X406960Y506298D01*
X409240Y504981D01*
X411783Y504300D01*
X414417D01*
X416960Y504981D01*
X419240Y506298D01*
X421102Y508160D01*
X422419Y510440D01*
X423100Y512984D01*
Y515616D01*
X422419Y518160D01*
X421102Y520440D01*
X419240Y522302D01*
X416960Y523619D01*
X414417Y524300D01*
D02*
G37*
G36*
X338217D02*
X335583D01*
X333040Y523619D01*
X330760Y522302D01*
X328898Y520440D01*
X327581Y518160D01*
X326900Y515616D01*
Y512984D01*
X327581Y510440D01*
X328898Y508160D01*
X330760Y506298D01*
X333040Y504981D01*
X335583Y504300D01*
X338217D01*
X340760Y504981D01*
X343040Y506298D01*
X344902Y508160D01*
X346218Y510440D01*
X346900Y512984D01*
Y515616D01*
X346218Y518160D01*
X344902Y520440D01*
X343040Y522302D01*
X340760Y523619D01*
X338217Y524300D01*
D02*
G37*
G36*
X694000Y504000D02*
X676000D01*
Y486000D01*
X694000D01*
Y504000D01*
D02*
G37*
G36*
X414417Y498900D02*
X411783D01*
X409240Y498218D01*
X406960Y496902D01*
X405098Y495040D01*
X403782Y492760D01*
X403100Y490216D01*
Y487584D01*
X403782Y485040D01*
X405098Y482760D01*
X406960Y480898D01*
X409240Y479581D01*
X411783Y478900D01*
X414417D01*
X416960Y479581D01*
X419240Y480898D01*
X421102Y482760D01*
X422419Y485040D01*
X423100Y487584D01*
Y490216D01*
X422419Y492760D01*
X421102Y495040D01*
X419240Y496902D01*
X416960Y498218D01*
X414417Y498900D01*
D02*
G37*
G36*
X338217D02*
X335583D01*
X333040Y498218D01*
X330760Y496902D01*
X328898Y495040D01*
X327581Y492760D01*
X326900Y490216D01*
Y487584D01*
X327581Y485040D01*
X328898Y482760D01*
X330760Y480898D01*
X333040Y479581D01*
X335583Y478900D01*
X338217D01*
X340760Y479581D01*
X343040Y480898D01*
X344902Y482760D01*
X346218Y485040D01*
X346900Y487584D01*
Y490216D01*
X346218Y492760D01*
X344902Y495040D01*
X343040Y496902D01*
X340760Y498218D01*
X338217Y498900D01*
D02*
G37*
G36*
X414417Y473500D02*
X411783D01*
X409240Y472818D01*
X406960Y471502D01*
X405098Y469640D01*
X403782Y467360D01*
X403100Y464817D01*
Y462183D01*
X403782Y459640D01*
X405098Y457360D01*
X406960Y455498D01*
X409240Y454182D01*
X411783Y453500D01*
X414417D01*
X416960Y454182D01*
X419240Y455498D01*
X421102Y457360D01*
X422419Y459640D01*
X423100Y462183D01*
Y464817D01*
X422419Y467360D01*
X421102Y469640D01*
X419240Y471502D01*
X416960Y472818D01*
X414417Y473500D01*
D02*
G37*
G36*
X338217D02*
X335583D01*
X333040Y472818D01*
X330760Y471502D01*
X328898Y469640D01*
X327581Y467360D01*
X326900Y464817D01*
Y462183D01*
X327581Y459640D01*
X328898Y457360D01*
X330760Y455498D01*
X333040Y454182D01*
X335583Y453500D01*
X338217D01*
X340760Y454182D01*
X343040Y455498D01*
X344902Y457360D01*
X346218Y459640D01*
X346900Y462183D01*
Y464817D01*
X346218Y467360D01*
X344902Y469640D01*
X343040Y471502D01*
X340760Y472818D01*
X338217Y473500D01*
D02*
G37*
G36*
X639640Y548730D02*
X629370D01*
Y538460D01*
X629619D01*
X632554Y539246D01*
X632800Y539388D01*
X655820Y516368D01*
Y438525D01*
X654449Y437734D01*
X652766Y436051D01*
X651576Y433989D01*
X650981Y431770D01*
X669019D01*
X668424Y433989D01*
X667234Y436051D01*
X665551Y437734D01*
X664180Y438525D01*
Y518100D01*
X663862Y519700D01*
X662956Y521056D01*
X638712Y545300D01*
X638853Y545546D01*
X639640Y548481D01*
Y548730D01*
D02*
G37*
G36*
X521270Y439019D02*
Y431270D01*
X529019D01*
X528424Y433489D01*
X527234Y435551D01*
X525551Y437234D01*
X523489Y438424D01*
X521270Y439019D01*
D02*
G37*
G36*
X518730D02*
X516511Y438424D01*
X514449Y437234D01*
X512766Y435551D01*
X511576Y433489D01*
X510981Y431270D01*
X518730D01*
Y439019D01*
D02*
G37*
G36*
X414417Y448100D02*
X411783D01*
X409240Y447419D01*
X406960Y446102D01*
X405098Y444240D01*
X403782Y441960D01*
X403100Y439417D01*
Y436783D01*
X403782Y434240D01*
X405098Y431960D01*
X406960Y430098D01*
X409240Y428782D01*
X411783Y428100D01*
X414417D01*
X416960Y428782D01*
X419240Y430098D01*
X421102Y431960D01*
X422419Y434240D01*
X423100Y436783D01*
Y439417D01*
X422419Y441960D01*
X421102Y444240D01*
X419240Y446102D01*
X416960Y447419D01*
X414417Y448100D01*
D02*
G37*
G36*
X338217D02*
X335583D01*
X333040Y447419D01*
X330760Y446102D01*
X328898Y444240D01*
X327581Y441960D01*
X326900Y439417D01*
Y436783D01*
X327581Y434240D01*
X328898Y431960D01*
X330760Y430098D01*
X333040Y428782D01*
X335583Y428100D01*
X338217D01*
X340760Y428782D01*
X343040Y430098D01*
X344902Y431960D01*
X346218Y434240D01*
X346900Y436783D01*
Y439417D01*
X346218Y441960D01*
X344902Y444240D01*
X343040Y446102D01*
X340760Y447419D01*
X338217Y448100D01*
D02*
G37*
G36*
X288750Y443750D02*
X271250D01*
Y426250D01*
X288750D01*
Y443750D01*
D02*
G37*
G36*
X148750D02*
X131250D01*
Y426250D01*
X148750D01*
Y443750D01*
D02*
G37*
G36*
X681185Y439500D02*
X678815D01*
X676526Y438887D01*
X674474Y437702D01*
X672798Y436026D01*
X671613Y433974D01*
X671000Y431685D01*
Y429315D01*
X671613Y427026D01*
X672798Y424974D01*
X674474Y423298D01*
X676526Y422113D01*
X678815Y421500D01*
X681185D01*
X683474Y422113D01*
X685526Y423298D01*
X687202Y424974D01*
X688387Y427026D01*
X689000Y429315D01*
Y431685D01*
X688387Y433974D01*
X687202Y436026D01*
X685526Y437702D01*
X683474Y438887D01*
X681185Y439500D01*
D02*
G37*
G36*
X649000D02*
X631000D01*
Y434578D01*
X600500D01*
X598939Y434268D01*
X597616Y433384D01*
X597616Y433384D01*
X554232Y390000D01*
X554005D01*
X552168Y389239D01*
X550761Y387832D01*
X550000Y385995D01*
Y384005D01*
X550761Y382168D01*
X552168Y380761D01*
X554005Y380000D01*
X555994D01*
X557832Y380761D01*
X559239Y382168D01*
X560000Y384005D01*
Y384232D01*
X602189Y426422D01*
X631000D01*
Y421500D01*
X649000D01*
Y439500D01*
D02*
G37*
G36*
X541185Y439000D02*
X538815D01*
X536526Y438387D01*
X534474Y437202D01*
X532798Y435526D01*
X531613Y433474D01*
X531000Y431185D01*
Y428815D01*
X531613Y426526D01*
X532798Y424474D01*
X534474Y422798D01*
X536526Y421613D01*
X538815Y421000D01*
X541185D01*
X543474Y421613D01*
X545526Y422798D01*
X547202Y424474D01*
X548387Y426526D01*
X549000Y428815D01*
Y431185D01*
X548387Y433474D01*
X547202Y435526D01*
X545526Y437202D01*
X543474Y438387D01*
X541185Y439000D01*
D02*
G37*
G36*
X414422Y422740D02*
X414370D01*
Y413970D01*
X423140D01*
Y414022D01*
X422456Y416575D01*
X421134Y418865D01*
X419265Y420734D01*
X416975Y422056D01*
X414422Y422740D01*
D02*
G37*
G36*
X338217Y422700D02*
X335583D01*
X333040Y422019D01*
X330760Y420702D01*
X328898Y418840D01*
X327581Y416560D01*
X326900Y414016D01*
Y411384D01*
X327581Y408840D01*
X328898Y406560D01*
X330760Y404698D01*
X333040Y403382D01*
X335583Y402700D01*
X338217D01*
X340760Y403382D01*
X343040Y404698D01*
X344902Y406560D01*
X346218Y408840D01*
X346900Y411384D01*
Y414016D01*
X346218Y416560D01*
X344902Y418840D01*
X343040Y420702D01*
X340760Y422019D01*
X338217Y422700D01*
D02*
G37*
G36*
X358850Y668250D02*
X342350D01*
Y651750D01*
X346522D01*
Y614400D01*
X346522Y614400D01*
X346832Y612839D01*
X347716Y611516D01*
X360922Y598311D01*
Y416689D01*
X354232Y410000D01*
X354005D01*
X352168Y409239D01*
X350761Y407832D01*
X350000Y405994D01*
Y404005D01*
X350761Y402168D01*
X352168Y400761D01*
X354005Y400000D01*
X355994D01*
X357832Y400761D01*
X359239Y402168D01*
X360000Y404005D01*
Y404232D01*
X367884Y412116D01*
X367884Y412116D01*
X368768Y413439D01*
X369078Y415000D01*
Y600000D01*
X369078Y600000D01*
X368768Y601561D01*
X367884Y602884D01*
X367884Y602884D01*
X354678Y616089D01*
Y651750D01*
X358850D01*
Y668250D01*
D02*
G37*
G36*
X235994Y505000D02*
X234005D01*
X232168Y504239D01*
X230761Y502832D01*
X230000Y500995D01*
Y499005D01*
X230761Y497168D01*
X230922Y497007D01*
Y411689D01*
X223311Y404078D01*
X175000D01*
X173439Y403768D01*
X172116Y402884D01*
X172116Y402884D01*
X157116Y387884D01*
X156232Y386561D01*
X155922Y385000D01*
X155922Y385000D01*
Y165000D01*
X155922Y165000D01*
X156232Y163439D01*
X157116Y162116D01*
X181250Y137982D01*
Y126250D01*
X198750D01*
Y143750D01*
X187018D01*
X164078Y166689D01*
Y383311D01*
X176689Y395922D01*
X225000D01*
X225000Y395922D01*
X226561Y396232D01*
X227884Y397116D01*
X237884Y407116D01*
X237884Y407116D01*
X238768Y408439D01*
X239078Y410000D01*
Y497007D01*
X239239Y497168D01*
X240000Y499005D01*
Y500995D01*
X239239Y502832D01*
X237832Y504239D01*
X235994Y505000D01*
D02*
G37*
G36*
X103540Y743230D02*
X86460D01*
Y735960D01*
X90820D01*
Y655000D01*
X91138Y653400D01*
X92044Y652044D01*
X110820Y633269D01*
Y571948D01*
X109756Y571334D01*
X108166Y569744D01*
X107042Y567796D01*
X106499Y565770D01*
X123501D01*
X123222Y566810D01*
X142232Y585820D01*
X192768D01*
X204415Y574173D01*
X203929Y573000D01*
X191500D01*
Y556000D01*
X195922D01*
Y531689D01*
X177116Y512884D01*
X176232Y511561D01*
X175922Y510000D01*
X175922Y510000D01*
Y442749D01*
X174627Y442002D01*
X172998Y440373D01*
X171846Y438377D01*
X171250Y436152D01*
Y433848D01*
X171846Y431623D01*
X172998Y429627D01*
X174627Y427998D01*
X176623Y426846D01*
X178848Y426250D01*
X181152D01*
X183377Y426846D01*
X185373Y427998D01*
X187002Y429627D01*
X188154Y431623D01*
X188750Y433848D01*
Y436152D01*
X188154Y438377D01*
X187002Y440373D01*
X185373Y442002D01*
X184078Y442749D01*
Y508311D01*
X202884Y527116D01*
X202884Y527116D01*
X203768Y528439D01*
X204078Y530000D01*
Y556000D01*
X208500D01*
Y568429D01*
X209673Y568915D01*
X211778Y566810D01*
X211499Y565770D01*
X220000D01*
Y564500D01*
X221270D01*
Y555999D01*
X223296Y556542D01*
X225244Y557666D01*
X226834Y559256D01*
X227448Y560320D01*
X293768D01*
X310820Y543269D01*
Y409200D01*
X311138Y407600D01*
X312044Y406244D01*
X327453Y390835D01*
X326860Y388622D01*
Y388570D01*
X335630D01*
Y397340D01*
X335578D01*
X333365Y396747D01*
X319180Y410932D01*
Y545000D01*
X318862Y546600D01*
X317956Y547956D01*
X298456Y567456D01*
X297100Y568362D01*
X295500Y568680D01*
X227448D01*
X226834Y569744D01*
X225244Y571334D01*
X224180Y571948D01*
Y635960D01*
X229040D01*
Y643730D01*
X220000D01*
X210960D01*
Y635960D01*
X215820D01*
Y576251D01*
X214646Y575765D01*
X197456Y592956D01*
X196100Y593862D01*
X194500Y594180D01*
X140500D01*
X138900Y593862D01*
X137544Y592956D01*
X120354Y575765D01*
X119180Y576251D01*
Y635000D01*
X118862Y636600D01*
X117956Y637956D01*
X99180Y656732D01*
Y735960D01*
X103540D01*
Y743230D01*
D02*
G37*
G36*
X335630Y386030D02*
X326860D01*
Y385978D01*
X327544Y383425D01*
X328866Y381135D01*
X330735Y379266D01*
X333025Y377944D01*
X335578Y377260D01*
X335630D01*
Y386030D01*
D02*
G37*
G36*
X241185Y344000D02*
X238815D01*
X236526Y343387D01*
X234474Y342202D01*
X232798Y340526D01*
X231613Y338474D01*
X231000Y336185D01*
Y333815D01*
X231613Y331526D01*
X232798Y329474D01*
X234474Y327798D01*
X236526Y326613D01*
X238815Y326000D01*
X241185D01*
X243474Y326613D01*
X245526Y327798D01*
X247202Y329474D01*
X248387Y331526D01*
X249000Y333815D01*
Y336185D01*
X248387Y338474D01*
X247202Y340526D01*
X245526Y342202D01*
X243474Y343387D01*
X241185Y344000D01*
D02*
G37*
G36*
X221185D02*
X218815D01*
X216526Y343387D01*
X214474Y342202D01*
X212798Y340526D01*
X211613Y338474D01*
X211000Y336185D01*
Y333815D01*
X211613Y331526D01*
X212798Y329474D01*
X214474Y327798D01*
X216526Y326613D01*
X218815Y326000D01*
X221185D01*
X223474Y326613D01*
X225526Y327798D01*
X227202Y329474D01*
X228387Y331526D01*
X229000Y333815D01*
Y336185D01*
X228387Y338474D01*
X227202Y340526D01*
X225526Y342202D01*
X223474Y343387D01*
X221185Y344000D01*
D02*
G37*
G36*
X209000D02*
X191000D01*
Y326000D01*
X209000D01*
Y344000D01*
D02*
G37*
G36*
X121185D02*
X118815D01*
X116526Y343387D01*
X114474Y342202D01*
X112798Y340526D01*
X111613Y338474D01*
X111000Y336185D01*
Y333815D01*
X111613Y331526D01*
X112798Y329474D01*
X114474Y327798D01*
X116526Y326613D01*
X118815Y326000D01*
X121185D01*
X123474Y326613D01*
X125526Y327798D01*
X127202Y329474D01*
X128387Y331526D01*
X129000Y333815D01*
Y336185D01*
X128387Y338474D01*
X127202Y340526D01*
X125526Y342202D01*
X123474Y343387D01*
X121185Y344000D01*
D02*
G37*
G36*
X101185D02*
X98815D01*
X96526Y343387D01*
X94474Y342202D01*
X92798Y340526D01*
X91613Y338474D01*
X91000Y336185D01*
Y333815D01*
X91613Y331526D01*
X92798Y329474D01*
X94474Y327798D01*
X96526Y326613D01*
X98815Y326000D01*
X101185D01*
X103474Y326613D01*
X105526Y327798D01*
X107202Y329474D01*
X108387Y331526D01*
X109000Y333815D01*
Y336185D01*
X108387Y338474D01*
X107202Y340526D01*
X105526Y342202D01*
X103474Y343387D01*
X101185Y344000D01*
D02*
G37*
G36*
X89000D02*
X71000D01*
Y326000D01*
X89000D01*
Y344000D01*
D02*
G37*
G36*
X529019Y333730D02*
X521270D01*
Y325981D01*
X523489Y326576D01*
X525551Y327766D01*
X527234Y329449D01*
X528424Y331511D01*
X529019Y333730D01*
D02*
G37*
G36*
X518730D02*
X510981D01*
X511576Y331511D01*
X512766Y329449D01*
X514449Y327766D01*
X516511Y326576D01*
X518730Y325981D01*
Y333730D01*
D02*
G37*
G36*
X626152Y243750D02*
X623848D01*
X621623Y243154D01*
X619627Y242002D01*
X617998Y240373D01*
X616846Y238377D01*
X616250Y236152D01*
Y233848D01*
X616846Y231623D01*
X617998Y229627D01*
X619627Y227998D01*
X621623Y226846D01*
X623848Y226250D01*
X626152D01*
X628377Y226846D01*
X630373Y227998D01*
X632002Y229627D01*
X633154Y231623D01*
X633750Y233848D01*
Y236152D01*
X633154Y238377D01*
X632002Y240373D01*
X630373Y242002D01*
X628377Y243154D01*
X626152Y243750D01*
D02*
G37*
G36*
X556152D02*
X553848D01*
X551623Y243154D01*
X549627Y242002D01*
X547998Y240373D01*
X546846Y238377D01*
X546250Y236152D01*
Y233848D01*
X546846Y231623D01*
X547998Y229627D01*
X549627Y227998D01*
X551623Y226846D01*
X553848Y226250D01*
X556152D01*
X558377Y226846D01*
X560373Y227998D01*
X562002Y229627D01*
X563154Y231623D01*
X563750Y233848D01*
Y236152D01*
X563154Y238377D01*
X562002Y240373D01*
X560373Y242002D01*
X558377Y243154D01*
X556152Y243750D01*
D02*
G37*
G36*
X414417Y270300D02*
X411783D01*
X409240Y269618D01*
X406960Y268302D01*
X405098Y266440D01*
X403782Y264160D01*
X403100Y261616D01*
Y258983D01*
X403782Y256440D01*
X405098Y254160D01*
X406960Y252298D01*
X409240Y250982D01*
X411783Y250300D01*
X414417D01*
X416960Y250982D01*
X419240Y252298D01*
X421102Y254160D01*
X422292Y256222D01*
X458011D01*
X476637Y237596D01*
X476250Y236152D01*
Y233848D01*
X476846Y231623D01*
X477998Y229627D01*
X479627Y227998D01*
X481623Y226846D01*
X483848Y226250D01*
X486152D01*
X488377Y226846D01*
X490373Y227998D01*
X492002Y229627D01*
X493154Y231623D01*
X493750Y233848D01*
Y236152D01*
X493154Y238377D01*
X492002Y240373D01*
X490373Y242002D01*
X488377Y243154D01*
X486152Y243750D01*
X483848D01*
X482404Y243363D01*
X462584Y263184D01*
X461261Y264068D01*
X459700Y264378D01*
X459700Y264378D01*
X422292D01*
X421102Y266440D01*
X419240Y268302D01*
X416960Y269618D01*
X414417Y270300D01*
D02*
G37*
G36*
X251152Y243750D02*
X248848D01*
X246623Y243154D01*
X244627Y242002D01*
X242998Y240373D01*
X241846Y238377D01*
X241250Y236152D01*
Y233848D01*
X241846Y231623D01*
X242998Y229627D01*
X244627Y227998D01*
X246623Y226846D01*
X248848Y226250D01*
X251152D01*
X253377Y226846D01*
X255373Y227998D01*
X257002Y229627D01*
X258154Y231623D01*
X258750Y233848D01*
Y236152D01*
X258154Y238377D01*
X257002Y240373D01*
X255373Y242002D01*
X253377Y243154D01*
X251152Y243750D01*
D02*
G37*
G36*
X191152D02*
X188848D01*
X186623Y243154D01*
X184627Y242002D01*
X182998Y240373D01*
X181846Y238377D01*
X181250Y236152D01*
Y233848D01*
X181846Y231623D01*
X182998Y229627D01*
X184627Y227998D01*
X186623Y226846D01*
X188848Y226250D01*
X191152D01*
X193377Y226846D01*
X195373Y227998D01*
X197002Y229627D01*
X198154Y231623D01*
X198750Y233848D01*
Y236152D01*
X198154Y238377D01*
X197002Y240373D01*
X195373Y242002D01*
X193377Y243154D01*
X191152Y243750D01*
D02*
G37*
G36*
X131152D02*
X128848D01*
X126623Y243154D01*
X124627Y242002D01*
X122998Y240373D01*
X121846Y238377D01*
X121250Y236152D01*
Y233848D01*
X121846Y231623D01*
X122998Y229627D01*
X124627Y227998D01*
X126623Y226846D01*
X128848Y226250D01*
X131152D01*
X133377Y226846D01*
X135373Y227998D01*
X137002Y229627D01*
X138154Y231623D01*
X138750Y233848D01*
Y236152D01*
X138154Y238377D01*
X137002Y240373D01*
X135373Y242002D01*
X133377Y243154D01*
X131152Y243750D01*
D02*
G37*
G36*
X71152D02*
X68848D01*
X66623Y243154D01*
X64627Y242002D01*
X62998Y240373D01*
X61846Y238377D01*
X61250Y236152D01*
Y233848D01*
X61846Y231623D01*
X62998Y229627D01*
X64627Y227998D01*
X66623Y226846D01*
X68848Y226250D01*
X71152D01*
X73377Y226846D01*
X75373Y227998D01*
X77002Y229627D01*
X78154Y231623D01*
X78750Y233848D01*
Y236152D01*
X78154Y238377D01*
X77002Y240373D01*
X75373Y242002D01*
X73377Y243154D01*
X71152Y243750D01*
D02*
G37*
G36*
X475995Y195000D02*
X474005D01*
X472168Y194239D01*
X472007Y194078D01*
X427993D01*
X427832Y194239D01*
X425995Y195000D01*
X424005D01*
X422168Y194239D01*
X420761Y192832D01*
X420000Y190994D01*
Y189005D01*
X420761Y187168D01*
X422168Y185761D01*
X424005Y185000D01*
X425995D01*
X427832Y185761D01*
X427993Y185922D01*
X472007D01*
X472168Y185761D01*
X474005Y185000D01*
X475995D01*
X477832Y185761D01*
X479239Y187168D01*
X480000Y189005D01*
Y190994D01*
X479239Y192832D01*
X477832Y194239D01*
X475995Y195000D01*
D02*
G37*
G36*
X396289Y134790D02*
X396270D01*
Y126270D01*
X404790D01*
Y126289D01*
X404123Y128779D01*
X402834Y131011D01*
X401011Y132834D01*
X398779Y134123D01*
X396289Y134790D01*
D02*
G37*
G36*
X393730D02*
X393711D01*
X391221Y134123D01*
X388989Y132834D01*
X387166Y131011D01*
X385877Y128779D01*
X385210Y126289D01*
Y126270D01*
X393730D01*
Y134790D01*
D02*
G37*
G36*
X633750Y143750D02*
X616250D01*
Y126250D01*
X633750D01*
Y143750D01*
D02*
G37*
G36*
X563750D02*
X546250D01*
Y126250D01*
X563750D01*
Y143750D01*
D02*
G37*
G36*
X493750D02*
X476250D01*
Y126250D01*
X493750D01*
Y143750D01*
D02*
G37*
G36*
X78750D02*
X61250D01*
Y126250D01*
X78750D01*
Y143750D01*
D02*
G37*
G36*
X300994Y435000D02*
X299005D01*
X297168Y434239D01*
X295761Y432832D01*
X295000Y430994D01*
Y429005D01*
X295761Y427168D01*
X295922Y427007D01*
Y145000D01*
X295922Y145000D01*
X296232Y143439D01*
X297116Y142116D01*
X317116Y122116D01*
X317116Y122116D01*
X318439Y121232D01*
X320000Y120922D01*
X320000Y120922D01*
X335250D01*
Y115250D01*
X354750D01*
Y134750D01*
X335250D01*
Y129078D01*
X321689D01*
X304078Y146689D01*
Y427007D01*
X304239Y427168D01*
X305000Y429005D01*
Y430994D01*
X304239Y432832D01*
X302832Y434239D01*
X300994Y435000D01*
D02*
G37*
G36*
X258750Y143750D02*
X241250D01*
Y126250D01*
X245922D01*
Y106689D01*
X228311Y89078D01*
X151689D01*
X134078Y106689D01*
Y126250D01*
X138750D01*
Y143750D01*
X121250D01*
Y126250D01*
X125922D01*
Y105000D01*
X125922Y105000D01*
X126232Y103439D01*
X127116Y102116D01*
X147116Y82116D01*
X147116Y82116D01*
X148439Y81232D01*
X150000Y80922D01*
X150000Y80922D01*
X230000D01*
X230000Y80922D01*
X231561Y81232D01*
X232884Y82116D01*
X252884Y102116D01*
X252884Y102116D01*
X253768Y103439D01*
X254078Y105000D01*
Y126250D01*
X258750D01*
Y143750D01*
D02*
G37*
G36*
X669019Y333730D02*
X650981D01*
X651576Y331511D01*
X652766Y329449D01*
X654449Y327766D01*
X655820Y326975D01*
Y126332D01*
X618482Y88994D01*
X616670Y89479D01*
Y81270D01*
X624879D01*
X624394Y83082D01*
X662956Y121644D01*
X663862Y123000D01*
X664180Y124600D01*
Y326975D01*
X665551Y327766D01*
X667234Y329449D01*
X668424Y331511D01*
X669019Y333730D01*
D02*
G37*
G36*
X614130Y89479D02*
X611739Y88839D01*
X609576Y87590D01*
X607810Y85824D01*
X606561Y83661D01*
X605921Y81270D01*
X614130D01*
Y89479D01*
D02*
G37*
G36*
X591243Y89445D02*
X588756D01*
X586354Y88801D01*
X584201Y87558D01*
X582442Y85799D01*
X581199Y83646D01*
X580555Y81243D01*
Y78756D01*
X581199Y76354D01*
X582442Y74201D01*
X584201Y72442D01*
X586354Y71199D01*
X588756Y70555D01*
X591243D01*
X593646Y71199D01*
X595799Y72442D01*
X597558Y74201D01*
X598801Y76354D01*
X599445Y78756D01*
Y81243D01*
X598801Y83646D01*
X597558Y85799D01*
X595799Y87558D01*
X593646Y88801D01*
X591243Y89445D01*
D02*
G37*
G36*
X414417Y244900D02*
X411783D01*
X409240Y244219D01*
X406960Y242902D01*
X405098Y241040D01*
X403782Y238760D01*
X403100Y236217D01*
Y233584D01*
X403782Y231040D01*
X405098Y228760D01*
X406960Y226898D01*
X409022Y225708D01*
Y141900D01*
X409022Y141900D01*
X409332Y140339D01*
X410216Y139016D01*
X472116Y77116D01*
X472116Y77116D01*
X473439Y76232D01*
X475000Y75922D01*
X555155D01*
Y70555D01*
X574045D01*
Y89445D01*
X555155D01*
Y84078D01*
X476689D01*
X417178Y143589D01*
Y225708D01*
X419240Y226898D01*
X421102Y228760D01*
X422419Y231040D01*
X423100Y233584D01*
Y236217D01*
X422419Y238760D01*
X421102Y241040D01*
X419240Y242902D01*
X416960Y244219D01*
X414417Y244900D01*
D02*
G37*
G36*
X624879Y78730D02*
X616670D01*
Y70521D01*
X619061Y71161D01*
X621224Y72410D01*
X622990Y74176D01*
X624239Y76339D01*
X624879Y78730D01*
D02*
G37*
%LPD*%
D17*
X685000Y595000D02*
D03*
X660000Y335000D02*
D03*
X680000D02*
D03*
X520000D02*
D03*
X540000D02*
D03*
X660000Y430500D02*
D03*
X680000D02*
D03*
X520000Y430000D02*
D03*
X540000D02*
D03*
X100000Y335000D02*
D03*
X120000D02*
D03*
X220000D02*
D03*
X240000D02*
D03*
X530000Y745000D02*
D03*
X220000D02*
D03*
D18*
X685000Y495000D02*
D03*
X530000Y645000D02*
D03*
X220000D02*
D03*
D19*
X399400Y660000D02*
D03*
D20*
X350600D02*
D03*
D25*
X485000Y135000D02*
D03*
X555000D02*
D03*
X625000D02*
D03*
X695000D02*
D03*
X250000D02*
D03*
X190000D02*
D03*
X130000D02*
D03*
X70000D02*
D03*
D26*
X485000Y235000D02*
D03*
X555000D02*
D03*
X625000D02*
D03*
X695000D02*
D03*
X250000D02*
D03*
X190000D02*
D03*
X130000D02*
D03*
X70000D02*
D03*
X425000Y750000D02*
D03*
X180000Y435000D02*
D03*
X40000D02*
D03*
D27*
X564600Y80000D02*
D03*
D28*
X590000D02*
D03*
X615400D02*
D03*
D33*
X325000Y750000D02*
D03*
X280000Y435000D02*
D03*
X140000D02*
D03*
D34*
X345000Y125000D02*
D03*
D35*
X395000D02*
D03*
D38*
X610000Y645000D02*
X670000D01*
X685000Y630000D01*
Y595000D02*
Y630000D01*
X95000Y655000D02*
X115000Y635000D01*
Y564500D02*
X140500Y590000D01*
X115000Y564500D02*
Y635000D01*
X315000Y409200D02*
Y545000D01*
Y409200D02*
X336900Y387300D01*
X295500Y564500D02*
X315000Y545000D01*
X95000Y655000D02*
Y744500D01*
X530000Y645000D02*
X610000D01*
X628100Y550000D02*
Y626900D01*
X610000Y645000D02*
X628100Y626900D01*
Y550000D02*
X660000Y518100D01*
X520000Y335000D02*
Y430000D01*
Y335000D02*
X520000Y335000D01*
X545000Y360000D01*
X635000D01*
X660000Y335000D01*
X387700Y412700D02*
X413100D01*
X362300Y387300D02*
X387700Y412700D01*
X336900Y387300D02*
X362300D01*
X140500Y590000D02*
X194500D01*
X220000Y564500D01*
X660000Y124600D02*
Y335000D01*
X615400Y80000D02*
X660000Y124600D01*
X220000Y564500D02*
X295500D01*
X220000D02*
Y645000D01*
X660000Y430500D02*
Y518100D01*
Y335000D02*
Y430500D01*
X395000Y80000D02*
X420000Y55000D01*
X395000Y80000D02*
Y125000D01*
X420000Y55000D02*
X590400D01*
X615400Y80000D01*
D39*
X350600Y614400D02*
Y660000D01*
X399400Y614400D02*
Y660000D01*
X300000Y145000D02*
X320000Y125000D01*
X300000Y145000D02*
Y430000D01*
X320000Y125000D02*
X345000D01*
X413100Y141900D02*
Y234900D01*
X475000Y80000D02*
X564600D01*
X413100Y141900D02*
X475000Y80000D01*
X59500Y564500D02*
X95000D01*
X40000Y435000D02*
Y545000D01*
X59500Y564500D01*
X300000Y635000D02*
X336900Y598100D01*
X300000Y725000D02*
X325000Y750000D01*
X300000Y635000D02*
Y725000D01*
X336900Y565100D02*
Y598100D01*
X385000Y420000D02*
Y600000D01*
X399400Y614400D01*
X350600D02*
X365000Y600000D01*
Y415000D02*
Y600000D01*
X530000Y695000D02*
Y745000D01*
X495000Y660000D02*
X530000Y695000D01*
X399400Y660000D02*
X495000D01*
X339196Y344196D02*
X399919Y404919D01*
X339196Y338796D02*
Y344196D01*
X336900Y336500D02*
X339196Y338796D01*
X400000Y385000D02*
Y390463D01*
X409537Y400000D01*
X360000Y345000D02*
X400000Y385000D01*
X427300Y400000D02*
X577300Y550000D01*
X409537Y400000D02*
X427300D01*
X360000Y334200D02*
Y345000D01*
X555000Y385000D02*
X600500Y430500D01*
X640000D01*
X500000Y385000D02*
X510000D01*
X440000Y325000D02*
X500000Y385000D01*
X410737Y325000D02*
X440000D01*
X400000Y314263D02*
X410737Y325000D01*
X400000Y298000D02*
Y314263D01*
X336900Y234900D02*
X400000Y298000D01*
X344085Y264085D02*
X385000Y305000D01*
Y324663D01*
X410737Y350400D01*
X370000Y335063D02*
X410737Y375800D01*
X370000Y318800D02*
Y335063D01*
X336900Y285700D02*
X370000Y318800D01*
X336900Y311100D02*
X360000Y334200D01*
X410737Y350400D02*
X420400D01*
X336900Y260300D02*
X340147D01*
X343932Y264085D01*
X344085D01*
X420400Y350400D02*
X500000Y430000D01*
X451100Y311100D02*
X510000Y370000D01*
X413100Y311100D02*
X451100D01*
X410737Y375800D02*
X427143D01*
X601343Y550000D01*
X602700D01*
X355000Y405000D02*
X365000Y415000D01*
X230000Y85000D02*
X250000Y105000D01*
Y135000D01*
X150000Y85000D02*
X230000D01*
X130000Y105000D02*
X150000Y85000D01*
X130000Y105000D02*
Y135000D01*
X225000Y400000D02*
X235000Y410000D01*
Y500000D01*
X160000Y385000D02*
X175000Y400000D01*
X225000D01*
X160000Y165000D02*
Y385000D01*
Y165000D02*
X190000Y135000D01*
X180000Y435000D02*
Y510000D01*
X200000Y530000D02*
Y564500D01*
X180000Y510000D02*
X200000Y530000D01*
X710000Y190000D02*
Y320000D01*
X695000Y335000D02*
X710000Y320000D01*
X680000Y335000D02*
X695000D01*
X425000Y190000D02*
X475000D01*
X540000Y305000D02*
Y335000D01*
X520700Y285700D02*
X540000Y305000D01*
X413100Y285700D02*
X520700D01*
X413100Y260300D02*
X459700D01*
X485000Y235000D01*
D40*
X95000Y564500D02*
D03*
Y744500D02*
D03*
X200000Y564500D02*
D03*
D41*
X115000D02*
D03*
Y744500D02*
D03*
X220000Y564500D02*
D03*
D42*
X640000Y335000D02*
D03*
X500000D02*
D03*
X640000Y430500D02*
D03*
X500000Y430000D02*
D03*
X80000Y335000D02*
D03*
X200000D02*
D03*
D43*
X336900Y565100D02*
D03*
D44*
Y539700D02*
D03*
Y514300D02*
D03*
Y488900D02*
D03*
Y463500D02*
D03*
Y438100D02*
D03*
Y412700D02*
D03*
Y387300D02*
D03*
Y361900D02*
D03*
Y336500D02*
D03*
Y311100D02*
D03*
Y285700D02*
D03*
Y260300D02*
D03*
Y234900D02*
D03*
X413100Y565100D02*
D03*
Y539700D02*
D03*
Y514300D02*
D03*
Y488900D02*
D03*
Y463500D02*
D03*
Y438100D02*
D03*
Y412700D02*
D03*
Y387300D02*
D03*
Y361900D02*
D03*
Y336500D02*
D03*
Y311100D02*
D03*
Y285700D02*
D03*
Y260300D02*
D03*
Y234900D02*
D03*
D45*
X551900Y550000D02*
D03*
D46*
X577300D02*
D03*
X602700D02*
D03*
X628100D02*
D03*
D47*
X720000Y30000D02*
D03*
X30000D02*
D03*
X720000Y820000D02*
D03*
X30000D02*
D03*
D48*
X555000Y385000D02*
D03*
X510000D02*
D03*
X400000Y405000D02*
D03*
X510000Y370000D02*
D03*
X355000Y405000D02*
D03*
X385000Y420000D02*
D03*
X235000Y500000D02*
D03*
X300000Y430000D02*
D03*
X425000Y190000D02*
D03*
X475000D02*
D03*
X710000D02*
D03*
M02*
