M48
;Layer_Color=9474304
;FILE_FORMAT=4:4
METRIC,LZ
;TYPE=PLATED
T1F00S00C0.4000
T2F00S00C0.6500
T3F00S00C0.7000
T4F00S00C0.7500
T5F00S00C0.8000
T6F00S00C0.8890
T7F00S00C0.9000
T8F00S00C0.9500
T9F00S00C1.2700
T10F00S00C3.2000
%
T01
X00425Y0019
X00475
X0051Y0037
Y00385
X00555
X0071Y0019
X004Y00405
X00355
X00385Y0042
X003Y0043
X00235Y005
T02
X003506Y0066
X003994
T03
X00095Y005645
X00115
X002
X0022
X00115Y007445
X00095
T04
X00485Y00135
X00555
X00625
X00695
Y00235
X00625
X00555
X00485
X0025
X0019
X0013
X0007
Y00135
X0013
X0019
X0025
X0028Y00435
X0018
X0014
X0004
X00325Y0075
X00425
T05
X005Y00335
X0052
X0054
X0064
X0066
X0068
X0024
X0022
X002
X0012
X001
X0008
X0022Y00645
Y00745
X0053
Y00645
X00685Y00595
Y00495
X0068Y004305
X0066
X0064
X0054Y0043
X0052
X005
T06
X005646Y0008
X0059
X006154
T07
X003369Y002349
Y002603
Y002857
Y003111
Y003365
Y003619
Y003873
Y004127
X004131
Y003873
Y003619
Y003365
Y003111
Y002857
Y002603
Y002349
Y004381
Y004635
Y004889
Y005143
Y005397
Y005651
X003369
Y005397
Y005143
Y004889
Y004635
Y004381
T08
X00345Y00125
X00395
T09
X005519Y0055
X005773
X006027
X006281
T10
X0072Y0003
X0003
X0072Y0082
X0003
M30
