G04*
G04 #@! TF.GenerationSoftware,Altium Limited,Altium Designer,23.3.1 (30)*
G04*
G04 Layer_Color=16711935*
%FSLAX44Y44*%
%MOMM*%
G71*
G04*
G04 #@! TF.SameCoordinates,9B24EA63-C825-4E2D-BC30-5D40CB4EF2F0*
G04*
G04*
G04 #@! TF.FilePolarity,Positive*
G04*
G01*
G75*
%ADD10C,0.2000*%
G36*
X683142Y555568D02*
X683216Y555558D01*
X683299Y555540D01*
X683391Y555521D01*
X683493Y555503D01*
X683715Y555429D01*
X683835Y555373D01*
X683946Y555318D01*
X684066Y555244D01*
X684186Y555161D01*
X684307Y555068D01*
X684418Y554957D01*
X684427Y554948D01*
X684445Y554930D01*
X684473Y554893D01*
X684510Y554846D01*
X684556Y554791D01*
X684603Y554717D01*
X684658Y554634D01*
X684704Y554532D01*
X684760Y554430D01*
X684815Y554310D01*
X684861Y554190D01*
X684908Y554051D01*
X684945Y553903D01*
X684972Y553746D01*
X684991Y553589D01*
X685000Y553413D01*
Y553330D01*
X684991Y553275D01*
X684982Y553201D01*
X684972Y553117D01*
X684954Y553025D01*
X684935Y552923D01*
X684880Y552701D01*
X684788Y552470D01*
X684732Y552350D01*
X684667Y552239D01*
X684584Y552128D01*
X684501Y552017D01*
X684492Y552008D01*
X684473Y551990D01*
X684445Y551962D01*
X684408Y551934D01*
X684362Y551888D01*
X684297Y551842D01*
X684233Y551786D01*
X684149Y551731D01*
X684057Y551675D01*
X683965Y551620D01*
X683743Y551518D01*
X683484Y551435D01*
X683345Y551407D01*
X683197Y551389D01*
X683095Y552174D01*
X683105D01*
X683123Y552184D01*
X683160Y552193D01*
X683206Y552202D01*
X683262Y552211D01*
X683327Y552230D01*
X683465Y552276D01*
X683632Y552341D01*
X683789Y552424D01*
X683937Y552517D01*
X684066Y552627D01*
X684075Y552646D01*
X684112Y552683D01*
X684159Y552757D01*
X684205Y552849D01*
X684260Y552960D01*
X684307Y553099D01*
X684344Y553256D01*
X684353Y553423D01*
Y553478D01*
X684344Y553515D01*
X684334Y553617D01*
X684307Y553746D01*
X684260Y553894D01*
X684196Y554051D01*
X684103Y554208D01*
X683974Y554356D01*
X683955Y554375D01*
X683900Y554421D01*
X683817Y554477D01*
X683706Y554551D01*
X683567Y554624D01*
X683410Y554680D01*
X683225Y554726D01*
X683021Y554745D01*
X683012D01*
X682994D01*
X682966D01*
X682929Y554735D01*
X682827Y554726D01*
X682707Y554698D01*
X682559Y554661D01*
X682411Y554597D01*
X682263Y554504D01*
X682125Y554384D01*
X682106Y554366D01*
X682069Y554319D01*
X682014Y554245D01*
X681949Y554144D01*
X681884Y554014D01*
X681829Y553857D01*
X681792Y553681D01*
X681773Y553487D01*
Y553404D01*
X681783Y553339D01*
X681792Y553256D01*
X681810Y553164D01*
X681829Y553053D01*
X681857Y552933D01*
X681163Y553025D01*
Y553071D01*
X681172Y553108D01*
Y553228D01*
X681154Y553330D01*
X681135Y553450D01*
X681108Y553589D01*
X681061Y553746D01*
X680997Y553894D01*
X680913Y554051D01*
Y554061D01*
X680904Y554070D01*
X680867Y554116D01*
X680803Y554181D01*
X680719Y554255D01*
X680599Y554329D01*
X680461Y554393D01*
X680303Y554440D01*
X680211Y554458D01*
X680109D01*
X680100D01*
X680091D01*
X680035D01*
X679961Y554440D01*
X679859Y554421D01*
X679749Y554384D01*
X679628Y554338D01*
X679508Y554264D01*
X679397Y554162D01*
X679388Y554153D01*
X679351Y554107D01*
X679305Y554042D01*
X679249Y553959D01*
X679203Y553848D01*
X679157Y553718D01*
X679120Y553571D01*
X679111Y553404D01*
Y553330D01*
X679129Y553247D01*
X679148Y553136D01*
X679185Y553016D01*
X679231Y552896D01*
X679305Y552766D01*
X679397Y552646D01*
X679407Y552637D01*
X679453Y552600D01*
X679518Y552544D01*
X679610Y552480D01*
X679730Y552415D01*
X679878Y552350D01*
X680054Y552295D01*
X680257Y552258D01*
X680118Y551472D01*
X680109D01*
X680081Y551481D01*
X680044Y551490D01*
X679989Y551499D01*
X679924Y551518D01*
X679850Y551546D01*
X679675Y551601D01*
X679471Y551694D01*
X679268Y551805D01*
X679074Y551943D01*
X678898Y552119D01*
X678889Y552128D01*
X678879Y552147D01*
X678861Y552174D01*
X678833Y552211D01*
X678796Y552258D01*
X678759Y552322D01*
X678722Y552387D01*
X678676Y552470D01*
X678602Y552655D01*
X678528Y552868D01*
X678482Y553117D01*
X678464Y553247D01*
Y553478D01*
X678473Y553580D01*
X678491Y553700D01*
X678519Y553848D01*
X678565Y554014D01*
X678621Y554181D01*
X678695Y554347D01*
Y554356D01*
X678704Y554366D01*
X678732Y554421D01*
X678787Y554504D01*
X678852Y554597D01*
X678944Y554708D01*
X679046Y554819D01*
X679166Y554930D01*
X679305Y555022D01*
X679323Y555031D01*
X679370Y555059D01*
X679453Y555096D01*
X679554Y555142D01*
X679675Y555188D01*
X679813Y555225D01*
X679970Y555253D01*
X680128Y555262D01*
X680146D01*
X680202D01*
X680276Y555253D01*
X680377Y555235D01*
X680498Y555207D01*
X680627Y555161D01*
X680756Y555105D01*
X680886Y555031D01*
X680904Y555022D01*
X680941Y554994D01*
X681006Y554939D01*
X681080Y554865D01*
X681163Y554772D01*
X681256Y554661D01*
X681339Y554532D01*
X681422Y554375D01*
Y554384D01*
X681431Y554403D01*
X681441Y554430D01*
X681450Y554467D01*
X681487Y554569D01*
X681542Y554698D01*
X681616Y554846D01*
X681709Y554994D01*
X681829Y555133D01*
X681967Y555262D01*
X681986Y555272D01*
X682041Y555309D01*
X682134Y555364D01*
X682254Y555420D01*
X682402Y555475D01*
X682578Y555531D01*
X682781Y555568D01*
X683003Y555577D01*
X683012D01*
X683040D01*
X683086D01*
X683142Y555568D01*
D02*
G37*
G36*
X682911Y550649D02*
X682966Y550630D01*
X683040Y550603D01*
X683123Y550575D01*
X683225Y550538D01*
X683336Y550492D01*
X683456Y550436D01*
X683715Y550307D01*
X683974Y550140D01*
X684103Y550039D01*
X684233Y549937D01*
X684344Y549826D01*
X684455Y549697D01*
X684464Y549687D01*
X684482Y549669D01*
X684501Y549623D01*
X684538Y549576D01*
X684584Y549502D01*
X684630Y549428D01*
X684677Y549327D01*
X684723Y549225D01*
X684778Y549105D01*
X684824Y548975D01*
X684871Y548837D01*
X684917Y548689D01*
X684954Y548532D01*
X684972Y548365D01*
X684991Y548190D01*
X685000Y548005D01*
Y547903D01*
X684991Y547829D01*
Y547746D01*
X684982Y547644D01*
X684963Y547533D01*
X684945Y547404D01*
X684898Y547136D01*
X684824Y546858D01*
X684723Y546581D01*
X684658Y546451D01*
X684584Y546322D01*
X684575Y546313D01*
X684566Y546294D01*
X684538Y546257D01*
X684501Y546220D01*
X684464Y546165D01*
X684408Y546100D01*
X684344Y546026D01*
X684270Y545952D01*
X684186Y545878D01*
X684103Y545795D01*
X683891Y545629D01*
X683641Y545471D01*
X683364Y545333D01*
X683354D01*
X683327Y545314D01*
X683280Y545305D01*
X683225Y545277D01*
X683151Y545259D01*
X683058Y545231D01*
X682957Y545194D01*
X682846Y545166D01*
X682726Y545139D01*
X682587Y545102D01*
X682300Y545055D01*
X681977Y545018D01*
X681644Y545000D01*
X681635D01*
X681598D01*
X681542D01*
X681478Y545009D01*
X681385D01*
X681293Y545018D01*
X681172Y545028D01*
X681052Y545046D01*
X680784Y545092D01*
X680488Y545157D01*
X680192Y545249D01*
X679906Y545379D01*
X679896Y545388D01*
X679869Y545397D01*
X679832Y545416D01*
X679786Y545453D01*
X679721Y545490D01*
X679647Y545536D01*
X679481Y545656D01*
X679296Y545813D01*
X679111Y545998D01*
X678926Y546211D01*
X678769Y546461D01*
X678759Y546470D01*
X678750Y546498D01*
X678732Y546535D01*
X678704Y546581D01*
X678676Y546655D01*
X678648Y546729D01*
X678611Y546821D01*
X678574Y546923D01*
X678537Y547034D01*
X678500Y547154D01*
X678445Y547413D01*
X678399Y547709D01*
X678380Y548014D01*
Y548106D01*
X678390Y548171D01*
X678399Y548254D01*
X678408Y548356D01*
X678417Y548458D01*
X678445Y548578D01*
X678500Y548828D01*
X678584Y549105D01*
X678639Y549244D01*
X678704Y549373D01*
X678787Y549502D01*
X678870Y549632D01*
X678879Y549641D01*
X678889Y549660D01*
X678916Y549697D01*
X678963Y549743D01*
X679009Y549789D01*
X679074Y549854D01*
X679148Y549919D01*
X679222Y549992D01*
X679314Y550066D01*
X679425Y550140D01*
X679536Y550224D01*
X679656Y550298D01*
X679795Y550362D01*
X679933Y550436D01*
X680081Y550492D01*
X680248Y550547D01*
X680442Y549715D01*
X680433D01*
X680414Y549706D01*
X680377Y549687D01*
X680331Y549669D01*
X680276Y549650D01*
X680202Y549623D01*
X680054Y549549D01*
X679887Y549456D01*
X679721Y549345D01*
X679564Y549207D01*
X679425Y549059D01*
X679407Y549040D01*
X679370Y548985D01*
X679323Y548892D01*
X679259Y548772D01*
X679203Y548615D01*
X679148Y548439D01*
X679111Y548227D01*
X679101Y547995D01*
Y547921D01*
X679111Y547875D01*
Y547811D01*
X679120Y547737D01*
X679148Y547561D01*
X679185Y547367D01*
X679249Y547163D01*
X679342Y546951D01*
X679462Y546757D01*
Y546747D01*
X679481Y546738D01*
X679527Y546673D01*
X679601Y546590D01*
X679712Y546488D01*
X679850Y546368D01*
X680007Y546257D01*
X680202Y546156D01*
X680414Y546063D01*
X680424D01*
X680442Y546054D01*
X680470Y546045D01*
X680516Y546035D01*
X680572Y546017D01*
X680636Y545998D01*
X680793Y545971D01*
X680978Y545934D01*
X681182Y545897D01*
X681404Y545878D01*
X681644Y545869D01*
X681653D01*
X681681D01*
X681727D01*
X681783D01*
X681847Y545878D01*
X681931D01*
X682023Y545887D01*
X682125Y545897D01*
X682347Y545924D01*
X682587Y545971D01*
X682827Y546026D01*
X683068Y546100D01*
X683077D01*
X683095Y546109D01*
X683123Y546128D01*
X683169Y546146D01*
X683280Y546202D01*
X683410Y546285D01*
X683558Y546387D01*
X683715Y546516D01*
X683854Y546664D01*
X683983Y546840D01*
Y546849D01*
X683992Y546867D01*
X684011Y546895D01*
X684029Y546932D01*
X684048Y546978D01*
X684075Y547034D01*
X684131Y547163D01*
X684186Y547330D01*
X684233Y547515D01*
X684270Y547718D01*
X684279Y547931D01*
Y547995D01*
X684270Y548051D01*
Y548116D01*
X684260Y548180D01*
X684223Y548347D01*
X684177Y548541D01*
X684103Y548735D01*
X684002Y548938D01*
X683946Y549040D01*
X683872Y549133D01*
X683863Y549142D01*
X683854Y549151D01*
X683826Y549179D01*
X683798Y549216D01*
X683752Y549253D01*
X683697Y549299D01*
X683641Y549355D01*
X683567Y549401D01*
X683484Y549456D01*
X683391Y549521D01*
X683299Y549576D01*
X683188Y549632D01*
X683068Y549678D01*
X682938Y549724D01*
X682800Y549771D01*
X682652Y549808D01*
X682864Y550658D01*
X682874D01*
X682911Y550649D01*
D02*
G37*
G36*
X378319Y662709D02*
Y660000D01*
X377468D01*
Y662709D01*
X375000Y666398D01*
X376026D01*
X377284Y664456D01*
Y664447D01*
X377302Y664428D01*
X377321Y664401D01*
X377339Y664364D01*
X377376Y664317D01*
X377413Y664262D01*
X377496Y664123D01*
X377598Y663957D01*
X377709Y663772D01*
X377829Y663578D01*
X377940Y663374D01*
Y663384D01*
X377949Y663402D01*
X377968Y663430D01*
X377995Y663467D01*
X378023Y663513D01*
X378060Y663569D01*
X378143Y663707D01*
X378245Y663874D01*
X378365Y664068D01*
X378504Y664281D01*
X378652Y664512D01*
X379882Y666398D01*
X380871D01*
X378319Y662709D01*
D02*
G37*
G36*
X384273Y660000D02*
X383487D01*
Y665002D01*
X383478Y664993D01*
X383432Y664956D01*
X383376Y664900D01*
X383284Y664835D01*
X383182Y664752D01*
X383053Y664660D01*
X382905Y664558D01*
X382738Y664456D01*
X382729D01*
X382720Y664447D01*
X382664Y664410D01*
X382572Y664364D01*
X382461Y664308D01*
X382332Y664244D01*
X382193Y664179D01*
X382054Y664114D01*
X381916Y664059D01*
Y664817D01*
X381925D01*
X381943Y664835D01*
X381980Y664845D01*
X382026Y664872D01*
X382082Y664900D01*
X382147Y664937D01*
X382304Y665030D01*
X382489Y665131D01*
X382674Y665261D01*
X382868Y665408D01*
X383062Y665566D01*
X383071Y665575D01*
X383080Y665584D01*
X383108Y665612D01*
X383145Y665640D01*
X383228Y665732D01*
X383339Y665843D01*
X383450Y665973D01*
X383571Y666120D01*
X383672Y666268D01*
X383765Y666425D01*
X384273D01*
Y660000D01*
D02*
G37*
G36*
X479314Y195309D02*
X479333Y195290D01*
X479370Y195253D01*
X479425Y195216D01*
X479490Y195161D01*
X479564Y195087D01*
X479656Y195013D01*
X479767Y194930D01*
X479878Y194846D01*
X480007Y194745D01*
X480155Y194643D01*
X480303Y194541D01*
X480470Y194430D01*
X480645Y194319D01*
X480840Y194209D01*
X481034Y194097D01*
X481043Y194088D01*
X481080Y194070D01*
X481135Y194042D01*
X481219Y193996D01*
X481320Y193950D01*
X481431Y193894D01*
X481561Y193829D01*
X481709Y193765D01*
X481875Y193691D01*
X482042Y193608D01*
X482226Y193533D01*
X482421Y193460D01*
X482818Y193312D01*
X483243Y193173D01*
X483253D01*
X483280Y193164D01*
X483327Y193155D01*
X483382Y193136D01*
X483456Y193118D01*
X483549Y193099D01*
X483650Y193071D01*
X483761Y193053D01*
X483891Y193025D01*
X484029Y192997D01*
X484325Y192951D01*
X484649Y192905D01*
X485000Y192877D01*
Y192073D01*
X484991D01*
X484963D01*
X484926D01*
X484871Y192082D01*
X484797D01*
X484704Y192091D01*
X484603Y192101D01*
X484492Y192110D01*
X484362Y192128D01*
X484233Y192147D01*
X484076Y192174D01*
X483918Y192202D01*
X483752Y192230D01*
X483567Y192267D01*
X483188Y192359D01*
X483179D01*
X483142Y192369D01*
X483086Y192387D01*
X483003Y192415D01*
X482911Y192443D01*
X482800Y192479D01*
X482670Y192516D01*
X482532Y192572D01*
X482374Y192628D01*
X482217Y192683D01*
X481866Y192822D01*
X481496Y192988D01*
X481126Y193173D01*
X481117Y193182D01*
X481080Y193201D01*
X481034Y193228D01*
X480960Y193265D01*
X480877Y193312D01*
X480775Y193376D01*
X480664Y193441D01*
X480544Y193515D01*
X480276Y193691D01*
X479998Y193876D01*
X479712Y194088D01*
X479444Y194310D01*
Y191176D01*
X478685D01*
Y195318D01*
X479305D01*
X479314Y195309D01*
D02*
G37*
G36*
X485000Y189567D02*
X483669Y188726D01*
X483660D01*
X483641Y188707D01*
X483613Y188689D01*
X483576Y188661D01*
X483475Y188596D01*
X483345Y188513D01*
X483206Y188412D01*
X483059Y188310D01*
X482920Y188208D01*
X482790Y188116D01*
X482781Y188106D01*
X482744Y188079D01*
X482689Y188032D01*
X482624Y187968D01*
X482485Y187829D01*
X482421Y187755D01*
X482365Y187681D01*
X482356Y187672D01*
X482347Y187653D01*
X482328Y187616D01*
X482300Y187561D01*
X482273Y187505D01*
X482245Y187441D01*
X482199Y187293D01*
Y187283D01*
X482189Y187265D01*
Y187228D01*
X482180Y187182D01*
X482171Y187117D01*
Y187043D01*
X482162Y186941D01*
Y185851D01*
X485000D01*
Y185000D01*
X478602D01*
Y187968D01*
X478611Y188042D01*
Y188125D01*
X478621Y188319D01*
X478648Y188522D01*
X478676Y188744D01*
X478722Y188948D01*
X478750Y189049D01*
X478778Y189133D01*
Y189142D01*
X478787Y189151D01*
X478815Y189207D01*
X478852Y189290D01*
X478917Y189391D01*
X479000Y189503D01*
X479111Y189623D01*
X479240Y189734D01*
X479388Y189845D01*
X479397D01*
X479407Y189854D01*
X479462Y189891D01*
X479554Y189928D01*
X479675Y189983D01*
X479813Y190030D01*
X479980Y190076D01*
X480155Y190103D01*
X480350Y190113D01*
X480359D01*
X480377D01*
X480414D01*
X480461Y190103D01*
X480525D01*
X480590Y190094D01*
X480747Y190057D01*
X480932Y190002D01*
X481126Y189928D01*
X481320Y189817D01*
X481413Y189743D01*
X481505Y189669D01*
X481515Y189660D01*
X481524Y189650D01*
X481552Y189623D01*
X481579Y189586D01*
X481616Y189539D01*
X481653Y189484D01*
X481699Y189410D01*
X481755Y189336D01*
X481801Y189244D01*
X481847Y189142D01*
X481903Y189031D01*
X481949Y188911D01*
X481986Y188772D01*
X482032Y188633D01*
X482060Y188476D01*
X482088Y188310D01*
X482097Y188328D01*
X482115Y188365D01*
X482152Y188421D01*
X482189Y188495D01*
X482291Y188661D01*
X482356Y188744D01*
X482411Y188818D01*
X482430Y188837D01*
X482476Y188883D01*
X482550Y188957D01*
X482642Y189049D01*
X482772Y189151D01*
X482911Y189271D01*
X483077Y189391D01*
X483262Y189521D01*
X485000Y190621D01*
Y189567D01*
D02*
G37*
G36*
X553206Y195318D02*
X553271Y195309D01*
X553354Y195299D01*
X553447Y195281D01*
X553549Y195253D01*
X553761Y195189D01*
X553881Y195142D01*
X553992Y195078D01*
X554113Y195013D01*
X554224Y194939D01*
X554334Y194846D01*
X554445Y194745D01*
X554455Y194736D01*
X554473Y194717D01*
X554501Y194689D01*
X554529Y194643D01*
X554575Y194578D01*
X554621Y194514D01*
X554667Y194430D01*
X554723Y194338D01*
X554778Y194236D01*
X554824Y194116D01*
X554871Y193987D01*
X554917Y193857D01*
X554945Y193709D01*
X554972Y193552D01*
X554991Y193395D01*
X555000Y193219D01*
Y193127D01*
X554991Y193062D01*
X554982Y192979D01*
X554972Y192886D01*
X554954Y192785D01*
X554926Y192674D01*
X554861Y192424D01*
X554815Y192295D01*
X554769Y192174D01*
X554704Y192045D01*
X554630Y191916D01*
X554547Y191795D01*
X554445Y191684D01*
X554436Y191675D01*
X554418Y191657D01*
X554390Y191629D01*
X554344Y191592D01*
X554288Y191555D01*
X554224Y191500D01*
X554150Y191453D01*
X554057Y191398D01*
X553965Y191342D01*
X553854Y191296D01*
X553623Y191204D01*
X553484Y191167D01*
X553345Y191139D01*
X553197Y191120D01*
X553049Y191111D01*
X553040D01*
X553022D01*
X552985D01*
X552948Y191120D01*
X552892D01*
X552827Y191130D01*
X552679Y191148D01*
X552513Y191185D01*
X552347Y191241D01*
X552171Y191324D01*
X552005Y191426D01*
X551995D01*
X551986Y191444D01*
X551940Y191481D01*
X551866Y191555D01*
X551773Y191657D01*
X551681Y191786D01*
X551579Y191943D01*
X551496Y192119D01*
X551431Y192332D01*
Y192322D01*
X551422Y192313D01*
X551413Y192285D01*
X551394Y192248D01*
X551357Y192165D01*
X551302Y192054D01*
X551228Y191934D01*
X551135Y191814D01*
X551034Y191703D01*
X550923Y191601D01*
X550904Y191592D01*
X550867Y191564D01*
X550793Y191527D01*
X550701Y191490D01*
X550581Y191444D01*
X550442Y191407D01*
X550285Y191379D01*
X550118Y191370D01*
X550109D01*
X550091D01*
X550054D01*
X549998Y191379D01*
X549943Y191389D01*
X549869Y191398D01*
X549712Y191435D01*
X549527Y191490D01*
X549333Y191583D01*
X549231Y191638D01*
X549129Y191703D01*
X549037Y191786D01*
X548944Y191869D01*
X548935Y191879D01*
X548926Y191897D01*
X548898Y191925D01*
X548870Y191962D01*
X548833Y192008D01*
X548796Y192073D01*
X548750Y192147D01*
X548704Y192221D01*
X548658Y192313D01*
X548611Y192415D01*
X548574Y192526D01*
X548537Y192646D01*
X548482Y192905D01*
X548473Y193053D01*
X548463Y193201D01*
Y193284D01*
X548473Y193339D01*
X548482Y193413D01*
X548491Y193497D01*
X548500Y193589D01*
X548528Y193682D01*
X548584Y193903D01*
X548667Y194125D01*
X548722Y194236D01*
X548787Y194347D01*
X548870Y194449D01*
X548954Y194551D01*
X548963Y194560D01*
X548972Y194569D01*
X549000Y194597D01*
X549037Y194634D01*
X549092Y194671D01*
X549148Y194717D01*
X549286Y194809D01*
X549462Y194902D01*
X549665Y194985D01*
X549897Y195050D01*
X550017Y195059D01*
X550146Y195068D01*
X550155D01*
X550165D01*
X550220D01*
X550303Y195059D01*
X550405Y195041D01*
X550535Y195013D01*
X550664Y194967D01*
X550793Y194911D01*
X550923Y194828D01*
X550941Y194819D01*
X550978Y194782D01*
X551034Y194726D01*
X551108Y194652D01*
X551191Y194551D01*
X551274Y194430D01*
X551357Y194292D01*
X551431Y194125D01*
Y194135D01*
X551441Y194153D01*
X551450Y194181D01*
X551468Y194218D01*
X551515Y194329D01*
X551579Y194458D01*
X551672Y194597D01*
X551773Y194745D01*
X551903Y194883D01*
X552051Y195013D01*
X552060D01*
X552069Y195022D01*
X552125Y195059D01*
X552217Y195115D01*
X552337Y195170D01*
X552485Y195226D01*
X552661Y195281D01*
X552855Y195318D01*
X553068Y195327D01*
X553077D01*
X553105D01*
X553151D01*
X553206Y195318D01*
D02*
G37*
G36*
X554889Y189567D02*
X553558Y188726D01*
X553549D01*
X553530Y188707D01*
X553502Y188689D01*
X553465Y188661D01*
X553364Y188596D01*
X553234Y188513D01*
X553096Y188412D01*
X552948Y188310D01*
X552809Y188208D01*
X552679Y188116D01*
X552670Y188106D01*
X552633Y188079D01*
X552578Y188032D01*
X552513Y187968D01*
X552374Y187829D01*
X552310Y187755D01*
X552254Y187681D01*
X552245Y187672D01*
X552236Y187653D01*
X552217Y187616D01*
X552189Y187561D01*
X552162Y187505D01*
X552134Y187441D01*
X552088Y187293D01*
Y187283D01*
X552079Y187265D01*
Y187228D01*
X552069Y187182D01*
X552060Y187117D01*
Y187043D01*
X552051Y186942D01*
Y185851D01*
X554889D01*
Y185000D01*
X548491D01*
Y187968D01*
X548500Y188042D01*
Y188125D01*
X548510Y188319D01*
X548537Y188522D01*
X548565Y188744D01*
X548611Y188948D01*
X548639Y189049D01*
X548667Y189133D01*
Y189142D01*
X548676Y189151D01*
X548704Y189207D01*
X548741Y189290D01*
X548806Y189391D01*
X548889Y189503D01*
X549000Y189623D01*
X549129Y189734D01*
X549277Y189845D01*
X549286D01*
X549296Y189854D01*
X549351Y189891D01*
X549444Y189928D01*
X549564Y189983D01*
X549702Y190030D01*
X549869Y190076D01*
X550044Y190103D01*
X550239Y190113D01*
X550248D01*
X550266D01*
X550303D01*
X550350Y190103D01*
X550414D01*
X550479Y190094D01*
X550636Y190057D01*
X550821Y190002D01*
X551015Y189928D01*
X551209Y189817D01*
X551302Y189743D01*
X551394Y189669D01*
X551404Y189660D01*
X551413Y189650D01*
X551441Y189623D01*
X551468Y189586D01*
X551505Y189540D01*
X551542Y189484D01*
X551589Y189410D01*
X551644Y189336D01*
X551690Y189244D01*
X551736Y189142D01*
X551792Y189031D01*
X551838Y188911D01*
X551875Y188772D01*
X551921Y188633D01*
X551949Y188476D01*
X551977Y188310D01*
X551986Y188328D01*
X552005Y188365D01*
X552042Y188421D01*
X552079Y188495D01*
X552180Y188661D01*
X552245Y188744D01*
X552300Y188818D01*
X552319Y188837D01*
X552365Y188883D01*
X552439Y188957D01*
X552532Y189049D01*
X552661Y189151D01*
X552800Y189271D01*
X552966Y189391D01*
X553151Y189521D01*
X554889Y190621D01*
Y189567D01*
D02*
G37*
G36*
X621866Y195318D02*
X621986D01*
X622125Y195309D01*
X622263Y195290D01*
X622578Y195263D01*
X622911Y195216D01*
X623225Y195152D01*
X623382Y195105D01*
X623521Y195059D01*
X623530D01*
X623549Y195050D01*
X623586Y195031D01*
X623641Y195013D01*
X623697Y194985D01*
X623770Y194948D01*
X623928Y194856D01*
X624103Y194745D01*
X624288Y194615D01*
X624464Y194449D01*
X624621Y194264D01*
Y194255D01*
X624640Y194236D01*
X624658Y194209D01*
X624677Y194172D01*
X624704Y194116D01*
X624741Y194061D01*
X624778Y193987D01*
X624806Y193913D01*
X624880Y193737D01*
X624945Y193524D01*
X624982Y193293D01*
X625000Y193034D01*
Y192960D01*
X624991Y192914D01*
Y192849D01*
X624982Y192775D01*
X624945Y192600D01*
X624898Y192406D01*
X624824Y192202D01*
X624723Y191999D01*
X624658Y191897D01*
X624584Y191805D01*
X624575Y191795D01*
X624566Y191786D01*
X624538Y191758D01*
X624510Y191731D01*
X624464Y191694D01*
X624408Y191647D01*
X624279Y191555D01*
X624113Y191463D01*
X623909Y191370D01*
X623678Y191296D01*
X623410Y191241D01*
X623345Y191999D01*
X623354D01*
X623373Y192008D01*
X623391D01*
X623428Y192017D01*
X623530Y192045D01*
X623641Y192082D01*
X623770Y192128D01*
X623900Y192193D01*
X624020Y192267D01*
X624122Y192359D01*
X624131Y192369D01*
X624159Y192406D01*
X624196Y192470D01*
X624233Y192544D01*
X624279Y192646D01*
X624316Y192766D01*
X624344Y192905D01*
X624353Y193053D01*
Y193118D01*
X624344Y193182D01*
X624334Y193265D01*
X624316Y193367D01*
X624288Y193469D01*
X624251Y193580D01*
X624196Y193682D01*
X624187Y193691D01*
X624168Y193728D01*
X624131Y193783D01*
X624076Y193839D01*
X624011Y193913D01*
X623937Y193987D01*
X623854Y194061D01*
X623752Y194135D01*
X623743Y194144D01*
X623697Y194162D01*
X623632Y194199D01*
X623549Y194236D01*
X623438Y194282D01*
X623308Y194329D01*
X623160Y194375D01*
X622994Y194421D01*
X622985D01*
X622975Y194430D01*
X622948D01*
X622911Y194440D01*
X622818Y194458D01*
X622698Y194486D01*
X622550Y194504D01*
X622393Y194523D01*
X622217Y194532D01*
X622032Y194541D01*
X622023D01*
X621995D01*
X621949D01*
X621875D01*
X621894Y194532D01*
X621940Y194495D01*
X622005Y194440D01*
X622097Y194375D01*
X622189Y194282D01*
X622291Y194172D01*
X622393Y194042D01*
X622485Y193894D01*
X622495Y193876D01*
X622522Y193820D01*
X622559Y193737D01*
X622596Y193635D01*
X622643Y193497D01*
X622679Y193349D01*
X622707Y193182D01*
X622716Y193007D01*
Y192933D01*
X622707Y192877D01*
X622698Y192803D01*
X622689Y192729D01*
X622670Y192637D01*
X622643Y192544D01*
X622578Y192332D01*
X622532Y192221D01*
X622476Y192110D01*
X622411Y191990D01*
X622328Y191879D01*
X622245Y191768D01*
X622143Y191666D01*
X622134Y191657D01*
X622116Y191638D01*
X622088Y191620D01*
X622042Y191583D01*
X621977Y191537D01*
X621912Y191490D01*
X621829Y191444D01*
X621736Y191398D01*
X621635Y191342D01*
X621524Y191296D01*
X621394Y191250D01*
X621265Y191204D01*
X621117Y191167D01*
X620960Y191148D01*
X620803Y191130D01*
X620627Y191120D01*
X620618D01*
X620581D01*
X620535D01*
X620470Y191130D01*
X620387Y191139D01*
X620285Y191148D01*
X620183Y191167D01*
X620063Y191194D01*
X619823Y191259D01*
X619693Y191305D01*
X619554Y191361D01*
X619425Y191426D01*
X619305Y191509D01*
X619175Y191592D01*
X619064Y191694D01*
X619055Y191703D01*
X619037Y191721D01*
X619009Y191749D01*
X618972Y191795D01*
X618926Y191851D01*
X618870Y191925D01*
X618824Y191999D01*
X618759Y192091D01*
X618704Y192184D01*
X618658Y192295D01*
X618556Y192544D01*
X618519Y192674D01*
X618491Y192822D01*
X618473Y192970D01*
X618464Y193127D01*
Y193192D01*
X618473Y193238D01*
Y193284D01*
X618482Y193349D01*
X618510Y193506D01*
X618547Y193682D01*
X618611Y193876D01*
X618695Y194070D01*
X618806Y194264D01*
Y194273D01*
X618824Y194282D01*
X618843Y194310D01*
X618870Y194347D01*
X618944Y194440D01*
X619046Y194560D01*
X619185Y194680D01*
X619351Y194819D01*
X619545Y194939D01*
X619767Y195050D01*
X619776D01*
X619795Y195059D01*
X619832Y195078D01*
X619878Y195096D01*
X619943Y195115D01*
X620026Y195142D01*
X620118Y195161D01*
X620220Y195189D01*
X620340Y195216D01*
X620479Y195244D01*
X620627Y195263D01*
X620784Y195281D01*
X620960Y195299D01*
X621145Y195318D01*
X621348Y195327D01*
X621561D01*
X621570D01*
X621616D01*
X621681D01*
X621764D01*
X621866Y195318D01*
D02*
G37*
G36*
X624889Y189567D02*
X623558Y188726D01*
X623549D01*
X623530Y188707D01*
X623502Y188689D01*
X623465Y188661D01*
X623364Y188596D01*
X623234Y188513D01*
X623096Y188412D01*
X622948Y188310D01*
X622809Y188208D01*
X622679Y188116D01*
X622670Y188106D01*
X622633Y188079D01*
X622578Y188032D01*
X622513Y187968D01*
X622374Y187829D01*
X622310Y187755D01*
X622254Y187681D01*
X622245Y187672D01*
X622236Y187653D01*
X622217Y187616D01*
X622189Y187561D01*
X622162Y187505D01*
X622134Y187441D01*
X622088Y187293D01*
Y187283D01*
X622079Y187265D01*
Y187228D01*
X622069Y187182D01*
X622060Y187117D01*
Y187043D01*
X622051Y186942D01*
Y185851D01*
X624889D01*
Y185000D01*
X618491D01*
Y187968D01*
X618500Y188042D01*
Y188125D01*
X618510Y188319D01*
X618537Y188522D01*
X618565Y188744D01*
X618611Y188948D01*
X618639Y189049D01*
X618667Y189133D01*
Y189142D01*
X618676Y189151D01*
X618704Y189207D01*
X618741Y189290D01*
X618806Y189391D01*
X618889Y189503D01*
X619000Y189623D01*
X619129Y189734D01*
X619277Y189845D01*
X619286D01*
X619296Y189854D01*
X619351Y189891D01*
X619444Y189928D01*
X619564Y189983D01*
X619702Y190030D01*
X619869Y190076D01*
X620045Y190103D01*
X620239Y190113D01*
X620248D01*
X620266D01*
X620303D01*
X620350Y190103D01*
X620414D01*
X620479Y190094D01*
X620636Y190057D01*
X620821Y190002D01*
X621015Y189928D01*
X621209Y189817D01*
X621302Y189743D01*
X621394Y189669D01*
X621404Y189660D01*
X621413Y189650D01*
X621441Y189623D01*
X621468Y189586D01*
X621505Y189540D01*
X621542Y189484D01*
X621589Y189410D01*
X621644Y189336D01*
X621690Y189244D01*
X621736Y189142D01*
X621792Y189031D01*
X621838Y188911D01*
X621875Y188772D01*
X621921Y188633D01*
X621949Y188476D01*
X621977Y188310D01*
X621986Y188328D01*
X622005Y188365D01*
X622042Y188421D01*
X622079Y188495D01*
X622180Y188661D01*
X622245Y188744D01*
X622300Y188818D01*
X622319Y188837D01*
X622365Y188883D01*
X622439Y188957D01*
X622532Y189049D01*
X622661Y189151D01*
X622800Y189271D01*
X622966Y189391D01*
X623151Y189521D01*
X624889Y190621D01*
Y189567D01*
D02*
G37*
G36*
X692023Y200264D02*
X692134D01*
X692254Y200255D01*
X692384Y200246D01*
X692679Y200218D01*
X692984Y200172D01*
X693280Y200116D01*
X693419Y200079D01*
X693558Y200033D01*
X693567D01*
X693586Y200024D01*
X693623Y200005D01*
X693669Y199987D01*
X693733Y199968D01*
X693798Y199932D01*
X693955Y199858D01*
X694122Y199765D01*
X694307Y199645D01*
X694473Y199506D01*
X694630Y199340D01*
Y199331D01*
X694649Y199321D01*
X694667Y199294D01*
X694686Y199257D01*
X694713Y199210D01*
X694750Y199164D01*
X694815Y199025D01*
X694880Y198859D01*
X694945Y198665D01*
X694982Y198434D01*
X695000Y198184D01*
Y198092D01*
X694991Y198027D01*
X694982Y197953D01*
X694963Y197861D01*
X694945Y197759D01*
X694917Y197648D01*
X694880Y197537D01*
X694843Y197417D01*
X694787Y197297D01*
X694723Y197176D01*
X694649Y197056D01*
X694556Y196936D01*
X694455Y196825D01*
X694344Y196723D01*
X694334Y196714D01*
X694307Y196695D01*
X694260Y196668D01*
X694186Y196622D01*
X694103Y196575D01*
X693992Y196529D01*
X693863Y196464D01*
X693715Y196409D01*
X693549Y196353D01*
X693354Y196298D01*
X693142Y196243D01*
X692901Y196196D01*
X692642Y196150D01*
X692365Y196122D01*
X692060Y196104D01*
X691736Y196095D01*
X691727D01*
X691690D01*
X691625D01*
X691551D01*
X691450Y196104D01*
X691339D01*
X691219Y196113D01*
X691080Y196122D01*
X690793Y196150D01*
X690488Y196196D01*
X690183Y196252D01*
X690044Y196289D01*
X689906Y196326D01*
X689896D01*
X689878Y196335D01*
X689841Y196353D01*
X689795Y196372D01*
X689730Y196390D01*
X689665Y196427D01*
X689508Y196501D01*
X689342Y196594D01*
X689166Y196714D01*
X688990Y196853D01*
X688842Y197019D01*
Y197028D01*
X688824Y197038D01*
X688805Y197065D01*
X688787Y197102D01*
X688750Y197149D01*
X688722Y197204D01*
X688648Y197343D01*
X688584Y197509D01*
X688519Y197703D01*
X688482Y197934D01*
X688463Y198184D01*
Y198267D01*
X688473Y198369D01*
X688491Y198489D01*
X688519Y198628D01*
X688556Y198776D01*
X688602Y198933D01*
X688676Y199081D01*
Y199090D01*
X688685Y199099D01*
X688713Y199146D01*
X688759Y199220D01*
X688824Y199312D01*
X688916Y199414D01*
X689018Y199525D01*
X689138Y199626D01*
X689277Y199728D01*
X689296Y199737D01*
X689342Y199774D01*
X689425Y199811D01*
X689545Y199876D01*
X689684Y199932D01*
X689841Y200005D01*
X690026Y200070D01*
X690229Y200126D01*
X690239D01*
X690257Y200135D01*
X690285Y200144D01*
X690331Y200153D01*
X690387Y200163D01*
X690451Y200172D01*
X690534Y200190D01*
X690627Y200200D01*
X690729Y200218D01*
X690839Y200227D01*
X690969Y200237D01*
X691098Y200255D01*
X691246Y200264D01*
X691394D01*
X691561Y200274D01*
X691736D01*
X691746D01*
X691783D01*
X691847D01*
X691921D01*
X692023Y200264D01*
D02*
G37*
G36*
X694889Y193293D02*
X689887D01*
X689896Y193284D01*
X689933Y193238D01*
X689989Y193182D01*
X690054Y193090D01*
X690137Y192988D01*
X690229Y192859D01*
X690331Y192711D01*
X690433Y192544D01*
Y192535D01*
X690442Y192526D01*
X690479Y192470D01*
X690525Y192378D01*
X690581Y192267D01*
X690645Y192138D01*
X690710Y191999D01*
X690775Y191860D01*
X690830Y191721D01*
X690072D01*
Y191731D01*
X690054Y191749D01*
X690044Y191786D01*
X690017Y191832D01*
X689989Y191888D01*
X689952Y191952D01*
X689859Y192110D01*
X689758Y192295D01*
X689628Y192479D01*
X689480Y192674D01*
X689323Y192868D01*
X689314Y192877D01*
X689305Y192886D01*
X689277Y192914D01*
X689249Y192951D01*
X689157Y193034D01*
X689046Y193145D01*
X688916Y193256D01*
X688768Y193376D01*
X688621Y193478D01*
X688463Y193570D01*
Y194079D01*
X694889D01*
Y193293D01*
D02*
G37*
G36*
Y189567D02*
X693558Y188726D01*
X693549D01*
X693530Y188707D01*
X693502Y188689D01*
X693465Y188661D01*
X693364Y188596D01*
X693234Y188513D01*
X693095Y188412D01*
X692947Y188310D01*
X692809Y188208D01*
X692679Y188116D01*
X692670Y188106D01*
X692633Y188079D01*
X692578Y188032D01*
X692513Y187968D01*
X692374Y187829D01*
X692310Y187755D01*
X692254Y187681D01*
X692245Y187672D01*
X692236Y187653D01*
X692217Y187616D01*
X692189Y187561D01*
X692162Y187505D01*
X692134Y187441D01*
X692088Y187293D01*
Y187283D01*
X692078Y187265D01*
Y187228D01*
X692069Y187182D01*
X692060Y187117D01*
Y187043D01*
X692051Y186941D01*
Y185851D01*
X694889D01*
Y185000D01*
X688491D01*
Y187968D01*
X688500Y188042D01*
Y188125D01*
X688510Y188319D01*
X688537Y188522D01*
X688565Y188744D01*
X688611Y188948D01*
X688639Y189049D01*
X688667Y189133D01*
Y189142D01*
X688676Y189151D01*
X688704Y189207D01*
X688741Y189290D01*
X688805Y189391D01*
X688889Y189503D01*
X689000Y189623D01*
X689129Y189734D01*
X689277Y189845D01*
X689286D01*
X689296Y189854D01*
X689351Y189891D01*
X689444Y189928D01*
X689564Y189983D01*
X689702Y190030D01*
X689869Y190076D01*
X690044Y190103D01*
X690239Y190113D01*
X690248D01*
X690266D01*
X690303D01*
X690350Y190103D01*
X690414D01*
X690479Y190094D01*
X690636Y190057D01*
X690821Y190002D01*
X691015Y189928D01*
X691209Y189817D01*
X691302Y189743D01*
X691394Y189669D01*
X691404Y189660D01*
X691413Y189650D01*
X691441Y189623D01*
X691468Y189586D01*
X691505Y189539D01*
X691542Y189484D01*
X691588Y189410D01*
X691644Y189336D01*
X691690Y189244D01*
X691736Y189142D01*
X691792Y189031D01*
X691838Y188911D01*
X691875Y188772D01*
X691921Y188633D01*
X691949Y188476D01*
X691977Y188310D01*
X691986Y188328D01*
X692004Y188365D01*
X692041Y188421D01*
X692078Y188495D01*
X692180Y188661D01*
X692245Y188744D01*
X692300Y188818D01*
X692319Y188837D01*
X692365Y188883D01*
X692439Y188957D01*
X692532Y189049D01*
X692661Y189151D01*
X692800Y189271D01*
X692966Y189391D01*
X693151Y189521D01*
X694889Y190621D01*
Y189567D01*
D02*
G37*
G36*
X593523Y80262D02*
Y80253D01*
Y80225D01*
Y80189D01*
Y80133D01*
X593513Y80059D01*
Y79985D01*
X593495Y79809D01*
X593476Y79606D01*
X593439Y79393D01*
X593384Y79199D01*
X593319Y79014D01*
Y79005D01*
X593310Y78996D01*
X593282Y78940D01*
X593236Y78866D01*
X593171Y78765D01*
X593079Y78663D01*
X592977Y78552D01*
X592848Y78441D01*
X592700Y78349D01*
X592681Y78339D01*
X592626Y78312D01*
X592542Y78275D01*
X592422Y78238D01*
X592274Y78191D01*
X592108Y78155D01*
X591923Y78127D01*
X591720Y78117D01*
X591637D01*
X591581Y78127D01*
X591507Y78136D01*
X591433Y78145D01*
X591239Y78182D01*
X591035Y78238D01*
X590823Y78321D01*
X590712Y78376D01*
X590610Y78441D01*
X590518Y78515D01*
X590425Y78598D01*
X590416Y78608D01*
X590407Y78617D01*
X590388Y78654D01*
X590361Y78691D01*
X590324Y78737D01*
X590287Y78802D01*
X590250Y78876D01*
X590203Y78959D01*
X590166Y79051D01*
X590129Y79162D01*
X590092Y79273D01*
X590056Y79403D01*
X590037Y79541D01*
X590009Y79699D01*
X590000Y79856D01*
Y80031D01*
X590767Y80142D01*
Y80133D01*
Y80115D01*
Y80078D01*
X590777Y80022D01*
X590786Y79967D01*
Y79902D01*
X590814Y79745D01*
X590841Y79578D01*
X590897Y79412D01*
X590952Y79264D01*
X590989Y79199D01*
X591035Y79144D01*
X591045Y79135D01*
X591082Y79107D01*
X591137Y79061D01*
X591211Y79014D01*
X591313Y78959D01*
X591424Y78922D01*
X591562Y78885D01*
X591710Y78876D01*
X591766D01*
X591821Y78885D01*
X591905Y78894D01*
X591988Y78913D01*
X592080Y78931D01*
X592173Y78968D01*
X592265Y79014D01*
X592274Y79024D01*
X592302Y79042D01*
X592339Y79079D01*
X592395Y79116D01*
X592441Y79181D01*
X592496Y79246D01*
X592542Y79320D01*
X592579Y79412D01*
Y79421D01*
X592598Y79458D01*
X592607Y79523D01*
X592626Y79606D01*
X592644Y79717D01*
X592654Y79856D01*
X592672Y80022D01*
Y80216D01*
Y84627D01*
X593523D01*
Y80262D01*
D02*
G37*
G36*
X597544Y78229D02*
X596758D01*
Y83230D01*
X596749Y83221D01*
X596703Y83184D01*
X596648Y83129D01*
X596555Y83064D01*
X596453Y82981D01*
X596324Y82888D01*
X596176Y82787D01*
X596010Y82685D01*
X596000D01*
X595991Y82676D01*
X595936Y82639D01*
X595843Y82592D01*
X595732Y82537D01*
X595603Y82472D01*
X595464Y82408D01*
X595326Y82343D01*
X595187Y82287D01*
Y83046D01*
X595196D01*
X595215Y83064D01*
X595252Y83073D01*
X595298Y83101D01*
X595353Y83129D01*
X595418Y83166D01*
X595575Y83258D01*
X595760Y83360D01*
X595945Y83489D01*
X596139Y83637D01*
X596333Y83794D01*
X596343Y83804D01*
X596352Y83813D01*
X596380Y83841D01*
X596416Y83868D01*
X596500Y83961D01*
X596611Y84072D01*
X596721Y84201D01*
X596842Y84349D01*
X596943Y84497D01*
X597036Y84654D01*
X597544D01*
Y78229D01*
D02*
G37*
G36*
X247975Y195309D02*
X248031D01*
X248179Y195281D01*
X248354Y195253D01*
X248539Y195207D01*
X248743Y195142D01*
X248937Y195050D01*
X248946D01*
X248955Y195041D01*
X248983Y195022D01*
X249020Y195004D01*
X249112Y194948D01*
X249233Y194865D01*
X249362Y194763D01*
X249492Y194643D01*
X249621Y194495D01*
X249732Y194338D01*
Y194329D01*
X249741Y194319D01*
X249760Y194292D01*
X249769Y194255D01*
X249815Y194162D01*
X249861Y194042D01*
X249917Y193885D01*
X249954Y193709D01*
X249991Y193515D01*
X250000Y193302D01*
Y193256D01*
X249991Y193210D01*
Y193136D01*
X249982Y193053D01*
X249963Y192960D01*
X249935Y192849D01*
X249908Y192738D01*
X249871Y192609D01*
X249824Y192480D01*
X249769Y192350D01*
X249695Y192211D01*
X249612Y192082D01*
X249519Y191953D01*
X249408Y191823D01*
X249279Y191703D01*
X249270Y191694D01*
X249242Y191675D01*
X249205Y191647D01*
X249140Y191611D01*
X249057Y191555D01*
X248965Y191509D01*
X248844Y191453D01*
X248715Y191398D01*
X248558Y191333D01*
X248382Y191278D01*
X248188Y191231D01*
X247975Y191185D01*
X247735Y191139D01*
X247476Y191111D01*
X247199Y191093D01*
X246903Y191084D01*
X246894D01*
X246884D01*
X246857D01*
X246820D01*
X246727Y191093D01*
X246598D01*
X246450Y191102D01*
X246274Y191120D01*
X246080Y191139D01*
X245867Y191167D01*
X245655Y191204D01*
X245424Y191250D01*
X245202Y191305D01*
X244980Y191370D01*
X244767Y191453D01*
X244564Y191546D01*
X244370Y191647D01*
X244203Y191768D01*
X244194Y191777D01*
X244175Y191795D01*
X244138Y191832D01*
X244083Y191879D01*
X244027Y191934D01*
X243972Y192008D01*
X243898Y192101D01*
X243833Y192193D01*
X243769Y192304D01*
X243695Y192424D01*
X243639Y192563D01*
X243574Y192701D01*
X243528Y192859D01*
X243491Y193025D01*
X243473Y193201D01*
X243463Y193386D01*
Y193460D01*
X243473Y193515D01*
Y193580D01*
X243482Y193654D01*
X243519Y193829D01*
X243565Y194024D01*
X243639Y194227D01*
X243750Y194430D01*
X243815Y194532D01*
X243889Y194625D01*
X243898Y194634D01*
X243907Y194643D01*
X243935Y194671D01*
X243963Y194699D01*
X244009Y194745D01*
X244064Y194782D01*
X244194Y194883D01*
X244360Y194985D01*
X244564Y195078D01*
X244795Y195161D01*
X245054Y195216D01*
X245118Y194430D01*
X245109D01*
X245100Y194421D01*
X245044Y194412D01*
X244961Y194384D01*
X244860Y194347D01*
X244749Y194310D01*
X244638Y194255D01*
X244536Y194190D01*
X244453Y194125D01*
X244434Y194107D01*
X244397Y194070D01*
X244342Y194005D01*
X244277Y193913D01*
X244222Y193792D01*
X244166Y193663D01*
X244129Y193506D01*
X244111Y193339D01*
Y193275D01*
X244120Y193201D01*
X244138Y193118D01*
X244166Y193007D01*
X244203Y192896D01*
X244249Y192785D01*
X244323Y192674D01*
X244333Y192655D01*
X244370Y192609D01*
X244434Y192544D01*
X244527Y192461D01*
X244638Y192369D01*
X244767Y192267D01*
X244933Y192174D01*
X245118Y192082D01*
X245128D01*
X245146Y192073D01*
X245174Y192064D01*
X245211Y192045D01*
X245266Y192036D01*
X245331Y192017D01*
X245405Y191999D01*
X245497Y191980D01*
X245599Y191953D01*
X245710Y191934D01*
X245830Y191916D01*
X245960Y191906D01*
X246108Y191888D01*
X246256Y191879D01*
X246422Y191869D01*
X246588D01*
X246579Y191879D01*
X246524Y191916D01*
X246450Y191980D01*
X246357Y192064D01*
X246246Y192156D01*
X246145Y192276D01*
X246043Y192406D01*
X245951Y192554D01*
Y192563D01*
X245941Y192572D01*
X245914Y192628D01*
X245886Y192711D01*
X245840Y192822D01*
X245803Y192951D01*
X245775Y193099D01*
X245747Y193256D01*
X245738Y193423D01*
Y193497D01*
X245747Y193552D01*
X245756Y193626D01*
X245766Y193700D01*
X245784Y193792D01*
X245812Y193885D01*
X245877Y194098D01*
X245923Y194209D01*
X245987Y194319D01*
X246052Y194430D01*
X246126Y194551D01*
X246219Y194662D01*
X246320Y194763D01*
X246330Y194772D01*
X246348Y194791D01*
X246376Y194819D01*
X246422Y194846D01*
X246487Y194893D01*
X246551Y194939D01*
X246635Y194985D01*
X246727Y195041D01*
X246829Y195096D01*
X246940Y195142D01*
X247069Y195189D01*
X247199Y195235D01*
X247337Y195263D01*
X247495Y195290D01*
X247652Y195309D01*
X247818Y195318D01*
X247827D01*
X247846D01*
X247874D01*
X247920D01*
X247975Y195309D01*
D02*
G37*
G36*
X249889Y189567D02*
X248558Y188726D01*
X248549D01*
X248530Y188707D01*
X248502Y188689D01*
X248465Y188661D01*
X248364Y188596D01*
X248234Y188513D01*
X248095Y188412D01*
X247948Y188310D01*
X247809Y188208D01*
X247679Y188116D01*
X247670Y188106D01*
X247633Y188079D01*
X247578Y188032D01*
X247513Y187968D01*
X247374Y187829D01*
X247310Y187755D01*
X247254Y187681D01*
X247245Y187672D01*
X247236Y187653D01*
X247217Y187616D01*
X247189Y187561D01*
X247162Y187505D01*
X247134Y187441D01*
X247088Y187293D01*
Y187283D01*
X247078Y187265D01*
Y187228D01*
X247069Y187182D01*
X247060Y187117D01*
Y187043D01*
X247051Y186942D01*
Y185851D01*
X249889D01*
Y185000D01*
X243491D01*
Y187968D01*
X243500Y188042D01*
Y188125D01*
X243510Y188319D01*
X243537Y188522D01*
X243565Y188744D01*
X243611Y188948D01*
X243639Y189049D01*
X243667Y189133D01*
Y189142D01*
X243676Y189151D01*
X243704Y189207D01*
X243741Y189290D01*
X243806Y189391D01*
X243889Y189503D01*
X244000Y189623D01*
X244129Y189734D01*
X244277Y189845D01*
X244286D01*
X244296Y189854D01*
X244351Y189891D01*
X244443Y189928D01*
X244564Y189983D01*
X244702Y190030D01*
X244869Y190076D01*
X245044Y190103D01*
X245239Y190113D01*
X245248D01*
X245266D01*
X245303D01*
X245350Y190103D01*
X245414D01*
X245479Y190094D01*
X245636Y190057D01*
X245821Y190002D01*
X246015Y189928D01*
X246209Y189817D01*
X246302Y189743D01*
X246394Y189669D01*
X246404Y189660D01*
X246413Y189650D01*
X246441Y189623D01*
X246468Y189586D01*
X246505Y189540D01*
X246542Y189484D01*
X246588Y189410D01*
X246644Y189336D01*
X246690Y189244D01*
X246736Y189142D01*
X246792Y189031D01*
X246838Y188911D01*
X246875Y188772D01*
X246921Y188633D01*
X246949Y188476D01*
X246977Y188310D01*
X246986Y188328D01*
X247005Y188365D01*
X247041Y188421D01*
X247078Y188495D01*
X247180Y188661D01*
X247245Y188744D01*
X247300Y188818D01*
X247319Y188837D01*
X247365Y188883D01*
X247439Y188957D01*
X247532Y189049D01*
X247661Y189151D01*
X247800Y189271D01*
X247966Y189391D01*
X248151Y189521D01*
X249889Y190621D01*
Y189567D01*
D02*
G37*
G36*
X187874Y195355D02*
X187948Y195346D01*
X188031Y195336D01*
X188132Y195318D01*
X188234Y195299D01*
X188475Y195244D01*
X188724Y195152D01*
X188854Y195096D01*
X188974Y195022D01*
X189103Y194948D01*
X189223Y194856D01*
X189233Y194846D01*
X189260Y194828D01*
X189297Y194791D01*
X189344Y194745D01*
X189399Y194680D01*
X189473Y194606D01*
X189538Y194514D01*
X189612Y194412D01*
X189686Y194301D01*
X189750Y194172D01*
X189815Y194033D01*
X189880Y193885D01*
X189926Y193728D01*
X189963Y193552D01*
X189991Y193367D01*
X190000Y193173D01*
Y193090D01*
X189991Y193025D01*
X189982Y192951D01*
X189972Y192868D01*
X189963Y192766D01*
X189935Y192665D01*
X189880Y192433D01*
X189797Y192202D01*
X189741Y192082D01*
X189676Y191962D01*
X189603Y191851D01*
X189519Y191740D01*
X189510Y191731D01*
X189501Y191712D01*
X189464Y191694D01*
X189427Y191657D01*
X189381Y191611D01*
X189325Y191564D01*
X189251Y191509D01*
X189168Y191462D01*
X189085Y191407D01*
X188983Y191352D01*
X188761Y191250D01*
X188502Y191167D01*
X188364Y191139D01*
X188216Y191120D01*
X188151Y191943D01*
X188160D01*
X188179D01*
X188206Y191952D01*
X188253Y191962D01*
X188354Y191989D01*
X188493Y192027D01*
X188632Y192082D01*
X188789Y192156D01*
X188928Y192248D01*
X189057Y192359D01*
X189066Y192378D01*
X189103Y192415D01*
X189149Y192489D01*
X189205Y192591D01*
X189260Y192701D01*
X189307Y192840D01*
X189344Y192997D01*
X189353Y193173D01*
Y193228D01*
X189344Y193265D01*
X189334Y193376D01*
X189297Y193506D01*
X189251Y193663D01*
X189177Y193820D01*
X189066Y193987D01*
X189002Y194060D01*
X188928Y194135D01*
X188918Y194144D01*
X188909Y194153D01*
X188881Y194172D01*
X188854Y194199D01*
X188752Y194264D01*
X188622Y194338D01*
X188465Y194403D01*
X188271Y194467D01*
X188040Y194514D01*
X187920Y194532D01*
X187790D01*
X187781D01*
X187763D01*
X187726D01*
X187679Y194523D01*
X187624D01*
X187559Y194514D01*
X187411Y194486D01*
X187236Y194440D01*
X187060Y194375D01*
X186894Y194282D01*
X186736Y194153D01*
X186727D01*
X186718Y194135D01*
X186672Y194088D01*
X186607Y194005D01*
X186533Y193894D01*
X186468Y193746D01*
X186404Y193580D01*
X186357Y193386D01*
X186339Y193275D01*
Y193099D01*
X186348Y193025D01*
X186357Y192933D01*
X186385Y192822D01*
X186413Y192711D01*
X186459Y192591D01*
X186514Y192470D01*
X186524Y192461D01*
X186542Y192424D01*
X186588Y192369D01*
X186635Y192295D01*
X186699Y192221D01*
X186783Y192147D01*
X186866Y192064D01*
X186968Y191999D01*
X186866Y191259D01*
X183574Y191879D01*
Y195059D01*
X184323D01*
Y192498D01*
X186052Y192156D01*
X186043Y192165D01*
X186034Y192184D01*
X186015Y192211D01*
X185987Y192258D01*
X185960Y192313D01*
X185923Y192378D01*
X185849Y192526D01*
X185775Y192711D01*
X185710Y192914D01*
X185664Y193136D01*
X185645Y193247D01*
Y193450D01*
X185655Y193506D01*
X185664Y193580D01*
X185673Y193663D01*
X185692Y193755D01*
X185719Y193857D01*
X185784Y194079D01*
X185830Y194199D01*
X185895Y194319D01*
X185960Y194440D01*
X186034Y194560D01*
X186126Y194671D01*
X186228Y194782D01*
X186237Y194791D01*
X186256Y194809D01*
X186283Y194837D01*
X186329Y194874D01*
X186394Y194920D01*
X186459Y194967D01*
X186542Y195022D01*
X186635Y195078D01*
X186736Y195124D01*
X186847Y195179D01*
X186977Y195226D01*
X187106Y195272D01*
X187245Y195309D01*
X187402Y195336D01*
X187559Y195355D01*
X187726Y195364D01*
X187735D01*
X187763D01*
X187809D01*
X187874Y195355D01*
D02*
G37*
G36*
X189889Y189567D02*
X188558Y188726D01*
X188549D01*
X188530Y188707D01*
X188502Y188689D01*
X188465Y188661D01*
X188364Y188596D01*
X188234Y188513D01*
X188095Y188412D01*
X187948Y188310D01*
X187809Y188208D01*
X187679Y188116D01*
X187670Y188106D01*
X187633Y188079D01*
X187578Y188032D01*
X187513Y187968D01*
X187374Y187829D01*
X187310Y187755D01*
X187254Y187681D01*
X187245Y187672D01*
X187236Y187653D01*
X187217Y187616D01*
X187189Y187561D01*
X187162Y187505D01*
X187134Y187441D01*
X187088Y187293D01*
Y187283D01*
X187078Y187265D01*
Y187228D01*
X187069Y187182D01*
X187060Y187117D01*
Y187043D01*
X187051Y186941D01*
Y185851D01*
X189889D01*
Y185000D01*
X183491D01*
Y187968D01*
X183500Y188042D01*
Y188125D01*
X183510Y188319D01*
X183537Y188522D01*
X183565Y188744D01*
X183611Y188948D01*
X183639Y189049D01*
X183667Y189133D01*
Y189142D01*
X183676Y189151D01*
X183704Y189207D01*
X183741Y189290D01*
X183806Y189391D01*
X183889Y189503D01*
X184000Y189623D01*
X184129Y189734D01*
X184277Y189845D01*
X184286D01*
X184296Y189854D01*
X184351Y189891D01*
X184443Y189928D01*
X184564Y189983D01*
X184702Y190030D01*
X184869Y190076D01*
X185044Y190103D01*
X185239Y190113D01*
X185248D01*
X185266D01*
X185303D01*
X185350Y190103D01*
X185414D01*
X185479Y190094D01*
X185636Y190057D01*
X185821Y190002D01*
X186015Y189928D01*
X186209Y189817D01*
X186302Y189743D01*
X186394Y189669D01*
X186404Y189660D01*
X186413Y189650D01*
X186441Y189623D01*
X186468Y189586D01*
X186505Y189539D01*
X186542Y189484D01*
X186588Y189410D01*
X186644Y189336D01*
X186690Y189244D01*
X186736Y189142D01*
X186792Y189031D01*
X186838Y188911D01*
X186875Y188772D01*
X186921Y188633D01*
X186949Y188476D01*
X186977Y188310D01*
X186986Y188328D01*
X187005Y188365D01*
X187041Y188421D01*
X187078Y188495D01*
X187180Y188661D01*
X187245Y188744D01*
X187300Y188818D01*
X187319Y188837D01*
X187365Y188883D01*
X187439Y188957D01*
X187532Y189049D01*
X187661Y189151D01*
X187800Y189271D01*
X187966Y189391D01*
X188151Y189521D01*
X189889Y190621D01*
Y189567D01*
D02*
G37*
G36*
X128465Y194421D02*
X130000D01*
Y193635D01*
X128465D01*
Y190852D01*
X127744D01*
X123602Y193783D01*
Y194421D01*
X127744D01*
Y195290D01*
X128465D01*
Y194421D01*
D02*
G37*
G36*
X130000Y189567D02*
X128669Y188726D01*
X128659D01*
X128641Y188707D01*
X128613Y188689D01*
X128576Y188661D01*
X128475Y188596D01*
X128345Y188513D01*
X128206Y188412D01*
X128059Y188310D01*
X127920Y188208D01*
X127790Y188116D01*
X127781Y188106D01*
X127744Y188079D01*
X127689Y188032D01*
X127624Y187968D01*
X127485Y187829D01*
X127421Y187755D01*
X127365Y187681D01*
X127356Y187672D01*
X127347Y187653D01*
X127328Y187616D01*
X127300Y187561D01*
X127273Y187505D01*
X127245Y187441D01*
X127199Y187293D01*
Y187283D01*
X127189Y187265D01*
Y187228D01*
X127180Y187182D01*
X127171Y187117D01*
Y187043D01*
X127162Y186941D01*
Y185851D01*
X130000D01*
Y185000D01*
X123602D01*
Y187968D01*
X123611Y188042D01*
Y188125D01*
X123621Y188319D01*
X123648Y188522D01*
X123676Y188744D01*
X123722Y188948D01*
X123750Y189049D01*
X123778Y189133D01*
Y189142D01*
X123787Y189151D01*
X123815Y189207D01*
X123852Y189290D01*
X123917Y189391D01*
X124000Y189503D01*
X124111Y189623D01*
X124240Y189734D01*
X124388Y189845D01*
X124397D01*
X124406Y189854D01*
X124462Y189891D01*
X124554Y189928D01*
X124675Y189983D01*
X124813Y190030D01*
X124980Y190076D01*
X125155Y190103D01*
X125350Y190113D01*
X125359D01*
X125377D01*
X125414D01*
X125461Y190103D01*
X125525D01*
X125590Y190094D01*
X125747Y190057D01*
X125932Y190002D01*
X126126Y189928D01*
X126320Y189817D01*
X126413Y189743D01*
X126505Y189669D01*
X126515Y189660D01*
X126524Y189650D01*
X126552Y189623D01*
X126579Y189586D01*
X126616Y189539D01*
X126653Y189484D01*
X126699Y189410D01*
X126755Y189336D01*
X126801Y189244D01*
X126847Y189142D01*
X126903Y189031D01*
X126949Y188911D01*
X126986Y188772D01*
X127032Y188633D01*
X127060Y188476D01*
X127088Y188310D01*
X127097Y188328D01*
X127115Y188365D01*
X127152Y188421D01*
X127189Y188495D01*
X127291Y188661D01*
X127356Y188744D01*
X127411Y188818D01*
X127430Y188837D01*
X127476Y188883D01*
X127550Y188957D01*
X127642Y189049D01*
X127772Y189151D01*
X127911Y189271D01*
X128077Y189391D01*
X128262Y189521D01*
X130000Y190621D01*
Y189567D01*
D02*
G37*
G36*
X68142Y195309D02*
X68216Y195299D01*
X68299Y195281D01*
X68391Y195263D01*
X68493Y195244D01*
X68715Y195170D01*
X68835Y195115D01*
X68946Y195059D01*
X69066Y194985D01*
X69187Y194902D01*
X69307Y194809D01*
X69418Y194699D01*
X69427Y194689D01*
X69445Y194671D01*
X69473Y194634D01*
X69510Y194588D01*
X69556Y194532D01*
X69602Y194458D01*
X69658Y194375D01*
X69704Y194273D01*
X69760Y194172D01*
X69815Y194051D01*
X69861Y193931D01*
X69908Y193792D01*
X69945Y193645D01*
X69972Y193487D01*
X69991Y193330D01*
X70000Y193155D01*
Y193071D01*
X69991Y193016D01*
X69982Y192942D01*
X69972Y192859D01*
X69954Y192766D01*
X69935Y192665D01*
X69880Y192443D01*
X69787Y192211D01*
X69732Y192091D01*
X69667Y191980D01*
X69584Y191869D01*
X69501Y191758D01*
X69492Y191749D01*
X69473Y191731D01*
X69445Y191703D01*
X69408Y191675D01*
X69362Y191629D01*
X69297Y191583D01*
X69233Y191527D01*
X69149Y191472D01*
X69057Y191416D01*
X68965Y191361D01*
X68743Y191259D01*
X68484Y191176D01*
X68345Y191148D01*
X68197Y191130D01*
X68095Y191916D01*
X68105D01*
X68123Y191925D01*
X68160Y191934D01*
X68206Y191943D01*
X68262Y191953D01*
X68327Y191971D01*
X68465Y192017D01*
X68632Y192082D01*
X68789Y192165D01*
X68937Y192258D01*
X69066Y192369D01*
X69075Y192387D01*
X69113Y192424D01*
X69159Y192498D01*
X69205Y192591D01*
X69260Y192701D01*
X69307Y192840D01*
X69344Y192997D01*
X69353Y193164D01*
Y193219D01*
X69344Y193256D01*
X69334Y193358D01*
X69307Y193487D01*
X69260Y193635D01*
X69196Y193792D01*
X69103Y193950D01*
X68974Y194098D01*
X68955Y194116D01*
X68900Y194162D01*
X68817Y194218D01*
X68706Y194292D01*
X68567Y194366D01*
X68410Y194421D01*
X68225Y194467D01*
X68021Y194486D01*
X68012D01*
X67994D01*
X67966D01*
X67929Y194477D01*
X67827Y194467D01*
X67707Y194440D01*
X67559Y194403D01*
X67411Y194338D01*
X67263Y194245D01*
X67125Y194125D01*
X67106Y194107D01*
X67069Y194061D01*
X67014Y193987D01*
X66949Y193885D01*
X66884Y193755D01*
X66829Y193598D01*
X66792Y193423D01*
X66773Y193228D01*
Y193145D01*
X66783Y193081D01*
X66792Y192997D01*
X66810Y192905D01*
X66829Y192794D01*
X66857Y192674D01*
X66163Y192766D01*
Y192812D01*
X66172Y192849D01*
Y192970D01*
X66154Y193071D01*
X66135Y193192D01*
X66108Y193330D01*
X66062Y193487D01*
X65997Y193635D01*
X65914Y193792D01*
Y193802D01*
X65904Y193811D01*
X65867Y193857D01*
X65803Y193922D01*
X65719Y193996D01*
X65599Y194070D01*
X65461Y194135D01*
X65303Y194181D01*
X65211Y194199D01*
X65109D01*
X65100D01*
X65091D01*
X65035D01*
X64961Y194181D01*
X64859Y194162D01*
X64749Y194125D01*
X64628Y194079D01*
X64508Y194005D01*
X64397Y193903D01*
X64388Y193894D01*
X64351Y193848D01*
X64305Y193783D01*
X64249Y193700D01*
X64203Y193589D01*
X64157Y193460D01*
X64120Y193312D01*
X64111Y193145D01*
Y193071D01*
X64129Y192988D01*
X64148Y192877D01*
X64185Y192757D01*
X64231Y192637D01*
X64305Y192507D01*
X64397Y192387D01*
X64406Y192378D01*
X64453Y192341D01*
X64517Y192285D01*
X64610Y192221D01*
X64730Y192156D01*
X64878Y192091D01*
X65054Y192036D01*
X65257Y191999D01*
X65118Y191213D01*
X65109D01*
X65081Y191222D01*
X65044Y191231D01*
X64989Y191241D01*
X64924Y191259D01*
X64850Y191287D01*
X64675Y191342D01*
X64471Y191435D01*
X64268Y191546D01*
X64074Y191684D01*
X63898Y191860D01*
X63889Y191869D01*
X63879Y191888D01*
X63861Y191916D01*
X63833Y191953D01*
X63796Y191999D01*
X63759Y192064D01*
X63722Y192128D01*
X63676Y192211D01*
X63602Y192396D01*
X63528Y192609D01*
X63482Y192859D01*
X63463Y192988D01*
Y193219D01*
X63473Y193321D01*
X63491Y193441D01*
X63519Y193589D01*
X63565Y193755D01*
X63621Y193922D01*
X63695Y194088D01*
Y194098D01*
X63704Y194107D01*
X63732Y194162D01*
X63787Y194245D01*
X63852Y194338D01*
X63944Y194449D01*
X64046Y194560D01*
X64166Y194671D01*
X64305Y194763D01*
X64323Y194772D01*
X64370Y194800D01*
X64453Y194837D01*
X64554Y194883D01*
X64675Y194930D01*
X64813Y194967D01*
X64970Y194994D01*
X65128Y195004D01*
X65146D01*
X65202D01*
X65276Y194994D01*
X65377Y194976D01*
X65497Y194948D01*
X65627Y194902D01*
X65756Y194846D01*
X65886Y194772D01*
X65904Y194763D01*
X65941Y194736D01*
X66006Y194680D01*
X66080Y194606D01*
X66163Y194514D01*
X66256Y194403D01*
X66339Y194273D01*
X66422Y194116D01*
Y194125D01*
X66431Y194144D01*
X66441Y194172D01*
X66450Y194209D01*
X66487Y194310D01*
X66542Y194440D01*
X66616Y194588D01*
X66709Y194736D01*
X66829Y194874D01*
X66968Y195004D01*
X66986Y195013D01*
X67042Y195050D01*
X67134Y195105D01*
X67254Y195161D01*
X67402Y195216D01*
X67578Y195272D01*
X67781Y195309D01*
X68003Y195318D01*
X68012D01*
X68040D01*
X68086D01*
X68142Y195309D01*
D02*
G37*
G36*
X69889Y189567D02*
X68558Y188726D01*
X68548D01*
X68530Y188707D01*
X68502Y188689D01*
X68465Y188661D01*
X68364Y188596D01*
X68234Y188513D01*
X68095Y188412D01*
X67948Y188310D01*
X67809Y188208D01*
X67679Y188116D01*
X67670Y188106D01*
X67633Y188079D01*
X67578Y188032D01*
X67513Y187968D01*
X67374Y187829D01*
X67310Y187755D01*
X67254Y187681D01*
X67245Y187672D01*
X67236Y187653D01*
X67217Y187616D01*
X67189Y187561D01*
X67162Y187505D01*
X67134Y187441D01*
X67088Y187293D01*
Y187283D01*
X67078Y187265D01*
Y187228D01*
X67069Y187182D01*
X67060Y187117D01*
Y187043D01*
X67051Y186942D01*
Y185851D01*
X69889D01*
Y185000D01*
X63491D01*
Y187968D01*
X63500Y188042D01*
Y188125D01*
X63510Y188319D01*
X63537Y188522D01*
X63565Y188744D01*
X63611Y188948D01*
X63639Y189049D01*
X63667Y189133D01*
Y189142D01*
X63676Y189151D01*
X63704Y189207D01*
X63741Y189290D01*
X63805Y189391D01*
X63889Y189503D01*
X64000Y189623D01*
X64129Y189734D01*
X64277Y189845D01*
X64286D01*
X64296Y189854D01*
X64351Y189891D01*
X64443Y189928D01*
X64564Y189983D01*
X64702Y190030D01*
X64869Y190076D01*
X65044Y190103D01*
X65239Y190113D01*
X65248D01*
X65266D01*
X65303D01*
X65350Y190103D01*
X65414D01*
X65479Y190094D01*
X65636Y190057D01*
X65821Y190002D01*
X66015Y189928D01*
X66209Y189817D01*
X66302Y189743D01*
X66394Y189669D01*
X66404Y189660D01*
X66413Y189650D01*
X66441Y189623D01*
X66468Y189586D01*
X66505Y189540D01*
X66542Y189484D01*
X66589Y189410D01*
X66644Y189336D01*
X66690Y189244D01*
X66736Y189142D01*
X66792Y189031D01*
X66838Y188911D01*
X66875Y188772D01*
X66921Y188633D01*
X66949Y188476D01*
X66977Y188310D01*
X66986Y188328D01*
X67004Y188365D01*
X67042Y188421D01*
X67078Y188495D01*
X67180Y188661D01*
X67245Y188744D01*
X67300Y188818D01*
X67319Y188837D01*
X67365Y188883D01*
X67439Y188957D01*
X67531Y189049D01*
X67661Y189151D01*
X67800Y189271D01*
X67966Y189391D01*
X68151Y189521D01*
X69889Y190621D01*
Y189567D01*
D02*
G37*
G36*
X529889Y701268D02*
X529880D01*
X529843D01*
X529787D01*
X529714Y701278D01*
X529630Y701287D01*
X529538Y701305D01*
X529445Y701324D01*
X529344Y701361D01*
X529334D01*
X529325Y701370D01*
X529270Y701389D01*
X529187Y701426D01*
X529076Y701481D01*
X528946Y701555D01*
X528798Y701647D01*
X528650Y701749D01*
X528493Y701879D01*
X528484D01*
X528475Y701897D01*
X528419Y701943D01*
X528336Y702027D01*
X528216Y702147D01*
X528077Y702285D01*
X527911Y702461D01*
X527726Y702674D01*
X527532Y702905D01*
X527522Y702914D01*
X527495Y702951D01*
X527448Y703007D01*
X527393Y703071D01*
X527319Y703155D01*
X527236Y703256D01*
X527143Y703358D01*
X527042Y703478D01*
X526820Y703709D01*
X526598Y703940D01*
X526487Y704051D01*
X526376Y704153D01*
X526274Y704246D01*
X526172Y704319D01*
X526163D01*
X526154Y704338D01*
X526126Y704356D01*
X526089Y704375D01*
X525988Y704440D01*
X525867Y704514D01*
X525719Y704578D01*
X525562Y704643D01*
X525387Y704680D01*
X525220Y704698D01*
X525211D01*
X525202D01*
X525146Y704689D01*
X525054Y704680D01*
X524952Y704652D01*
X524823Y704615D01*
X524693Y704551D01*
X524564Y704467D01*
X524434Y704356D01*
X524416Y704338D01*
X524379Y704292D01*
X524333Y704227D01*
X524268Y704125D01*
X524212Y703996D01*
X524157Y703848D01*
X524120Y703672D01*
X524111Y703478D01*
Y703423D01*
X524120Y703386D01*
X524129Y703275D01*
X524157Y703145D01*
X524194Y703007D01*
X524259Y702849D01*
X524342Y702701D01*
X524453Y702563D01*
X524471Y702544D01*
X524517Y702507D01*
X524591Y702452D01*
X524702Y702396D01*
X524832Y702332D01*
X524998Y702276D01*
X525183Y702239D01*
X525396Y702221D01*
X525313Y701416D01*
X525303D01*
X525276Y701426D01*
X525229D01*
X525165Y701435D01*
X525091Y701453D01*
X525008Y701472D01*
X524906Y701499D01*
X524804Y701527D01*
X524582Y701601D01*
X524360Y701712D01*
X524249Y701777D01*
X524138Y701860D01*
X524037Y701943D01*
X523944Y702036D01*
X523935Y702045D01*
X523926Y702064D01*
X523898Y702091D01*
X523870Y702138D01*
X523833Y702193D01*
X523796Y702258D01*
X523750Y702332D01*
X523704Y702424D01*
X523658Y702526D01*
X523611Y702637D01*
X523574Y702757D01*
X523537Y702886D01*
X523510Y703025D01*
X523482Y703173D01*
X523473Y703330D01*
X523463Y703497D01*
Y703589D01*
X523473Y703654D01*
X523482Y703728D01*
X523491Y703820D01*
X523510Y703922D01*
X523528Y704024D01*
X523593Y704264D01*
X523685Y704504D01*
X523741Y704624D01*
X523806Y704745D01*
X523889Y704856D01*
X523981Y704957D01*
X523990Y704967D01*
X524000Y704985D01*
X524037Y705004D01*
X524074Y705041D01*
X524120Y705087D01*
X524185Y705133D01*
X524249Y705179D01*
X524333Y705235D01*
X524508Y705327D01*
X524730Y705420D01*
X524841Y705457D01*
X524971Y705475D01*
X525100Y705494D01*
X525239Y705503D01*
X525257D01*
X525303D01*
X525377Y705494D01*
X525479Y705484D01*
X525590Y705466D01*
X525719Y705429D01*
X525858Y705392D01*
X525997Y705337D01*
X526015Y705327D01*
X526062Y705309D01*
X526135Y705272D01*
X526237Y705216D01*
X526348Y705142D01*
X526487Y705050D01*
X526625Y704939D01*
X526783Y704809D01*
X526801Y704791D01*
X526857Y704745D01*
X526903Y704698D01*
X526949Y704652D01*
X527005Y704597D01*
X527079Y704523D01*
X527152Y704449D01*
X527236Y704356D01*
X527328Y704264D01*
X527430Y704153D01*
X527532Y704033D01*
X527652Y703903D01*
X527772Y703755D01*
X527901Y703607D01*
X527911Y703598D01*
X527929Y703580D01*
X527957Y703543D01*
X527994Y703497D01*
X528049Y703441D01*
X528105Y703376D01*
X528225Y703229D01*
X528364Y703071D01*
X528502Y702923D01*
X528623Y702794D01*
X528669Y702738D01*
X528715Y702692D01*
X528724Y702683D01*
X528752Y702655D01*
X528789Y702618D01*
X528844Y702572D01*
X528909Y702526D01*
X528974Y702470D01*
X529131Y702359D01*
Y705512D01*
X529889D01*
Y701268D01*
D02*
G37*
G36*
X527911Y700649D02*
X527966Y700630D01*
X528040Y700603D01*
X528123Y700575D01*
X528225Y700538D01*
X528336Y700492D01*
X528456Y700436D01*
X528715Y700307D01*
X528974Y700140D01*
X529103Y700039D01*
X529233Y699937D01*
X529344Y699826D01*
X529455Y699697D01*
X529464Y699687D01*
X529482Y699669D01*
X529501Y699623D01*
X529538Y699576D01*
X529584Y699502D01*
X529630Y699428D01*
X529677Y699327D01*
X529723Y699225D01*
X529778Y699105D01*
X529824Y698976D01*
X529871Y698837D01*
X529917Y698689D01*
X529954Y698532D01*
X529972Y698365D01*
X529991Y698190D01*
X530000Y698005D01*
Y697903D01*
X529991Y697829D01*
Y697746D01*
X529982Y697644D01*
X529963Y697533D01*
X529945Y697404D01*
X529898Y697136D01*
X529824Y696858D01*
X529723Y696581D01*
X529658Y696451D01*
X529584Y696322D01*
X529575Y696313D01*
X529566Y696294D01*
X529538Y696257D01*
X529501Y696220D01*
X529464Y696165D01*
X529408Y696100D01*
X529344Y696026D01*
X529270Y695952D01*
X529187Y695878D01*
X529103Y695795D01*
X528891Y695629D01*
X528641Y695471D01*
X528364Y695333D01*
X528354D01*
X528327Y695314D01*
X528280Y695305D01*
X528225Y695277D01*
X528151Y695259D01*
X528059Y695231D01*
X527957Y695194D01*
X527846Y695166D01*
X527726Y695139D01*
X527587Y695102D01*
X527300Y695055D01*
X526977Y695018D01*
X526644Y695000D01*
X526635D01*
X526598D01*
X526542D01*
X526478Y695009D01*
X526385D01*
X526293Y695018D01*
X526172Y695028D01*
X526052Y695046D01*
X525784Y695092D01*
X525488Y695157D01*
X525192Y695249D01*
X524906Y695379D01*
X524897Y695388D01*
X524869Y695397D01*
X524832Y695416D01*
X524786Y695453D01*
X524721Y695490D01*
X524647Y695536D01*
X524481Y695656D01*
X524296Y695814D01*
X524111Y695998D01*
X523926Y696211D01*
X523769Y696461D01*
X523759Y696470D01*
X523750Y696498D01*
X523732Y696535D01*
X523704Y696581D01*
X523676Y696655D01*
X523648Y696729D01*
X523611Y696821D01*
X523574Y696923D01*
X523537Y697034D01*
X523500Y697154D01*
X523445Y697413D01*
X523399Y697709D01*
X523380Y698014D01*
Y698106D01*
X523390Y698171D01*
X523399Y698254D01*
X523408Y698356D01*
X523417Y698458D01*
X523445Y698578D01*
X523500Y698828D01*
X523584Y699105D01*
X523639Y699244D01*
X523704Y699373D01*
X523787Y699502D01*
X523870Y699632D01*
X523880Y699641D01*
X523889Y699660D01*
X523917Y699697D01*
X523963Y699743D01*
X524009Y699789D01*
X524074Y699854D01*
X524148Y699919D01*
X524222Y699993D01*
X524314Y700067D01*
X524425Y700140D01*
X524536Y700224D01*
X524656Y700298D01*
X524795Y700362D01*
X524934Y700436D01*
X525081Y700492D01*
X525248Y700547D01*
X525442Y699715D01*
X525433D01*
X525414Y699706D01*
X525377Y699687D01*
X525331Y699669D01*
X525276Y699650D01*
X525202Y699623D01*
X525054Y699549D01*
X524887Y699456D01*
X524721Y699345D01*
X524564Y699207D01*
X524425Y699059D01*
X524407Y699040D01*
X524370Y698985D01*
X524323Y698892D01*
X524259Y698772D01*
X524203Y698615D01*
X524148Y698439D01*
X524111Y698227D01*
X524101Y697996D01*
Y697922D01*
X524111Y697875D01*
Y697811D01*
X524120Y697737D01*
X524148Y697561D01*
X524185Y697367D01*
X524249Y697163D01*
X524342Y696951D01*
X524462Y696757D01*
Y696747D01*
X524481Y696738D01*
X524527Y696673D01*
X524601Y696590D01*
X524712Y696488D01*
X524850Y696368D01*
X525008Y696257D01*
X525202Y696156D01*
X525414Y696063D01*
X525424D01*
X525442Y696054D01*
X525470Y696045D01*
X525516Y696035D01*
X525571Y696017D01*
X525636Y695998D01*
X525793Y695971D01*
X525978Y695934D01*
X526182Y695897D01*
X526404Y695878D01*
X526644Y695869D01*
X526653D01*
X526681D01*
X526727D01*
X526783D01*
X526847Y695878D01*
X526931D01*
X527023Y695888D01*
X527125Y695897D01*
X527347Y695924D01*
X527587Y695971D01*
X527827Y696026D01*
X528068Y696100D01*
X528077D01*
X528096Y696109D01*
X528123Y696128D01*
X528170Y696146D01*
X528280Y696202D01*
X528410Y696285D01*
X528558Y696387D01*
X528715Y696516D01*
X528854Y696664D01*
X528983Y696840D01*
Y696849D01*
X528992Y696868D01*
X529011Y696895D01*
X529029Y696932D01*
X529048Y696978D01*
X529076Y697034D01*
X529131Y697163D01*
X529187Y697330D01*
X529233Y697515D01*
X529270Y697718D01*
X529279Y697931D01*
Y697996D01*
X529270Y698051D01*
Y698116D01*
X529260Y698180D01*
X529224Y698347D01*
X529177Y698541D01*
X529103Y698735D01*
X529002Y698939D01*
X528946Y699040D01*
X528872Y699133D01*
X528863Y699142D01*
X528854Y699151D01*
X528826Y699179D01*
X528798Y699216D01*
X528752Y699253D01*
X528697Y699299D01*
X528641Y699355D01*
X528567Y699401D01*
X528484Y699456D01*
X528391Y699521D01*
X528299Y699576D01*
X528188Y699632D01*
X528068Y699678D01*
X527938Y699724D01*
X527800Y699771D01*
X527652Y699808D01*
X527864Y700658D01*
X527874D01*
X527911Y700649D01*
D02*
G37*
G36*
X389053Y750000D02*
X388267D01*
Y755002D01*
X388258Y754993D01*
X388212Y754956D01*
X388156Y754900D01*
X388064Y754835D01*
X387962Y754752D01*
X387833Y754660D01*
X387685Y754558D01*
X387518Y754456D01*
X387509D01*
X387500Y754447D01*
X387444Y754410D01*
X387352Y754364D01*
X387241Y754308D01*
X387112Y754244D01*
X386973Y754179D01*
X386834Y754114D01*
X386696Y754059D01*
Y754817D01*
X386705D01*
X386723Y754835D01*
X386760Y754845D01*
X386806Y754872D01*
X386862Y754900D01*
X386927Y754937D01*
X387084Y755030D01*
X387269Y755131D01*
X387454Y755261D01*
X387648Y755408D01*
X387842Y755566D01*
X387851Y755575D01*
X387860Y755584D01*
X387888Y755612D01*
X387925Y755640D01*
X388008Y755732D01*
X388119Y755843D01*
X388230Y755973D01*
X388350Y756121D01*
X388452Y756268D01*
X388545Y756426D01*
X389053D01*
Y750000D01*
D02*
G37*
G36*
X384079D02*
X383293D01*
Y755002D01*
X383284Y754993D01*
X383238Y754956D01*
X383182Y754900D01*
X383090Y754835D01*
X382988Y754752D01*
X382859Y754660D01*
X382711Y754558D01*
X382544Y754456D01*
X382535D01*
X382526Y754447D01*
X382470Y754410D01*
X382378Y754364D01*
X382267Y754308D01*
X382137Y754244D01*
X381999Y754179D01*
X381860Y754114D01*
X381721Y754059D01*
Y754817D01*
X381731D01*
X381749Y754835D01*
X381786Y754845D01*
X381832Y754872D01*
X381888Y754900D01*
X381953Y754937D01*
X382110Y755030D01*
X382295Y755131D01*
X382480Y755261D01*
X382674Y755408D01*
X382868Y755566D01*
X382877Y755575D01*
X382886Y755584D01*
X382914Y755612D01*
X382951Y755640D01*
X383034Y755732D01*
X383145Y755843D01*
X383256Y755973D01*
X383376Y756121D01*
X383478Y756268D01*
X383571Y756426D01*
X384079D01*
Y750000D01*
D02*
G37*
G36*
X378042Y756389D02*
X378125D01*
X378319Y756379D01*
X378522Y756352D01*
X378744Y756324D01*
X378948Y756278D01*
X379049Y756250D01*
X379133Y756222D01*
X379142D01*
X379151Y756213D01*
X379207Y756185D01*
X379290Y756148D01*
X379392Y756084D01*
X379502Y756000D01*
X379623Y755889D01*
X379734Y755760D01*
X379845Y755612D01*
Y755603D01*
X379854Y755593D01*
X379891Y755538D01*
X379928Y755445D01*
X379983Y755325D01*
X380029Y755187D01*
X380076Y755020D01*
X380103Y754845D01*
X380113Y754650D01*
Y754641D01*
Y754623D01*
Y754586D01*
X380103Y754539D01*
Y754475D01*
X380094Y754410D01*
X380057Y754253D01*
X380002Y754068D01*
X379928Y753874D01*
X379817Y753680D01*
X379743Y753587D01*
X379669Y753495D01*
X379660Y753485D01*
X379650Y753476D01*
X379623Y753448D01*
X379586Y753421D01*
X379539Y753384D01*
X379484Y753347D01*
X379410Y753301D01*
X379336Y753245D01*
X379244Y753199D01*
X379142Y753153D01*
X379031Y753097D01*
X378911Y753051D01*
X378772Y753014D01*
X378633Y752968D01*
X378476Y752940D01*
X378310Y752912D01*
X378328Y752903D01*
X378365Y752885D01*
X378421Y752848D01*
X378495Y752811D01*
X378661Y752709D01*
X378744Y752644D01*
X378818Y752589D01*
X378837Y752570D01*
X378883Y752524D01*
X378957Y752450D01*
X379049Y752357D01*
X379151Y752228D01*
X379271Y752089D01*
X379392Y751923D01*
X379521Y751738D01*
X380621Y750000D01*
X379567D01*
X378726Y751331D01*
Y751340D01*
X378707Y751359D01*
X378689Y751387D01*
X378661Y751424D01*
X378596Y751525D01*
X378513Y751655D01*
X378411Y751794D01*
X378310Y751941D01*
X378208Y752080D01*
X378116Y752210D01*
X378106Y752219D01*
X378079Y752256D01*
X378032Y752311D01*
X377968Y752376D01*
X377829Y752515D01*
X377755Y752579D01*
X377681Y752635D01*
X377672Y752644D01*
X377653Y752653D01*
X377616Y752672D01*
X377561Y752700D01*
X377505Y752727D01*
X377441Y752755D01*
X377293Y752801D01*
X377284D01*
X377265Y752811D01*
X377228D01*
X377182Y752820D01*
X377117Y752829D01*
X377043D01*
X376941Y752838D01*
X375850D01*
Y750000D01*
X375000D01*
Y756398D01*
X377968D01*
X378042Y756389D01*
D02*
G37*
G36*
X219889Y703552D02*
X214887D01*
X214897Y703543D01*
X214933Y703497D01*
X214989Y703441D01*
X215054Y703349D01*
X215137Y703247D01*
X215229Y703118D01*
X215331Y702970D01*
X215433Y702803D01*
Y702794D01*
X215442Y702785D01*
X215479Y702729D01*
X215525Y702637D01*
X215581Y702526D01*
X215645Y702396D01*
X215710Y702258D01*
X215775Y702119D01*
X215830Y701980D01*
X215072D01*
Y701990D01*
X215054Y702008D01*
X215044Y702045D01*
X215017Y702091D01*
X214989Y702147D01*
X214952Y702211D01*
X214860Y702369D01*
X214758Y702553D01*
X214628Y702738D01*
X214480Y702933D01*
X214323Y703127D01*
X214314Y703136D01*
X214305Y703145D01*
X214277Y703173D01*
X214249Y703210D01*
X214157Y703293D01*
X214046Y703404D01*
X213916Y703515D01*
X213769Y703635D01*
X213621Y703737D01*
X213463Y703829D01*
Y704338D01*
X219889D01*
Y703552D01*
D02*
G37*
G36*
X217911Y700649D02*
X217966Y700630D01*
X218040Y700603D01*
X218123Y700575D01*
X218225Y700538D01*
X218336Y700492D01*
X218456Y700436D01*
X218715Y700307D01*
X218974Y700140D01*
X219103Y700039D01*
X219233Y699937D01*
X219344Y699826D01*
X219455Y699697D01*
X219464Y699687D01*
X219482Y699669D01*
X219501Y699623D01*
X219538Y699576D01*
X219584Y699502D01*
X219630Y699428D01*
X219676Y699327D01*
X219723Y699225D01*
X219778Y699105D01*
X219824Y698976D01*
X219871Y698837D01*
X219917Y698689D01*
X219954Y698532D01*
X219972Y698365D01*
X219991Y698190D01*
X220000Y698005D01*
Y697903D01*
X219991Y697829D01*
Y697746D01*
X219982Y697644D01*
X219963Y697533D01*
X219945Y697404D01*
X219898Y697136D01*
X219824Y696858D01*
X219723Y696581D01*
X219658Y696451D01*
X219584Y696322D01*
X219575Y696313D01*
X219566Y696294D01*
X219538Y696257D01*
X219501Y696220D01*
X219464Y696165D01*
X219408Y696100D01*
X219344Y696026D01*
X219270Y695952D01*
X219186Y695878D01*
X219103Y695795D01*
X218891Y695629D01*
X218641Y695471D01*
X218364Y695333D01*
X218354D01*
X218327Y695314D01*
X218280Y695305D01*
X218225Y695277D01*
X218151Y695259D01*
X218058Y695231D01*
X217957Y695194D01*
X217846Y695166D01*
X217726Y695139D01*
X217587Y695102D01*
X217300Y695055D01*
X216977Y695018D01*
X216644Y695000D01*
X216635D01*
X216598D01*
X216542D01*
X216478Y695009D01*
X216385D01*
X216293Y695018D01*
X216172Y695028D01*
X216052Y695046D01*
X215784Y695092D01*
X215488Y695157D01*
X215192Y695249D01*
X214906Y695379D01*
X214897Y695388D01*
X214869Y695397D01*
X214832Y695416D01*
X214786Y695453D01*
X214721Y695490D01*
X214647Y695536D01*
X214480Y695656D01*
X214296Y695814D01*
X214111Y695998D01*
X213926Y696211D01*
X213769Y696461D01*
X213759Y696470D01*
X213750Y696498D01*
X213732Y696535D01*
X213704Y696581D01*
X213676Y696655D01*
X213648Y696729D01*
X213611Y696821D01*
X213574Y696923D01*
X213537Y697034D01*
X213500Y697154D01*
X213445Y697413D01*
X213399Y697709D01*
X213380Y698014D01*
Y698106D01*
X213389Y698171D01*
X213399Y698254D01*
X213408Y698356D01*
X213417Y698458D01*
X213445Y698578D01*
X213500Y698828D01*
X213584Y699105D01*
X213639Y699244D01*
X213704Y699373D01*
X213787Y699502D01*
X213870Y699632D01*
X213880Y699641D01*
X213889Y699660D01*
X213916Y699697D01*
X213963Y699743D01*
X214009Y699789D01*
X214074Y699854D01*
X214148Y699919D01*
X214222Y699993D01*
X214314Y700067D01*
X214425Y700140D01*
X214536Y700224D01*
X214656Y700298D01*
X214795Y700362D01*
X214933Y700436D01*
X215081Y700492D01*
X215248Y700547D01*
X215442Y699715D01*
X215433D01*
X215414Y699706D01*
X215377Y699687D01*
X215331Y699669D01*
X215276Y699650D01*
X215202Y699623D01*
X215054Y699549D01*
X214887Y699456D01*
X214721Y699345D01*
X214564Y699207D01*
X214425Y699059D01*
X214407Y699040D01*
X214370Y698985D01*
X214323Y698892D01*
X214259Y698772D01*
X214203Y698615D01*
X214148Y698439D01*
X214111Y698227D01*
X214101Y697996D01*
Y697922D01*
X214111Y697875D01*
Y697811D01*
X214120Y697737D01*
X214148Y697561D01*
X214185Y697367D01*
X214249Y697163D01*
X214342Y696951D01*
X214462Y696757D01*
Y696747D01*
X214480Y696738D01*
X214527Y696673D01*
X214601Y696590D01*
X214712Y696488D01*
X214850Y696368D01*
X215007Y696257D01*
X215202Y696156D01*
X215414Y696063D01*
X215424D01*
X215442Y696054D01*
X215470Y696045D01*
X215516Y696035D01*
X215571Y696017D01*
X215636Y695998D01*
X215793Y695971D01*
X215978Y695934D01*
X216182Y695897D01*
X216404Y695878D01*
X216644Y695869D01*
X216653D01*
X216681D01*
X216727D01*
X216783D01*
X216847Y695878D01*
X216931D01*
X217023Y695888D01*
X217125Y695897D01*
X217347Y695924D01*
X217587Y695971D01*
X217827Y696026D01*
X218068Y696100D01*
X218077D01*
X218095Y696109D01*
X218123Y696128D01*
X218169Y696146D01*
X218280Y696202D01*
X218410Y696285D01*
X218558Y696387D01*
X218715Y696516D01*
X218854Y696664D01*
X218983Y696840D01*
Y696849D01*
X218992Y696868D01*
X219011Y696895D01*
X219029Y696932D01*
X219048Y696978D01*
X219076Y697034D01*
X219131Y697163D01*
X219186Y697330D01*
X219233Y697515D01*
X219270Y697718D01*
X219279Y697931D01*
Y697996D01*
X219270Y698051D01*
Y698116D01*
X219260Y698180D01*
X219223Y698347D01*
X219177Y698541D01*
X219103Y698735D01*
X219002Y698939D01*
X218946Y699040D01*
X218872Y699133D01*
X218863Y699142D01*
X218854Y699151D01*
X218826Y699179D01*
X218798Y699216D01*
X218752Y699253D01*
X218696Y699299D01*
X218641Y699355D01*
X218567Y699401D01*
X218484Y699456D01*
X218391Y699521D01*
X218299Y699576D01*
X218188Y699632D01*
X218068Y699678D01*
X217938Y699724D01*
X217800Y699771D01*
X217652Y699808D01*
X217864Y700658D01*
X217874D01*
X217911Y700649D01*
D02*
G37*
G36*
X230000Y428602D02*
X227032D01*
X226958Y428611D01*
X226875D01*
X226681Y428621D01*
X226478Y428648D01*
X226256Y428676D01*
X226052Y428722D01*
X225951Y428750D01*
X225867Y428778D01*
X225858D01*
X225849Y428787D01*
X225793Y428815D01*
X225710Y428852D01*
X225608Y428917D01*
X225497Y429000D01*
X225377Y429111D01*
X225266Y429240D01*
X225155Y429388D01*
Y429397D01*
X225146Y429407D01*
X225109Y429462D01*
X225072Y429554D01*
X225017Y429675D01*
X224970Y429813D01*
X224924Y429980D01*
X224897Y430155D01*
X224887Y430350D01*
Y430359D01*
Y430377D01*
Y430414D01*
X224897Y430461D01*
Y430525D01*
X224906Y430590D01*
X224943Y430747D01*
X224998Y430932D01*
X225072Y431126D01*
X225183Y431320D01*
X225257Y431413D01*
X225331Y431505D01*
X225340Y431515D01*
X225350Y431524D01*
X225377Y431552D01*
X225414Y431579D01*
X225460Y431616D01*
X225516Y431653D01*
X225590Y431699D01*
X225664Y431755D01*
X225756Y431801D01*
X225858Y431847D01*
X225969Y431903D01*
X226089Y431949D01*
X226228Y431986D01*
X226367Y432032D01*
X226524Y432060D01*
X226690Y432088D01*
X226672Y432097D01*
X226635Y432115D01*
X226579Y432152D01*
X226505Y432189D01*
X226339Y432291D01*
X226256Y432356D01*
X226182Y432411D01*
X226163Y432430D01*
X226117Y432476D01*
X226043Y432550D01*
X225951Y432642D01*
X225849Y432772D01*
X225729Y432911D01*
X225608Y433077D01*
X225479Y433262D01*
X224379Y435000D01*
X225433D01*
X226274Y433669D01*
Y433660D01*
X226293Y433641D01*
X226311Y433613D01*
X226339Y433576D01*
X226404Y433475D01*
X226487Y433345D01*
X226588Y433206D01*
X226690Y433059D01*
X226792Y432920D01*
X226884Y432790D01*
X226894Y432781D01*
X226921Y432744D01*
X226968Y432689D01*
X227032Y432624D01*
X227171Y432485D01*
X227245Y432421D01*
X227319Y432365D01*
X227328Y432356D01*
X227347Y432347D01*
X227384Y432328D01*
X227439Y432300D01*
X227495Y432273D01*
X227559Y432245D01*
X227707Y432199D01*
X227716D01*
X227735Y432189D01*
X227772D01*
X227818Y432180D01*
X227883Y432171D01*
X227957D01*
X228058Y432162D01*
X229149D01*
Y435000D01*
X230000D01*
Y428602D01*
D02*
G37*
G36*
X223990Y434991D02*
Y434954D01*
Y434898D01*
X223981Y434824D01*
X223972Y434741D01*
X223953Y434649D01*
X223935Y434556D01*
X223898Y434455D01*
Y434445D01*
X223889Y434436D01*
X223870Y434381D01*
X223833Y434297D01*
X223778Y434187D01*
X223704Y434057D01*
X223611Y433909D01*
X223510Y433761D01*
X223380Y433604D01*
Y433595D01*
X223362Y433586D01*
X223316Y433530D01*
X223232Y433447D01*
X223112Y433327D01*
X222973Y433188D01*
X222798Y433022D01*
X222585Y432837D01*
X222354Y432642D01*
X222345Y432633D01*
X222308Y432606D01*
X222252Y432559D01*
X222188Y432504D01*
X222104Y432430D01*
X222003Y432347D01*
X221901Y432254D01*
X221781Y432152D01*
X221550Y431931D01*
X221318Y431709D01*
X221208Y431598D01*
X221106Y431487D01*
X221013Y431385D01*
X220939Y431283D01*
Y431274D01*
X220921Y431265D01*
X220902Y431237D01*
X220884Y431200D01*
X220819Y431098D01*
X220745Y430978D01*
X220681Y430830D01*
X220616Y430673D01*
X220579Y430498D01*
X220560Y430331D01*
Y430322D01*
Y430313D01*
X220570Y430257D01*
X220579Y430165D01*
X220606Y430063D01*
X220644Y429934D01*
X220708Y429804D01*
X220791Y429675D01*
X220902Y429545D01*
X220921Y429527D01*
X220967Y429490D01*
X221032Y429444D01*
X221133Y429379D01*
X221263Y429323D01*
X221411Y429268D01*
X221587Y429231D01*
X221781Y429222D01*
X221836D01*
X221873Y429231D01*
X221984Y429240D01*
X222114Y429268D01*
X222252Y429305D01*
X222409Y429370D01*
X222557Y429453D01*
X222696Y429564D01*
X222715Y429582D01*
X222752Y429628D01*
X222807Y429702D01*
X222862Y429813D01*
X222927Y429943D01*
X222983Y430109D01*
X223020Y430294D01*
X223038Y430507D01*
X223843Y430424D01*
Y430414D01*
X223833Y430387D01*
Y430340D01*
X223824Y430276D01*
X223806Y430202D01*
X223787Y430118D01*
X223759Y430017D01*
X223732Y429915D01*
X223658Y429693D01*
X223547Y429471D01*
X223482Y429360D01*
X223399Y429249D01*
X223316Y429148D01*
X223223Y429055D01*
X223214Y429046D01*
X223195Y429037D01*
X223168Y429009D01*
X223121Y428981D01*
X223066Y428944D01*
X223001Y428907D01*
X222927Y428861D01*
X222835Y428815D01*
X222733Y428769D01*
X222622Y428722D01*
X222502Y428685D01*
X222372Y428648D01*
X222234Y428621D01*
X222086Y428593D01*
X221929Y428584D01*
X221762Y428574D01*
X221670D01*
X221605Y428584D01*
X221531Y428593D01*
X221439Y428602D01*
X221337Y428621D01*
X221235Y428639D01*
X220995Y428704D01*
X220755Y428796D01*
X220634Y428852D01*
X220514Y428917D01*
X220403Y429000D01*
X220301Y429092D01*
X220292Y429101D01*
X220274Y429111D01*
X220255Y429148D01*
X220218Y429185D01*
X220172Y429231D01*
X220126Y429296D01*
X220079Y429360D01*
X220024Y429444D01*
X219932Y429619D01*
X219839Y429841D01*
X219802Y429952D01*
X219784Y430081D01*
X219765Y430211D01*
X219756Y430350D01*
Y430368D01*
Y430414D01*
X219765Y430488D01*
X219774Y430590D01*
X219793Y430701D01*
X219830Y430830D01*
X219867Y430969D01*
X219922Y431108D01*
X219932Y431126D01*
X219950Y431172D01*
X219987Y431246D01*
X220043Y431348D01*
X220117Y431459D01*
X220209Y431598D01*
X220320Y431736D01*
X220449Y431894D01*
X220468Y431912D01*
X220514Y431968D01*
X220560Y432014D01*
X220606Y432060D01*
X220662Y432115D01*
X220736Y432189D01*
X220810Y432263D01*
X220902Y432347D01*
X220995Y432439D01*
X221106Y432541D01*
X221226Y432642D01*
X221355Y432763D01*
X221503Y432883D01*
X221651Y433012D01*
X221660Y433022D01*
X221679Y433040D01*
X221716Y433068D01*
X221762Y433105D01*
X221818Y433160D01*
X221882Y433216D01*
X222030Y433336D01*
X222188Y433475D01*
X222335Y433613D01*
X222465Y433733D01*
X222520Y433780D01*
X222567Y433826D01*
X222576Y433835D01*
X222604Y433863D01*
X222641Y433900D01*
X222687Y433955D01*
X222733Y434020D01*
X222789Y434085D01*
X222899Y434242D01*
X219747D01*
Y435000D01*
X223990D01*
Y434991D01*
D02*
G37*
G36*
X90000Y428602D02*
X87032D01*
X86958Y428611D01*
X86875D01*
X86681Y428621D01*
X86478Y428648D01*
X86256Y428676D01*
X86052Y428722D01*
X85951Y428750D01*
X85867Y428778D01*
X85858D01*
X85849Y428787D01*
X85793Y428815D01*
X85710Y428852D01*
X85609Y428917D01*
X85498Y429000D01*
X85377Y429111D01*
X85266Y429240D01*
X85155Y429388D01*
Y429397D01*
X85146Y429407D01*
X85109Y429462D01*
X85072Y429554D01*
X85017Y429675D01*
X84971Y429813D01*
X84924Y429980D01*
X84897Y430155D01*
X84887Y430350D01*
Y430359D01*
Y430377D01*
Y430414D01*
X84897Y430461D01*
Y430525D01*
X84906Y430590D01*
X84943Y430747D01*
X84998Y430932D01*
X85072Y431126D01*
X85183Y431320D01*
X85257Y431413D01*
X85331Y431505D01*
X85340Y431515D01*
X85350Y431524D01*
X85377Y431552D01*
X85414Y431579D01*
X85461Y431616D01*
X85516Y431653D01*
X85590Y431699D01*
X85664Y431755D01*
X85756Y431801D01*
X85858Y431847D01*
X85969Y431903D01*
X86089Y431949D01*
X86228Y431986D01*
X86367Y432032D01*
X86524Y432060D01*
X86690Y432088D01*
X86672Y432097D01*
X86635Y432115D01*
X86579Y432152D01*
X86505Y432189D01*
X86339Y432291D01*
X86256Y432356D01*
X86182Y432411D01*
X86163Y432430D01*
X86117Y432476D01*
X86043Y432550D01*
X85951Y432642D01*
X85849Y432772D01*
X85729Y432911D01*
X85609Y433077D01*
X85479Y433262D01*
X84379Y435000D01*
X85433D01*
X86274Y433669D01*
Y433660D01*
X86293Y433641D01*
X86311Y433613D01*
X86339Y433576D01*
X86404Y433475D01*
X86487Y433345D01*
X86588Y433206D01*
X86690Y433059D01*
X86792Y432920D01*
X86884Y432790D01*
X86894Y432781D01*
X86921Y432744D01*
X86968Y432689D01*
X87032Y432624D01*
X87171Y432485D01*
X87245Y432421D01*
X87319Y432365D01*
X87328Y432356D01*
X87347Y432347D01*
X87384Y432328D01*
X87439Y432300D01*
X87495Y432273D01*
X87559Y432245D01*
X87707Y432199D01*
X87717D01*
X87735Y432189D01*
X87772D01*
X87818Y432180D01*
X87883Y432171D01*
X87957D01*
X88059Y432162D01*
X89150D01*
Y435000D01*
X90000D01*
Y428602D01*
D02*
G37*
G36*
X81707Y429998D02*
X81716Y430007D01*
X81762Y430044D01*
X81818Y430100D01*
X81910Y430165D01*
X82012Y430248D01*
X82141Y430340D01*
X82289Y430442D01*
X82456Y430544D01*
X82465D01*
X82474Y430553D01*
X82530Y430590D01*
X82622Y430636D01*
X82733Y430692D01*
X82863Y430756D01*
X83001Y430821D01*
X83140Y430886D01*
X83279Y430941D01*
Y430183D01*
X83269D01*
X83251Y430165D01*
X83214Y430155D01*
X83168Y430128D01*
X83112Y430100D01*
X83047Y430063D01*
X82890Y429971D01*
X82705Y429869D01*
X82520Y429739D01*
X82326Y429591D01*
X82132Y429434D01*
X82123Y429425D01*
X82114Y429416D01*
X82086Y429388D01*
X82049Y429360D01*
X81966Y429268D01*
X81855Y429157D01*
X81744Y429027D01*
X81624Y428880D01*
X81522Y428732D01*
X81430Y428574D01*
X80921D01*
Y435000D01*
X81707D01*
Y429998D01*
D02*
G37*
G36*
X377646Y123118D02*
X376860D01*
Y128119D01*
X376851Y128110D01*
X376805Y128073D01*
X376749Y128018D01*
X376657Y127953D01*
X376555Y127870D01*
X376426Y127777D01*
X376278Y127676D01*
X376111Y127574D01*
X376102D01*
X376093Y127565D01*
X376037Y127528D01*
X375945Y127481D01*
X375834Y127426D01*
X375704Y127361D01*
X375566Y127296D01*
X375427Y127232D01*
X375289Y127176D01*
Y127935D01*
X375298D01*
X375316Y127953D01*
X375353Y127962D01*
X375399Y127990D01*
X375455Y128018D01*
X375520Y128055D01*
X375677Y128147D01*
X375862Y128249D01*
X376047Y128378D01*
X376241Y128526D01*
X376435Y128683D01*
X376444Y128693D01*
X376453Y128702D01*
X376481Y128730D01*
X376518Y128757D01*
X376601Y128850D01*
X376712Y128961D01*
X376823Y129090D01*
X376943Y129238D01*
X377045Y129386D01*
X377138Y129543D01*
X377646D01*
Y123118D01*
D02*
G37*
G36*
X370851Y123876D02*
X374003D01*
Y123118D01*
X370000D01*
Y129515D01*
X370851D01*
Y123876D01*
D02*
G37*
%LPC*%
G36*
X480359Y189244D02*
X480350D01*
X480340D01*
X480285Y189234D01*
X480202Y189225D01*
X480091Y189207D01*
X479980Y189160D01*
X479850Y189105D01*
X479730Y189022D01*
X479610Y188911D01*
X479601Y188892D01*
X479564Y188846D01*
X479517Y188772D01*
X479462Y188652D01*
X479407Y188513D01*
X479360Y188328D01*
X479323Y188116D01*
X479314Y187866D01*
Y185851D01*
X481431D01*
Y187755D01*
X481422Y187866D01*
X481413Y187995D01*
X481404Y188143D01*
X481385Y188291D01*
X481357Y188439D01*
X481320Y188569D01*
X481311Y188587D01*
X481293Y188624D01*
X481265Y188680D01*
X481228Y188754D01*
X481172Y188837D01*
X481108Y188920D01*
X481025Y189003D01*
X480932Y189068D01*
X480923Y189077D01*
X480886Y189096D01*
X480830Y189123D01*
X480756Y189160D01*
X480673Y189188D01*
X480581Y189216D01*
X480470Y189234D01*
X480359Y189244D01*
D02*
G37*
G36*
X550137Y194264D02*
X550128D01*
X550118D01*
X550063D01*
X549980Y194245D01*
X549878Y194227D01*
X549767Y194190D01*
X549647Y194135D01*
X549527Y194061D01*
X549407Y193959D01*
X549397Y193950D01*
X549360Y193903D01*
X549314Y193839D01*
X549259Y193755D01*
X549203Y193645D01*
X549157Y193524D01*
X549120Y193376D01*
X549111Y193219D01*
Y193145D01*
X549129Y193062D01*
X549148Y192951D01*
X549185Y192831D01*
X549231Y192701D01*
X549305Y192581D01*
X549407Y192461D01*
X549416Y192452D01*
X549453Y192415D01*
X549517Y192369D01*
X549601Y192322D01*
X549702Y192267D01*
X549823Y192221D01*
X549952Y192184D01*
X550100Y192174D01*
X550109D01*
X550118D01*
X550174Y192184D01*
X550257Y192193D01*
X550359Y192211D01*
X550479Y192248D01*
X550599Y192295D01*
X550729Y192369D01*
X550840Y192461D01*
X550849Y192470D01*
X550886Y192517D01*
X550932Y192581D01*
X550978Y192665D01*
X551034Y192775D01*
X551080Y192905D01*
X551117Y193053D01*
X551126Y193219D01*
Y193238D01*
X551117Y193293D01*
X551108Y193376D01*
X551089Y193487D01*
X551052Y193608D01*
X551006Y193728D01*
X550932Y193857D01*
X550840Y193968D01*
X550830Y193977D01*
X550784Y194014D01*
X550729Y194061D01*
X550645Y194116D01*
X550544Y194172D01*
X550424Y194218D01*
X550285Y194255D01*
X550137Y194264D01*
D02*
G37*
G36*
X553077Y194523D02*
X553068D01*
X553049D01*
X553022D01*
X552985Y194514D01*
X552883Y194504D01*
X552744Y194477D01*
X552606Y194430D01*
X552448Y194366D01*
X552291Y194273D01*
X552143Y194144D01*
X552125Y194125D01*
X552088Y194079D01*
X552023Y193996D01*
X551949Y193885D01*
X551884Y193746D01*
X551820Y193580D01*
X551783Y193395D01*
X551764Y193192D01*
Y193136D01*
X551773Y193099D01*
X551783Y192997D01*
X551810Y192868D01*
X551857Y192720D01*
X551921Y192572D01*
X552014Y192415D01*
X552134Y192276D01*
X552152Y192258D01*
X552199Y192221D01*
X552282Y192165D01*
X552384Y192101D01*
X552522Y192027D01*
X552679Y191971D01*
X552855Y191934D01*
X553049Y191916D01*
X553068D01*
X553105D01*
X553170Y191925D01*
X553253Y191934D01*
X553354Y191953D01*
X553465Y191980D01*
X553576Y192017D01*
X553697Y192064D01*
X553706Y192073D01*
X553752Y192091D01*
X553807Y192128D01*
X553872Y192184D01*
X553955Y192248D01*
X554039Y192332D01*
X554113Y192424D01*
X554187Y192535D01*
X554196Y192554D01*
X554214Y192591D01*
X554242Y192655D01*
X554270Y192738D01*
X554297Y192840D01*
X554325Y192960D01*
X554344Y193090D01*
X554353Y193219D01*
Y193275D01*
X554344Y193312D01*
X554334Y193423D01*
X554307Y193552D01*
X554260Y193700D01*
X554205Y193857D01*
X554113Y194005D01*
X553992Y194153D01*
X553974Y194172D01*
X553928Y194209D01*
X553844Y194273D01*
X553743Y194338D01*
X553613Y194403D01*
X553456Y194467D01*
X553271Y194504D01*
X553077Y194523D01*
D02*
G37*
G36*
X550248Y189244D02*
X550239D01*
X550229D01*
X550174Y189234D01*
X550091Y189225D01*
X549980Y189207D01*
X549869Y189160D01*
X549739Y189105D01*
X549619Y189022D01*
X549499Y188911D01*
X549490Y188892D01*
X549453Y188846D01*
X549407Y188772D01*
X549351Y188652D01*
X549296Y188513D01*
X549249Y188328D01*
X549212Y188116D01*
X549203Y187866D01*
Y185851D01*
X551320D01*
Y187755D01*
X551311Y187866D01*
X551302Y187995D01*
X551293Y188143D01*
X551274Y188291D01*
X551246Y188439D01*
X551209Y188569D01*
X551200Y188587D01*
X551182Y188624D01*
X551154Y188680D01*
X551117Y188754D01*
X551062Y188837D01*
X550997Y188920D01*
X550914Y189003D01*
X550821Y189068D01*
X550812Y189077D01*
X550775Y189096D01*
X550719Y189123D01*
X550645Y189160D01*
X550562Y189188D01*
X550470Y189216D01*
X550359Y189234D01*
X550248Y189244D01*
D02*
G37*
G36*
X620590Y194458D02*
X620581D01*
X620562D01*
X620525D01*
X620479Y194449D01*
X620414D01*
X620350Y194440D01*
X620202Y194412D01*
X620026Y194375D01*
X619841Y194310D01*
X619665Y194218D01*
X619508Y194098D01*
X619499D01*
X619490Y194079D01*
X619444Y194033D01*
X619379Y193959D01*
X619305Y193857D01*
X619240Y193728D01*
X619175Y193580D01*
X619129Y193413D01*
X619111Y193321D01*
Y193173D01*
X619120Y193136D01*
X619129Y193034D01*
X619166Y192914D01*
X619212Y192766D01*
X619296Y192609D01*
X619397Y192452D01*
X619471Y192378D01*
X619545Y192304D01*
X619554D01*
X619564Y192285D01*
X619591Y192267D01*
X619619Y192248D01*
X619712Y192184D01*
X619841Y192119D01*
X619998Y192045D01*
X620192Y191980D01*
X620414Y191943D01*
X620655Y191925D01*
X620664D01*
X620682D01*
X620710D01*
X620756Y191934D01*
X620812D01*
X620867Y191943D01*
X621006Y191971D01*
X621163Y192017D01*
X621330Y192073D01*
X621496Y192165D01*
X621644Y192285D01*
X621662Y192304D01*
X621699Y192350D01*
X621764Y192433D01*
X621829Y192535D01*
X621903Y192674D01*
X621968Y192831D01*
X622005Y193007D01*
X622023Y193201D01*
Y193256D01*
X622014Y193293D01*
X622005Y193395D01*
X621977Y193515D01*
X621931Y193663D01*
X621866Y193811D01*
X621773Y193959D01*
X621644Y194098D01*
X621626Y194116D01*
X621570Y194153D01*
X621487Y194209D01*
X621367Y194282D01*
X621219Y194347D01*
X621043Y194403D01*
X620830Y194440D01*
X620590Y194458D01*
D02*
G37*
G36*
X620248Y189244D02*
X620239D01*
X620229D01*
X620174Y189234D01*
X620091Y189225D01*
X619980Y189207D01*
X619869Y189160D01*
X619739Y189105D01*
X619619Y189022D01*
X619499Y188911D01*
X619490Y188892D01*
X619453Y188846D01*
X619407Y188772D01*
X619351Y188652D01*
X619296Y188513D01*
X619249Y188328D01*
X619212Y188116D01*
X619203Y187866D01*
Y185851D01*
X621320D01*
Y187755D01*
X621311Y187866D01*
X621302Y187995D01*
X621293Y188143D01*
X621274Y188291D01*
X621246Y188439D01*
X621209Y188569D01*
X621200Y188587D01*
X621182Y188624D01*
X621154Y188680D01*
X621117Y188754D01*
X621062Y188837D01*
X620997Y188920D01*
X620914Y189003D01*
X620821Y189068D01*
X620812Y189077D01*
X620775Y189096D01*
X620719Y189123D01*
X620645Y189160D01*
X620562Y189188D01*
X620470Y189216D01*
X620359Y189234D01*
X620248Y189244D01*
D02*
G37*
G36*
X692023Y199469D02*
X691736D01*
X691727D01*
X691718D01*
X691672D01*
X691588D01*
X691478Y199460D01*
X691357D01*
X691209Y199451D01*
X691052Y199442D01*
X690876Y199423D01*
X690525Y199377D01*
X690350Y199349D01*
X690183Y199312D01*
X690026Y199275D01*
X689878Y199220D01*
X689749Y199164D01*
X689638Y199099D01*
X689628D01*
X689619Y199081D01*
X689591Y199062D01*
X689554Y199035D01*
X689471Y198951D01*
X689370Y198850D01*
X689277Y198711D01*
X689194Y198554D01*
X689157Y198471D01*
X689129Y198378D01*
X689120Y198277D01*
X689111Y198175D01*
Y198119D01*
X689120Y198082D01*
X689138Y197981D01*
X689166Y197861D01*
X689222Y197722D01*
X689305Y197574D01*
X689360Y197500D01*
X689416Y197426D01*
X689490Y197361D01*
X689573Y197297D01*
X689582D01*
X689601Y197278D01*
X689638Y197260D01*
X689684Y197232D01*
X689758Y197204D01*
X689841Y197167D01*
X689943Y197139D01*
X690063Y197102D01*
X690202Y197065D01*
X690359Y197028D01*
X690534Y196991D01*
X690729Y196964D01*
X690950Y196936D01*
X691191Y196917D01*
X691450Y196908D01*
X691736Y196899D01*
X691755D01*
X691801D01*
X691884D01*
X691995Y196908D01*
X692115D01*
X692263Y196917D01*
X692421Y196927D01*
X692587Y196945D01*
X692947Y196991D01*
X693123Y197019D01*
X693290Y197056D01*
X693447Y197093D01*
X693595Y197149D01*
X693724Y197204D01*
X693835Y197269D01*
X693844D01*
X693854Y197287D01*
X693918Y197334D01*
X694001Y197417D01*
X694094Y197518D01*
X694186Y197657D01*
X694270Y197814D01*
X694334Y197990D01*
X694344Y198082D01*
X694353Y198184D01*
Y198240D01*
X694344Y198277D01*
X694325Y198369D01*
X694288Y198498D01*
X694223Y198637D01*
X694131Y198794D01*
X694075Y198868D01*
X694001Y198942D01*
X693928Y199016D01*
X693835Y199090D01*
X693826D01*
X693807Y199109D01*
X693780Y199127D01*
X693733Y199146D01*
X693669Y199183D01*
X693586Y199210D01*
X693493Y199247D01*
X693382Y199284D01*
X693243Y199312D01*
X693095Y199349D01*
X692920Y199386D01*
X692735Y199414D01*
X692513Y199432D01*
X692282Y199451D01*
X692023Y199469D01*
D02*
G37*
G36*
X690248Y189244D02*
X690239D01*
X690229D01*
X690174Y189234D01*
X690091Y189225D01*
X689980Y189207D01*
X689869Y189160D01*
X689739Y189105D01*
X689619Y189022D01*
X689499Y188911D01*
X689490Y188892D01*
X689453Y188846D01*
X689407Y188772D01*
X689351Y188652D01*
X689296Y188513D01*
X689249Y188328D01*
X689212Y188116D01*
X689203Y187866D01*
Y185851D01*
X691320D01*
Y187755D01*
X691311Y187866D01*
X691302Y187995D01*
X691293Y188143D01*
X691274Y188291D01*
X691246Y188439D01*
X691209Y188569D01*
X691200Y188587D01*
X691182Y188624D01*
X691154Y188680D01*
X691117Y188754D01*
X691061Y188837D01*
X690997Y188920D01*
X690913Y189003D01*
X690821Y189068D01*
X690812Y189077D01*
X690775Y189096D01*
X690719Y189123D01*
X690645Y189160D01*
X690562Y189188D01*
X690470Y189216D01*
X690359Y189234D01*
X690248Y189244D01*
D02*
G37*
G36*
X247864Y194514D02*
X247855D01*
X247837D01*
X247800D01*
X247753Y194504D01*
X247698D01*
X247633Y194495D01*
X247485Y194467D01*
X247319Y194430D01*
X247143Y194366D01*
X246977Y194273D01*
X246820Y194153D01*
X246801Y194135D01*
X246755Y194088D01*
X246699Y194014D01*
X246625Y193913D01*
X246551Y193783D01*
X246496Y193635D01*
X246450Y193460D01*
X246431Y193265D01*
Y193210D01*
X246441Y193173D01*
X246450Y193081D01*
X246478Y192951D01*
X246524Y192812D01*
X246598Y192655D01*
X246690Y192507D01*
X246820Y192359D01*
X246838Y192341D01*
X246884Y192304D01*
X246968Y192239D01*
X247088Y192174D01*
X247226Y192110D01*
X247402Y192045D01*
X247596Y192008D01*
X247818Y191990D01*
X247837D01*
X247883D01*
X247966Y191999D01*
X248068Y192008D01*
X248188Y192027D01*
X248317Y192064D01*
X248456Y192101D01*
X248595Y192156D01*
X248613Y192165D01*
X248659Y192193D01*
X248724Y192230D01*
X248807Y192285D01*
X248891Y192350D01*
X248992Y192433D01*
X249076Y192526D01*
X249159Y192637D01*
X249168Y192655D01*
X249186Y192692D01*
X249223Y192757D01*
X249251Y192840D01*
X249288Y192933D01*
X249325Y193044D01*
X249344Y193164D01*
X249353Y193293D01*
Y193339D01*
X249344Y193376D01*
X249334Y193469D01*
X249307Y193589D01*
X249251Y193718D01*
X249186Y193866D01*
X249085Y194014D01*
X249029Y194088D01*
X248955Y194153D01*
X248946D01*
X248937Y194172D01*
X248881Y194209D01*
X248789Y194264D01*
X248669Y194338D01*
X248512Y194403D01*
X248327Y194458D01*
X248114Y194495D01*
X247864Y194514D01*
D02*
G37*
G36*
X245248Y189244D02*
X245239D01*
X245229D01*
X245174Y189234D01*
X245091Y189225D01*
X244980Y189207D01*
X244869Y189160D01*
X244739Y189105D01*
X244619Y189022D01*
X244499Y188911D01*
X244490Y188892D01*
X244453Y188846D01*
X244407Y188772D01*
X244351Y188652D01*
X244296Y188513D01*
X244249Y188328D01*
X244212Y188116D01*
X244203Y187866D01*
Y185851D01*
X246320D01*
Y187755D01*
X246311Y187866D01*
X246302Y187995D01*
X246293Y188143D01*
X246274Y188291D01*
X246246Y188439D01*
X246209Y188569D01*
X246200Y188587D01*
X246182Y188624D01*
X246154Y188680D01*
X246117Y188754D01*
X246061Y188837D01*
X245997Y188920D01*
X245914Y189003D01*
X245821Y189068D01*
X245812Y189077D01*
X245775Y189096D01*
X245719Y189123D01*
X245645Y189160D01*
X245562Y189188D01*
X245470Y189216D01*
X245359Y189234D01*
X245248Y189244D01*
D02*
G37*
G36*
X185248Y189244D02*
X185239D01*
X185229D01*
X185174Y189234D01*
X185091Y189225D01*
X184980Y189207D01*
X184869Y189160D01*
X184739Y189105D01*
X184619Y189022D01*
X184499Y188911D01*
X184490Y188892D01*
X184453Y188846D01*
X184407Y188772D01*
X184351Y188652D01*
X184296Y188513D01*
X184249Y188328D01*
X184212Y188116D01*
X184203Y187866D01*
Y185851D01*
X186320D01*
Y187755D01*
X186311Y187866D01*
X186302Y187995D01*
X186293Y188143D01*
X186274Y188291D01*
X186246Y188439D01*
X186209Y188569D01*
X186200Y188587D01*
X186182Y188624D01*
X186154Y188680D01*
X186117Y188754D01*
X186061Y188837D01*
X185997Y188920D01*
X185914Y189003D01*
X185821Y189068D01*
X185812Y189077D01*
X185775Y189096D01*
X185719Y189123D01*
X185645Y189160D01*
X185562Y189188D01*
X185470Y189216D01*
X185359Y189234D01*
X185248Y189244D01*
D02*
G37*
G36*
X127744Y193635D02*
X124878D01*
X127744Y191620D01*
Y193635D01*
D02*
G37*
G36*
X125359Y189244D02*
X125350D01*
X125340D01*
X125285Y189234D01*
X125202Y189225D01*
X125091Y189207D01*
X124980Y189160D01*
X124850Y189105D01*
X124730Y189022D01*
X124610Y188911D01*
X124601Y188892D01*
X124564Y188846D01*
X124517Y188772D01*
X124462Y188652D01*
X124406Y188513D01*
X124360Y188328D01*
X124323Y188116D01*
X124314Y187866D01*
Y185851D01*
X126431D01*
Y187755D01*
X126422Y187866D01*
X126413Y187995D01*
X126404Y188143D01*
X126385Y188291D01*
X126357Y188439D01*
X126320Y188569D01*
X126311Y188587D01*
X126293Y188624D01*
X126265Y188680D01*
X126228Y188754D01*
X126172Y188837D01*
X126108Y188920D01*
X126025Y189003D01*
X125932Y189068D01*
X125923Y189077D01*
X125886Y189096D01*
X125830Y189123D01*
X125756Y189160D01*
X125673Y189188D01*
X125581Y189216D01*
X125470Y189234D01*
X125359Y189244D01*
D02*
G37*
G36*
X65248Y189244D02*
X65239D01*
X65229D01*
X65174Y189234D01*
X65091Y189225D01*
X64980Y189207D01*
X64869Y189160D01*
X64739Y189105D01*
X64619Y189022D01*
X64499Y188911D01*
X64490Y188892D01*
X64453Y188846D01*
X64406Y188772D01*
X64351Y188652D01*
X64296Y188513D01*
X64249Y188328D01*
X64212Y188116D01*
X64203Y187866D01*
Y185851D01*
X66320D01*
Y187755D01*
X66311Y187866D01*
X66302Y187995D01*
X66293Y188143D01*
X66274Y188291D01*
X66246Y188439D01*
X66209Y188569D01*
X66200Y188587D01*
X66182Y188624D01*
X66154Y188680D01*
X66117Y188754D01*
X66062Y188837D01*
X65997Y188920D01*
X65914Y189003D01*
X65821Y189068D01*
X65812Y189077D01*
X65775Y189096D01*
X65719Y189123D01*
X65645Y189160D01*
X65562Y189188D01*
X65470Y189216D01*
X65359Y189234D01*
X65248Y189244D01*
D02*
G37*
G36*
X377866Y755686D02*
X375850D01*
Y753569D01*
X377755D01*
X377866Y753578D01*
X377995Y753587D01*
X378143Y753596D01*
X378291Y753615D01*
X378439Y753643D01*
X378569Y753680D01*
X378587Y753689D01*
X378624Y753707D01*
X378680Y753735D01*
X378754Y753772D01*
X378837Y753828D01*
X378920Y753892D01*
X379003Y753976D01*
X379068Y754068D01*
X379077Y754077D01*
X379096Y754114D01*
X379123Y754170D01*
X379160Y754244D01*
X379188Y754327D01*
X379216Y754419D01*
X379234Y754530D01*
X379244Y754641D01*
Y754650D01*
Y754660D01*
X379234Y754715D01*
X379225Y754798D01*
X379207Y754909D01*
X379160Y755020D01*
X379105Y755150D01*
X379022Y755270D01*
X378911Y755390D01*
X378892Y755399D01*
X378846Y755436D01*
X378772Y755482D01*
X378652Y755538D01*
X378513Y755593D01*
X378328Y755640D01*
X378116Y755677D01*
X377866Y755686D01*
D02*
G37*
G36*
X229149Y431431D02*
X227245D01*
X227134Y431422D01*
X227005Y431413D01*
X226857Y431404D01*
X226709Y431385D01*
X226561Y431357D01*
X226431Y431320D01*
X226413Y431311D01*
X226376Y431293D01*
X226320Y431265D01*
X226246Y431228D01*
X226163Y431172D01*
X226080Y431108D01*
X225997Y431025D01*
X225932Y430932D01*
X225923Y430923D01*
X225904Y430886D01*
X225877Y430830D01*
X225840Y430756D01*
X225812Y430673D01*
X225784Y430581D01*
X225766Y430470D01*
X225756Y430359D01*
Y430350D01*
Y430340D01*
X225766Y430285D01*
X225775Y430202D01*
X225793Y430091D01*
X225840Y429980D01*
X225895Y429850D01*
X225978Y429730D01*
X226089Y429610D01*
X226108Y429601D01*
X226154Y429564D01*
X226228Y429517D01*
X226348Y429462D01*
X226487Y429407D01*
X226672Y429360D01*
X226884Y429323D01*
X227134Y429314D01*
X229149D01*
Y431431D01*
D02*
G37*
G36*
X89150D02*
X87245D01*
X87134Y431422D01*
X87005Y431413D01*
X86857Y431404D01*
X86709Y431385D01*
X86561Y431357D01*
X86431Y431320D01*
X86413Y431311D01*
X86376Y431293D01*
X86320Y431265D01*
X86246Y431228D01*
X86163Y431172D01*
X86080Y431108D01*
X85997Y431025D01*
X85932Y430932D01*
X85923Y430923D01*
X85904Y430886D01*
X85877Y430830D01*
X85840Y430756D01*
X85812Y430673D01*
X85784Y430581D01*
X85766Y430470D01*
X85756Y430359D01*
Y430350D01*
Y430340D01*
X85766Y430285D01*
X85775Y430202D01*
X85793Y430091D01*
X85840Y429980D01*
X85895Y429850D01*
X85978Y429730D01*
X86089Y429610D01*
X86108Y429601D01*
X86154Y429564D01*
X86228Y429517D01*
X86348Y429462D01*
X86487Y429407D01*
X86672Y429360D01*
X86884Y429323D01*
X87134Y429314D01*
X89150D01*
Y431431D01*
D02*
G37*
%LPD*%
D10*
X659000Y484000D02*
X711000D01*
Y606000D01*
X659000D02*
X711000D01*
X659000Y484000D02*
Y606000D01*
X316500Y634000D02*
Y686000D01*
Y634000D02*
X433500D01*
Y686000D01*
X316500D02*
X433500D01*
X471000Y127750D02*
Y242250D01*
X499000D01*
Y127750D02*
Y242250D01*
X471000Y127750D02*
X499000D01*
X541000D02*
Y242250D01*
X569000D01*
Y127750D02*
Y242250D01*
X541000Y127750D02*
X569000D01*
X611000D02*
Y242250D01*
X639000D01*
Y127750D02*
Y242250D01*
X611000Y127750D02*
X639000D01*
X681000D02*
Y242250D01*
X709000D01*
Y127750D02*
Y242250D01*
X681000Y127750D02*
X709000D01*
X552297Y93700D02*
X627703D01*
Y66300D02*
Y93700D01*
X552297Y66300D02*
X627703D01*
X552297D02*
Y93700D01*
X236000Y127750D02*
Y242250D01*
X264000D01*
Y127750D02*
Y242250D01*
X236000Y127750D02*
X264000D01*
X176000D02*
Y242250D01*
X204000D01*
Y127750D02*
Y242250D01*
X176000Y127750D02*
X204000D01*
X116000D02*
Y242250D01*
X144000D01*
Y127750D02*
Y242250D01*
X116000Y127750D02*
X144000D01*
X56000D02*
Y242250D01*
X84000D01*
Y127750D02*
Y242250D01*
X56000Y127750D02*
X84000D01*
X504000Y634000D02*
Y756000D01*
X556000D01*
Y634000D02*
Y756000D01*
X504000Y634000D02*
X556000D01*
X317750Y764000D02*
X432250D01*
Y736000D02*
Y764000D01*
X317750Y736000D02*
X432250D01*
X317750D02*
Y764000D01*
X194000Y634000D02*
Y756000D01*
X246000D01*
Y634000D02*
Y756000D01*
X194000Y634000D02*
X246000D01*
X172750Y421000D02*
X287250D01*
X172750D02*
Y449000D01*
X287250D01*
Y421000D02*
Y449000D01*
X32750Y421000D02*
X147250D01*
X32750D02*
Y449000D01*
X147250D01*
Y421000D02*
Y449000D01*
M02*
