G04*
G04 #@! TF.GenerationSoftware,Altium Limited,Altium Designer,23.3.1 (30)*
G04*
G04 Layer_Color=128*
%FSLAX44Y44*%
%MOMM*%
G71*
G04*
G04 #@! TF.SameCoordinates,9B24EA63-C825-4E2D-BC30-5D40CB4EF2F0*
G04*
G04*
G04 #@! TF.FilePolarity,Positive*
G04*
G01*
G75*
%ADD51C,0.1270*%
D51*
X681000Y595000D02*
X689000D01*
X685000Y591000D02*
Y599000D01*
X681000Y495000D02*
X689000D01*
X685000Y491000D02*
Y499000D01*
X396150Y660000D02*
X402650D01*
X399400Y656750D02*
Y663250D01*
X347350Y660000D02*
X353850D01*
X350600Y656750D02*
Y663250D01*
X91500Y564500D02*
X98500D01*
X95000Y561000D02*
Y568000D01*
X111500Y564500D02*
X118500D01*
X115000Y561000D02*
Y568000D01*
X636000Y335000D02*
X644000D01*
X640000Y331000D02*
Y339000D01*
X656000Y335000D02*
X664000D01*
X660000Y331000D02*
Y339000D01*
X676000Y335000D02*
X684000D01*
X680000Y331000D02*
Y339000D01*
X496000Y335000D02*
X504000D01*
X500000Y331000D02*
Y339000D01*
X516000Y335000D02*
X524000D01*
X520000Y331000D02*
Y339000D01*
X536000Y335000D02*
X544000D01*
X540000Y331000D02*
Y339000D01*
X481250Y135000D02*
X488750D01*
X485000Y131250D02*
Y138750D01*
X481250Y235000D02*
X488750D01*
X485000Y231250D02*
Y238750D01*
X551250Y135000D02*
X558750D01*
X555000Y131250D02*
Y138750D01*
X551250Y235000D02*
X558750D01*
X555000Y231250D02*
Y238750D01*
X621250Y135000D02*
X628750D01*
X625000Y131250D02*
Y138750D01*
X621250Y235000D02*
X628750D01*
X625000Y231250D02*
Y238750D01*
X691250Y135000D02*
X698750D01*
X695000Y131250D02*
Y138750D01*
X691250Y235000D02*
X698750D01*
X695000Y231250D02*
Y238750D01*
X636000Y430500D02*
X644000D01*
X640000Y426500D02*
Y434500D01*
X656000Y430500D02*
X664000D01*
X660000Y426500D02*
Y434500D01*
X676000Y430500D02*
X684000D01*
X680000Y426500D02*
Y434500D01*
X496000Y430000D02*
X504000D01*
X500000Y426000D02*
Y434000D01*
X516000Y430000D02*
X524000D01*
X520000Y426000D02*
Y434000D01*
X536000Y430000D02*
X544000D01*
X540000Y426000D02*
Y434000D01*
X560155Y80000D02*
X569045D01*
X564600Y75555D02*
Y84445D01*
X585555Y80000D02*
X594445D01*
X590000Y75555D02*
Y84445D01*
X610955Y80000D02*
X619845D01*
X615400Y75555D02*
Y84445D01*
X246250Y135000D02*
X253750D01*
X250000Y131250D02*
Y138750D01*
X246250Y235000D02*
X253750D01*
X250000Y231250D02*
Y238750D01*
X186250Y135000D02*
X193750D01*
X190000Y131250D02*
Y138750D01*
X186250Y235000D02*
X193750D01*
X190000Y231250D02*
Y238750D01*
X126250Y135000D02*
X133750D01*
X130000Y131250D02*
Y138750D01*
X126250Y235000D02*
X133750D01*
X130000Y231250D02*
Y238750D01*
X66250Y135000D02*
X73750D01*
X70000Y131250D02*
Y138750D01*
X66250Y235000D02*
X73750D01*
X70000Y231250D02*
Y238750D01*
X76000Y335000D02*
X84000D01*
X80000Y331000D02*
Y339000D01*
X96000Y335000D02*
X104000D01*
X100000Y331000D02*
Y339000D01*
X116000Y335000D02*
X124000D01*
X120000Y331000D02*
Y339000D01*
X196000Y335000D02*
X204000D01*
X200000Y331000D02*
Y339000D01*
X216000Y335000D02*
X224000D01*
X220000Y331000D02*
Y339000D01*
X236000Y335000D02*
X244000D01*
X240000Y331000D02*
Y339000D01*
X332400Y565100D02*
X341400D01*
X336900Y560600D02*
Y569600D01*
X332400Y539700D02*
X341400D01*
X336900Y535200D02*
Y544200D01*
X332400Y514300D02*
X341400D01*
X336900Y509800D02*
Y518800D01*
X332400Y488900D02*
X341400D01*
X336900Y484400D02*
Y493400D01*
X332400Y463500D02*
X341400D01*
X336900Y459000D02*
Y468000D01*
X332400Y438100D02*
X341400D01*
X336900Y433600D02*
Y442600D01*
X332400Y412700D02*
X341400D01*
X336900Y408200D02*
Y417200D01*
X332400Y387300D02*
X341400D01*
X336900Y382800D02*
Y391800D01*
X332400Y361900D02*
X341400D01*
X336900Y357400D02*
Y366400D01*
X332400Y336500D02*
X341400D01*
X336900Y332000D02*
Y341000D01*
X332400Y311100D02*
X341400D01*
X336900Y306600D02*
Y315600D01*
X332400Y285700D02*
X341400D01*
X336900Y281200D02*
Y290200D01*
X332400Y260300D02*
X341400D01*
X336900Y255800D02*
Y264800D01*
X332400Y234900D02*
X341400D01*
X336900Y230400D02*
Y239400D01*
X408600Y565100D02*
X417600D01*
X413100Y560600D02*
Y569600D01*
X408600Y539700D02*
X417600D01*
X413100Y535200D02*
Y544200D01*
X408600Y514300D02*
X417600D01*
X413100Y509800D02*
Y518800D01*
X408600Y488900D02*
X417600D01*
X413100Y484400D02*
Y493400D01*
X408600Y463500D02*
X417600D01*
X413100Y459000D02*
Y468000D01*
X408600Y438100D02*
X417600D01*
X413100Y433600D02*
Y442600D01*
X408600Y412700D02*
X417600D01*
X413100Y408200D02*
Y417200D01*
X408600Y387300D02*
X417600D01*
X413100Y382800D02*
Y391800D01*
X408600Y361900D02*
X417600D01*
X413100Y357400D02*
Y366400D01*
X408600Y336500D02*
X417600D01*
X413100Y332000D02*
Y341000D01*
X408600Y311100D02*
X417600D01*
X413100Y306600D02*
Y315600D01*
X408600Y285700D02*
X417600D01*
X413100Y281200D02*
Y290200D01*
X408600Y260300D02*
X417600D01*
X413100Y255800D02*
Y264800D01*
X408600Y234900D02*
X417600D01*
X413100Y230400D02*
Y239400D01*
X545550Y550000D02*
X558250D01*
X551900Y543650D02*
Y556350D01*
X570950Y550000D02*
X583650D01*
X577300Y543650D02*
Y556350D01*
X596350Y550000D02*
X609050D01*
X602700Y543650D02*
Y556350D01*
X621750Y550000D02*
X634450D01*
X628100Y543650D02*
Y556350D01*
X526000Y645000D02*
X534000D01*
X530000Y641000D02*
Y649000D01*
X526000Y745000D02*
X534000D01*
X530000Y741000D02*
Y749000D01*
X321250Y750000D02*
X328750D01*
X325000Y746250D02*
Y753750D01*
X421250Y750000D02*
X428750D01*
X425000Y746250D02*
Y753750D01*
X216000Y645000D02*
X224000D01*
X220000Y641000D02*
Y649000D01*
X216000Y745000D02*
X224000D01*
X220000Y741000D02*
Y749000D01*
X91500Y744500D02*
X98500D01*
X95000Y741000D02*
Y748000D01*
X111500Y744500D02*
X118500D01*
X115000Y741000D02*
Y748000D01*
X196500Y564500D02*
X203500D01*
X200000Y561000D02*
Y568000D01*
X216500Y564500D02*
X223500D01*
X220000Y561000D02*
Y568000D01*
X276250Y435000D02*
X283750D01*
X280000Y431250D02*
Y438750D01*
X176250Y435000D02*
X183750D01*
X180000Y431250D02*
Y438750D01*
X136250Y435000D02*
X143750D01*
X140000Y431250D02*
Y438750D01*
X36250Y435000D02*
X43750D01*
X40000Y431250D02*
Y438750D01*
X340250Y125000D02*
X349750D01*
X345000Y120250D02*
Y129750D01*
X390250Y125000D02*
X399750D01*
X395000Y120250D02*
Y129750D01*
X704000Y30000D02*
X736000D01*
X720000Y14000D02*
Y46000D01*
X14000Y30000D02*
X46000D01*
X30000Y14000D02*
Y46000D01*
X704000Y820000D02*
X736000D01*
X720000Y804000D02*
Y836000D01*
X14000Y820000D02*
X46000D01*
X30000Y804000D02*
Y836000D01*
X553000Y385000D02*
X557000D01*
X555000Y383000D02*
Y387000D01*
X508000Y385000D02*
X512000D01*
X510000Y383000D02*
Y387000D01*
X398000Y405000D02*
X402000D01*
X400000Y403000D02*
Y407000D01*
X508000Y370000D02*
X512000D01*
X510000Y368000D02*
Y372000D01*
X353000Y405000D02*
X357000D01*
X355000Y403000D02*
Y407000D01*
X383000Y420000D02*
X387000D01*
X385000Y418000D02*
Y422000D01*
X233000Y500000D02*
X237000D01*
X235000Y498000D02*
Y502000D01*
X298000Y430000D02*
X302000D01*
X300000Y428000D02*
Y432000D01*
X423000Y190000D02*
X427000D01*
X425000Y188000D02*
Y192000D01*
X473000Y190000D02*
X477000D01*
X475000Y188000D02*
Y192000D01*
X708000Y190000D02*
X712000D01*
X710000Y188000D02*
Y192000D01*
M02*
