G04*
G04 #@! TF.GenerationSoftware,Altium Limited,Altium Designer,23.3.1 (30)*
G04*
G04 Layer_Color=255*
%FSLAX44Y44*%
%MOMM*%
G71*
G04*
G04 #@! TF.SameCoordinates,9B24EA63-C825-4E2D-BC30-5D40CB4EF2F0*
G04*
G04*
G04 #@! TF.FilePolarity,Positive*
G04*
G01*
G75*
%ADD17C,1.3000*%
%ADD18R,1.3000X1.3000*%
%ADD19C,1.1500*%
%ADD20R,1.1500X1.1500*%
%ADD25R,1.2500X1.2500*%
%ADD26C,1.2500*%
%ADD27R,1.3890X1.3890*%
%ADD28C,1.3890*%
%ADD33R,1.2500X1.2500*%
%ADD34R,1.4500X1.4500*%
%ADD35C,1.4500*%
%ADD40R,1.2000X1.2000*%
%ADD41C,1.2000*%
%ADD42R,1.3000X1.3000*%
%ADD43R,1.5000X1.5000*%
%ADD44C,1.5000*%
%ADD45R,1.8000X1.8000*%
%ADD46C,1.8000*%
D17*
X685000Y595000D02*
D03*
X660000Y335000D02*
D03*
X680000D02*
D03*
X520000D02*
D03*
X540000D02*
D03*
X660000Y430500D02*
D03*
X680000D02*
D03*
X520000Y430000D02*
D03*
X540000D02*
D03*
X100000Y335000D02*
D03*
X120000D02*
D03*
X220000D02*
D03*
X240000D02*
D03*
X530000Y745000D02*
D03*
X220000D02*
D03*
D18*
X685000Y495000D02*
D03*
X530000Y645000D02*
D03*
X220000D02*
D03*
D19*
X399400Y660000D02*
D03*
D20*
X350600D02*
D03*
D25*
X485000Y135000D02*
D03*
X555000D02*
D03*
X625000D02*
D03*
X695000D02*
D03*
X250000D02*
D03*
X190000D02*
D03*
X130000D02*
D03*
X70000D02*
D03*
D26*
X485000Y235000D02*
D03*
X555000D02*
D03*
X625000D02*
D03*
X695000D02*
D03*
X250000D02*
D03*
X190000D02*
D03*
X130000D02*
D03*
X70000D02*
D03*
X425000Y750000D02*
D03*
X180000Y435000D02*
D03*
X40000D02*
D03*
D27*
X564600Y80000D02*
D03*
D28*
X590000D02*
D03*
X615400D02*
D03*
D33*
X325000Y750000D02*
D03*
X280000Y435000D02*
D03*
X140000D02*
D03*
D34*
X345000Y125000D02*
D03*
D35*
X395000D02*
D03*
D40*
X95000Y564500D02*
D03*
Y744500D02*
D03*
X200000Y564500D02*
D03*
D41*
X115000D02*
D03*
Y744500D02*
D03*
X220000Y564500D02*
D03*
D42*
X640000Y335000D02*
D03*
X500000D02*
D03*
X640000Y430500D02*
D03*
X500000Y430000D02*
D03*
X80000Y335000D02*
D03*
X200000D02*
D03*
D43*
X336900Y565100D02*
D03*
D44*
Y539700D02*
D03*
Y514300D02*
D03*
Y488900D02*
D03*
Y463500D02*
D03*
Y438100D02*
D03*
Y412700D02*
D03*
Y387300D02*
D03*
Y361900D02*
D03*
Y336500D02*
D03*
Y311100D02*
D03*
Y285700D02*
D03*
Y260300D02*
D03*
Y234900D02*
D03*
X413100Y565100D02*
D03*
Y539700D02*
D03*
Y514300D02*
D03*
Y488900D02*
D03*
Y463500D02*
D03*
Y438100D02*
D03*
Y412700D02*
D03*
Y387300D02*
D03*
Y361900D02*
D03*
Y336500D02*
D03*
Y311100D02*
D03*
Y285700D02*
D03*
Y260300D02*
D03*
Y234900D02*
D03*
D45*
X551900Y550000D02*
D03*
D46*
X577300D02*
D03*
X602700D02*
D03*
X628100D02*
D03*
M02*
