G04*
G04 #@! TF.GenerationSoftware,Altium Limited,Altium Designer,23.3.1 (30)*
G04*
G04 Layer_Color=2752767*
%FSLAX44Y44*%
%MOMM*%
G71*
G04*
G04 #@! TF.SameCoordinates,9B24EA63-C825-4E2D-BC30-5D40CB4EF2F0*
G04*
G04*
G04 #@! TF.FilePolarity,Positive*
G04*
G01*
G75*
%ADD51C,0.1270*%
%ADD52C,0.1693*%
D51*
X685000Y589920D02*
X687540Y592460D01*
X690080D01*
X687540Y595000D01*
X690080Y597540D01*
X687540D01*
X685000Y600080D01*
X682460Y597540D01*
X679920D01*
X682460Y595000D01*
X679920Y592460D01*
X682460D01*
X685000Y589920D01*
Y489920D02*
X687540Y492460D01*
X690080D01*
X687540Y495000D01*
X690080Y497540D01*
X687540D01*
X685000Y500080D01*
X682460Y497540D01*
X679920D01*
X682460Y495000D01*
X679920Y492460D01*
X682460D01*
X685000Y489920D01*
X394320Y654920D02*
X396860D01*
X399400Y657460D01*
X401940Y654920D01*
X404480D01*
Y657460D01*
X401940Y660000D01*
X404480Y662540D01*
Y665080D01*
X401940D01*
X399400Y662540D01*
X396860Y665080D01*
X394320D01*
Y662540D01*
X396860Y660000D01*
X394320Y657460D01*
Y654920D01*
X345520D02*
X348060D01*
X350600Y657460D01*
X353140Y654920D01*
X355680D01*
Y657460D01*
X353140Y660000D01*
X355680Y662540D01*
Y665080D01*
X353140D01*
X350600Y662540D01*
X348060Y665080D01*
X345520D01*
Y662540D01*
X348060Y660000D01*
X345520Y657460D01*
Y654920D01*
X95000Y559420D02*
X89920Y569580D01*
X100080D01*
X95000Y559420D01*
X115000D02*
X109920Y569580D01*
X120080D01*
X115000Y559420D01*
X640000Y329920D02*
X642540Y332460D01*
X645080D01*
X642540Y335000D01*
X645080Y337540D01*
X642540D01*
X640000Y340080D01*
X637460Y337540D01*
X634920D01*
X637460Y335000D01*
X634920Y332460D01*
X637460D01*
X640000Y329920D01*
X660000D02*
X662540Y332460D01*
X665080D01*
X662540Y335000D01*
X665080Y337540D01*
X662540D01*
X660000Y340080D01*
X657460Y337540D01*
X654920D01*
X657460Y335000D01*
X654920Y332460D01*
X657460D01*
X660000Y329920D01*
X680000D02*
X682540Y332460D01*
X685080D01*
X682540Y335000D01*
X685080Y337540D01*
X682540D01*
X680000Y340080D01*
X677460Y337540D01*
X674920D01*
X677460Y335000D01*
X674920Y332460D01*
X677460D01*
X680000Y329920D01*
X500000D02*
X502540Y332460D01*
X505080D01*
X502540Y335000D01*
X505080Y337540D01*
X502540D01*
X500000Y340080D01*
X497460Y337540D01*
X494920D01*
X497460Y335000D01*
X494920Y332460D01*
X497460D01*
X500000Y329920D01*
X520000D02*
X522540Y332460D01*
X525080D01*
X522540Y335000D01*
X525080Y337540D01*
X522540D01*
X520000Y340080D01*
X517460Y337540D01*
X514920D01*
X517460Y335000D01*
X514920Y332460D01*
X517460D01*
X520000Y329920D01*
X540000D02*
X542540Y332460D01*
X545080D01*
X542540Y335000D01*
X545080Y337540D01*
X542540D01*
X540000Y340080D01*
X537460Y337540D01*
X534920D01*
X537460Y335000D01*
X534920Y332460D01*
X537460D01*
X540000Y329920D01*
X640000Y425420D02*
X642540Y427960D01*
X645080D01*
X642540Y430500D01*
X645080Y433040D01*
X642540D01*
X640000Y435580D01*
X637460Y433040D01*
X634920D01*
X637460Y430500D01*
X634920Y427960D01*
X637460D01*
X640000Y425420D01*
X660000D02*
X662540Y427960D01*
X665080D01*
X662540Y430500D01*
X665080Y433040D01*
X662540D01*
X660000Y435580D01*
X657460Y433040D01*
X654920D01*
X657460Y430500D01*
X654920Y427960D01*
X657460D01*
X660000Y425420D01*
X680000D02*
X682540Y427960D01*
X685080D01*
X682540Y430500D01*
X685080Y433040D01*
X682540D01*
X680000Y435580D01*
X677460Y433040D01*
X674920D01*
X677460Y430500D01*
X674920Y427960D01*
X677460D01*
X680000Y425420D01*
X500000Y424920D02*
X502540Y427460D01*
X505080D01*
X502540Y430000D01*
X505080Y432540D01*
X502540D01*
X500000Y435080D01*
X497460Y432540D01*
X494920D01*
X497460Y430000D01*
X494920Y427460D01*
X497460D01*
X500000Y424920D01*
X520000D02*
X522540Y427460D01*
X525080D01*
X522540Y430000D01*
X525080Y432540D01*
X522540D01*
X520000Y435080D01*
X517460Y432540D01*
X514920D01*
X517460Y430000D01*
X514920Y427460D01*
X517460D01*
X520000Y424920D01*
X540000D02*
X542540Y427460D01*
X545080D01*
X542540Y430000D01*
X545080Y432540D01*
X542540D01*
X540000Y435080D01*
X537460Y432540D01*
X534920D01*
X537460Y430000D01*
X534920Y427460D01*
X537460D01*
X540000Y424920D01*
X559520Y80000D02*
X564600Y85080D01*
X569680Y80000D01*
X564600Y74920D01*
X559520Y80000D01*
X584920D02*
X590000Y85080D01*
X595080Y80000D01*
X590000Y74920D01*
X584920Y80000D01*
X610320D02*
X615400Y85080D01*
X620480Y80000D01*
X615400Y74920D01*
X610320Y80000D01*
X80000Y329920D02*
X82540Y332460D01*
X85080D01*
X82540Y335000D01*
X85080Y337540D01*
X82540D01*
X80000Y340080D01*
X77460Y337540D01*
X74920D01*
X77460Y335000D01*
X74920Y332460D01*
X77460D01*
X80000Y329920D01*
X100000D02*
X102540Y332460D01*
X105080D01*
X102540Y335000D01*
X105080Y337540D01*
X102540D01*
X100000Y340080D01*
X97460Y337540D01*
X94920D01*
X97460Y335000D01*
X94920Y332460D01*
X97460D01*
X100000Y329920D01*
X120000D02*
X122540Y332460D01*
X125080D01*
X122540Y335000D01*
X125080Y337540D01*
X122540D01*
X120000Y340080D01*
X117460Y337540D01*
X114920D01*
X117460Y335000D01*
X114920Y332460D01*
X117460D01*
X120000Y329920D01*
X200000D02*
X202540Y332460D01*
X205080D01*
X202540Y335000D01*
X205080Y337540D01*
X202540D01*
X200000Y340080D01*
X197460Y337540D01*
X194920D01*
X197460Y335000D01*
X194920Y332460D01*
X197460D01*
X200000Y329920D01*
X220000D02*
X222540Y332460D01*
X225080D01*
X222540Y335000D01*
X225080Y337540D01*
X222540D01*
X220000Y340080D01*
X217460Y337540D01*
X214920D01*
X217460Y335000D01*
X214920Y332460D01*
X217460D01*
X220000Y329920D01*
X240000D02*
X242540Y332460D01*
X245080D01*
X242540Y335000D01*
X245080Y337540D01*
X242540D01*
X240000Y340080D01*
X237460Y337540D01*
X234920D01*
X237460Y335000D01*
X234920Y332460D01*
X237460D01*
X240000Y329920D01*
X331820Y560020D02*
X334360Y565100D01*
X331820Y570180D01*
X336900Y567640D01*
X341980Y570180D01*
X339440Y565100D01*
X341980Y560020D01*
X336900Y562560D01*
X331820Y560020D01*
Y534620D02*
X334360Y539700D01*
X331820Y544780D01*
X336900Y542240D01*
X341980Y544780D01*
X339440Y539700D01*
X341980Y534620D01*
X336900Y537160D01*
X331820Y534620D01*
Y509220D02*
X334360Y514300D01*
X331820Y519380D01*
X336900Y516840D01*
X341980Y519380D01*
X339440Y514300D01*
X341980Y509220D01*
X336900Y511760D01*
X331820Y509220D01*
Y483820D02*
X334360Y488900D01*
X331820Y493980D01*
X336900Y491440D01*
X341980Y493980D01*
X339440Y488900D01*
X341980Y483820D01*
X336900Y486360D01*
X331820Y483820D01*
Y458420D02*
X334360Y463500D01*
X331820Y468580D01*
X336900Y466040D01*
X341980Y468580D01*
X339440Y463500D01*
X341980Y458420D01*
X336900Y460960D01*
X331820Y458420D01*
Y433020D02*
X334360Y438100D01*
X331820Y443180D01*
X336900Y440640D01*
X341980Y443180D01*
X339440Y438100D01*
X341980Y433020D01*
X336900Y435560D01*
X331820Y433020D01*
Y407620D02*
X334360Y412700D01*
X331820Y417780D01*
X336900Y415240D01*
X341980Y417780D01*
X339440Y412700D01*
X341980Y407620D01*
X336900Y410160D01*
X331820Y407620D01*
Y382220D02*
X334360Y387300D01*
X331820Y392380D01*
X336900Y389840D01*
X341980Y392380D01*
X339440Y387300D01*
X341980Y382220D01*
X336900Y384760D01*
X331820Y382220D01*
Y356820D02*
X334360Y361900D01*
X331820Y366980D01*
X336900Y364440D01*
X341980Y366980D01*
X339440Y361900D01*
X341980Y356820D01*
X336900Y359360D01*
X331820Y356820D01*
Y331420D02*
X334360Y336500D01*
X331820Y341580D01*
X336900Y339040D01*
X341980Y341580D01*
X339440Y336500D01*
X341980Y331420D01*
X336900Y333960D01*
X331820Y331420D01*
Y306020D02*
X334360Y311100D01*
X331820Y316180D01*
X336900Y313640D01*
X341980Y316180D01*
X339440Y311100D01*
X341980Y306020D01*
X336900Y308560D01*
X331820Y306020D01*
Y280620D02*
X334360Y285700D01*
X331820Y290780D01*
X336900Y288240D01*
X341980Y290780D01*
X339440Y285700D01*
X341980Y280620D01*
X336900Y283160D01*
X331820Y280620D01*
Y255220D02*
X334360Y260300D01*
X331820Y265380D01*
X336900Y262840D01*
X341980Y265380D01*
X339440Y260300D01*
X341980Y255220D01*
X336900Y257760D01*
X331820Y255220D01*
Y229820D02*
X334360Y234900D01*
X331820Y239980D01*
X336900Y237440D01*
X341980Y239980D01*
X339440Y234900D01*
X341980Y229820D01*
X336900Y232360D01*
X331820Y229820D01*
X408020Y560020D02*
X410560Y565100D01*
X408020Y570180D01*
X413100Y567640D01*
X418180Y570180D01*
X415640Y565100D01*
X418180Y560020D01*
X413100Y562560D01*
X408020Y560020D01*
Y534620D02*
X410560Y539700D01*
X408020Y544780D01*
X413100Y542240D01*
X418180Y544780D01*
X415640Y539700D01*
X418180Y534620D01*
X413100Y537160D01*
X408020Y534620D01*
Y509220D02*
X410560Y514300D01*
X408020Y519380D01*
X413100Y516840D01*
X418180Y519380D01*
X415640Y514300D01*
X418180Y509220D01*
X413100Y511760D01*
X408020Y509220D01*
Y483820D02*
X410560Y488900D01*
X408020Y493980D01*
X413100Y491440D01*
X418180Y493980D01*
X415640Y488900D01*
X418180Y483820D01*
X413100Y486360D01*
X408020Y483820D01*
Y458420D02*
X410560Y463500D01*
X408020Y468580D01*
X413100Y466040D01*
X418180Y468580D01*
X415640Y463500D01*
X418180Y458420D01*
X413100Y460960D01*
X408020Y458420D01*
Y433020D02*
X410560Y438100D01*
X408020Y443180D01*
X413100Y440640D01*
X418180Y443180D01*
X415640Y438100D01*
X418180Y433020D01*
X413100Y435560D01*
X408020Y433020D01*
Y407620D02*
X410560Y412700D01*
X408020Y417780D01*
X413100Y415240D01*
X418180Y417780D01*
X415640Y412700D01*
X418180Y407620D01*
X413100Y410160D01*
X408020Y407620D01*
Y382220D02*
X410560Y387300D01*
X408020Y392380D01*
X413100Y389840D01*
X418180Y392380D01*
X415640Y387300D01*
X418180Y382220D01*
X413100Y384760D01*
X408020Y382220D01*
Y356820D02*
X410560Y361900D01*
X408020Y366980D01*
X413100Y364440D01*
X418180Y366980D01*
X415640Y361900D01*
X418180Y356820D01*
X413100Y359360D01*
X408020Y356820D01*
Y331420D02*
X410560Y336500D01*
X408020Y341580D01*
X413100Y339040D01*
X418180Y341580D01*
X415640Y336500D01*
X418180Y331420D01*
X413100Y333960D01*
X408020Y331420D01*
Y306020D02*
X410560Y311100D01*
X408020Y316180D01*
X413100Y313640D01*
X418180Y316180D01*
X415640Y311100D01*
X418180Y306020D01*
X413100Y308560D01*
X408020Y306020D01*
Y280620D02*
X410560Y285700D01*
X408020Y290780D01*
X413100Y288240D01*
X418180Y290780D01*
X415640Y285700D01*
X418180Y280620D01*
X413100Y283160D01*
X408020Y280620D01*
Y255220D02*
X410560Y260300D01*
X408020Y265380D01*
X413100Y262840D01*
X418180Y265380D01*
X415640Y260300D01*
X418180Y255220D01*
X413100Y257760D01*
X408020Y255220D01*
Y229820D02*
X410560Y234900D01*
X408020Y239980D01*
X413100Y237440D01*
X418180Y239980D01*
X415640Y234900D01*
X418180Y229820D01*
X413100Y232360D01*
X408020Y229820D01*
X546820Y544920D02*
Y555080D01*
X556980D01*
Y544920D01*
X546820D01*
X572220D02*
Y555080D01*
X582380D01*
Y544920D01*
X572220D01*
X597620D02*
Y555080D01*
X607780D01*
Y544920D01*
X597620D01*
X623020D02*
Y555080D01*
X633180D01*
Y544920D01*
X623020D01*
X530000Y639920D02*
X532540Y642460D01*
X535080D01*
X532540Y645000D01*
X535080Y647540D01*
X532540D01*
X530000Y650080D01*
X527460Y647540D01*
X524920D01*
X527460Y645000D01*
X524920Y642460D01*
X527460D01*
X530000Y639920D01*
Y739920D02*
X532540Y742460D01*
X535080D01*
X532540Y745000D01*
X535080Y747540D01*
X532540D01*
X530000Y750080D01*
X527460Y747540D01*
X524920D01*
X527460Y745000D01*
X524920Y742460D01*
X527460D01*
X530000Y739920D01*
X220000Y639920D02*
X222540Y642460D01*
X225080D01*
X222540Y645000D01*
X225080Y647540D01*
X222540D01*
X220000Y650080D01*
X217460Y647540D01*
X214920D01*
X217460Y645000D01*
X214920Y642460D01*
X217460D01*
X220000Y639920D01*
Y739920D02*
X222540Y742460D01*
X225080D01*
X222540Y745000D01*
X225080Y747540D01*
X222540D01*
X220000Y750080D01*
X217460Y747540D01*
X214920D01*
X217460Y745000D01*
X214920Y742460D01*
X217460D01*
X220000Y739920D01*
X95000Y739420D02*
X89920Y749580D01*
X100080D01*
X95000Y739420D01*
X115000D02*
X109920Y749580D01*
X120080D01*
X115000Y739420D01*
X200000Y559420D02*
X194920Y569580D01*
X205080D01*
X200000Y559420D01*
X220000D02*
X214920Y569580D01*
X225080D01*
X220000Y559420D01*
X342460Y122460D02*
Y119920D01*
X347540D01*
Y122460D01*
X350080D01*
Y127540D01*
X347540D01*
Y130080D01*
X342460D01*
Y127540D01*
X339920D01*
Y122460D01*
X342460D01*
X392460D02*
Y119920D01*
X397540D01*
Y122460D01*
X400080D01*
Y127540D01*
X397540D01*
Y130080D01*
X392460D01*
Y127540D01*
X389920D01*
Y122460D01*
X392460D01*
X720000Y24920D02*
X714920Y35080D01*
X725080D01*
X720000Y24920D01*
Y26952D02*
X716952Y33048D01*
X723048D01*
X720000Y26952D01*
X30000Y24920D02*
X24920Y35080D01*
X35080D01*
X30000Y24920D01*
Y26952D02*
X26952Y33048D01*
X33048D01*
X30000Y26952D01*
X720000Y814920D02*
X714920Y825080D01*
X725080D01*
X720000Y814920D01*
Y816952D02*
X716952Y823048D01*
X723048D01*
X720000Y816952D01*
X30000Y814920D02*
X24920Y825080D01*
X35080D01*
X30000Y814920D01*
Y816952D02*
X26952Y823048D01*
X33048D01*
X30000Y816952D01*
X549920Y379920D02*
Y390080D01*
X560080D01*
Y379920D01*
X549920D01*
X551952Y381952D02*
Y388048D01*
X558048D01*
Y381952D01*
X551952D01*
X504920Y379920D02*
Y390080D01*
X515080D01*
Y379920D01*
X504920D01*
X506952Y381952D02*
Y388048D01*
X513048D01*
Y381952D01*
X506952D01*
X394920Y399920D02*
Y410080D01*
X405080D01*
Y399920D01*
X394920D01*
X396952Y401952D02*
Y408048D01*
X403048D01*
Y401952D01*
X396952D01*
X504920Y364920D02*
Y375080D01*
X515080D01*
Y364920D01*
X504920D01*
X506952Y366952D02*
Y373048D01*
X513048D01*
Y366952D01*
X506952D01*
X349920Y399920D02*
Y410080D01*
X360080D01*
Y399920D01*
X349920D01*
X351952Y401952D02*
Y408048D01*
X358048D01*
Y401952D01*
X351952D01*
X379920Y414920D02*
Y425080D01*
X390080D01*
Y414920D01*
X379920D01*
X381952Y416952D02*
Y423048D01*
X388048D01*
Y416952D01*
X381952D01*
X229920Y494920D02*
Y505080D01*
X240080D01*
Y494920D01*
X229920D01*
X231952Y496952D02*
Y503048D01*
X238048D01*
Y496952D01*
X231952D01*
X294920Y424920D02*
Y435080D01*
X305080D01*
Y424920D01*
X294920D01*
X296952Y426952D02*
Y433048D01*
X303048D01*
Y426952D01*
X296952D01*
X419920Y184920D02*
Y195080D01*
X430080D01*
Y184920D01*
X419920D01*
X421952Y186952D02*
Y193048D01*
X428048D01*
Y186952D01*
X421952D01*
X469920Y184920D02*
Y195080D01*
X480080D01*
Y184920D01*
X469920D01*
X471952Y186952D02*
Y193048D01*
X478048D01*
Y186952D01*
X471952D01*
X704920Y184920D02*
Y195080D01*
X715080D01*
Y184920D01*
X704920D01*
X706952Y186952D02*
Y193048D01*
X713048D01*
Y186952D01*
X706952D01*
D52*
X490080Y135000D02*
G03*
X490080Y135000I-5080J0D01*
G01*
Y235000D02*
G03*
X490080Y235000I-5080J0D01*
G01*
X560080Y135000D02*
G03*
X560080Y135000I-5080J0D01*
G01*
Y235000D02*
G03*
X560080Y235000I-5080J0D01*
G01*
X630080Y135000D02*
G03*
X630080Y135000I-5080J0D01*
G01*
Y235000D02*
G03*
X630080Y235000I-5080J0D01*
G01*
X700080Y135000D02*
G03*
X700080Y135000I-5080J0D01*
G01*
Y235000D02*
G03*
X700080Y235000I-5080J0D01*
G01*
X255080Y135000D02*
G03*
X255080Y135000I-5080J0D01*
G01*
Y235000D02*
G03*
X255080Y235000I-5080J0D01*
G01*
X195080Y135000D02*
G03*
X195080Y135000I-5080J0D01*
G01*
Y235000D02*
G03*
X195080Y235000I-5080J0D01*
G01*
X135080Y135000D02*
G03*
X135080Y135000I-5080J0D01*
G01*
Y235000D02*
G03*
X135080Y235000I-5080J0D01*
G01*
X75080Y135000D02*
G03*
X75080Y135000I-5080J0D01*
G01*
Y235000D02*
G03*
X75080Y235000I-5080J0D01*
G01*
X330080Y750000D02*
G03*
X330080Y750000I-5080J0D01*
G01*
X430080D02*
G03*
X430080Y750000I-5080J0D01*
G01*
X285080Y435000D02*
G03*
X285080Y435000I-5080J0D01*
G01*
X185080D02*
G03*
X185080Y435000I-5080J0D01*
G01*
X145080D02*
G03*
X145080Y435000I-5080J0D01*
G01*
X45080D02*
G03*
X45080Y435000I-5080J0D01*
G01*
M02*
