G04*
G04 #@! TF.GenerationSoftware,Altium Limited,Altium Designer,23.3.1 (30)*
G04*
G04 Layer_Color=32768*
%FSLAX44Y44*%
%MOMM*%
G71*
G04*
G04 #@! TF.SameCoordinates,9B24EA63-C825-4E2D-BC30-5D40CB4EF2F0*
G04*
G04*
G04 #@! TF.FilePolarity,Positive*
G04*
G01*
G75*
%ADD10C,0.2000*%
%ADD49C,0.1000*%
%ADD50C,0.0500*%
D10*
X443500Y125000D02*
G03*
X296500Y125000I-73500J0D01*
G01*
D02*
G03*
X443500Y125000I73500J0D01*
G01*
X659000Y484000D02*
X711000D01*
Y606000D01*
X659000D02*
X711000D01*
X659000Y484000D02*
Y606000D01*
X316500Y634000D02*
Y686000D01*
Y634000D02*
X433500D01*
Y686000D01*
X316500D02*
X433500D01*
X471000Y127750D02*
Y242250D01*
X499000D01*
Y127750D02*
Y242250D01*
X471000Y127750D02*
X499000D01*
X541000D02*
Y242250D01*
X569000D01*
Y127750D02*
Y242250D01*
X541000Y127750D02*
X569000D01*
X611000D02*
Y242250D01*
X639000D01*
Y127750D02*
Y242250D01*
X611000Y127750D02*
X639000D01*
X681000D02*
Y242250D01*
X709000D01*
Y127750D02*
Y242250D01*
X681000Y127750D02*
X709000D01*
X552297Y93700D02*
X627703D01*
Y66300D02*
Y93700D01*
X552297Y66300D02*
X627703D01*
X552297D02*
Y93700D01*
X236000Y127750D02*
Y242250D01*
X264000D01*
Y127750D02*
Y242250D01*
X236000Y127750D02*
X264000D01*
X176000D02*
Y242250D01*
X204000D01*
Y127750D02*
Y242250D01*
X176000Y127750D02*
X204000D01*
X116000D02*
Y242250D01*
X144000D01*
Y127750D02*
Y242250D01*
X116000Y127750D02*
X144000D01*
X56000D02*
Y242250D01*
X84000D01*
Y127750D02*
Y242250D01*
X56000Y127750D02*
X84000D01*
X504000Y634000D02*
Y756000D01*
X556000D01*
Y634000D02*
Y756000D01*
X504000Y634000D02*
X556000D01*
X317750Y764000D02*
X432250D01*
Y736000D02*
Y764000D01*
X317750Y736000D02*
X432250D01*
X317750D02*
Y764000D01*
X194000Y634000D02*
Y756000D01*
X246000D01*
Y634000D02*
Y756000D01*
X194000Y634000D02*
X246000D01*
X172750Y421000D02*
X287250D01*
X172750D02*
Y449000D01*
X287250D01*
Y421000D02*
Y449000D01*
X32750Y421000D02*
X147250D01*
X32750D02*
Y449000D01*
X147250D01*
Y421000D02*
Y449000D01*
D49*
X100000Y540000D02*
X110000D01*
X105000Y535000D02*
Y545000D01*
X655000Y329500D02*
X665000D01*
X660000Y324500D02*
Y334500D01*
X515000Y329500D02*
X525000D01*
X520000Y324500D02*
Y334500D01*
X655000Y425000D02*
X665000D01*
X660000Y420000D02*
Y430000D01*
X515000Y424500D02*
X525000D01*
X520000Y419500D02*
Y429500D01*
X95000Y329500D02*
X105000D01*
X100000Y324500D02*
Y334500D01*
X215000Y329500D02*
X225000D01*
X220000Y324500D02*
Y334500D01*
X370000Y400000D02*
X380000D01*
X375000Y395000D02*
Y405000D01*
X585000Y550000D02*
X595000D01*
X590000Y545000D02*
Y555000D01*
X100000Y720000D02*
X110000D01*
X105000Y715000D02*
Y725000D01*
X205000Y540000D02*
X215000D01*
X210000Y535000D02*
Y545000D01*
D50*
X74500Y501000D02*
Y579000D01*
Y501000D02*
X135500D01*
Y579000D01*
X74500D02*
X135500D01*
X619500Y353000D02*
X700500D01*
Y306000D02*
Y353000D01*
X619500Y306000D02*
X700500D01*
X619500D02*
Y353000D01*
X479500D02*
X560500D01*
Y306000D02*
Y353000D01*
X479500Y306000D02*
X560500D01*
X479500D02*
Y353000D01*
X619500Y448500D02*
X700500D01*
Y401500D02*
Y448500D01*
X619500Y401500D02*
X700500D01*
X619500D02*
Y448500D01*
X479500Y448000D02*
X560500D01*
Y401000D02*
Y448000D01*
X479500Y401000D02*
X560500D01*
X479500D02*
Y448000D01*
X59500Y353000D02*
X140500D01*
Y306000D02*
Y353000D01*
X59500Y306000D02*
X140500D01*
X59500D02*
Y353000D01*
X179500D02*
X260500D01*
Y306000D02*
Y353000D01*
X179500Y306000D02*
X260500D01*
X179500D02*
Y353000D01*
X641800Y517200D02*
Y576400D01*
X538200D02*
X641800D01*
X538200Y517200D02*
Y576400D01*
Y517200D02*
X641800D01*
X74500Y681000D02*
Y759000D01*
Y681000D02*
X135500D01*
Y759000D01*
X74500D02*
X135500D01*
X179500Y501000D02*
Y579000D01*
Y501000D02*
X240500D01*
Y579000D01*
X179500D02*
X240500D01*
M02*
